%TF.GenerationSoftware,KiCad,Pcbnew,(6.0.6)*%
%TF.CreationDate,2022-07-11T13:14:15+02:00*%
%TF.ProjectId,ESP32_DevKit_C_v4-AZDelivery_Breadboard_Adapter,45535033-325f-4446-9576-4b69745f435f,2*%
%TF.SameCoordinates,Original*%
%TF.FileFunction,Copper,L4,Bot*%
%TF.FilePolarity,Positive*%
%FSLAX46Y46*%
G04 Gerber Fmt 4.6, Leading zero omitted, Abs format (unit mm)*
G04 Created by KiCad (PCBNEW (6.0.6)) date 2022-07-11 13:14:15*
%MOMM*%
%LPD*%
G01*
G04 APERTURE LIST*
%TA.AperFunction,ComponentPad*%
%ADD10R,1.800000X1.800000*%
%TD*%
%TA.AperFunction,ComponentPad*%
%ADD11C,1.800000*%
%TD*%
%TA.AperFunction,ComponentPad*%
%ADD12C,1.700000*%
%TD*%
%TA.AperFunction,ComponentPad*%
%ADD13O,1.700000X1.700000*%
%TD*%
%TA.AperFunction,ComponentPad*%
%ADD14C,1.600000*%
%TD*%
%TA.AperFunction,ComponentPad*%
%ADD15O,1.600000X1.600000*%
%TD*%
%TA.AperFunction,ViaPad*%
%ADD16C,0.800000*%
%TD*%
%TA.AperFunction,Conductor*%
%ADD17C,0.250000*%
%TD*%
G04 APERTURE END LIST*
D10*
%TO.P,D1,1,K*%
%TO.N,GND*%
X159320000Y-116850000D03*
D11*
%TO.P,D1,2,A*%
%TO.N,Net-(D1-Pad2)*%
X156780000Y-116850000D03*
%TD*%
D12*
%TO.P,J5,1,Pin_1*%
%TO.N,GND*%
X171960000Y-91450000D03*
D13*
%TO.P,J5,2,Pin_2*%
%TO.N,+5V*%
X174500000Y-91450000D03*
%TO.P,J5,3,Pin_3*%
%TO.N,GPIO22*%
X177040000Y-91450000D03*
%TO.P,J5,4,Pin_4*%
%TO.N,GPIO21*%
X179580000Y-91450000D03*
%TD*%
D14*
%TO.P,R1,1*%
%TO.N,GPIO2*%
X116070000Y-109350000D03*
D15*
%TO.P,R1,2*%
%TO.N,Net-(D1-Pad2)*%
X123690000Y-109350000D03*
%TD*%
D12*
%TO.P,J1,1,Pin_1*%
%TO.N,+3.3V*%
X151620000Y-91450000D03*
D13*
%TO.P,J1,2,Pin_2*%
%TO.N,RESET*%
X149080000Y-91450000D03*
%TO.P,J1,3,Pin_3*%
%TO.N,GPIO36*%
X146540000Y-91450000D03*
%TO.P,J1,4,Pin_4*%
%TO.N,GPIO39*%
X144000000Y-91450000D03*
%TO.P,J1,5,Pin_5*%
%TO.N,GPIO34*%
X141460000Y-91450000D03*
%TO.P,J1,6,Pin_6*%
%TO.N,GPIO35*%
X138920000Y-91450000D03*
%TO.P,J1,7,Pin_7*%
%TO.N,GPIO32*%
X136380000Y-91450000D03*
%TO.P,J1,8,Pin_8*%
%TO.N,GPIO33*%
X133840000Y-91450000D03*
%TO.P,J1,9,Pin_9*%
%TO.N,GPIO25*%
X131300000Y-91450000D03*
%TO.P,J1,10,Pin_10*%
%TO.N,GPIO26*%
X128760000Y-91450000D03*
%TO.P,J1,11,Pin_11*%
%TO.N,GPIO27*%
X126220000Y-91450000D03*
%TO.P,J1,12,Pin_12*%
%TO.N,GPIO14*%
X123680000Y-91450000D03*
%TO.P,J1,13,Pin_13*%
%TO.N,GPIO12*%
X121140000Y-91450000D03*
%TO.P,J1,14,Pin_14*%
%TO.N,GND*%
X118600000Y-91450000D03*
%TO.P,J1,15,Pin_15*%
%TO.N,GPIO13*%
X116060000Y-91450000D03*
%TO.P,J1,16,Pin_16*%
%TO.N,GPIO9*%
X113520000Y-91450000D03*
%TO.P,J1,17,Pin_17*%
%TO.N,GPIO10*%
X110980000Y-91450000D03*
%TO.P,J1,18,Pin_18*%
%TO.N,GPIO11*%
X108440000Y-91450000D03*
%TO.P,J1,19,Pin_19*%
%TO.N,+5V*%
X105900000Y-91450000D03*
%TD*%
D12*
%TO.P,J2,1,Pin_1*%
%TO.N,GND*%
X151620000Y-116450000D03*
D13*
%TO.P,J2,2,Pin_2*%
%TO.N,GPIO23*%
X149080000Y-116450000D03*
%TO.P,J2,3,Pin_3*%
%TO.N,GPIO22*%
X146540000Y-116450000D03*
%TO.P,J2,4,Pin_4*%
%TO.N,GPIO1*%
X144000000Y-116450000D03*
%TO.P,J2,5,Pin_5*%
%TO.N,GPIO3*%
X141460000Y-116450000D03*
%TO.P,J2,6,Pin_6*%
%TO.N,GPIO21*%
X138920000Y-116450000D03*
%TO.P,J2,7,Pin_7*%
%TO.N,GND*%
X136380000Y-116450000D03*
%TO.P,J2,8,Pin_8*%
%TO.N,GPIO19*%
X133840000Y-116450000D03*
%TO.P,J2,9,Pin_9*%
%TO.N,GPIO18*%
X131300000Y-116450000D03*
%TO.P,J2,10,Pin_10*%
%TO.N,GPIO5*%
X128760000Y-116450000D03*
%TO.P,J2,11,Pin_11*%
%TO.N,GPIO17*%
X126220000Y-116450000D03*
%TO.P,J2,12,Pin_12*%
%TO.N,GPIO16*%
X123680000Y-116450000D03*
%TO.P,J2,13,Pin_13*%
%TO.N,GPIO4*%
X121140000Y-116450000D03*
%TO.P,J2,14,Pin_14*%
%TO.N,GPIO0*%
X118600000Y-116450000D03*
%TO.P,J2,15,Pin_15*%
%TO.N,GPIO2*%
X116060000Y-116450000D03*
%TO.P,J2,16,Pin_16*%
%TO.N,GPIO15*%
X113520000Y-116450000D03*
%TO.P,J2,17,Pin_17*%
%TO.N,GPIO8*%
X110980000Y-116450000D03*
%TO.P,J2,18,Pin_18*%
%TO.N,GPIO7*%
X108440000Y-116450000D03*
%TO.P,J2,19,Pin_19*%
%TO.N,GPIO6*%
X105900000Y-116450000D03*
%TD*%
D12*
%TO.P,J4,1,Pin_1*%
%TO.N,GND*%
X235460000Y-107780000D03*
D13*
%TO.P,J4,2,Pin_2*%
%TO.N,GPIO23*%
X232920000Y-107780000D03*
%TO.P,J4,3,Pin_3*%
%TO.N,GPIO22*%
X230380000Y-107780000D03*
%TO.P,J4,4,Pin_4*%
%TO.N,GPIO1*%
X227840000Y-107780000D03*
%TO.P,J4,5,Pin_5*%
%TO.N,GPIO3*%
X225300000Y-107780000D03*
%TO.P,J4,6,Pin_6*%
%TO.N,GPIO21*%
X222760000Y-107780000D03*
%TO.P,J4,7,Pin_7*%
%TO.N,GPIO19*%
X220220000Y-107780000D03*
%TO.P,J4,8,Pin_8*%
%TO.N,GPIO18*%
X217680000Y-107780000D03*
%TO.P,J4,9,Pin_9*%
%TO.N,GPIO5*%
X215140000Y-107780000D03*
%TO.P,J4,10,Pin_10*%
%TO.N,GPIO17*%
X212600000Y-107780000D03*
%TO.P,J4,11,Pin_11*%
%TO.N,GPIO16*%
X210060000Y-107780000D03*
%TO.P,J4,12,Pin_12*%
%TO.N,GPIO4*%
X207520000Y-107780000D03*
%TO.P,J4,13,Pin_13*%
%TO.N,GPIO0*%
X204980000Y-107780000D03*
%TO.P,J4,14,Pin_14*%
%TO.N,GPIO2*%
X202440000Y-107780000D03*
%TO.P,J4,15,Pin_15*%
%TO.N,GPIO15*%
X199900000Y-107780000D03*
%TO.P,J4,16,Pin_16*%
%TO.N,GPIO8*%
X197360000Y-107780000D03*
%TO.P,J4,17,Pin_17*%
%TO.N,GPIO7*%
X194820000Y-107780000D03*
%TO.P,J4,18,Pin_18*%
%TO.N,GPIO6*%
X192280000Y-107780000D03*
%TD*%
D12*
%TO.P,J3,1,Pin_1*%
%TO.N,+3.3V*%
X235460000Y-100160000D03*
D13*
%TO.P,J3,2,Pin_2*%
%TO.N,RESET*%
X232920000Y-100160000D03*
%TO.P,J3,3,Pin_3*%
%TO.N,GPIO36*%
X230380000Y-100160000D03*
%TO.P,J3,4,Pin_4*%
%TO.N,GPIO39*%
X227840000Y-100160000D03*
%TO.P,J3,5,Pin_5*%
%TO.N,GPIO34*%
X225300000Y-100160000D03*
%TO.P,J3,6,Pin_6*%
%TO.N,GPIO35*%
X222760000Y-100160000D03*
%TO.P,J3,7,Pin_7*%
%TO.N,GPIO32*%
X220220000Y-100160000D03*
%TO.P,J3,8,Pin_8*%
%TO.N,GPIO33*%
X217680000Y-100160000D03*
%TO.P,J3,9,Pin_9*%
%TO.N,GPIO25*%
X215140000Y-100160000D03*
%TO.P,J3,10,Pin_10*%
%TO.N,GPIO26*%
X212600000Y-100160000D03*
%TO.P,J3,11,Pin_11*%
%TO.N,GPIO27*%
X210060000Y-100160000D03*
%TO.P,J3,12,Pin_12*%
%TO.N,GPIO14*%
X207520000Y-100160000D03*
%TO.P,J3,13,Pin_13*%
%TO.N,GPIO12*%
X204980000Y-100160000D03*
%TO.P,J3,14,Pin_14*%
%TO.N,GPIO13*%
X202440000Y-100160000D03*
%TO.P,J3,15,Pin_15*%
%TO.N,GPIO9*%
X199900000Y-100160000D03*
%TO.P,J3,16,Pin_16*%
%TO.N,GPIO10*%
X197360000Y-100160000D03*
%TO.P,J3,17,Pin_17*%
%TO.N,GPIO11*%
X194820000Y-100160000D03*
%TO.P,J3,18,Pin_18*%
%TO.N,+5V*%
X192280000Y-100160000D03*
%TD*%
D16*
%TO.N,GPIO2*%
X136432299Y-101762299D03*
%TO.N,RESET*%
X157182702Y-93487297D03*
%TO.N,GPIO36*%
X158319386Y-93599382D03*
%TO.N,GPIO39*%
X159632300Y-93837700D03*
%TO.N,GPIO34*%
X160994600Y-94175400D03*
%TO.N,GPIO35*%
X162116049Y-94272249D03*
%TO.N,GPIO32*%
X163234499Y-94366099D03*
%TO.N,GPIO33*%
X164337398Y-94425500D03*
%TO.N,GPIO25*%
X169254194Y-98317698D03*
%TO.N,GPIO26*%
X170515548Y-98554452D03*
%TO.N,GPIO27*%
X171827847Y-98842153D03*
%TO.N,GPIO14*%
X173190147Y-99179853D03*
%TO.N,GPIO12*%
X114221305Y-106151305D03*
%TO.N,GPIO13*%
X113620000Y-104350000D03*
%TO.N,GPIO9*%
X113457701Y-102912299D03*
%TO.N,GPIO23*%
X152344500Y-114650000D03*
%TO.N,GPIO22*%
X153069000Y-113250000D03*
X177020000Y-99435500D03*
%TO.N,GPIO1*%
X153793500Y-111350000D03*
%TO.N,GPIO3*%
X154518000Y-109250000D03*
%TO.N,GPIO21*%
X154968000Y-106750000D03*
X178920000Y-98450000D03*
%TO.N,GPIO19*%
X155572684Y-105721915D03*
%TO.N,GPIO18*%
X157244599Y-105074600D03*
%TO.N,GPIO5*%
X159820000Y-105224500D03*
%TO.N,GPIO17*%
X162620000Y-105674500D03*
%TO.N,GPIO16*%
X164920000Y-106124500D03*
%TO.N,GPIO4*%
X167991014Y-106574500D03*
%TO.N,GPIO15*%
X138044599Y-101174599D03*
%TO.N,GPIO8*%
X139656899Y-100586899D03*
%TO.N,GPIO7*%
X141419199Y-99849199D03*
%TO.N,GPIO6*%
X143231499Y-99061499D03*
%TD*%
D17*
%TO.N,+3.3V*%
X233920000Y-106550000D02*
X229420000Y-106550000D01*
X154120805Y-91450000D02*
X169220805Y-106550000D01*
X229420000Y-106550000D02*
X190120000Y-106550000D01*
X235460000Y-105010000D02*
X235320000Y-105150000D01*
X190120000Y-106550000D02*
X182820000Y-106550000D01*
X151620000Y-91450000D02*
X154120805Y-91450000D01*
X169220805Y-106550000D02*
X182820000Y-106550000D01*
X235460000Y-100160000D02*
X235460000Y-105010000D01*
X235320000Y-105150000D02*
X233920000Y-106550000D01*
%TO.N,RESET*%
X232920000Y-100160000D02*
X232920000Y-105050000D01*
X169813100Y-106100000D02*
X164338600Y-100625500D01*
X190870000Y-106100000D02*
X190120000Y-106100000D01*
X232920000Y-105050000D02*
X232020000Y-105950000D01*
X164338600Y-100625500D02*
X164320905Y-100625500D01*
X164320905Y-100625500D02*
X157182702Y-93487297D01*
X190120000Y-106100000D02*
X169813100Y-106100000D01*
X231870000Y-106100000D02*
X190870000Y-106100000D01*
X232020000Y-105950000D02*
X231870000Y-106100000D01*
%TO.N,GPIO36*%
X170420000Y-105650000D02*
X164370000Y-99600000D01*
X230380000Y-100160000D02*
X230380000Y-104890000D01*
X158369382Y-93599382D02*
X158319386Y-93599382D01*
X190120000Y-105650000D02*
X170420000Y-105650000D01*
X229620000Y-105650000D02*
X190120000Y-105650000D01*
X230380000Y-104890000D02*
X229620000Y-105650000D01*
X164370000Y-99600000D02*
X158369382Y-93599382D01*
%TO.N,GPIO39*%
X227840000Y-104680000D02*
X227320000Y-105200000D01*
X227840000Y-100160000D02*
X227840000Y-104680000D01*
X227320000Y-105200000D02*
X190120000Y-105200000D01*
X190120000Y-105200000D02*
X170994600Y-105200000D01*
X170994600Y-105200000D02*
X159632300Y-93837700D01*
%TO.N,GPIO34*%
X225300000Y-104170000D02*
X224720000Y-104750000D01*
X224720000Y-104750000D02*
X190120000Y-104750000D01*
X225300000Y-100160000D02*
X225300000Y-104170000D01*
X171569200Y-104750000D02*
X160994600Y-94175400D01*
X190120000Y-104750000D02*
X171569200Y-104750000D01*
%TO.N,GPIO35*%
X190470000Y-104300000D02*
X190120000Y-104300000D01*
X222760000Y-100160000D02*
X222760000Y-103660000D01*
X222120000Y-104300000D02*
X190470000Y-104300000D01*
X172143800Y-104300000D02*
X162116049Y-94272249D01*
X190120000Y-104300000D02*
X172143800Y-104300000D01*
X222760000Y-103660000D02*
X222120000Y-104300000D01*
%TO.N,GPIO32*%
X220220000Y-103450000D02*
X219820000Y-103850000D01*
X220220000Y-100160000D02*
X220220000Y-103450000D01*
X219820000Y-103850000D02*
X190120000Y-103850000D01*
X190120000Y-103850000D02*
X172718400Y-103850000D01*
X172718400Y-103850000D02*
X163234499Y-94366099D01*
%TO.N,GPIO33*%
X217680000Y-100160000D02*
X217680000Y-103240000D01*
X173311898Y-103400000D02*
X164337398Y-94425500D01*
X217680000Y-103240000D02*
X217520000Y-103400000D01*
X217520000Y-103400000D02*
X190120000Y-103400000D01*
X190120000Y-103400000D02*
X173311898Y-103400000D01*
%TO.N,GPIO25*%
X215140000Y-102630000D02*
X214820000Y-102950000D01*
X214820000Y-102950000D02*
X190120000Y-102950000D01*
X173886496Y-102950000D02*
X169254194Y-98317698D01*
X190120000Y-102950000D02*
X173886496Y-102950000D01*
X215140000Y-100160000D02*
X215140000Y-102630000D01*
%TO.N,GPIO26*%
X212420000Y-102500000D02*
X190120000Y-102500000D01*
X212600000Y-102320000D02*
X212420000Y-102500000D01*
X174461096Y-102500000D02*
X170515548Y-98554452D01*
X212600000Y-100160000D02*
X212600000Y-102320000D01*
X190120000Y-102500000D02*
X174461096Y-102500000D01*
%TO.N,GPIO27*%
X175035694Y-102050000D02*
X171827847Y-98842153D01*
X210060000Y-101710000D02*
X209720000Y-102050000D01*
X209720000Y-102050000D02*
X209320000Y-102050000D01*
X209320000Y-102050000D02*
X190120000Y-102050000D01*
X210060000Y-100160000D02*
X210060000Y-101710000D01*
X190120000Y-102050000D02*
X175035694Y-102050000D01*
%TO.N,GPIO14*%
X175610294Y-101600000D02*
X173190147Y-99179853D01*
X207520000Y-101362081D02*
X207282081Y-101600000D01*
X207520000Y-100160000D02*
X207520000Y-101362081D01*
X190120000Y-101600000D02*
X175610294Y-101600000D01*
X207282081Y-101600000D02*
X206520000Y-101600000D01*
X206520000Y-101600000D02*
X190120000Y-101600000D01*
%TO.N,GPIO12*%
X114221305Y-106151305D02*
X121140000Y-99232610D01*
X121140000Y-99232610D02*
X121140000Y-91450000D01*
%TO.N,+5V*%
X192280000Y-100160000D02*
X176330000Y-100160000D01*
X176330000Y-100160000D02*
X174500000Y-98330000D01*
X174500000Y-98330000D02*
X174500000Y-91450000D01*
%TO.N,Net-(D1-Pad2)*%
X156780000Y-112537305D02*
X156780000Y-116850000D01*
X153793000Y-109550305D02*
X156780000Y-112537305D01*
X153620000Y-109350000D02*
X153793000Y-109523000D01*
X153793000Y-109523000D02*
X153793000Y-109550305D01*
X123690000Y-109350000D02*
X153620000Y-109350000D01*
%TD*%
M02*
