%TF.GenerationSoftware,KiCad,Pcbnew,(6.0.6)*%
%TF.CreationDate,2022-07-11T04:45:58+02:00*%
%TF.ProjectId,ESP32_DevKit_C_v4-AZDelivery_Breadboard_Adapter,45535033-325f-4446-9576-4b69745f435f,rev?*%
%TF.SameCoordinates,Original*%
%TF.FileFunction,Legend,Top*%
%TF.FilePolarity,Positive*%
%FSLAX46Y46*%
G04 Gerber Fmt 4.6, Leading zero omitted, Abs format (unit mm)*
G04 Created by KiCad (PCBNEW (6.0.6)) date 2022-07-11 04:45:58*
%MOMM*%
%LPD*%
G01*
G04 APERTURE LIST*
%ADD10C,0.150000*%
%ADD11C,0.120000*%
G04 APERTURE END LIST*
D10*
X131129047Y-80271428D02*
X131890952Y-80271428D01*
X124809047Y-80291428D02*
X125570952Y-80291428D01*
X125190000Y-80672380D02*
X125190000Y-79910476D01*
X140900000Y-60960000D02*
X151180000Y-60960000D01*
X151180000Y-60960000D02*
X151180000Y-56260000D01*
X206800000Y-67300000D02*
X161200000Y-67300000D01*
X143600000Y-56320000D02*
X143600000Y-60960000D01*
X99040000Y-78290000D02*
X100040000Y-77290000D01*
X99035400Y-56290000D02*
X100035400Y-57290000D01*
X148570000Y-56330000D02*
X148570000Y-60930000D01*
X99035400Y-57290000D02*
X99040000Y-77290000D01*
X98035400Y-57290000D02*
X100035400Y-57290000D01*
X140930000Y-56280000D02*
X140930000Y-60950000D01*
X100040000Y-77290000D02*
X98040000Y-77290000D01*
X151180000Y-56260000D02*
X140930000Y-56260000D01*
X79680000Y-63290000D02*
X74680000Y-63290000D01*
X74680000Y-63290000D02*
X74680000Y-71290000D01*
X74680000Y-71290000D02*
X79680000Y-71290000D01*
X79680000Y-71290000D02*
X79680000Y-63290000D01*
X99035400Y-56290000D02*
X98035400Y-57290000D01*
X146170000Y-56330000D02*
X146170000Y-60955000D01*
X133040000Y-53140000D02*
X158810000Y-53140000D01*
X158810000Y-53140000D02*
X158810000Y-80190000D01*
X158810000Y-80190000D02*
X133040000Y-80190000D01*
X133040000Y-80190000D02*
X133040000Y-53140000D01*
X99040000Y-78290000D02*
X98040000Y-77290000D01*
X206040000Y-68376857D02*
X206068571Y-68319714D01*
X206068571Y-68234000D01*
X206040000Y-68148285D01*
X205982857Y-68091142D01*
X205925714Y-68062571D01*
X205811428Y-68034000D01*
X205725714Y-68034000D01*
X205611428Y-68062571D01*
X205554285Y-68091142D01*
X205497142Y-68148285D01*
X205468571Y-68234000D01*
X205468571Y-68291142D01*
X205497142Y-68376857D01*
X205525714Y-68405428D01*
X205725714Y-68405428D01*
X205725714Y-68291142D01*
X205468571Y-68662571D02*
X206068571Y-68662571D01*
X205468571Y-69005428D01*
X206068571Y-69005428D01*
X205468571Y-69291142D02*
X206068571Y-69291142D01*
X206068571Y-69434000D01*
X206040000Y-69519714D01*
X205982857Y-69576857D01*
X205925714Y-69605428D01*
X205811428Y-69634000D01*
X205725714Y-69634000D01*
X205611428Y-69605428D01*
X205554285Y-69576857D01*
X205497142Y-69519714D01*
X205468571Y-69434000D01*
X205468571Y-69291142D01*
X169908571Y-68719714D02*
X169908571Y-68376857D01*
X169908571Y-68548285D02*
X170508571Y-68548285D01*
X170422857Y-68491142D01*
X170365714Y-68434000D01*
X170337142Y-68376857D01*
X170508571Y-69262571D02*
X170508571Y-68976857D01*
X170222857Y-68948285D01*
X170251428Y-68976857D01*
X170280000Y-69034000D01*
X170280000Y-69176857D01*
X170251428Y-69234000D01*
X170222857Y-69262571D01*
X170165714Y-69291142D01*
X170022857Y-69291142D01*
X169965714Y-69262571D01*
X169937142Y-69234000D01*
X169908571Y-69176857D01*
X169908571Y-69034000D01*
X169937142Y-68976857D01*
X169965714Y-68948285D01*
X144718571Y-57094285D02*
X144718571Y-57856190D01*
X144337619Y-57475238D02*
X145099523Y-57475238D01*
X145337619Y-58808571D02*
X145337619Y-58332380D01*
X144861428Y-58284761D01*
X144909047Y-58332380D01*
X144956666Y-58427619D01*
X144956666Y-58665714D01*
X144909047Y-58760952D01*
X144861428Y-58808571D01*
X144766190Y-58856190D01*
X144528095Y-58856190D01*
X144432857Y-58808571D01*
X144385238Y-58760952D01*
X144337619Y-58665714D01*
X144337619Y-58427619D01*
X144385238Y-58332380D01*
X144432857Y-58284761D01*
X145337619Y-59141904D02*
X144337619Y-59475238D01*
X145337619Y-59808571D01*
X177528571Y-65671714D02*
X177528571Y-65328857D01*
X177528571Y-65500285D02*
X178128571Y-65500285D01*
X178042857Y-65443142D01*
X177985714Y-65386000D01*
X177957142Y-65328857D01*
X177928571Y-66186000D02*
X177528571Y-66186000D01*
X178157142Y-66043142D02*
X177728571Y-65900285D01*
X177728571Y-66271714D01*
X107160000Y-75364095D02*
X107207619Y-75268857D01*
X107207619Y-75126000D01*
X107160000Y-74983142D01*
X107064761Y-74887904D01*
X106969523Y-74840285D01*
X106779047Y-74792666D01*
X106636190Y-74792666D01*
X106445714Y-74840285D01*
X106350476Y-74887904D01*
X106255238Y-74983142D01*
X106207619Y-75126000D01*
X106207619Y-75221238D01*
X106255238Y-75364095D01*
X106302857Y-75411714D01*
X106636190Y-75411714D01*
X106636190Y-75221238D01*
X106207619Y-75840285D02*
X107207619Y-75840285D01*
X106207619Y-76411714D01*
X107207619Y-76411714D01*
X106207619Y-76887904D02*
X107207619Y-76887904D01*
X107207619Y-77126000D01*
X107160000Y-77268857D01*
X107064761Y-77364095D01*
X106969523Y-77411714D01*
X106779047Y-77459333D01*
X106636190Y-77459333D01*
X106445714Y-77411714D01*
X106350476Y-77364095D01*
X106255238Y-77268857D01*
X106207619Y-77126000D01*
X106207619Y-76887904D01*
X193311428Y-68376857D02*
X193340000Y-68405428D01*
X193368571Y-68462571D01*
X193368571Y-68605428D01*
X193340000Y-68662571D01*
X193311428Y-68691142D01*
X193254285Y-68719714D01*
X193197142Y-68719714D01*
X193111428Y-68691142D01*
X192768571Y-68348285D01*
X192768571Y-68719714D01*
X192768571Y-69291142D02*
X192768571Y-68948285D01*
X192768571Y-69119714D02*
X193368571Y-69119714D01*
X193282857Y-69062571D01*
X193225714Y-69005428D01*
X193197142Y-68948285D01*
X185748571Y-69230857D02*
X185748571Y-68945142D01*
X185462857Y-68916571D01*
X185491428Y-68945142D01*
X185520000Y-69002285D01*
X185520000Y-69145142D01*
X185491428Y-69202285D01*
X185462857Y-69230857D01*
X185405714Y-69259428D01*
X185262857Y-69259428D01*
X185205714Y-69230857D01*
X185177142Y-69202285D01*
X185148571Y-69145142D01*
X185148571Y-69002285D01*
X185177142Y-68945142D01*
X185205714Y-68916571D01*
X162517142Y-65268571D02*
X162517142Y-65725714D01*
X162288571Y-65497142D02*
X162745714Y-65497142D01*
X162888571Y-66297142D02*
X162888571Y-66011428D01*
X162602857Y-65982857D01*
X162631428Y-66011428D01*
X162660000Y-66068571D01*
X162660000Y-66211428D01*
X162631428Y-66268571D01*
X162602857Y-66297142D01*
X162545714Y-66325714D01*
X162402857Y-66325714D01*
X162345714Y-66297142D01*
X162317142Y-66268571D01*
X162288571Y-66211428D01*
X162288571Y-66068571D01*
X162317142Y-66011428D01*
X162345714Y-65982857D01*
X162888571Y-66497142D02*
X162288571Y-66697142D01*
X162888571Y-66897142D01*
X185691428Y-65328857D02*
X185720000Y-65357428D01*
X185748571Y-65414571D01*
X185748571Y-65557428D01*
X185720000Y-65614571D01*
X185691428Y-65643142D01*
X185634285Y-65671714D01*
X185577142Y-65671714D01*
X185491428Y-65643142D01*
X185148571Y-65300285D01*
X185148571Y-65671714D01*
X185748571Y-66214571D02*
X185748571Y-65928857D01*
X185462857Y-65900285D01*
X185491428Y-65928857D01*
X185520000Y-65986000D01*
X185520000Y-66128857D01*
X185491428Y-66186000D01*
X185462857Y-66214571D01*
X185405714Y-66243142D01*
X185262857Y-66243142D01*
X185205714Y-66214571D01*
X185177142Y-66186000D01*
X185148571Y-66128857D01*
X185148571Y-65986000D01*
X185177142Y-65928857D01*
X185205714Y-65900285D01*
X203471428Y-68376857D02*
X203500000Y-68405428D01*
X203528571Y-68462571D01*
X203528571Y-68605428D01*
X203500000Y-68662571D01*
X203471428Y-68691142D01*
X203414285Y-68719714D01*
X203357142Y-68719714D01*
X203271428Y-68691142D01*
X202928571Y-68348285D01*
X202928571Y-68719714D01*
X203528571Y-68919714D02*
X203528571Y-69291142D01*
X203300000Y-69091142D01*
X203300000Y-69176857D01*
X203271428Y-69234000D01*
X203242857Y-69262571D01*
X203185714Y-69291142D01*
X203042857Y-69291142D01*
X202985714Y-69262571D01*
X202957142Y-69234000D01*
X202928571Y-69176857D01*
X202928571Y-69005428D01*
X202957142Y-68948285D01*
X202985714Y-68919714D01*
X121828571Y-56854000D02*
X121828571Y-57615904D01*
X121447619Y-57234952D02*
X122209523Y-57234952D01*
X122447619Y-57996857D02*
X122447619Y-58615904D01*
X122066666Y-58282571D01*
X122066666Y-58425428D01*
X122019047Y-58520666D01*
X121971428Y-58568285D01*
X121876190Y-58615904D01*
X121638095Y-58615904D01*
X121542857Y-58568285D01*
X121495238Y-58520666D01*
X121447619Y-58425428D01*
X121447619Y-58139714D01*
X121495238Y-58044476D01*
X121542857Y-57996857D01*
X121542857Y-59044476D02*
X121495238Y-59092095D01*
X121447619Y-59044476D01*
X121495238Y-58996857D01*
X121542857Y-59044476D01*
X121447619Y-59044476D01*
X122447619Y-59425428D02*
X122447619Y-60044476D01*
X122066666Y-59711142D01*
X122066666Y-59854000D01*
X122019047Y-59949238D01*
X121971428Y-59996857D01*
X121876190Y-60044476D01*
X121638095Y-60044476D01*
X121542857Y-59996857D01*
X121495238Y-59949238D01*
X121447619Y-59854000D01*
X121447619Y-59568285D01*
X121495238Y-59473047D01*
X121542857Y-59425428D01*
X122447619Y-60330190D02*
X121447619Y-60663523D01*
X122447619Y-60996857D01*
X76108571Y-56806285D02*
X76108571Y-57568190D01*
X75727619Y-57187238D02*
X76489523Y-57187238D01*
X76727619Y-58520571D02*
X76727619Y-58044380D01*
X76251428Y-57996761D01*
X76299047Y-58044380D01*
X76346666Y-58139619D01*
X76346666Y-58377714D01*
X76299047Y-58472952D01*
X76251428Y-58520571D01*
X76156190Y-58568190D01*
X75918095Y-58568190D01*
X75822857Y-58520571D01*
X75775238Y-58472952D01*
X75727619Y-58377714D01*
X75727619Y-58139619D01*
X75775238Y-58044380D01*
X75822857Y-57996761D01*
X76727619Y-58853904D02*
X75727619Y-59187238D01*
X76727619Y-59520571D01*
X195908571Y-65300285D02*
X195908571Y-65671714D01*
X195680000Y-65471714D01*
X195680000Y-65557428D01*
X195651428Y-65614571D01*
X195622857Y-65643142D01*
X195565714Y-65671714D01*
X195422857Y-65671714D01*
X195365714Y-65643142D01*
X195337142Y-65614571D01*
X195308571Y-65557428D01*
X195308571Y-65386000D01*
X195337142Y-65328857D01*
X195365714Y-65300285D01*
X195708571Y-66186000D02*
X195308571Y-66186000D01*
X195937142Y-66043142D02*
X195508571Y-65900285D01*
X195508571Y-66271714D01*
X169908571Y-65417714D02*
X169908571Y-65532000D01*
X169937142Y-65589142D01*
X169965714Y-65617714D01*
X170051428Y-65674857D01*
X170165714Y-65703428D01*
X170394285Y-65703428D01*
X170451428Y-65674857D01*
X170480000Y-65646285D01*
X170508571Y-65589142D01*
X170508571Y-65474857D01*
X170480000Y-65417714D01*
X170451428Y-65389142D01*
X170394285Y-65360571D01*
X170251428Y-65360571D01*
X170194285Y-65389142D01*
X170165714Y-65417714D01*
X170137142Y-65474857D01*
X170137142Y-65589142D01*
X170165714Y-65646285D01*
X170194285Y-65674857D01*
X170251428Y-65703428D01*
X167711428Y-69030857D02*
X167740000Y-68973714D01*
X167768571Y-68945142D01*
X167825714Y-68916571D01*
X167854285Y-68916571D01*
X167911428Y-68945142D01*
X167940000Y-68973714D01*
X167968571Y-69030857D01*
X167968571Y-69145142D01*
X167940000Y-69202285D01*
X167911428Y-69230857D01*
X167854285Y-69259428D01*
X167825714Y-69259428D01*
X167768571Y-69230857D01*
X167740000Y-69202285D01*
X167711428Y-69145142D01*
X167711428Y-69030857D01*
X167682857Y-68973714D01*
X167654285Y-68945142D01*
X167597142Y-68916571D01*
X167482857Y-68916571D01*
X167425714Y-68945142D01*
X167397142Y-68973714D01*
X167368571Y-69030857D01*
X167368571Y-69145142D01*
X167397142Y-69202285D01*
X167425714Y-69230857D01*
X167482857Y-69259428D01*
X167597142Y-69259428D01*
X167654285Y-69230857D01*
X167682857Y-69202285D01*
X167711428Y-69145142D01*
X187688571Y-68719714D02*
X187688571Y-68376857D01*
X187688571Y-68548285D02*
X188288571Y-68548285D01*
X188202857Y-68491142D01*
X188145714Y-68434000D01*
X188117142Y-68376857D01*
X188031428Y-69062571D02*
X188060000Y-69005428D01*
X188088571Y-68976857D01*
X188145714Y-68948285D01*
X188174285Y-68948285D01*
X188231428Y-68976857D01*
X188260000Y-69005428D01*
X188288571Y-69062571D01*
X188288571Y-69176857D01*
X188260000Y-69234000D01*
X188231428Y-69262571D01*
X188174285Y-69291142D01*
X188145714Y-69291142D01*
X188088571Y-69262571D01*
X188060000Y-69234000D01*
X188031428Y-69176857D01*
X188031428Y-69062571D01*
X188002857Y-69005428D01*
X187974285Y-68976857D01*
X187917142Y-68948285D01*
X187802857Y-68948285D01*
X187745714Y-68976857D01*
X187717142Y-69005428D01*
X187688571Y-69062571D01*
X187688571Y-69176857D01*
X187717142Y-69234000D01*
X187745714Y-69262571D01*
X187802857Y-69291142D01*
X187917142Y-69291142D01*
X187974285Y-69262571D01*
X188002857Y-69234000D01*
X188031428Y-69176857D01*
X142800000Y-57908095D02*
X142847619Y-57812857D01*
X142847619Y-57670000D01*
X142800000Y-57527142D01*
X142704761Y-57431904D01*
X142609523Y-57384285D01*
X142419047Y-57336666D01*
X142276190Y-57336666D01*
X142085714Y-57384285D01*
X141990476Y-57431904D01*
X141895238Y-57527142D01*
X141847619Y-57670000D01*
X141847619Y-57765238D01*
X141895238Y-57908095D01*
X141942857Y-57955714D01*
X142276190Y-57955714D01*
X142276190Y-57765238D01*
X141847619Y-58384285D02*
X142847619Y-58384285D01*
X141847619Y-58955714D01*
X142847619Y-58955714D01*
X141847619Y-59431904D02*
X142847619Y-59431904D01*
X142847619Y-59670000D01*
X142800000Y-59812857D01*
X142704761Y-59908095D01*
X142609523Y-59955714D01*
X142419047Y-60003333D01*
X142276190Y-60003333D01*
X142085714Y-59955714D01*
X141990476Y-59908095D01*
X141895238Y-59812857D01*
X141847619Y-59670000D01*
X141847619Y-59431904D01*
X127657142Y-75847380D02*
X127180952Y-75847380D01*
X127180952Y-74847380D01*
X127990476Y-75323571D02*
X128323809Y-75323571D01*
X128466666Y-75847380D02*
X127990476Y-75847380D01*
X127990476Y-74847380D01*
X128466666Y-74847380D01*
X128895238Y-75847380D02*
X128895238Y-74847380D01*
X129133333Y-74847380D01*
X129276190Y-74895000D01*
X129371428Y-74990238D01*
X129419047Y-75085476D01*
X129466666Y-75275952D01*
X129466666Y-75418809D01*
X129419047Y-75609285D01*
X129371428Y-75704523D01*
X129276190Y-75799761D01*
X129133333Y-75847380D01*
X128895238Y-75847380D01*
X126442857Y-76505000D02*
X126347619Y-76457380D01*
X126204761Y-76457380D01*
X126061904Y-76505000D01*
X125966666Y-76600238D01*
X125919047Y-76695476D01*
X125871428Y-76885952D01*
X125871428Y-77028809D01*
X125919047Y-77219285D01*
X125966666Y-77314523D01*
X126061904Y-77409761D01*
X126204761Y-77457380D01*
X126300000Y-77457380D01*
X126442857Y-77409761D01*
X126490476Y-77362142D01*
X126490476Y-77028809D01*
X126300000Y-77028809D01*
X126919047Y-77457380D02*
X126919047Y-76457380D01*
X127300000Y-76457380D01*
X127395238Y-76505000D01*
X127442857Y-76552619D01*
X127490476Y-76647857D01*
X127490476Y-76790714D01*
X127442857Y-76885952D01*
X127395238Y-76933571D01*
X127300000Y-76981190D01*
X126919047Y-76981190D01*
X127919047Y-77457380D02*
X127919047Y-76457380D01*
X128585714Y-76457380D02*
X128776190Y-76457380D01*
X128871428Y-76505000D01*
X128966666Y-76600238D01*
X129014285Y-76790714D01*
X129014285Y-77124047D01*
X128966666Y-77314523D01*
X128871428Y-77409761D01*
X128776190Y-77457380D01*
X128585714Y-77457380D01*
X128490476Y-77409761D01*
X128395238Y-77314523D01*
X128347619Y-77124047D01*
X128347619Y-76790714D01*
X128395238Y-76600238D01*
X128490476Y-76505000D01*
X128585714Y-76457380D01*
X130157142Y-76552619D02*
X130204761Y-76505000D01*
X130300000Y-76457380D01*
X130538095Y-76457380D01*
X130633333Y-76505000D01*
X130680952Y-76552619D01*
X130728571Y-76647857D01*
X130728571Y-76743095D01*
X130680952Y-76885952D01*
X130109523Y-77457380D01*
X130728571Y-77457380D01*
X90033333Y-72383166D02*
X89800000Y-72049833D01*
X89633333Y-72383166D02*
X89633333Y-71683166D01*
X89900000Y-71683166D01*
X89966666Y-71716500D01*
X90000000Y-71749833D01*
X90033333Y-71816500D01*
X90033333Y-71916500D01*
X90000000Y-71983166D01*
X89966666Y-72016500D01*
X89900000Y-72049833D01*
X89633333Y-72049833D01*
X90700000Y-72383166D02*
X90300000Y-72383166D01*
X90500000Y-72383166D02*
X90500000Y-71683166D01*
X90433333Y-71783166D01*
X90366666Y-71849833D01*
X90300000Y-71883166D01*
X89700000Y-73510166D02*
X89366666Y-73510166D01*
X89366666Y-72810166D01*
X89933333Y-73143500D02*
X90166666Y-73143500D01*
X90266666Y-73510166D02*
X89933333Y-73510166D01*
X89933333Y-72810166D01*
X90266666Y-72810166D01*
X90566666Y-73510166D02*
X90566666Y-72810166D01*
X90733333Y-72810166D01*
X90833333Y-72843500D01*
X90900000Y-72910166D01*
X90933333Y-72976833D01*
X90966666Y-73110166D01*
X90966666Y-73210166D01*
X90933333Y-73343500D01*
X90900000Y-73410166D01*
X90833333Y-73476833D01*
X90733333Y-73510166D01*
X90566666Y-73510166D01*
X200988571Y-65300285D02*
X200988571Y-65671714D01*
X200760000Y-65471714D01*
X200760000Y-65557428D01*
X200731428Y-65614571D01*
X200702857Y-65643142D01*
X200645714Y-65671714D01*
X200502857Y-65671714D01*
X200445714Y-65643142D01*
X200417142Y-65614571D01*
X200388571Y-65557428D01*
X200388571Y-65386000D01*
X200417142Y-65328857D01*
X200445714Y-65300285D01*
X200988571Y-66186000D02*
X200988571Y-66071714D01*
X200960000Y-66014571D01*
X200931428Y-65986000D01*
X200845714Y-65928857D01*
X200731428Y-65900285D01*
X200502857Y-65900285D01*
X200445714Y-65928857D01*
X200417142Y-65957428D01*
X200388571Y-66014571D01*
X200388571Y-66128857D01*
X200417142Y-66186000D01*
X200445714Y-66214571D01*
X200502857Y-66243142D01*
X200645714Y-66243142D01*
X200702857Y-66214571D01*
X200731428Y-66186000D01*
X200760000Y-66128857D01*
X200760000Y-66014571D01*
X200731428Y-65957428D01*
X200702857Y-65928857D01*
X200645714Y-65900285D01*
X100261904Y-59500476D02*
X100300000Y-59538571D01*
X100338095Y-59614761D01*
X100338095Y-59805238D01*
X100300000Y-59881428D01*
X100261904Y-59919523D01*
X100185714Y-59957619D01*
X100109523Y-59957619D01*
X99995238Y-59919523D01*
X99538095Y-59462380D01*
X99538095Y-59957619D01*
X100338095Y-60681428D02*
X100338095Y-60300476D01*
X99957142Y-60262380D01*
X99995238Y-60300476D01*
X100033333Y-60376666D01*
X100033333Y-60567142D01*
X99995238Y-60643333D01*
X99957142Y-60681428D01*
X99880952Y-60719523D01*
X99690476Y-60719523D01*
X99614285Y-60681428D01*
X99576190Y-60643333D01*
X99538095Y-60567142D01*
X99538095Y-60376666D01*
X99576190Y-60300476D01*
X99614285Y-60262380D01*
X99538095Y-61062380D02*
X100071428Y-61062380D01*
X99995238Y-61062380D02*
X100033333Y-61100476D01*
X100071428Y-61176666D01*
X100071428Y-61290952D01*
X100033333Y-61367142D01*
X99957142Y-61405238D01*
X99538095Y-61405238D01*
X99957142Y-61405238D02*
X100033333Y-61443333D01*
X100071428Y-61519523D01*
X100071428Y-61633809D01*
X100033333Y-61710000D01*
X99957142Y-61748095D01*
X99538095Y-61748095D01*
X99538095Y-62129047D02*
X100071428Y-62129047D01*
X99995238Y-62129047D02*
X100033333Y-62167142D01*
X100071428Y-62243333D01*
X100071428Y-62357619D01*
X100033333Y-62433809D01*
X99957142Y-62471904D01*
X99538095Y-62471904D01*
X99957142Y-62471904D02*
X100033333Y-62510000D01*
X100071428Y-62586190D01*
X100071428Y-62700476D01*
X100033333Y-62776666D01*
X99957142Y-62814761D01*
X99538095Y-62814761D01*
X99538095Y-63805238D02*
X100338095Y-63805238D01*
X100033333Y-63805238D02*
X100071428Y-63881428D01*
X100071428Y-64033809D01*
X100033333Y-64110000D01*
X99995238Y-64148095D01*
X99919047Y-64186190D01*
X99690476Y-64186190D01*
X99614285Y-64148095D01*
X99576190Y-64110000D01*
X99538095Y-64033809D01*
X99538095Y-63881428D01*
X99576190Y-63805238D01*
X99576190Y-64833809D02*
X99538095Y-64757619D01*
X99538095Y-64605238D01*
X99576190Y-64529047D01*
X99652380Y-64490952D01*
X99957142Y-64490952D01*
X100033333Y-64529047D01*
X100071428Y-64605238D01*
X100071428Y-64757619D01*
X100033333Y-64833809D01*
X99957142Y-64871904D01*
X99880952Y-64871904D01*
X99804761Y-64490952D01*
X100071428Y-65100476D02*
X100071428Y-65405238D01*
X100338095Y-65214761D02*
X99652380Y-65214761D01*
X99576190Y-65252857D01*
X99538095Y-65329047D01*
X99538095Y-65405238D01*
X100071428Y-65595714D02*
X99538095Y-65748095D01*
X99919047Y-65900476D01*
X99538095Y-66052857D01*
X100071428Y-66205238D01*
X99576190Y-66814761D02*
X99538095Y-66738571D01*
X99538095Y-66586190D01*
X99576190Y-66510000D01*
X99652380Y-66471904D01*
X99957142Y-66471904D01*
X100033333Y-66510000D01*
X100071428Y-66586190D01*
X100071428Y-66738571D01*
X100033333Y-66814761D01*
X99957142Y-66852857D01*
X99880952Y-66852857D01*
X99804761Y-66471904D01*
X99576190Y-67500476D02*
X99538095Y-67424285D01*
X99538095Y-67271904D01*
X99576190Y-67195714D01*
X99652380Y-67157619D01*
X99957142Y-67157619D01*
X100033333Y-67195714D01*
X100071428Y-67271904D01*
X100071428Y-67424285D01*
X100033333Y-67500476D01*
X99957142Y-67538571D01*
X99880952Y-67538571D01*
X99804761Y-67157619D01*
X100071428Y-67881428D02*
X99538095Y-67881428D01*
X99995238Y-67881428D02*
X100033333Y-67919523D01*
X100071428Y-67995714D01*
X100071428Y-68110000D01*
X100033333Y-68186190D01*
X99957142Y-68224285D01*
X99538095Y-68224285D01*
X99538095Y-69214761D02*
X100338095Y-69214761D01*
X99538095Y-69557619D02*
X99957142Y-69557619D01*
X100033333Y-69519523D01*
X100071428Y-69443333D01*
X100071428Y-69329047D01*
X100033333Y-69252857D01*
X99995238Y-69214761D01*
X99538095Y-70052857D02*
X99576190Y-69976666D01*
X99614285Y-69938571D01*
X99690476Y-69900476D01*
X99919047Y-69900476D01*
X99995238Y-69938571D01*
X100033333Y-69976666D01*
X100071428Y-70052857D01*
X100071428Y-70167142D01*
X100033333Y-70243333D01*
X99995238Y-70281428D01*
X99919047Y-70319523D01*
X99690476Y-70319523D01*
X99614285Y-70281428D01*
X99576190Y-70243333D01*
X99538095Y-70167142D01*
X99538095Y-70052857D01*
X99538095Y-70776666D02*
X99576190Y-70700476D01*
X99652380Y-70662380D01*
X100338095Y-70662380D01*
X99576190Y-71386190D02*
X99538095Y-71310000D01*
X99538095Y-71157619D01*
X99576190Y-71081428D01*
X99652380Y-71043333D01*
X99957142Y-71043333D01*
X100033333Y-71081428D01*
X100071428Y-71157619D01*
X100071428Y-71310000D01*
X100033333Y-71386190D01*
X99957142Y-71424285D01*
X99880952Y-71424285D01*
X99804761Y-71043333D01*
X99576190Y-71729047D02*
X99538095Y-71805238D01*
X99538095Y-71957619D01*
X99576190Y-72033809D01*
X99652380Y-72071904D01*
X99690476Y-72071904D01*
X99766666Y-72033809D01*
X99804761Y-71957619D01*
X99804761Y-71843333D01*
X99842857Y-71767142D01*
X99919047Y-71729047D01*
X99957142Y-71729047D01*
X100033333Y-71767142D01*
X100071428Y-71843333D01*
X100071428Y-71957619D01*
X100033333Y-72033809D01*
X99233333Y-73252857D02*
X99271428Y-73214761D01*
X99385714Y-73138571D01*
X99461904Y-73100476D01*
X99576190Y-73062380D01*
X99766666Y-73024285D01*
X99919047Y-73024285D01*
X100109523Y-73062380D01*
X100223809Y-73100476D01*
X100300000Y-73138571D01*
X100414285Y-73214761D01*
X100452380Y-73252857D01*
X99538095Y-73557619D02*
X100071428Y-73557619D01*
X99995238Y-73557619D02*
X100033333Y-73595714D01*
X100071428Y-73671904D01*
X100071428Y-73786190D01*
X100033333Y-73862380D01*
X99957142Y-73900476D01*
X99538095Y-73900476D01*
X99957142Y-73900476D02*
X100033333Y-73938571D01*
X100071428Y-74014761D01*
X100071428Y-74129047D01*
X100033333Y-74205238D01*
X99957142Y-74243333D01*
X99538095Y-74243333D01*
X99538095Y-74624285D02*
X100071428Y-74624285D01*
X100338095Y-74624285D02*
X100300000Y-74586190D01*
X100261904Y-74624285D01*
X100300000Y-74662380D01*
X100338095Y-74624285D01*
X100261904Y-74624285D01*
X99538095Y-75348095D02*
X100338095Y-75348095D01*
X99576190Y-75348095D02*
X99538095Y-75271904D01*
X99538095Y-75119523D01*
X99576190Y-75043333D01*
X99614285Y-75005238D01*
X99690476Y-74967142D01*
X99919047Y-74967142D01*
X99995238Y-75005238D01*
X100033333Y-75043333D01*
X100071428Y-75119523D01*
X100071428Y-75271904D01*
X100033333Y-75348095D01*
X99233333Y-75652857D02*
X99271428Y-75690952D01*
X99385714Y-75767142D01*
X99461904Y-75805238D01*
X99576190Y-75843333D01*
X99766666Y-75881428D01*
X99919047Y-75881428D01*
X100109523Y-75843333D01*
X100223809Y-75805238D01*
X100300000Y-75767142D01*
X100414285Y-75690952D01*
X100452380Y-75652857D01*
X180611428Y-65328857D02*
X180640000Y-65357428D01*
X180668571Y-65414571D01*
X180668571Y-65557428D01*
X180640000Y-65614571D01*
X180611428Y-65643142D01*
X180554285Y-65671714D01*
X180497142Y-65671714D01*
X180411428Y-65643142D01*
X180068571Y-65300285D01*
X180068571Y-65671714D01*
X180668571Y-65871714D02*
X180668571Y-66271714D01*
X180068571Y-66014571D01*
X149475238Y-56543809D02*
X149427619Y-56686666D01*
X149427619Y-56924761D01*
X149475238Y-57020000D01*
X149522857Y-57067619D01*
X149618095Y-57115238D01*
X149713333Y-57115238D01*
X149808571Y-57067619D01*
X149856190Y-57020000D01*
X149903809Y-56924761D01*
X149951428Y-56734285D01*
X149999047Y-56639047D01*
X150046666Y-56591428D01*
X150141904Y-56543809D01*
X150237142Y-56543809D01*
X150332380Y-56591428D01*
X150380000Y-56639047D01*
X150427619Y-56734285D01*
X150427619Y-56972380D01*
X150380000Y-57115238D01*
X149427619Y-57543809D02*
X150427619Y-57543809D01*
X150427619Y-57781904D01*
X150380000Y-57924761D01*
X150284761Y-58020000D01*
X150189523Y-58067619D01*
X149999047Y-58115238D01*
X149856190Y-58115238D01*
X149665714Y-58067619D01*
X149570476Y-58020000D01*
X149475238Y-57924761D01*
X149427619Y-57781904D01*
X149427619Y-57543809D01*
X149713333Y-58496190D02*
X149713333Y-58972380D01*
X149427619Y-58400952D02*
X150427619Y-58734285D01*
X149427619Y-59067619D01*
X150041904Y-59315238D02*
X150080000Y-59353333D01*
X150118095Y-59429523D01*
X150118095Y-59620000D01*
X150080000Y-59696190D01*
X150041904Y-59734285D01*
X149965714Y-59772380D01*
X149889523Y-59772380D01*
X149775238Y-59734285D01*
X149318095Y-59277142D01*
X149318095Y-59772380D01*
X149318095Y-60534285D02*
X149318095Y-60077142D01*
X149318095Y-60305714D02*
X150118095Y-60305714D01*
X150003809Y-60229523D01*
X149927619Y-60153333D01*
X149889523Y-60077142D01*
X193368571Y-65300285D02*
X193368571Y-65671714D01*
X193140000Y-65471714D01*
X193140000Y-65557428D01*
X193111428Y-65614571D01*
X193082857Y-65643142D01*
X193025714Y-65671714D01*
X192882857Y-65671714D01*
X192825714Y-65643142D01*
X192797142Y-65614571D01*
X192768571Y-65557428D01*
X192768571Y-65386000D01*
X192797142Y-65328857D01*
X192825714Y-65300285D01*
X193368571Y-66214571D02*
X193368571Y-65928857D01*
X193082857Y-65900285D01*
X193111428Y-65928857D01*
X193140000Y-65986000D01*
X193140000Y-66128857D01*
X193111428Y-66186000D01*
X193082857Y-66214571D01*
X193025714Y-66243142D01*
X192882857Y-66243142D01*
X192825714Y-66214571D01*
X192797142Y-66186000D01*
X192768571Y-66128857D01*
X192768571Y-65986000D01*
X192797142Y-65928857D01*
X192825714Y-65900285D01*
X195908571Y-68888000D02*
X195908571Y-69259428D01*
X195680000Y-69059428D01*
X195680000Y-69145142D01*
X195651428Y-69202285D01*
X195622857Y-69230857D01*
X195565714Y-69259428D01*
X195422857Y-69259428D01*
X195365714Y-69230857D01*
X195337142Y-69202285D01*
X195308571Y-69145142D01*
X195308571Y-68973714D01*
X195337142Y-68916571D01*
X195365714Y-68888000D01*
X165428571Y-68888000D02*
X165428571Y-69288000D01*
X164828571Y-69030857D01*
X182608571Y-68719714D02*
X182608571Y-68376857D01*
X182608571Y-68548285D02*
X183208571Y-68548285D01*
X183122857Y-68491142D01*
X183065714Y-68434000D01*
X183037142Y-68376857D01*
X183208571Y-68919714D02*
X183208571Y-69319714D01*
X182608571Y-69062571D01*
X180068571Y-68719714D02*
X180068571Y-68376857D01*
X180068571Y-68548285D02*
X180668571Y-68548285D01*
X180582857Y-68491142D01*
X180525714Y-68434000D01*
X180497142Y-68376857D01*
X180668571Y-69234000D02*
X180668571Y-69119714D01*
X180640000Y-69062571D01*
X180611428Y-69034000D01*
X180525714Y-68976857D01*
X180411428Y-68948285D01*
X180182857Y-68948285D01*
X180125714Y-68976857D01*
X180097142Y-69005428D01*
X180068571Y-69062571D01*
X180068571Y-69176857D01*
X180097142Y-69234000D01*
X180125714Y-69262571D01*
X180182857Y-69291142D01*
X180325714Y-69291142D01*
X180382857Y-69262571D01*
X180411428Y-69234000D01*
X180440000Y-69176857D01*
X180440000Y-69062571D01*
X180411428Y-69005428D01*
X180382857Y-68976857D01*
X180325714Y-68948285D01*
X146885238Y-56547619D02*
X146837619Y-56690476D01*
X146837619Y-56928571D01*
X146885238Y-57023809D01*
X146932857Y-57071428D01*
X147028095Y-57119047D01*
X147123333Y-57119047D01*
X147218571Y-57071428D01*
X147266190Y-57023809D01*
X147313809Y-56928571D01*
X147361428Y-56738095D01*
X147409047Y-56642857D01*
X147456666Y-56595238D01*
X147551904Y-56547619D01*
X147647142Y-56547619D01*
X147742380Y-56595238D01*
X147790000Y-56642857D01*
X147837619Y-56738095D01*
X147837619Y-56976190D01*
X147790000Y-57119047D01*
X146932857Y-58119047D02*
X146885238Y-58071428D01*
X146837619Y-57928571D01*
X146837619Y-57833333D01*
X146885238Y-57690476D01*
X146980476Y-57595238D01*
X147075714Y-57547619D01*
X147266190Y-57500000D01*
X147409047Y-57500000D01*
X147599523Y-57547619D01*
X147694761Y-57595238D01*
X147790000Y-57690476D01*
X147837619Y-57833333D01*
X147837619Y-57928571D01*
X147790000Y-58071428D01*
X147742380Y-58119047D01*
X146837619Y-59023809D02*
X146837619Y-58547619D01*
X147837619Y-58547619D01*
X147451904Y-59271428D02*
X147490000Y-59309523D01*
X147528095Y-59385714D01*
X147528095Y-59576190D01*
X147490000Y-59652380D01*
X147451904Y-59690476D01*
X147375714Y-59728571D01*
X147299523Y-59728571D01*
X147185238Y-59690476D01*
X146728095Y-59233333D01*
X146728095Y-59728571D01*
X147451904Y-60033333D02*
X147490000Y-60071428D01*
X147528095Y-60147619D01*
X147528095Y-60338095D01*
X147490000Y-60414285D01*
X147451904Y-60452380D01*
X147375714Y-60490476D01*
X147299523Y-60490476D01*
X147185238Y-60452380D01*
X146728095Y-59995238D01*
X146728095Y-60490476D01*
X175588571Y-69059428D02*
X175588571Y-69116571D01*
X175560000Y-69173714D01*
X175531428Y-69202285D01*
X175474285Y-69230857D01*
X175360000Y-69259428D01*
X175217142Y-69259428D01*
X175102857Y-69230857D01*
X175045714Y-69202285D01*
X175017142Y-69173714D01*
X174988571Y-69116571D01*
X174988571Y-69059428D01*
X175017142Y-69002285D01*
X175045714Y-68973714D01*
X175102857Y-68945142D01*
X175217142Y-68916571D01*
X175360000Y-68916571D01*
X175474285Y-68945142D01*
X175531428Y-68973714D01*
X175560000Y-69002285D01*
X175588571Y-69059428D01*
X177928571Y-69202285D02*
X177528571Y-69202285D01*
X178157142Y-69059428D02*
X177728571Y-68916571D01*
X177728571Y-69288000D01*
X206068571Y-65114285D02*
X206068571Y-65485714D01*
X205840000Y-65285714D01*
X205840000Y-65371428D01*
X205811428Y-65428571D01*
X205782857Y-65457142D01*
X205725714Y-65485714D01*
X205582857Y-65485714D01*
X205525714Y-65457142D01*
X205497142Y-65428571D01*
X205468571Y-65371428D01*
X205468571Y-65200000D01*
X205497142Y-65142857D01*
X205525714Y-65114285D01*
X205525714Y-65742857D02*
X205497142Y-65771428D01*
X205468571Y-65742857D01*
X205497142Y-65714285D01*
X205525714Y-65742857D01*
X205468571Y-65742857D01*
X206068571Y-65971428D02*
X206068571Y-66342857D01*
X205840000Y-66142857D01*
X205840000Y-66228571D01*
X205811428Y-66285714D01*
X205782857Y-66314285D01*
X205725714Y-66342857D01*
X205582857Y-66342857D01*
X205525714Y-66314285D01*
X205497142Y-66285714D01*
X205468571Y-66228571D01*
X205468571Y-66057142D01*
X205497142Y-66000000D01*
X205525714Y-65971428D01*
X206068571Y-66514285D02*
X205468571Y-66714285D01*
X206068571Y-66914285D01*
X197848571Y-69259428D02*
X197848571Y-68916571D01*
X197848571Y-69088000D02*
X198448571Y-69088000D01*
X198362857Y-69030857D01*
X198305714Y-68973714D01*
X198277142Y-68916571D01*
X89380000Y-57330095D02*
X89427619Y-57234857D01*
X89427619Y-57092000D01*
X89380000Y-56949142D01*
X89284761Y-56853904D01*
X89189523Y-56806285D01*
X88999047Y-56758666D01*
X88856190Y-56758666D01*
X88665714Y-56806285D01*
X88570476Y-56853904D01*
X88475238Y-56949142D01*
X88427619Y-57092000D01*
X88427619Y-57187238D01*
X88475238Y-57330095D01*
X88522857Y-57377714D01*
X88856190Y-57377714D01*
X88856190Y-57187238D01*
X88427619Y-57806285D02*
X89427619Y-57806285D01*
X88427619Y-58377714D01*
X89427619Y-58377714D01*
X88427619Y-58853904D02*
X89427619Y-58853904D01*
X89427619Y-59092000D01*
X89380000Y-59234857D01*
X89284761Y-59330095D01*
X89189523Y-59377714D01*
X88999047Y-59425333D01*
X88856190Y-59425333D01*
X88665714Y-59377714D01*
X88570476Y-59330095D01*
X88475238Y-59234857D01*
X88427619Y-59092000D01*
X88427619Y-58853904D01*
X183151428Y-65328857D02*
X183180000Y-65357428D01*
X183208571Y-65414571D01*
X183208571Y-65557428D01*
X183180000Y-65614571D01*
X183151428Y-65643142D01*
X183094285Y-65671714D01*
X183037142Y-65671714D01*
X182951428Y-65643142D01*
X182608571Y-65300285D01*
X182608571Y-65671714D01*
X183208571Y-66186000D02*
X183208571Y-66071714D01*
X183180000Y-66014571D01*
X183151428Y-65986000D01*
X183065714Y-65928857D01*
X182951428Y-65900285D01*
X182722857Y-65900285D01*
X182665714Y-65928857D01*
X182637142Y-65957428D01*
X182608571Y-66014571D01*
X182608571Y-66128857D01*
X182637142Y-66186000D01*
X182665714Y-66214571D01*
X182722857Y-66243142D01*
X182865714Y-66243142D01*
X182922857Y-66214571D01*
X182951428Y-66186000D01*
X182980000Y-66128857D01*
X182980000Y-66014571D01*
X182951428Y-65957428D01*
X182922857Y-65928857D01*
X182865714Y-65900285D01*
X174988571Y-65671714D02*
X174988571Y-65328857D01*
X174988571Y-65500285D02*
X175588571Y-65500285D01*
X175502857Y-65443142D01*
X175445714Y-65386000D01*
X175417142Y-65328857D01*
X175531428Y-65900285D02*
X175560000Y-65928857D01*
X175588571Y-65986000D01*
X175588571Y-66128857D01*
X175560000Y-66186000D01*
X175531428Y-66214571D01*
X175474285Y-66243142D01*
X175417142Y-66243142D01*
X175331428Y-66214571D01*
X174988571Y-65871714D01*
X174988571Y-66243142D01*
X77727619Y-66028095D02*
X76918095Y-66028095D01*
X76822857Y-66075714D01*
X76775238Y-66123333D01*
X76727619Y-66218571D01*
X76727619Y-66409047D01*
X76775238Y-66504285D01*
X76822857Y-66551904D01*
X76918095Y-66599523D01*
X77727619Y-66599523D01*
X76775238Y-67028095D02*
X76727619Y-67170952D01*
X76727619Y-67409047D01*
X76775238Y-67504285D01*
X76822857Y-67551904D01*
X76918095Y-67599523D01*
X77013333Y-67599523D01*
X77108571Y-67551904D01*
X77156190Y-67504285D01*
X77203809Y-67409047D01*
X77251428Y-67218571D01*
X77299047Y-67123333D01*
X77346666Y-67075714D01*
X77441904Y-67028095D01*
X77537142Y-67028095D01*
X77632380Y-67075714D01*
X77680000Y-67123333D01*
X77727619Y-67218571D01*
X77727619Y-67456666D01*
X77680000Y-67599523D01*
X77251428Y-68361428D02*
X77203809Y-68504285D01*
X77156190Y-68551904D01*
X77060952Y-68599523D01*
X76918095Y-68599523D01*
X76822857Y-68551904D01*
X76775238Y-68504285D01*
X76727619Y-68409047D01*
X76727619Y-68028095D01*
X77727619Y-68028095D01*
X77727619Y-68361428D01*
X77680000Y-68456666D01*
X77632380Y-68504285D01*
X77537142Y-68551904D01*
X77441904Y-68551904D01*
X77346666Y-68504285D01*
X77299047Y-68456666D01*
X77251428Y-68361428D01*
X77251428Y-68028095D01*
X200931428Y-68376857D02*
X200960000Y-68405428D01*
X200988571Y-68462571D01*
X200988571Y-68605428D01*
X200960000Y-68662571D01*
X200931428Y-68691142D01*
X200874285Y-68719714D01*
X200817142Y-68719714D01*
X200731428Y-68691142D01*
X200388571Y-68348285D01*
X200388571Y-68719714D01*
X200931428Y-68948285D02*
X200960000Y-68976857D01*
X200988571Y-69034000D01*
X200988571Y-69176857D01*
X200960000Y-69234000D01*
X200931428Y-69262571D01*
X200874285Y-69291142D01*
X200817142Y-69291142D01*
X200731428Y-69262571D01*
X200388571Y-68919714D01*
X200388571Y-69291142D01*
X202928571Y-65668571D02*
X203214285Y-65468571D01*
X202928571Y-65325714D02*
X203528571Y-65325714D01*
X203528571Y-65554285D01*
X203500000Y-65611428D01*
X203471428Y-65640000D01*
X203414285Y-65668571D01*
X203328571Y-65668571D01*
X203271428Y-65640000D01*
X203242857Y-65611428D01*
X203214285Y-65554285D01*
X203214285Y-65325714D01*
X203242857Y-65925714D02*
X203242857Y-66125714D01*
X202928571Y-66211428D02*
X202928571Y-65925714D01*
X203528571Y-65925714D01*
X203528571Y-66211428D01*
X202957142Y-66440000D02*
X202928571Y-66525714D01*
X202928571Y-66668571D01*
X202957142Y-66725714D01*
X202985714Y-66754285D01*
X203042857Y-66782857D01*
X203100000Y-66782857D01*
X203157142Y-66754285D01*
X203185714Y-66725714D01*
X203214285Y-66668571D01*
X203242857Y-66554285D01*
X203271428Y-66497142D01*
X203300000Y-66468571D01*
X203357142Y-66440000D01*
X203414285Y-66440000D01*
X203471428Y-66468571D01*
X203500000Y-66497142D01*
X203528571Y-66554285D01*
X203528571Y-66697142D01*
X203500000Y-66782857D01*
X172448571Y-65671714D02*
X172448571Y-65328857D01*
X172448571Y-65500285D02*
X173048571Y-65500285D01*
X172962857Y-65443142D01*
X172905714Y-65386000D01*
X172877142Y-65328857D01*
X173048571Y-65871714D02*
X173048571Y-66243142D01*
X172820000Y-66043142D01*
X172820000Y-66128857D01*
X172791428Y-66186000D01*
X172762857Y-66214571D01*
X172705714Y-66243142D01*
X172562857Y-66243142D01*
X172505714Y-66214571D01*
X172477142Y-66186000D01*
X172448571Y-66128857D01*
X172448571Y-65957428D01*
X172477142Y-65900285D01*
X172505714Y-65871714D01*
X167368571Y-65671714D02*
X167368571Y-65328857D01*
X167368571Y-65500285D02*
X167968571Y-65500285D01*
X167882857Y-65443142D01*
X167825714Y-65386000D01*
X167797142Y-65328857D01*
X167968571Y-66043142D02*
X167968571Y-66100285D01*
X167940000Y-66157428D01*
X167911428Y-66186000D01*
X167854285Y-66214571D01*
X167740000Y-66243142D01*
X167597142Y-66243142D01*
X167482857Y-66214571D01*
X167425714Y-66186000D01*
X167397142Y-66157428D01*
X167368571Y-66100285D01*
X167368571Y-66043142D01*
X167397142Y-65986000D01*
X167425714Y-65957428D01*
X167482857Y-65928857D01*
X167597142Y-65900285D01*
X167740000Y-65900285D01*
X167854285Y-65928857D01*
X167911428Y-65957428D01*
X167940000Y-65986000D01*
X167968571Y-66043142D01*
X162888571Y-69202285D02*
X162888571Y-69088000D01*
X162860000Y-69030857D01*
X162831428Y-69002285D01*
X162745714Y-68945142D01*
X162631428Y-68916571D01*
X162402857Y-68916571D01*
X162345714Y-68945142D01*
X162317142Y-68973714D01*
X162288571Y-69030857D01*
X162288571Y-69145142D01*
X162317142Y-69202285D01*
X162345714Y-69230857D01*
X162402857Y-69259428D01*
X162545714Y-69259428D01*
X162602857Y-69230857D01*
X162631428Y-69202285D01*
X162660000Y-69145142D01*
X162660000Y-69030857D01*
X162631428Y-68973714D01*
X162602857Y-68945142D01*
X162545714Y-68916571D01*
X122400000Y-75364095D02*
X122447619Y-75268857D01*
X122447619Y-75126000D01*
X122400000Y-74983142D01*
X122304761Y-74887904D01*
X122209523Y-74840285D01*
X122019047Y-74792666D01*
X121876190Y-74792666D01*
X121685714Y-74840285D01*
X121590476Y-74887904D01*
X121495238Y-74983142D01*
X121447619Y-75126000D01*
X121447619Y-75221238D01*
X121495238Y-75364095D01*
X121542857Y-75411714D01*
X121876190Y-75411714D01*
X121876190Y-75221238D01*
X121447619Y-75840285D02*
X122447619Y-75840285D01*
X121447619Y-76411714D01*
X122447619Y-76411714D01*
X121447619Y-76887904D02*
X122447619Y-76887904D01*
X122447619Y-77126000D01*
X122400000Y-77268857D01*
X122304761Y-77364095D01*
X122209523Y-77411714D01*
X122019047Y-77459333D01*
X121876190Y-77459333D01*
X121685714Y-77411714D01*
X121590476Y-77364095D01*
X121495238Y-77268857D01*
X121447619Y-77126000D01*
X121447619Y-76887904D01*
X164828571Y-65671714D02*
X164828571Y-65328857D01*
X164828571Y-65500285D02*
X165428571Y-65500285D01*
X165342857Y-65443142D01*
X165285714Y-65386000D01*
X165257142Y-65328857D01*
X164828571Y-66243142D02*
X164828571Y-65900285D01*
X164828571Y-66071714D02*
X165428571Y-66071714D01*
X165342857Y-66014571D01*
X165285714Y-65957428D01*
X165257142Y-65900285D01*
X190228571Y-68719714D02*
X190228571Y-68376857D01*
X190228571Y-68548285D02*
X190828571Y-68548285D01*
X190742857Y-68491142D01*
X190685714Y-68434000D01*
X190657142Y-68376857D01*
X190228571Y-69005428D02*
X190228571Y-69119714D01*
X190257142Y-69176857D01*
X190285714Y-69205428D01*
X190371428Y-69262571D01*
X190485714Y-69291142D01*
X190714285Y-69291142D01*
X190771428Y-69262571D01*
X190800000Y-69234000D01*
X190828571Y-69176857D01*
X190828571Y-69062571D01*
X190800000Y-69005428D01*
X190771428Y-68976857D01*
X190714285Y-68948285D01*
X190571428Y-68948285D01*
X190514285Y-68976857D01*
X190485714Y-69005428D01*
X190457142Y-69062571D01*
X190457142Y-69176857D01*
X190485714Y-69234000D01*
X190514285Y-69262571D01*
X190571428Y-69291142D01*
X188288571Y-65300285D02*
X188288571Y-65671714D01*
X188060000Y-65471714D01*
X188060000Y-65557428D01*
X188031428Y-65614571D01*
X188002857Y-65643142D01*
X187945714Y-65671714D01*
X187802857Y-65671714D01*
X187745714Y-65643142D01*
X187717142Y-65614571D01*
X187688571Y-65557428D01*
X187688571Y-65386000D01*
X187717142Y-65328857D01*
X187745714Y-65300285D01*
X188288571Y-65871714D02*
X188288571Y-66243142D01*
X188060000Y-66043142D01*
X188060000Y-66128857D01*
X188031428Y-66186000D01*
X188002857Y-66214571D01*
X187945714Y-66243142D01*
X187802857Y-66243142D01*
X187745714Y-66214571D01*
X187717142Y-66186000D01*
X187688571Y-66128857D01*
X187688571Y-65957428D01*
X187717142Y-65900285D01*
X187745714Y-65871714D01*
X98111571Y-64214285D02*
X98711571Y-64214285D01*
X98283000Y-64414285D01*
X98711571Y-64614285D01*
X98111571Y-64614285D01*
X98111571Y-65157142D02*
X98425857Y-65157142D01*
X98483000Y-65128571D01*
X98511571Y-65071428D01*
X98511571Y-64957142D01*
X98483000Y-64900000D01*
X98140142Y-65157142D02*
X98111571Y-65100000D01*
X98111571Y-64957142D01*
X98140142Y-64900000D01*
X98197285Y-64871428D01*
X98254428Y-64871428D01*
X98311571Y-64900000D01*
X98340142Y-64957142D01*
X98340142Y-65100000D01*
X98368714Y-65157142D01*
X98111571Y-65700000D02*
X98711571Y-65700000D01*
X98140142Y-65700000D02*
X98111571Y-65642857D01*
X98111571Y-65528571D01*
X98140142Y-65471428D01*
X98168714Y-65442857D01*
X98225857Y-65414285D01*
X98397285Y-65414285D01*
X98454428Y-65442857D01*
X98483000Y-65471428D01*
X98511571Y-65528571D01*
X98511571Y-65642857D01*
X98483000Y-65700000D01*
X98140142Y-66214285D02*
X98111571Y-66157142D01*
X98111571Y-66042857D01*
X98140142Y-65985714D01*
X98197285Y-65957142D01*
X98425857Y-65957142D01*
X98483000Y-65985714D01*
X98511571Y-66042857D01*
X98511571Y-66157142D01*
X98483000Y-66214285D01*
X98425857Y-66242857D01*
X98368714Y-66242857D01*
X98311571Y-65957142D01*
X98511571Y-66871428D02*
X98511571Y-67100000D01*
X98111571Y-66957142D02*
X98625857Y-66957142D01*
X98683000Y-66985714D01*
X98711571Y-67042857D01*
X98711571Y-67100000D01*
X98111571Y-67385714D02*
X98140142Y-67328571D01*
X98168714Y-67300000D01*
X98225857Y-67271428D01*
X98397285Y-67271428D01*
X98454428Y-67300000D01*
X98483000Y-67328571D01*
X98511571Y-67385714D01*
X98511571Y-67471428D01*
X98483000Y-67528571D01*
X98454428Y-67557142D01*
X98397285Y-67585714D01*
X98225857Y-67585714D01*
X98168714Y-67557142D01*
X98140142Y-67528571D01*
X98111571Y-67471428D01*
X98111571Y-67385714D01*
X98111571Y-67842857D02*
X98511571Y-67842857D01*
X98397285Y-67842857D02*
X98454428Y-67871428D01*
X98483000Y-67900000D01*
X98511571Y-67957142D01*
X98511571Y-68014285D01*
X98511571Y-68585714D02*
X98511571Y-68814285D01*
X98711571Y-68671428D02*
X98197285Y-68671428D01*
X98140142Y-68700000D01*
X98111571Y-68757142D01*
X98111571Y-68814285D01*
X98111571Y-69014285D02*
X98711571Y-69014285D01*
X98111571Y-69271428D02*
X98425857Y-69271428D01*
X98483000Y-69242857D01*
X98511571Y-69185714D01*
X98511571Y-69100000D01*
X98483000Y-69042857D01*
X98454428Y-69014285D01*
X98140142Y-69785714D02*
X98111571Y-69728571D01*
X98111571Y-69614285D01*
X98140142Y-69557142D01*
X98197285Y-69528571D01*
X98425857Y-69528571D01*
X98483000Y-69557142D01*
X98511571Y-69614285D01*
X98511571Y-69728571D01*
X98483000Y-69785714D01*
X98425857Y-69814285D01*
X98368714Y-69814285D01*
X98311571Y-69528571D01*
X97317000Y-60028571D02*
X97317000Y-60314285D01*
X97145571Y-59971428D02*
X97745571Y-60171428D01*
X97145571Y-60371428D01*
X97745571Y-60514285D02*
X97745571Y-60914285D01*
X97145571Y-60514285D01*
X97145571Y-60914285D01*
X97145571Y-61600000D02*
X97745571Y-61600000D01*
X97745571Y-61742857D01*
X97717000Y-61828571D01*
X97659857Y-61885714D01*
X97602714Y-61914285D01*
X97488428Y-61942857D01*
X97402714Y-61942857D01*
X97288428Y-61914285D01*
X97231285Y-61885714D01*
X97174142Y-61828571D01*
X97145571Y-61742857D01*
X97145571Y-61600000D01*
X97174142Y-62428571D02*
X97145571Y-62371428D01*
X97145571Y-62257142D01*
X97174142Y-62200000D01*
X97231285Y-62171428D01*
X97459857Y-62171428D01*
X97517000Y-62200000D01*
X97545571Y-62257142D01*
X97545571Y-62371428D01*
X97517000Y-62428571D01*
X97459857Y-62457142D01*
X97402714Y-62457142D01*
X97345571Y-62171428D01*
X97145571Y-62800000D02*
X97174142Y-62742857D01*
X97231285Y-62714285D01*
X97745571Y-62714285D01*
X97145571Y-63028571D02*
X97545571Y-63028571D01*
X97745571Y-63028571D02*
X97717000Y-63000000D01*
X97688428Y-63028571D01*
X97717000Y-63057142D01*
X97745571Y-63028571D01*
X97688428Y-63028571D01*
X97545571Y-63257142D02*
X97145571Y-63400000D01*
X97545571Y-63542857D01*
X97174142Y-64000000D02*
X97145571Y-63942857D01*
X97145571Y-63828571D01*
X97174142Y-63771428D01*
X97231285Y-63742857D01*
X97459857Y-63742857D01*
X97517000Y-63771428D01*
X97545571Y-63828571D01*
X97545571Y-63942857D01*
X97517000Y-64000000D01*
X97459857Y-64028571D01*
X97402714Y-64028571D01*
X97345571Y-63742857D01*
X97145571Y-64285714D02*
X97545571Y-64285714D01*
X97431285Y-64285714D02*
X97488428Y-64314285D01*
X97517000Y-64342857D01*
X97545571Y-64400000D01*
X97545571Y-64457142D01*
X97545571Y-64600000D02*
X97145571Y-64742857D01*
X97545571Y-64885714D02*
X97145571Y-64742857D01*
X97002714Y-64685714D01*
X96974142Y-64657142D01*
X96945571Y-64600000D01*
X97459857Y-65571428D02*
X97459857Y-65771428D01*
X97145571Y-65857142D02*
X97145571Y-65571428D01*
X97745571Y-65571428D01*
X97745571Y-65857142D01*
X97174142Y-66085714D02*
X97145571Y-66171428D01*
X97145571Y-66314285D01*
X97174142Y-66371428D01*
X97202714Y-66400000D01*
X97259857Y-66428571D01*
X97317000Y-66428571D01*
X97374142Y-66400000D01*
X97402714Y-66371428D01*
X97431285Y-66314285D01*
X97459857Y-66200000D01*
X97488428Y-66142857D01*
X97517000Y-66114285D01*
X97574142Y-66085714D01*
X97631285Y-66085714D01*
X97688428Y-66114285D01*
X97717000Y-66142857D01*
X97745571Y-66200000D01*
X97745571Y-66342857D01*
X97717000Y-66428571D01*
X97145571Y-66685714D02*
X97745571Y-66685714D01*
X97745571Y-66914285D01*
X97717000Y-66971428D01*
X97688428Y-67000000D01*
X97631285Y-67028571D01*
X97545571Y-67028571D01*
X97488428Y-67000000D01*
X97459857Y-66971428D01*
X97431285Y-66914285D01*
X97431285Y-66685714D01*
X97745571Y-67228571D02*
X97745571Y-67600000D01*
X97517000Y-67400000D01*
X97517000Y-67485714D01*
X97488428Y-67542857D01*
X97459857Y-67571428D01*
X97402714Y-67600000D01*
X97259857Y-67600000D01*
X97202714Y-67571428D01*
X97174142Y-67542857D01*
X97145571Y-67485714D01*
X97145571Y-67314285D01*
X97174142Y-67257142D01*
X97202714Y-67228571D01*
X97688428Y-67828571D02*
X97717000Y-67857142D01*
X97745571Y-67914285D01*
X97745571Y-68057142D01*
X97717000Y-68114285D01*
X97688428Y-68142857D01*
X97631285Y-68171428D01*
X97574142Y-68171428D01*
X97488428Y-68142857D01*
X97145571Y-67800000D01*
X97145571Y-68171428D01*
X97145571Y-68885714D02*
X97745571Y-68885714D01*
X97745571Y-69028571D01*
X97717000Y-69114285D01*
X97659857Y-69171428D01*
X97602714Y-69200000D01*
X97488428Y-69228571D01*
X97402714Y-69228571D01*
X97288428Y-69200000D01*
X97231285Y-69171428D01*
X97174142Y-69114285D01*
X97145571Y-69028571D01*
X97145571Y-68885714D01*
X97174142Y-69714285D02*
X97145571Y-69657142D01*
X97145571Y-69542857D01*
X97174142Y-69485714D01*
X97231285Y-69457142D01*
X97459857Y-69457142D01*
X97517000Y-69485714D01*
X97545571Y-69542857D01*
X97545571Y-69657142D01*
X97517000Y-69714285D01*
X97459857Y-69742857D01*
X97402714Y-69742857D01*
X97345571Y-69457142D01*
X97545571Y-69942857D02*
X97145571Y-70085714D01*
X97545571Y-70228571D01*
X97145571Y-70457142D02*
X97745571Y-70457142D01*
X97145571Y-70800000D02*
X97488428Y-70542857D01*
X97745571Y-70800000D02*
X97402714Y-70457142D01*
X97145571Y-71057142D02*
X97545571Y-71057142D01*
X97745571Y-71057142D02*
X97717000Y-71028571D01*
X97688428Y-71057142D01*
X97717000Y-71085714D01*
X97745571Y-71057142D01*
X97688428Y-71057142D01*
X97545571Y-71257142D02*
X97545571Y-71485714D01*
X97745571Y-71342857D02*
X97231285Y-71342857D01*
X97174142Y-71371428D01*
X97145571Y-71428571D01*
X97145571Y-71485714D01*
X97202714Y-72485714D02*
X97174142Y-72457142D01*
X97145571Y-72371428D01*
X97145571Y-72314285D01*
X97174142Y-72228571D01*
X97231285Y-72171428D01*
X97288428Y-72142857D01*
X97402714Y-72114285D01*
X97488428Y-72114285D01*
X97602714Y-72142857D01*
X97659857Y-72171428D01*
X97717000Y-72228571D01*
X97745571Y-72314285D01*
X97745571Y-72371428D01*
X97717000Y-72457142D01*
X97688428Y-72485714D01*
X97545571Y-73142857D02*
X97145571Y-73285714D01*
X97545571Y-73428571D01*
X97545571Y-73914285D02*
X97145571Y-73914285D01*
X97774142Y-73771428D02*
X97345571Y-73628571D01*
X97345571Y-74000000D01*
X142861904Y-64177380D02*
X142861904Y-63177380D01*
X143290476Y-63272619D02*
X143338095Y-63225000D01*
X143433333Y-63177380D01*
X143671428Y-63177380D01*
X143766666Y-63225000D01*
X143814285Y-63272619D01*
X143861904Y-63367857D01*
X143861904Y-63463095D01*
X143814285Y-63605952D01*
X143242857Y-64177380D01*
X143861904Y-64177380D01*
X144861904Y-64082142D02*
X144814285Y-64129761D01*
X144671428Y-64177380D01*
X144576190Y-64177380D01*
X144433333Y-64129761D01*
X144338095Y-64034523D01*
X144290476Y-63939285D01*
X144242857Y-63748809D01*
X144242857Y-63605952D01*
X144290476Y-63415476D01*
X144338095Y-63320238D01*
X144433333Y-63225000D01*
X144576190Y-63177380D01*
X144671428Y-63177380D01*
X144814285Y-63225000D01*
X144861904Y-63272619D01*
X146242857Y-63177380D02*
X146433333Y-63177380D01*
X146528571Y-63225000D01*
X146623809Y-63320238D01*
X146671428Y-63510714D01*
X146671428Y-63844047D01*
X146623809Y-64034523D01*
X146528571Y-64129761D01*
X146433333Y-64177380D01*
X146242857Y-64177380D01*
X146147619Y-64129761D01*
X146052380Y-64034523D01*
X146004761Y-63844047D01*
X146004761Y-63510714D01*
X146052380Y-63320238D01*
X146147619Y-63225000D01*
X146242857Y-63177380D01*
X147576190Y-64177380D02*
X147100000Y-64177380D01*
X147100000Y-63177380D01*
X147909523Y-63653571D02*
X148242857Y-63653571D01*
X148385714Y-64177380D02*
X147909523Y-64177380D01*
X147909523Y-63177380D01*
X148385714Y-63177380D01*
X148814285Y-64177380D02*
X148814285Y-63177380D01*
X149052380Y-63177380D01*
X149195238Y-63225000D01*
X149290476Y-63320238D01*
X149338095Y-63415476D01*
X149385714Y-63605952D01*
X149385714Y-63748809D01*
X149338095Y-63939285D01*
X149290476Y-64034523D01*
X149195238Y-64129761D01*
X149052380Y-64177380D01*
X148814285Y-64177380D01*
X137028571Y-66168333D02*
X136980952Y-66120714D01*
X136885714Y-65977857D01*
X136838095Y-65882619D01*
X136790476Y-65739761D01*
X136742857Y-65501666D01*
X136742857Y-65311190D01*
X136790476Y-65073095D01*
X136838095Y-64930238D01*
X136885714Y-64835000D01*
X136980952Y-64692142D01*
X137028571Y-64644523D01*
X137409523Y-65787380D02*
X137409523Y-64787380D01*
X137409523Y-65168333D02*
X137504761Y-65120714D01*
X137695238Y-65120714D01*
X137790476Y-65168333D01*
X137838095Y-65215952D01*
X137885714Y-65311190D01*
X137885714Y-65596904D01*
X137838095Y-65692142D01*
X137790476Y-65739761D01*
X137695238Y-65787380D01*
X137504761Y-65787380D01*
X137409523Y-65739761D01*
X138695238Y-65739761D02*
X138600000Y-65787380D01*
X138409523Y-65787380D01*
X138314285Y-65739761D01*
X138266666Y-65644523D01*
X138266666Y-65263571D01*
X138314285Y-65168333D01*
X138409523Y-65120714D01*
X138600000Y-65120714D01*
X138695238Y-65168333D01*
X138742857Y-65263571D01*
X138742857Y-65358809D01*
X138266666Y-65454047D01*
X139123809Y-65739761D02*
X139219047Y-65787380D01*
X139409523Y-65787380D01*
X139504761Y-65739761D01*
X139552380Y-65644523D01*
X139552380Y-65596904D01*
X139504761Y-65501666D01*
X139409523Y-65454047D01*
X139266666Y-65454047D01*
X139171428Y-65406428D01*
X139123809Y-65311190D01*
X139123809Y-65263571D01*
X139171428Y-65168333D01*
X139266666Y-65120714D01*
X139409523Y-65120714D01*
X139504761Y-65168333D01*
X139838095Y-65120714D02*
X140219047Y-65120714D01*
X139980952Y-64787380D02*
X139980952Y-65644523D01*
X140028571Y-65739761D01*
X140123809Y-65787380D01*
X140219047Y-65787380D01*
X141171428Y-65120714D02*
X141552380Y-65120714D01*
X141314285Y-65787380D02*
X141314285Y-64930238D01*
X141361904Y-64835000D01*
X141457142Y-64787380D01*
X141552380Y-64787380D01*
X141885714Y-65787380D02*
X141885714Y-65120714D01*
X141885714Y-64787380D02*
X141838095Y-64835000D01*
X141885714Y-64882619D01*
X141933333Y-64835000D01*
X141885714Y-64787380D01*
X141885714Y-64882619D01*
X142219047Y-65120714D02*
X142600000Y-65120714D01*
X142361904Y-64787380D02*
X142361904Y-65644523D01*
X142409523Y-65739761D01*
X142504761Y-65787380D01*
X142600000Y-65787380D01*
X144219047Y-65787380D02*
X143647619Y-65787380D01*
X143933333Y-65787380D02*
X143933333Y-64787380D01*
X143838095Y-64930238D01*
X143742857Y-65025476D01*
X143647619Y-65073095D01*
X144600000Y-64882619D02*
X144647619Y-64835000D01*
X144742857Y-64787380D01*
X144980952Y-64787380D01*
X145076190Y-64835000D01*
X145123809Y-64882619D01*
X145171428Y-64977857D01*
X145171428Y-65073095D01*
X145123809Y-65215952D01*
X144552380Y-65787380D01*
X145171428Y-65787380D01*
X145742857Y-65215952D02*
X145647619Y-65168333D01*
X145600000Y-65120714D01*
X145552380Y-65025476D01*
X145552380Y-64977857D01*
X145600000Y-64882619D01*
X145647619Y-64835000D01*
X145742857Y-64787380D01*
X145933333Y-64787380D01*
X146028571Y-64835000D01*
X146076190Y-64882619D01*
X146123809Y-64977857D01*
X146123809Y-65025476D01*
X146076190Y-65120714D01*
X146028571Y-65168333D01*
X145933333Y-65215952D01*
X145742857Y-65215952D01*
X145647619Y-65263571D01*
X145600000Y-65311190D01*
X145552380Y-65406428D01*
X145552380Y-65596904D01*
X145600000Y-65692142D01*
X145647619Y-65739761D01*
X145742857Y-65787380D01*
X145933333Y-65787380D01*
X146028571Y-65739761D01*
X146076190Y-65692142D01*
X146123809Y-65596904D01*
X146123809Y-65406428D01*
X146076190Y-65311190D01*
X146028571Y-65263571D01*
X145933333Y-65215952D01*
X146457142Y-65787380D02*
X146980952Y-65120714D01*
X146457142Y-65120714D02*
X146980952Y-65787380D01*
X147790476Y-64787380D02*
X147600000Y-64787380D01*
X147504761Y-64835000D01*
X147457142Y-64882619D01*
X147361904Y-65025476D01*
X147314285Y-65215952D01*
X147314285Y-65596904D01*
X147361904Y-65692142D01*
X147409523Y-65739761D01*
X147504761Y-65787380D01*
X147695238Y-65787380D01*
X147790476Y-65739761D01*
X147838095Y-65692142D01*
X147885714Y-65596904D01*
X147885714Y-65358809D01*
X147838095Y-65263571D01*
X147790476Y-65215952D01*
X147695238Y-65168333D01*
X147504761Y-65168333D01*
X147409523Y-65215952D01*
X147361904Y-65263571D01*
X147314285Y-65358809D01*
X148742857Y-65120714D02*
X148742857Y-65787380D01*
X148504761Y-64739761D02*
X148266666Y-65454047D01*
X148885714Y-65454047D01*
X150028571Y-65787380D02*
X150028571Y-64787380D01*
X150361904Y-65501666D01*
X150695238Y-64787380D01*
X150695238Y-65787380D01*
X151314285Y-65787380D02*
X151219047Y-65739761D01*
X151171428Y-65692142D01*
X151123809Y-65596904D01*
X151123809Y-65311190D01*
X151171428Y-65215952D01*
X151219047Y-65168333D01*
X151314285Y-65120714D01*
X151457142Y-65120714D01*
X151552380Y-65168333D01*
X151600000Y-65215952D01*
X151647619Y-65311190D01*
X151647619Y-65596904D01*
X151600000Y-65692142D01*
X151552380Y-65739761D01*
X151457142Y-65787380D01*
X151314285Y-65787380D01*
X152504761Y-65787380D02*
X152504761Y-64787380D01*
X152504761Y-65739761D02*
X152409523Y-65787380D01*
X152219047Y-65787380D01*
X152123809Y-65739761D01*
X152076190Y-65692142D01*
X152028571Y-65596904D01*
X152028571Y-65311190D01*
X152076190Y-65215952D01*
X152123809Y-65168333D01*
X152219047Y-65120714D01*
X152409523Y-65120714D01*
X152504761Y-65168333D01*
X153409523Y-65120714D02*
X153409523Y-65787380D01*
X152980952Y-65120714D02*
X152980952Y-65644523D01*
X153028571Y-65739761D01*
X153123809Y-65787380D01*
X153266666Y-65787380D01*
X153361904Y-65739761D01*
X153409523Y-65692142D01*
X154028571Y-65787380D02*
X153933333Y-65739761D01*
X153885714Y-65644523D01*
X153885714Y-64787380D01*
X154790476Y-65739761D02*
X154695238Y-65787380D01*
X154504761Y-65787380D01*
X154409523Y-65739761D01*
X154361904Y-65644523D01*
X154361904Y-65263571D01*
X154409523Y-65168333D01*
X154504761Y-65120714D01*
X154695238Y-65120714D01*
X154790476Y-65168333D01*
X154838095Y-65263571D01*
X154838095Y-65358809D01*
X154361904Y-65454047D01*
X155171428Y-66168333D02*
X155219047Y-66120714D01*
X155314285Y-65977857D01*
X155361904Y-65882619D01*
X155409523Y-65739761D01*
X155457142Y-65501666D01*
X155457142Y-65311190D01*
X155409523Y-65073095D01*
X155361904Y-64930238D01*
X155314285Y-64835000D01*
X155219047Y-64692142D01*
X155171428Y-64644523D01*
X198448571Y-65300285D02*
X198448571Y-65671714D01*
X198220000Y-65471714D01*
X198220000Y-65557428D01*
X198191428Y-65614571D01*
X198162857Y-65643142D01*
X198105714Y-65671714D01*
X197962857Y-65671714D01*
X197905714Y-65643142D01*
X197877142Y-65614571D01*
X197848571Y-65557428D01*
X197848571Y-65386000D01*
X197877142Y-65328857D01*
X197905714Y-65300285D01*
X197848571Y-65957428D02*
X197848571Y-66071714D01*
X197877142Y-66128857D01*
X197905714Y-66157428D01*
X197991428Y-66214571D01*
X198105714Y-66243142D01*
X198334285Y-66243142D01*
X198391428Y-66214571D01*
X198420000Y-66186000D01*
X198448571Y-66128857D01*
X198448571Y-66014571D01*
X198420000Y-65957428D01*
X198391428Y-65928857D01*
X198334285Y-65900285D01*
X198191428Y-65900285D01*
X198134285Y-65928857D01*
X198105714Y-65957428D01*
X198077142Y-66014571D01*
X198077142Y-66128857D01*
X198105714Y-66186000D01*
X198134285Y-66214571D01*
X198191428Y-66243142D01*
X172991428Y-68916571D02*
X173020000Y-68945142D01*
X173048571Y-69002285D01*
X173048571Y-69145142D01*
X173020000Y-69202285D01*
X172991428Y-69230857D01*
X172934285Y-69259428D01*
X172877142Y-69259428D01*
X172791428Y-69230857D01*
X172448571Y-68888000D01*
X172448571Y-69259428D01*
X190828571Y-65300285D02*
X190828571Y-65671714D01*
X190600000Y-65471714D01*
X190600000Y-65557428D01*
X190571428Y-65614571D01*
X190542857Y-65643142D01*
X190485714Y-65671714D01*
X190342857Y-65671714D01*
X190285714Y-65643142D01*
X190257142Y-65614571D01*
X190228571Y-65557428D01*
X190228571Y-65386000D01*
X190257142Y-65328857D01*
X190285714Y-65300285D01*
X190771428Y-65900285D02*
X190800000Y-65928857D01*
X190828571Y-65986000D01*
X190828571Y-66128857D01*
X190800000Y-66186000D01*
X190771428Y-66214571D01*
X190714285Y-66243142D01*
X190657142Y-66243142D01*
X190571428Y-66214571D01*
X190228571Y-65871714D01*
X190228571Y-66243142D01*
%TO.C,G\u002A\u002A\u002A*%
G36*
X112082294Y-64959867D02*
G01*
X112407801Y-64745514D01*
X112461580Y-64724922D01*
X112774789Y-64534841D01*
X113571116Y-64534841D01*
X113621222Y-64812302D01*
X113851110Y-65137899D01*
X114146857Y-65433036D01*
X114586753Y-65767145D01*
X114955576Y-65899881D01*
X115239199Y-65828550D01*
X115373673Y-65666855D01*
X115452032Y-65399223D01*
X115378534Y-65122678D01*
X115134548Y-64796685D01*
X114840274Y-64506216D01*
X114422856Y-64174344D01*
X114096595Y-64043284D01*
X113838410Y-64108269D01*
X113685870Y-64267793D01*
X113571116Y-64534841D01*
X112774789Y-64534841D01*
X112800914Y-64518986D01*
X112831357Y-64500511D01*
X113063940Y-64142995D01*
X113337181Y-63749754D01*
X113714848Y-63499507D01*
X114024514Y-63437037D01*
X114096595Y-63383476D01*
X114160923Y-63335676D01*
X114179515Y-63240367D01*
X114793676Y-63240367D01*
X114858193Y-63550091D01*
X115124230Y-63937130D01*
X115337477Y-64167952D01*
X115770423Y-64546465D01*
X116122518Y-64714685D01*
X116407691Y-64677558D01*
X116523703Y-64589445D01*
X116654472Y-64339264D01*
X116589954Y-64029540D01*
X116323917Y-63642500D01*
X116110670Y-63411679D01*
X115677725Y-63033165D01*
X115325629Y-62864946D01*
X115040456Y-62902072D01*
X114924444Y-62990186D01*
X114793676Y-63240367D01*
X114179515Y-63240367D01*
X114195370Y-63159091D01*
X114294809Y-62849008D01*
X114541386Y-62545880D01*
X114857485Y-62325940D01*
X115109597Y-62261112D01*
X115325629Y-62193357D01*
X115393237Y-62172153D01*
X115755119Y-61928831D01*
X115906102Y-61798098D01*
X116728434Y-61183994D01*
X117626789Y-60771348D01*
X118568994Y-60565435D01*
X119052670Y-60568526D01*
X119522874Y-60571530D01*
X120456252Y-60794909D01*
X120888336Y-60981253D01*
X121646258Y-61482599D01*
X122243573Y-62128920D01*
X122672286Y-62886248D01*
X122924403Y-63720612D01*
X122991930Y-64598044D01*
X122866874Y-65484575D01*
X122541240Y-66346235D01*
X122261300Y-66815437D01*
X121858655Y-67400780D01*
X122076596Y-67733012D01*
X122395084Y-68403556D01*
X122583265Y-69202343D01*
X122637972Y-70059758D01*
X122556038Y-70906185D01*
X122334296Y-71672010D01*
X122262987Y-71829836D01*
X121770412Y-72585214D01*
X121127824Y-73185970D01*
X120370565Y-73622244D01*
X119533977Y-73884177D01*
X118653401Y-73961907D01*
X117764177Y-73845576D01*
X116901648Y-73525325D01*
X116661177Y-73392675D01*
X116209042Y-73127877D01*
X115735720Y-72858185D01*
X115498851Y-72726852D01*
X115374771Y-72642645D01*
X116664814Y-72642645D01*
X116762714Y-72739415D01*
X117016108Y-72891887D01*
X117282175Y-73025095D01*
X118059846Y-73270875D01*
X118873735Y-73323701D01*
X119676227Y-73195517D01*
X120419709Y-72898264D01*
X121056564Y-72443884D01*
X121455114Y-71978505D01*
X121848843Y-71246711D01*
X122036444Y-70499730D01*
X122044290Y-69728199D01*
X121978857Y-69203202D01*
X121857234Y-68738656D01*
X121656107Y-68295559D01*
X121352162Y-67834913D01*
X120922087Y-67317716D01*
X120342569Y-66704969D01*
X120077726Y-66438368D01*
X119565857Y-65929540D01*
X119195213Y-65569446D01*
X118941097Y-65340143D01*
X118778809Y-65223689D01*
X118683651Y-65202141D01*
X118630924Y-65257556D01*
X118598066Y-65363444D01*
X118537645Y-65761075D01*
X118584341Y-66126995D01*
X118758170Y-66503384D01*
X119079148Y-66932424D01*
X119567291Y-67456296D01*
X119613085Y-67502481D01*
X120028867Y-67928378D01*
X120296082Y-68227266D01*
X120438243Y-68432454D01*
X120478861Y-68577250D01*
X120447461Y-68684492D01*
X120330588Y-68829912D01*
X120072199Y-69112766D01*
X119698512Y-69505636D01*
X119235745Y-69981100D01*
X118710117Y-70511739D01*
X118495118Y-70726355D01*
X117961464Y-71261518D01*
X117489094Y-71743158D01*
X117102032Y-72146123D01*
X116824298Y-72445263D01*
X116679917Y-72615426D01*
X116664814Y-72642645D01*
X115374771Y-72642645D01*
X115102899Y-72458139D01*
X114888338Y-72166050D01*
X114849830Y-72060010D01*
X114693174Y-71759601D01*
X114393473Y-71554325D01*
X114285627Y-71508690D01*
X113928696Y-71307028D01*
X113695086Y-70993167D01*
X113631166Y-70853812D01*
X113460967Y-70546554D01*
X113286600Y-70386367D01*
X113241089Y-70376196D01*
X112915626Y-70268926D01*
X112617441Y-69995336D01*
X112408352Y-69621744D01*
X112358215Y-69429070D01*
X112310781Y-69274156D01*
X112916724Y-69274156D01*
X112982765Y-69480919D01*
X113086640Y-69602249D01*
X113318744Y-69753123D01*
X113462849Y-69787037D01*
X113607540Y-69707761D01*
X113884618Y-69488597D01*
X114261770Y-69157546D01*
X114706684Y-68742609D01*
X115023448Y-68434723D01*
X115603399Y-67873199D01*
X116046519Y-67474096D01*
X116372891Y-67224646D01*
X116602593Y-67112082D01*
X116755708Y-67123634D01*
X116852316Y-67246535D01*
X116860493Y-67266661D01*
X116820353Y-67412966D01*
X116628266Y-67683870D01*
X116276840Y-68088241D01*
X115758683Y-68634946D01*
X115502154Y-68896406D01*
X114981244Y-69427178D01*
X114607427Y-69820983D01*
X114359629Y-70105265D01*
X114216776Y-70307471D01*
X114157792Y-70455044D01*
X114161604Y-70575432D01*
X114176323Y-70623032D01*
X114379565Y-70872142D01*
X114608285Y-70943118D01*
X114752102Y-70937734D01*
X114916617Y-70872756D01*
X115130451Y-70725775D01*
X115422221Y-70474383D01*
X115820548Y-70096171D01*
X116319245Y-69603459D01*
X116902028Y-69034290D01*
X117342155Y-68632880D01*
X117651294Y-68389514D01*
X117841111Y-68294478D01*
X117888691Y-68296697D01*
X118051512Y-68436664D01*
X118075925Y-68521145D01*
X117996305Y-68652007D01*
X117776234Y-68915511D01*
X117443902Y-69280368D01*
X117027496Y-69715288D01*
X116723611Y-70022223D01*
X116113940Y-70647310D01*
X115686164Y-71125423D01*
X115439406Y-71457602D01*
X115371296Y-71628803D01*
X115461437Y-71934451D01*
X115680312Y-72172594D01*
X115922851Y-72256482D01*
X116054774Y-72177026D01*
X116319862Y-71958244D01*
X116687946Y-71629515D01*
X117128856Y-71220217D01*
X117612422Y-70759729D01*
X118108476Y-70277430D01*
X118586848Y-69802699D01*
X119017368Y-69364914D01*
X119369867Y-68993455D01*
X119614176Y-68717699D01*
X119720124Y-68567027D01*
X119722222Y-68556687D01*
X119643242Y-68420174D01*
X119432743Y-68168526D01*
X119130385Y-67847883D01*
X119007745Y-67725486D01*
X118653955Y-67360046D01*
X118351401Y-67015341D01*
X118153528Y-66753146D01*
X118125801Y-66706072D01*
X117990299Y-66285767D01*
X117961439Y-65800342D01*
X118027521Y-65316754D01*
X118176848Y-64901964D01*
X118397723Y-64622930D01*
X118499717Y-64565751D01*
X118683651Y-64529739D01*
X118698298Y-64526871D01*
X118917761Y-64575062D01*
X119187709Y-64729624D01*
X119537749Y-65009853D01*
X119997486Y-65435048D01*
X120327713Y-65757321D01*
X121462372Y-66877957D01*
X121815811Y-66390048D01*
X122193218Y-65680494D01*
X122374125Y-64903190D01*
X122368706Y-64101251D01*
X122187134Y-63317793D01*
X121839582Y-62595935D01*
X121336224Y-61978793D01*
X120687232Y-61509483D01*
X120661025Y-61495758D01*
X119893566Y-61225614D01*
X119052670Y-61149488D01*
X118186646Y-61260173D01*
X117343802Y-61550466D01*
X116572447Y-62013161D01*
X116429713Y-62126832D01*
X116018224Y-62470378D01*
X116635500Y-63123058D01*
X116966420Y-63492911D01*
X117155819Y-63769319D01*
X117238944Y-64013966D01*
X117252777Y-64203396D01*
X117165729Y-64583543D01*
X116943453Y-64942631D01*
X116644258Y-65210873D01*
X116326448Y-65318484D01*
X116321082Y-65318519D01*
X116119829Y-65395712D01*
X116076851Y-65562750D01*
X115984855Y-65825090D01*
X115758515Y-66117278D01*
X115472301Y-66364088D01*
X115200685Y-66490296D01*
X115154500Y-66494445D01*
X114948435Y-66586582D01*
X114845373Y-66832455D01*
X114642189Y-67255475D01*
X114275730Y-67586238D01*
X113930787Y-67733198D01*
X113675435Y-67865427D01*
X113607407Y-68019727D01*
X113537597Y-68230381D01*
X113360899Y-68526564D01*
X113254629Y-68669908D01*
X113003925Y-69022801D01*
X112916724Y-69274156D01*
X112310781Y-69274156D01*
X112248949Y-69072221D01*
X112079037Y-68905199D01*
X111904234Y-68792641D01*
X111624793Y-68552546D01*
X111294068Y-68231594D01*
X111211590Y-68146254D01*
X110872491Y-67775459D01*
X110672457Y-67504213D01*
X110577238Y-67273092D01*
X110552583Y-67022670D01*
X110552614Y-67002943D01*
X110571782Y-66873596D01*
X111150481Y-66873596D01*
X111207138Y-67167342D01*
X111456900Y-67542020D01*
X111619178Y-67727312D01*
X112006408Y-68106629D01*
X112314786Y-68301945D01*
X112584846Y-68331890D01*
X112779817Y-68260711D01*
X112994024Y-68040606D01*
X113000176Y-67731859D01*
X112801486Y-67349159D01*
X112505750Y-67008139D01*
X112061240Y-66642871D01*
X111678522Y-66494675D01*
X111364495Y-66565648D01*
X111279074Y-66635556D01*
X111150481Y-66873596D01*
X110571782Y-66873596D01*
X110607633Y-66631679D01*
X110738673Y-66319277D01*
X110758401Y-66291788D01*
X111021527Y-66060039D01*
X111314351Y-65907222D01*
X111435010Y-65826716D01*
X112344188Y-65826716D01*
X112487578Y-66099196D01*
X112808800Y-66455153D01*
X112953609Y-66594980D01*
X113313178Y-66927151D01*
X113552912Y-67114543D01*
X113719823Y-67178133D01*
X113860920Y-67138899D01*
X113980074Y-67053010D01*
X114190695Y-66824211D01*
X114230676Y-66583463D01*
X114092555Y-66289908D01*
X113770206Y-65904118D01*
X113364940Y-65505556D01*
X113053055Y-65290728D01*
X112800914Y-65245432D01*
X112574881Y-65355464D01*
X112540647Y-65384942D01*
X112366065Y-65600902D01*
X112344188Y-65826716D01*
X111435010Y-65826716D01*
X111643310Y-65687735D01*
X111678522Y-65629079D01*
X111858744Y-65328865D01*
X112082294Y-64959867D01*
G37*
D11*
%TO.C,D1*%
X130594955Y-81274158D02*
X126088439Y-81271790D01*
X130594955Y-81274158D02*
G75*
G03*
X126088439Y-81271790I-2252689J1084157D01*
G01*
%TO.C,J5*%
X140910000Y-56120000D02*
X140910000Y-53460000D01*
X140910000Y-56120000D02*
X151190000Y-56120000D01*
X151190000Y-56120000D02*
X151190000Y-53460000D01*
X140910000Y-53460000D02*
X151190000Y-53460000D01*
%TO.C,R1*%
X86890000Y-73730000D02*
X86890000Y-74060000D01*
X93430000Y-74060000D02*
X93430000Y-73730000D01*
X86890000Y-74060000D02*
X93430000Y-74060000D01*
X93430000Y-71320000D02*
X93430000Y-71650000D01*
X86890000Y-71650000D02*
X86890000Y-71320000D01*
X86890000Y-71320000D02*
X93430000Y-71320000D01*
%TO.C,J1*%
X74850000Y-53460000D02*
X74850000Y-56120000D01*
X123220800Y-56120000D02*
X74850000Y-56120000D01*
X123220800Y-53460000D02*
X123220800Y-56120000D01*
X123220800Y-53460000D02*
X74850000Y-53460000D01*
%TO.C,J2*%
X74850000Y-78460000D02*
X74850000Y-81120000D01*
X123220800Y-78460000D02*
X74850000Y-78460000D01*
X123220800Y-81120000D02*
X74850000Y-81120000D01*
X123220800Y-78460000D02*
X123220800Y-81120000D01*
%TD*%
M02*
