%TF.GenerationSoftware,KiCad,Pcbnew,(6.0.6)*%
%TF.CreationDate,2022-07-11T13:14:15+02:00*%
%TF.ProjectId,ESP32_DevKit_C_v4-AZDelivery_Breadboard_Adapter,45535033-325f-4446-9576-4b69745f435f,2*%
%TF.SameCoordinates,Original*%
%TF.FileFunction,Copper,L3,Inr*%
%TF.FilePolarity,Positive*%
%FSLAX46Y46*%
G04 Gerber Fmt 4.6, Leading zero omitted, Abs format (unit mm)*
G04 Created by KiCad (PCBNEW (6.0.6)) date 2022-07-11 13:14:15*
%MOMM*%
%LPD*%
G01*
G04 APERTURE LIST*
%TA.AperFunction,ComponentPad*%
%ADD10R,1.800000X1.800000*%
%TD*%
%TA.AperFunction,ComponentPad*%
%ADD11C,1.800000*%
%TD*%
%TA.AperFunction,ComponentPad*%
%ADD12C,1.700000*%
%TD*%
%TA.AperFunction,ComponentPad*%
%ADD13O,1.700000X1.700000*%
%TD*%
%TA.AperFunction,ComponentPad*%
%ADD14C,1.600000*%
%TD*%
%TA.AperFunction,ComponentPad*%
%ADD15O,1.600000X1.600000*%
%TD*%
%TA.AperFunction,ViaPad*%
%ADD16C,0.800000*%
%TD*%
%TA.AperFunction,Conductor*%
%ADD17C,0.250000*%
%TD*%
G04 APERTURE END LIST*
D10*
%TO.N,GND*%
%TO.C,D1*%
X159320000Y-116850000D03*
D11*
%TO.N,Net-(D1-Pad2)*%
X156780000Y-116850000D03*
%TD*%
D12*
%TO.N,GND*%
%TO.C,J5*%
X171960000Y-91450000D03*
D13*
%TO.N,+5V*%
X174500000Y-91450000D03*
%TO.N,GPIO22*%
X177040000Y-91450000D03*
%TO.N,GPIO21*%
X179580000Y-91450000D03*
%TD*%
D14*
%TO.N,GPIO2*%
%TO.C,R1*%
X116070000Y-109350000D03*
D15*
%TO.N,Net-(D1-Pad2)*%
X123690000Y-109350000D03*
%TD*%
D12*
%TO.N,+3.3V*%
%TO.C,J1*%
X151620000Y-91450000D03*
D13*
%TO.N,RESET*%
X149080000Y-91450000D03*
%TO.N,GPIO36*%
X146540000Y-91450000D03*
%TO.N,GPIO39*%
X144000000Y-91450000D03*
%TO.N,GPIO34*%
X141460000Y-91450000D03*
%TO.N,GPIO35*%
X138920000Y-91450000D03*
%TO.N,GPIO32*%
X136380000Y-91450000D03*
%TO.N,GPIO33*%
X133840000Y-91450000D03*
%TO.N,GPIO25*%
X131300000Y-91450000D03*
%TO.N,GPIO26*%
X128760000Y-91450000D03*
%TO.N,GPIO27*%
X126220000Y-91450000D03*
%TO.N,GPIO14*%
X123680000Y-91450000D03*
%TO.N,GPIO12*%
X121140000Y-91450000D03*
%TO.N,GND*%
X118600000Y-91450000D03*
%TO.N,GPIO13*%
X116060000Y-91450000D03*
%TO.N,GPIO9*%
X113520000Y-91450000D03*
%TO.N,GPIO10*%
X110980000Y-91450000D03*
%TO.N,GPIO11*%
X108440000Y-91450000D03*
%TO.N,+5V*%
X105900000Y-91450000D03*
%TD*%
D12*
%TO.N,GND*%
%TO.C,J2*%
X151620000Y-116450000D03*
D13*
%TO.N,GPIO23*%
X149080000Y-116450000D03*
%TO.N,GPIO22*%
X146540000Y-116450000D03*
%TO.N,GPIO1*%
X144000000Y-116450000D03*
%TO.N,GPIO3*%
X141460000Y-116450000D03*
%TO.N,GPIO21*%
X138920000Y-116450000D03*
%TO.N,GND*%
X136380000Y-116450000D03*
%TO.N,GPIO19*%
X133840000Y-116450000D03*
%TO.N,GPIO18*%
X131300000Y-116450000D03*
%TO.N,GPIO5*%
X128760000Y-116450000D03*
%TO.N,GPIO17*%
X126220000Y-116450000D03*
%TO.N,GPIO16*%
X123680000Y-116450000D03*
%TO.N,GPIO4*%
X121140000Y-116450000D03*
%TO.N,GPIO0*%
X118600000Y-116450000D03*
%TO.N,GPIO2*%
X116060000Y-116450000D03*
%TO.N,GPIO15*%
X113520000Y-116450000D03*
%TO.N,GPIO8*%
X110980000Y-116450000D03*
%TO.N,GPIO7*%
X108440000Y-116450000D03*
%TO.N,GPIO6*%
X105900000Y-116450000D03*
%TD*%
D12*
%TO.N,GND*%
%TO.C,J4*%
X235460000Y-107780000D03*
D13*
%TO.N,GPIO23*%
X232920000Y-107780000D03*
%TO.N,GPIO22*%
X230380000Y-107780000D03*
%TO.N,GPIO1*%
X227840000Y-107780000D03*
%TO.N,GPIO3*%
X225300000Y-107780000D03*
%TO.N,GPIO21*%
X222760000Y-107780000D03*
%TO.N,GPIO19*%
X220220000Y-107780000D03*
%TO.N,GPIO18*%
X217680000Y-107780000D03*
%TO.N,GPIO5*%
X215140000Y-107780000D03*
%TO.N,GPIO17*%
X212600000Y-107780000D03*
%TO.N,GPIO16*%
X210060000Y-107780000D03*
%TO.N,GPIO4*%
X207520000Y-107780000D03*
%TO.N,GPIO0*%
X204980000Y-107780000D03*
%TO.N,GPIO2*%
X202440000Y-107780000D03*
%TO.N,GPIO15*%
X199900000Y-107780000D03*
%TO.N,GPIO8*%
X197360000Y-107780000D03*
%TO.N,GPIO7*%
X194820000Y-107780000D03*
%TO.N,GPIO6*%
X192280000Y-107780000D03*
%TD*%
D12*
%TO.N,+3.3V*%
%TO.C,J3*%
X235460000Y-100160000D03*
D13*
%TO.N,RESET*%
X232920000Y-100160000D03*
%TO.N,GPIO36*%
X230380000Y-100160000D03*
%TO.N,GPIO39*%
X227840000Y-100160000D03*
%TO.N,GPIO34*%
X225300000Y-100160000D03*
%TO.N,GPIO35*%
X222760000Y-100160000D03*
%TO.N,GPIO32*%
X220220000Y-100160000D03*
%TO.N,GPIO33*%
X217680000Y-100160000D03*
%TO.N,GPIO25*%
X215140000Y-100160000D03*
%TO.N,GPIO26*%
X212600000Y-100160000D03*
%TO.N,GPIO27*%
X210060000Y-100160000D03*
%TO.N,GPIO14*%
X207520000Y-100160000D03*
%TO.N,GPIO12*%
X204980000Y-100160000D03*
%TO.N,GPIO13*%
X202440000Y-100160000D03*
%TO.N,GPIO9*%
X199900000Y-100160000D03*
%TO.N,GPIO10*%
X197360000Y-100160000D03*
%TO.N,GPIO11*%
X194820000Y-100160000D03*
%TO.N,+5V*%
X192280000Y-100160000D03*
%TD*%
D16*
%TO.N,GPIO2*%
X136432299Y-101762299D03*
%TO.N,RESET*%
X157182702Y-93487297D03*
%TO.N,GPIO36*%
X158319386Y-93599382D03*
%TO.N,GPIO39*%
X159632300Y-93837700D03*
%TO.N,GPIO34*%
X160994600Y-94175400D03*
%TO.N,GPIO35*%
X162116049Y-94272249D03*
%TO.N,GPIO32*%
X163234499Y-94366099D03*
%TO.N,GPIO33*%
X164337398Y-94425500D03*
%TO.N,GPIO25*%
X169254194Y-98317698D03*
%TO.N,GPIO26*%
X170515548Y-98554452D03*
%TO.N,GPIO27*%
X171827847Y-98842153D03*
%TO.N,GPIO14*%
X173190147Y-99179853D03*
%TO.N,GPIO12*%
X114221305Y-106151305D03*
%TO.N,GPIO13*%
X113620000Y-104350000D03*
%TO.N,GPIO9*%
X113457701Y-102912299D03*
%TO.N,GPIO23*%
X152344500Y-114650000D03*
%TO.N,GPIO22*%
X153069000Y-113250000D03*
X177020000Y-99435500D03*
%TO.N,GPIO1*%
X153793500Y-111350000D03*
%TO.N,GPIO3*%
X154518000Y-109250000D03*
%TO.N,GPIO21*%
X154968000Y-106750000D03*
X178920000Y-98450000D03*
%TO.N,GPIO19*%
X155572684Y-105721915D03*
%TO.N,GPIO18*%
X157244599Y-105074600D03*
%TO.N,GPIO5*%
X159820000Y-105224500D03*
%TO.N,GPIO17*%
X162620000Y-105674500D03*
%TO.N,GPIO16*%
X164920000Y-106124500D03*
%TO.N,GPIO4*%
X167991014Y-106574500D03*
%TO.N,GPIO15*%
X138044599Y-101174599D03*
%TO.N,GPIO8*%
X139656899Y-100586899D03*
%TO.N,GPIO7*%
X141419199Y-99849199D03*
%TO.N,GPIO6*%
X143231499Y-99061499D03*
%TD*%
D17*
%TO.N,RESET*%
X157182702Y-93487297D02*
X151117297Y-93487297D01*
X151117297Y-93487297D02*
X149080000Y-91450000D01*
%TO.N,GPIO36*%
X149302297Y-94212297D02*
X146540000Y-91450000D01*
X157706471Y-94212297D02*
X149302297Y-94212297D01*
X158319386Y-93599382D02*
X157706471Y-94212297D01*
%TO.N,GPIO39*%
X159632300Y-93837700D02*
X158807703Y-94662297D01*
X158807703Y-94662297D02*
X147212297Y-94662297D01*
X147212297Y-94662297D02*
X144000000Y-91450000D01*
%TO.N,GPIO34*%
X160994600Y-94175400D02*
X160057703Y-95112297D01*
X160057703Y-95112297D02*
X145122297Y-95112297D01*
X145122297Y-95112297D02*
X141460000Y-91450000D01*
%TO.N,GPIO35*%
X160826001Y-95562297D02*
X143032297Y-95562297D01*
X143032297Y-95562297D02*
X138920000Y-91450000D01*
X162116049Y-94272249D02*
X160826001Y-95562297D01*
%TO.N,GPIO32*%
X161588301Y-96012297D02*
X140942297Y-96012297D01*
X140942297Y-96012297D02*
X136380000Y-91450000D01*
X163234499Y-94366099D02*
X161588301Y-96012297D01*
%TO.N,GPIO33*%
X164337398Y-94425500D02*
X162300601Y-96462297D01*
X162300601Y-96462297D02*
X138852297Y-96462297D01*
X138852297Y-96462297D02*
X133840000Y-91450000D01*
%TO.N,GPIO25*%
X169254194Y-98317698D02*
X167848793Y-96912297D01*
X167848793Y-96912297D02*
X136762297Y-96912297D01*
X136762297Y-96912297D02*
X131300000Y-91450000D01*
%TO.N,GPIO26*%
X165720000Y-97362297D02*
X134672297Y-97362297D01*
X170515548Y-98554452D02*
X170027302Y-99042698D01*
X167400401Y-99042698D02*
X165720000Y-97362297D01*
X170027302Y-99042698D02*
X167400401Y-99042698D01*
X134672297Y-97362297D02*
X128760000Y-91450000D01*
%TO.N,GPIO27*%
X165533604Y-97812297D02*
X132582297Y-97812297D01*
X171177302Y-99492698D02*
X167214005Y-99492698D01*
X167214005Y-99492698D02*
X165533604Y-97812297D01*
X171827847Y-98842153D02*
X171177302Y-99492698D01*
X132582297Y-97812297D02*
X126220000Y-91450000D01*
%TO.N,GPIO14*%
X167027609Y-99942698D02*
X165347208Y-98262297D01*
X173190147Y-99179853D02*
X172590147Y-99179853D01*
X172590147Y-99179853D02*
X171827302Y-99942698D01*
X171827302Y-99942698D02*
X167027609Y-99942698D01*
X130492297Y-98262297D02*
X123680000Y-91450000D01*
X165347208Y-98262297D02*
X130492297Y-98262297D01*
%TO.N,GPIO12*%
X113508299Y-118100000D02*
X179180000Y-118100000D01*
X190675000Y-106605000D02*
X203885000Y-106605000D01*
X112345000Y-116936701D02*
X113508299Y-118100000D01*
X114221305Y-109607704D02*
X112345000Y-111484009D01*
X114221305Y-106151305D02*
X114221305Y-109607704D01*
X203885000Y-106605000D02*
X204980000Y-105510000D01*
X179180000Y-118100000D02*
X190675000Y-106605000D01*
X204980000Y-105510000D02*
X204980000Y-100160000D01*
X112345000Y-111484009D02*
X112345000Y-116936701D01*
%TO.N,GPIO13*%
X202440000Y-100160000D02*
X202440000Y-104430000D01*
X164995000Y-112075000D02*
X130545000Y-112075000D01*
X130545000Y-112075000D02*
X124220000Y-105750000D01*
X170915000Y-106155000D02*
X164995000Y-112075000D01*
X200715000Y-106155000D02*
X170915000Y-106155000D01*
X115020000Y-105750000D02*
X113620000Y-104350000D01*
X124220000Y-105750000D02*
X115020000Y-105750000D01*
X202440000Y-104430000D02*
X200715000Y-106155000D01*
%TO.N,GPIO9*%
X156825574Y-105949500D02*
X155787062Y-104910988D01*
X199900000Y-100160000D02*
X199900000Y-103470000D01*
X155787062Y-104910988D02*
X115456388Y-104910988D01*
X165609305Y-104949500D02*
X161120305Y-104949500D01*
X160120305Y-105949500D02*
X156825574Y-105949500D01*
X161120305Y-104949500D02*
X160120305Y-105949500D01*
X115456388Y-104910988D02*
X113457701Y-102912299D01*
X199900000Y-103470000D02*
X197665000Y-105705000D01*
X197665000Y-105705000D02*
X166364805Y-105705000D01*
X166364805Y-105705000D02*
X165609305Y-104949500D01*
%TO.N,GPIO10*%
X197015000Y-105255000D02*
X190088604Y-105255000D01*
X189183204Y-104349600D02*
X115919600Y-104349600D01*
X110980000Y-99410000D02*
X110980000Y-91450000D01*
X115919600Y-104349600D02*
X110980000Y-99410000D01*
X197360000Y-100160000D02*
X197360000Y-104910000D01*
X190088604Y-105255000D02*
X189183204Y-104349600D01*
X197360000Y-104910000D02*
X197015000Y-105255000D01*
%TO.N,GPIO11*%
X187520000Y-91175000D02*
X187520000Y-102050000D01*
X110315000Y-89575000D02*
X185920000Y-89575000D01*
X194820000Y-104150000D02*
X194820000Y-100160000D01*
X108440000Y-91450000D02*
X110315000Y-89575000D01*
X190275000Y-104805000D02*
X194165000Y-104805000D01*
X194165000Y-104805000D02*
X194820000Y-104150000D01*
X187520000Y-102050000D02*
X190275000Y-104805000D01*
X185920000Y-89575000D02*
X187520000Y-91175000D01*
%TD*%
M02*
