%TF.GenerationSoftware,KiCad,Pcbnew,(6.0.6)*%
%TF.CreationDate,2022-07-11T13:14:15+02:00*%
%TF.ProjectId,ESP32_DevKit_C_v4-AZDelivery_Breadboard_Adapter,45535033-325f-4446-9576-4b69745f435f,2*%
%TF.SameCoordinates,Original*%
%TF.FileFunction,Copper,L1,Top*%
%TF.FilePolarity,Positive*%
%FSLAX46Y46*%
G04 Gerber Fmt 4.6, Leading zero omitted, Abs format (unit mm)*
G04 Created by KiCad (PCBNEW (6.0.6)) date 2022-07-11 13:14:15*
%MOMM*%
%LPD*%
G01*
G04 APERTURE LIST*
%TA.AperFunction,ComponentPad*%
%ADD10R,1.800000X1.800000*%
%TD*%
%TA.AperFunction,ComponentPad*%
%ADD11C,1.800000*%
%TD*%
%TA.AperFunction,ComponentPad*%
%ADD12C,1.700000*%
%TD*%
%TA.AperFunction,ComponentPad*%
%ADD13O,1.700000X1.700000*%
%TD*%
%TA.AperFunction,ComponentPad*%
%ADD14C,1.600000*%
%TD*%
%TA.AperFunction,ComponentPad*%
%ADD15O,1.600000X1.600000*%
%TD*%
%TA.AperFunction,ViaPad*%
%ADD16C,0.800000*%
%TD*%
%TA.AperFunction,Conductor*%
%ADD17C,0.250000*%
%TD*%
G04 APERTURE END LIST*
D10*
%TO.P,D1,1,K*%
%TO.N,GND*%
X159320000Y-116850000D03*
D11*
%TO.P,D1,2,A*%
%TO.N,Net-(D1-Pad2)*%
X156780000Y-116850000D03*
%TD*%
D12*
%TO.P,J5,1,Pin_1*%
%TO.N,GND*%
X171960000Y-91450000D03*
D13*
%TO.P,J5,2,Pin_2*%
%TO.N,+5V*%
X174500000Y-91450000D03*
%TO.P,J5,3,Pin_3*%
%TO.N,GPIO22*%
X177040000Y-91450000D03*
%TO.P,J5,4,Pin_4*%
%TO.N,GPIO21*%
X179580000Y-91450000D03*
%TD*%
D14*
%TO.P,R1,1*%
%TO.N,GPIO2*%
X116070000Y-109350000D03*
D15*
%TO.P,R1,2*%
%TO.N,Net-(D1-Pad2)*%
X123690000Y-109350000D03*
%TD*%
D12*
%TO.P,J1,1,Pin_1*%
%TO.N,+3.3V*%
X151620000Y-91450000D03*
D13*
%TO.P,J1,2,Pin_2*%
%TO.N,RESET*%
X149080000Y-91450000D03*
%TO.P,J1,3,Pin_3*%
%TO.N,GPIO36*%
X146540000Y-91450000D03*
%TO.P,J1,4,Pin_4*%
%TO.N,GPIO39*%
X144000000Y-91450000D03*
%TO.P,J1,5,Pin_5*%
%TO.N,GPIO34*%
X141460000Y-91450000D03*
%TO.P,J1,6,Pin_6*%
%TO.N,GPIO35*%
X138920000Y-91450000D03*
%TO.P,J1,7,Pin_7*%
%TO.N,GPIO32*%
X136380000Y-91450000D03*
%TO.P,J1,8,Pin_8*%
%TO.N,GPIO33*%
X133840000Y-91450000D03*
%TO.P,J1,9,Pin_9*%
%TO.N,GPIO25*%
X131300000Y-91450000D03*
%TO.P,J1,10,Pin_10*%
%TO.N,GPIO26*%
X128760000Y-91450000D03*
%TO.P,J1,11,Pin_11*%
%TO.N,GPIO27*%
X126220000Y-91450000D03*
%TO.P,J1,12,Pin_12*%
%TO.N,GPIO14*%
X123680000Y-91450000D03*
%TO.P,J1,13,Pin_13*%
%TO.N,GPIO12*%
X121140000Y-91450000D03*
%TO.P,J1,14,Pin_14*%
%TO.N,GND*%
X118600000Y-91450000D03*
%TO.P,J1,15,Pin_15*%
%TO.N,GPIO13*%
X116060000Y-91450000D03*
%TO.P,J1,16,Pin_16*%
%TO.N,GPIO9*%
X113520000Y-91450000D03*
%TO.P,J1,17,Pin_17*%
%TO.N,GPIO10*%
X110980000Y-91450000D03*
%TO.P,J1,18,Pin_18*%
%TO.N,GPIO11*%
X108440000Y-91450000D03*
%TO.P,J1,19,Pin_19*%
%TO.N,+5V*%
X105900000Y-91450000D03*
%TD*%
D12*
%TO.P,J2,1,Pin_1*%
%TO.N,GND*%
X151620000Y-116450000D03*
D13*
%TO.P,J2,2,Pin_2*%
%TO.N,GPIO23*%
X149080000Y-116450000D03*
%TO.P,J2,3,Pin_3*%
%TO.N,GPIO22*%
X146540000Y-116450000D03*
%TO.P,J2,4,Pin_4*%
%TO.N,GPIO1*%
X144000000Y-116450000D03*
%TO.P,J2,5,Pin_5*%
%TO.N,GPIO3*%
X141460000Y-116450000D03*
%TO.P,J2,6,Pin_6*%
%TO.N,GPIO21*%
X138920000Y-116450000D03*
%TO.P,J2,7,Pin_7*%
%TO.N,GND*%
X136380000Y-116450000D03*
%TO.P,J2,8,Pin_8*%
%TO.N,GPIO19*%
X133840000Y-116450000D03*
%TO.P,J2,9,Pin_9*%
%TO.N,GPIO18*%
X131300000Y-116450000D03*
%TO.P,J2,10,Pin_10*%
%TO.N,GPIO5*%
X128760000Y-116450000D03*
%TO.P,J2,11,Pin_11*%
%TO.N,GPIO17*%
X126220000Y-116450000D03*
%TO.P,J2,12,Pin_12*%
%TO.N,GPIO16*%
X123680000Y-116450000D03*
%TO.P,J2,13,Pin_13*%
%TO.N,GPIO4*%
X121140000Y-116450000D03*
%TO.P,J2,14,Pin_14*%
%TO.N,GPIO0*%
X118600000Y-116450000D03*
%TO.P,J2,15,Pin_15*%
%TO.N,GPIO2*%
X116060000Y-116450000D03*
%TO.P,J2,16,Pin_16*%
%TO.N,GPIO15*%
X113520000Y-116450000D03*
%TO.P,J2,17,Pin_17*%
%TO.N,GPIO8*%
X110980000Y-116450000D03*
%TO.P,J2,18,Pin_18*%
%TO.N,GPIO7*%
X108440000Y-116450000D03*
%TO.P,J2,19,Pin_19*%
%TO.N,GPIO6*%
X105900000Y-116450000D03*
%TD*%
D12*
%TO.P,J4,1,Pin_1*%
%TO.N,GND*%
X235460000Y-107780000D03*
D13*
%TO.P,J4,2,Pin_2*%
%TO.N,GPIO23*%
X232920000Y-107780000D03*
%TO.P,J4,3,Pin_3*%
%TO.N,GPIO22*%
X230380000Y-107780000D03*
%TO.P,J4,4,Pin_4*%
%TO.N,GPIO1*%
X227840000Y-107780000D03*
%TO.P,J4,5,Pin_5*%
%TO.N,GPIO3*%
X225300000Y-107780000D03*
%TO.P,J4,6,Pin_6*%
%TO.N,GPIO21*%
X222760000Y-107780000D03*
%TO.P,J4,7,Pin_7*%
%TO.N,GPIO19*%
X220220000Y-107780000D03*
%TO.P,J4,8,Pin_8*%
%TO.N,GPIO18*%
X217680000Y-107780000D03*
%TO.P,J4,9,Pin_9*%
%TO.N,GPIO5*%
X215140000Y-107780000D03*
%TO.P,J4,10,Pin_10*%
%TO.N,GPIO17*%
X212600000Y-107780000D03*
%TO.P,J4,11,Pin_11*%
%TO.N,GPIO16*%
X210060000Y-107780000D03*
%TO.P,J4,12,Pin_12*%
%TO.N,GPIO4*%
X207520000Y-107780000D03*
%TO.P,J4,13,Pin_13*%
%TO.N,GPIO0*%
X204980000Y-107780000D03*
%TO.P,J4,14,Pin_14*%
%TO.N,GPIO2*%
X202440000Y-107780000D03*
%TO.P,J4,15,Pin_15*%
%TO.N,GPIO15*%
X199900000Y-107780000D03*
%TO.P,J4,16,Pin_16*%
%TO.N,GPIO8*%
X197360000Y-107780000D03*
%TO.P,J4,17,Pin_17*%
%TO.N,GPIO7*%
X194820000Y-107780000D03*
%TO.P,J4,18,Pin_18*%
%TO.N,GPIO6*%
X192280000Y-107780000D03*
%TD*%
D12*
%TO.P,J3,1,Pin_1*%
%TO.N,+3.3V*%
X235460000Y-100160000D03*
D13*
%TO.P,J3,2,Pin_2*%
%TO.N,RESET*%
X232920000Y-100160000D03*
%TO.P,J3,3,Pin_3*%
%TO.N,GPIO36*%
X230380000Y-100160000D03*
%TO.P,J3,4,Pin_4*%
%TO.N,GPIO39*%
X227840000Y-100160000D03*
%TO.P,J3,5,Pin_5*%
%TO.N,GPIO34*%
X225300000Y-100160000D03*
%TO.P,J3,6,Pin_6*%
%TO.N,GPIO35*%
X222760000Y-100160000D03*
%TO.P,J3,7,Pin_7*%
%TO.N,GPIO32*%
X220220000Y-100160000D03*
%TO.P,J3,8,Pin_8*%
%TO.N,GPIO33*%
X217680000Y-100160000D03*
%TO.P,J3,9,Pin_9*%
%TO.N,GPIO25*%
X215140000Y-100160000D03*
%TO.P,J3,10,Pin_10*%
%TO.N,GPIO26*%
X212600000Y-100160000D03*
%TO.P,J3,11,Pin_11*%
%TO.N,GPIO27*%
X210060000Y-100160000D03*
%TO.P,J3,12,Pin_12*%
%TO.N,GPIO14*%
X207520000Y-100160000D03*
%TO.P,J3,13,Pin_13*%
%TO.N,GPIO12*%
X204980000Y-100160000D03*
%TO.P,J3,14,Pin_14*%
%TO.N,GPIO13*%
X202440000Y-100160000D03*
%TO.P,J3,15,Pin_15*%
%TO.N,GPIO9*%
X199900000Y-100160000D03*
%TO.P,J3,16,Pin_16*%
%TO.N,GPIO10*%
X197360000Y-100160000D03*
%TO.P,J3,17,Pin_17*%
%TO.N,GPIO11*%
X194820000Y-100160000D03*
%TO.P,J3,18,Pin_18*%
%TO.N,+5V*%
X192280000Y-100160000D03*
%TD*%
D16*
%TO.N,GPIO2*%
X136432299Y-101762299D03*
%TO.N,RESET*%
X157182702Y-93487297D03*
%TO.N,GPIO36*%
X158319386Y-93599382D03*
%TO.N,GPIO39*%
X159632300Y-93837700D03*
%TO.N,GPIO34*%
X160994600Y-94175400D03*
%TO.N,GPIO35*%
X162116049Y-94272249D03*
%TO.N,GPIO32*%
X163234499Y-94366099D03*
%TO.N,GPIO33*%
X164337398Y-94425500D03*
%TO.N,GPIO25*%
X169254194Y-98317698D03*
%TO.N,GPIO26*%
X170515548Y-98554452D03*
%TO.N,GPIO27*%
X171827847Y-98842153D03*
%TO.N,GPIO14*%
X173190147Y-99179853D03*
%TO.N,GPIO12*%
X114221305Y-106151305D03*
%TO.N,GPIO13*%
X113620000Y-104350000D03*
%TO.N,GPIO9*%
X113457701Y-102912299D03*
%TO.N,GPIO23*%
X152344500Y-114650000D03*
%TO.N,GPIO22*%
X153069000Y-113250000D03*
X177020000Y-99435500D03*
%TO.N,GPIO1*%
X153793500Y-111350000D03*
%TO.N,GPIO3*%
X154518000Y-109250000D03*
%TO.N,GPIO21*%
X154968000Y-106750000D03*
X178920000Y-98450000D03*
%TO.N,GPIO19*%
X155572684Y-105721915D03*
%TO.N,GPIO18*%
X157244599Y-105074600D03*
%TO.N,GPIO5*%
X159820000Y-105224500D03*
%TO.N,GPIO17*%
X162620000Y-105674500D03*
%TO.N,GPIO16*%
X164920000Y-106124500D03*
%TO.N,GPIO4*%
X167991014Y-106574500D03*
%TO.N,GPIO15*%
X138044599Y-101174599D03*
%TO.N,GPIO8*%
X139656899Y-100586899D03*
%TO.N,GPIO7*%
X141419199Y-99849199D03*
%TO.N,GPIO6*%
X143231499Y-99061499D03*
%TD*%
D17*
%TO.N,GPIO2*%
X116060000Y-116450000D02*
X116060000Y-112990000D01*
X116060000Y-109360000D02*
X116070000Y-109350000D01*
X117030000Y-112990000D02*
X116060000Y-112990000D01*
X118370000Y-111650000D02*
X117030000Y-112990000D01*
X126544598Y-111650000D02*
X118370000Y-111650000D01*
X116060000Y-112990000D02*
X116060000Y-109360000D01*
X136432299Y-101762299D02*
X126544598Y-111650000D01*
%TO.N,GND*%
X159220000Y-113850000D02*
X159320000Y-113950000D01*
X235460000Y-107780000D02*
X235460000Y-103510000D01*
X151620000Y-106450000D02*
X146380000Y-106450000D01*
X151806499Y-98336499D02*
X125486499Y-98336499D01*
X174720000Y-101350000D02*
X172020000Y-101350000D01*
X146380000Y-106450000D02*
X136380000Y-116450000D01*
X159320000Y-113950000D02*
X159320000Y-116850000D01*
X172020000Y-101350000D02*
X154820000Y-101350000D01*
X233300000Y-101350000D02*
X174720000Y-101350000D01*
X151620000Y-104550000D02*
X151620000Y-106450000D01*
X154820000Y-101350000D02*
X151620000Y-104550000D01*
X151620000Y-116450000D02*
X152420000Y-116450000D01*
X152420000Y-116450000D02*
X155020000Y-113850000D01*
X125486499Y-98336499D02*
X118600000Y-91450000D01*
X155020000Y-113850000D02*
X159220000Y-113850000D01*
X154820000Y-101350000D02*
X151806499Y-98336499D01*
X235460000Y-103510000D02*
X233300000Y-101350000D01*
X174720000Y-101350000D02*
X174720000Y-94210000D01*
X174720000Y-94210000D02*
X171960000Y-91450000D01*
X151620000Y-106450000D02*
X151620000Y-116450000D01*
%TO.N,GPIO13*%
X114420000Y-103550000D02*
X114420000Y-96650000D01*
X114420000Y-96650000D02*
X116060000Y-95010000D01*
X113620000Y-104350000D02*
X114420000Y-103550000D01*
X116060000Y-95010000D02*
X116060000Y-91450000D01*
%TO.N,GPIO9*%
X113457701Y-102912299D02*
X113520000Y-102850000D01*
X113520000Y-102850000D02*
X113520000Y-91450000D01*
%TO.N,GPIO23*%
X152344500Y-104962299D02*
X155506799Y-101800000D01*
X152344500Y-114650000D02*
X152344500Y-104962299D01*
X232720000Y-101800000D02*
X232920000Y-102000000D01*
X155506799Y-101800000D02*
X232720000Y-101800000D01*
X232920000Y-102000000D02*
X232920000Y-107780000D01*
%TO.N,GPIO22*%
X230380000Y-102510000D02*
X230380000Y-107780000D01*
X230120000Y-102250000D02*
X230380000Y-102510000D01*
X177020000Y-99435500D02*
X177040000Y-99415500D01*
X153069000Y-105262399D02*
X156081399Y-102250000D01*
X153069000Y-113250000D02*
X153069000Y-105262399D01*
X156081399Y-102250000D02*
X230120000Y-102250000D01*
X177040000Y-99415500D02*
X177040000Y-91450000D01*
%TO.N,GPIO1*%
X180220000Y-102700000D02*
X156267795Y-102700000D01*
X227840000Y-103120000D02*
X227420000Y-102700000D01*
X227840000Y-107780000D02*
X227840000Y-103120000D01*
X227420000Y-102700000D02*
X180220000Y-102700000D01*
X153793500Y-105174295D02*
X153793500Y-111350000D01*
X156267795Y-102700000D02*
X153793500Y-105174295D01*
%TO.N,GPIO3*%
X225300000Y-103330000D02*
X225120000Y-103150000D01*
X225120000Y-103150000D02*
X180220000Y-103150000D01*
X225300000Y-107780000D02*
X225300000Y-103330000D01*
X180220000Y-103150000D02*
X156454191Y-103150000D01*
X154243500Y-108975500D02*
X154518000Y-109250000D01*
X154243500Y-105360691D02*
X154243500Y-108975500D01*
X156454191Y-103150000D02*
X154243500Y-105360691D01*
%TO.N,GPIO21*%
X179580000Y-97790000D02*
X179580000Y-91450000D01*
X156670000Y-103600000D02*
X222520000Y-103600000D01*
X154968000Y-106750000D02*
X154693500Y-106475500D01*
X178920000Y-98450000D02*
X179580000Y-97790000D01*
X154693500Y-106475500D02*
X154693500Y-105576500D01*
X222760000Y-103840000D02*
X222760000Y-107780000D01*
X222520000Y-103600000D02*
X222760000Y-103840000D01*
X154693500Y-105576500D02*
X156670000Y-103600000D01*
%TO.N,GPIO19*%
X157244599Y-104050000D02*
X155572684Y-105721915D01*
X220220000Y-104250000D02*
X220020000Y-104050000D01*
X220220000Y-107780000D02*
X220220000Y-104250000D01*
X180220000Y-104050000D02*
X157244599Y-104050000D01*
X220020000Y-104050000D02*
X180220000Y-104050000D01*
%TO.N,GPIO18*%
X180220000Y-104500000D02*
X157819199Y-104500000D01*
X157819199Y-104500000D02*
X157244599Y-105074600D01*
X217420000Y-104500000D02*
X180470000Y-104500000D01*
X180470000Y-104500000D02*
X180220000Y-104500000D01*
X217680000Y-104760000D02*
X217420000Y-104500000D01*
X217680000Y-107780000D02*
X217680000Y-104760000D01*
%TO.N,GPIO5*%
X160094500Y-104950000D02*
X159820000Y-105224500D01*
X215140000Y-107780000D02*
X215140000Y-105170000D01*
X180220000Y-104950000D02*
X160094500Y-104950000D01*
X214920000Y-104950000D02*
X180220000Y-104950000D01*
X215140000Y-105170000D02*
X215020000Y-105050000D01*
X215020000Y-105050000D02*
X214920000Y-104950000D01*
%TO.N,GPIO17*%
X212600000Y-105580000D02*
X212420000Y-105400000D01*
X162894500Y-105400000D02*
X162620000Y-105674500D01*
X212600000Y-107780000D02*
X212600000Y-105580000D01*
X212420000Y-105400000D02*
X181470000Y-105400000D01*
X181470000Y-105400000D02*
X180220000Y-105400000D01*
X180220000Y-105400000D02*
X162894500Y-105400000D01*
%TO.N,GPIO16*%
X210060000Y-107780000D02*
X210060000Y-105990000D01*
X210060000Y-105990000D02*
X209920000Y-105850000D01*
X209920000Y-105850000D02*
X180220000Y-105850000D01*
X165194500Y-105850000D02*
X164920000Y-106124500D01*
X180220000Y-105850000D02*
X165194500Y-105850000D01*
%TO.N,GPIO4*%
X207242081Y-106300000D02*
X207520000Y-106577919D01*
X207520000Y-106577919D02*
X207520000Y-107780000D01*
X168265514Y-106300000D02*
X207242081Y-106300000D01*
X167991014Y-106574500D02*
X168265514Y-106300000D01*
%TO.N,GPIO15*%
X137907299Y-101037299D02*
X122332701Y-101037299D01*
X113520000Y-109850000D02*
X113520000Y-116450000D01*
X122332701Y-101037299D02*
X113520000Y-109850000D01*
X138044599Y-101174599D02*
X137907299Y-101037299D01*
%TO.N,GPIO8*%
X122220401Y-100449599D02*
X110980000Y-111690000D01*
X110980000Y-111690000D02*
X110980000Y-116450000D01*
X139656899Y-100586899D02*
X139519599Y-100449599D01*
X139519599Y-100449599D02*
X122220401Y-100449599D01*
%TO.N,GPIO7*%
X141419199Y-99849199D02*
X122184405Y-99849199D01*
X122184405Y-99849199D02*
X108440000Y-113593604D01*
X108440000Y-113593604D02*
X108440000Y-116450000D01*
%TO.N,GPIO6*%
X122335709Y-99061499D02*
X105900000Y-115497208D01*
X105900000Y-115497208D02*
X105900000Y-116450000D01*
X143231499Y-99061499D02*
X122335709Y-99061499D01*
%TD*%
M02*
