%TF.GenerationSoftware,KiCad,Pcbnew,(6.0.6)*%
%TF.CreationDate,2022-07-11T13:14:15+02:00*%
%TF.ProjectId,ESP32_DevKit_C_v4-AZDelivery_Breadboard_Adapter,45535033-325f-4446-9576-4b69745f435f,2*%
%TF.SameCoordinates,Original*%
%TF.FileFunction,Copper,L2,Inr*%
%TF.FilePolarity,Positive*%
%FSLAX46Y46*%
G04 Gerber Fmt 4.6, Leading zero omitted, Abs format (unit mm)*
G04 Created by KiCad (PCBNEW (6.0.6)) date 2022-07-11 13:14:15*
%MOMM*%
%LPD*%
G01*
G04 APERTURE LIST*
%TA.AperFunction,ComponentPad*%
%ADD10R,1.800000X1.800000*%
%TD*%
%TA.AperFunction,ComponentPad*%
%ADD11C,1.800000*%
%TD*%
%TA.AperFunction,ComponentPad*%
%ADD12C,1.700000*%
%TD*%
%TA.AperFunction,ComponentPad*%
%ADD13O,1.700000X1.700000*%
%TD*%
%TA.AperFunction,ComponentPad*%
%ADD14C,1.600000*%
%TD*%
%TA.AperFunction,ComponentPad*%
%ADD15O,1.600000X1.600000*%
%TD*%
%TA.AperFunction,ViaPad*%
%ADD16C,0.800000*%
%TD*%
%TA.AperFunction,Conductor*%
%ADD17C,0.250000*%
%TD*%
G04 APERTURE END LIST*
D10*
%TO.N,GND*%
%TO.C,D1*%
X159320000Y-116850000D03*
D11*
%TO.N,Net-(D1-Pad2)*%
X156780000Y-116850000D03*
%TD*%
D12*
%TO.N,GND*%
%TO.C,J5*%
X171960000Y-91450000D03*
D13*
%TO.N,+5V*%
X174500000Y-91450000D03*
%TO.N,GPIO22*%
X177040000Y-91450000D03*
%TO.N,GPIO21*%
X179580000Y-91450000D03*
%TD*%
D14*
%TO.N,GPIO2*%
%TO.C,R1*%
X116070000Y-109350000D03*
D15*
%TO.N,Net-(D1-Pad2)*%
X123690000Y-109350000D03*
%TD*%
D12*
%TO.N,+3.3V*%
%TO.C,J1*%
X151620000Y-91450000D03*
D13*
%TO.N,RESET*%
X149080000Y-91450000D03*
%TO.N,GPIO36*%
X146540000Y-91450000D03*
%TO.N,GPIO39*%
X144000000Y-91450000D03*
%TO.N,GPIO34*%
X141460000Y-91450000D03*
%TO.N,GPIO35*%
X138920000Y-91450000D03*
%TO.N,GPIO32*%
X136380000Y-91450000D03*
%TO.N,GPIO33*%
X133840000Y-91450000D03*
%TO.N,GPIO25*%
X131300000Y-91450000D03*
%TO.N,GPIO26*%
X128760000Y-91450000D03*
%TO.N,GPIO27*%
X126220000Y-91450000D03*
%TO.N,GPIO14*%
X123680000Y-91450000D03*
%TO.N,GPIO12*%
X121140000Y-91450000D03*
%TO.N,GND*%
X118600000Y-91450000D03*
%TO.N,GPIO13*%
X116060000Y-91450000D03*
%TO.N,GPIO9*%
X113520000Y-91450000D03*
%TO.N,GPIO10*%
X110980000Y-91450000D03*
%TO.N,GPIO11*%
X108440000Y-91450000D03*
%TO.N,+5V*%
X105900000Y-91450000D03*
%TD*%
D12*
%TO.N,GND*%
%TO.C,J2*%
X151620000Y-116450000D03*
D13*
%TO.N,GPIO23*%
X149080000Y-116450000D03*
%TO.N,GPIO22*%
X146540000Y-116450000D03*
%TO.N,GPIO1*%
X144000000Y-116450000D03*
%TO.N,GPIO3*%
X141460000Y-116450000D03*
%TO.N,GPIO21*%
X138920000Y-116450000D03*
%TO.N,GND*%
X136380000Y-116450000D03*
%TO.N,GPIO19*%
X133840000Y-116450000D03*
%TO.N,GPIO18*%
X131300000Y-116450000D03*
%TO.N,GPIO5*%
X128760000Y-116450000D03*
%TO.N,GPIO17*%
X126220000Y-116450000D03*
%TO.N,GPIO16*%
X123680000Y-116450000D03*
%TO.N,GPIO4*%
X121140000Y-116450000D03*
%TO.N,GPIO0*%
X118600000Y-116450000D03*
%TO.N,GPIO2*%
X116060000Y-116450000D03*
%TO.N,GPIO15*%
X113520000Y-116450000D03*
%TO.N,GPIO8*%
X110980000Y-116450000D03*
%TO.N,GPIO7*%
X108440000Y-116450000D03*
%TO.N,GPIO6*%
X105900000Y-116450000D03*
%TD*%
D12*
%TO.N,GND*%
%TO.C,J4*%
X235460000Y-107780000D03*
D13*
%TO.N,GPIO23*%
X232920000Y-107780000D03*
%TO.N,GPIO22*%
X230380000Y-107780000D03*
%TO.N,GPIO1*%
X227840000Y-107780000D03*
%TO.N,GPIO3*%
X225300000Y-107780000D03*
%TO.N,GPIO21*%
X222760000Y-107780000D03*
%TO.N,GPIO19*%
X220220000Y-107780000D03*
%TO.N,GPIO18*%
X217680000Y-107780000D03*
%TO.N,GPIO5*%
X215140000Y-107780000D03*
%TO.N,GPIO17*%
X212600000Y-107780000D03*
%TO.N,GPIO16*%
X210060000Y-107780000D03*
%TO.N,GPIO4*%
X207520000Y-107780000D03*
%TO.N,GPIO0*%
X204980000Y-107780000D03*
%TO.N,GPIO2*%
X202440000Y-107780000D03*
%TO.N,GPIO15*%
X199900000Y-107780000D03*
%TO.N,GPIO8*%
X197360000Y-107780000D03*
%TO.N,GPIO7*%
X194820000Y-107780000D03*
%TO.N,GPIO6*%
X192280000Y-107780000D03*
%TD*%
D12*
%TO.N,+3.3V*%
%TO.C,J3*%
X235460000Y-100160000D03*
D13*
%TO.N,RESET*%
X232920000Y-100160000D03*
%TO.N,GPIO36*%
X230380000Y-100160000D03*
%TO.N,GPIO39*%
X227840000Y-100160000D03*
%TO.N,GPIO34*%
X225300000Y-100160000D03*
%TO.N,GPIO35*%
X222760000Y-100160000D03*
%TO.N,GPIO32*%
X220220000Y-100160000D03*
%TO.N,GPIO33*%
X217680000Y-100160000D03*
%TO.N,GPIO25*%
X215140000Y-100160000D03*
%TO.N,GPIO26*%
X212600000Y-100160000D03*
%TO.N,GPIO27*%
X210060000Y-100160000D03*
%TO.N,GPIO14*%
X207520000Y-100160000D03*
%TO.N,GPIO12*%
X204980000Y-100160000D03*
%TO.N,GPIO13*%
X202440000Y-100160000D03*
%TO.N,GPIO9*%
X199900000Y-100160000D03*
%TO.N,GPIO10*%
X197360000Y-100160000D03*
%TO.N,GPIO11*%
X194820000Y-100160000D03*
%TO.N,+5V*%
X192280000Y-100160000D03*
%TD*%
D16*
%TO.N,GPIO2*%
X136432299Y-101762299D03*
%TO.N,RESET*%
X157182702Y-93487297D03*
%TO.N,GPIO36*%
X158319386Y-93599382D03*
%TO.N,GPIO39*%
X159632300Y-93837700D03*
%TO.N,GPIO34*%
X160994600Y-94175400D03*
%TO.N,GPIO35*%
X162116049Y-94272249D03*
%TO.N,GPIO32*%
X163234499Y-94366099D03*
%TO.N,GPIO33*%
X164337398Y-94425500D03*
%TO.N,GPIO25*%
X169254194Y-98317698D03*
%TO.N,GPIO26*%
X170515548Y-98554452D03*
%TO.N,GPIO27*%
X171827847Y-98842153D03*
%TO.N,GPIO14*%
X173190147Y-99179853D03*
%TO.N,GPIO12*%
X114221305Y-106151305D03*
%TO.N,GPIO13*%
X113620000Y-104350000D03*
%TO.N,GPIO9*%
X113457701Y-102912299D03*
%TO.N,GPIO23*%
X152344500Y-114650000D03*
%TO.N,GPIO22*%
X153069000Y-113250000D03*
X177020000Y-99435500D03*
%TO.N,GPIO1*%
X153793500Y-111350000D03*
%TO.N,GPIO3*%
X154518000Y-109250000D03*
%TO.N,GPIO21*%
X154968000Y-106750000D03*
X178920000Y-98450000D03*
%TO.N,GPIO19*%
X155572684Y-105721915D03*
%TO.N,GPIO18*%
X157244599Y-105074600D03*
%TO.N,GPIO5*%
X159820000Y-105224500D03*
%TO.N,GPIO17*%
X162620000Y-105674500D03*
%TO.N,GPIO16*%
X164920000Y-106124500D03*
%TO.N,GPIO4*%
X167991014Y-106574500D03*
%TO.N,GPIO15*%
X138044599Y-101174599D03*
%TO.N,GPIO8*%
X139656899Y-100586899D03*
%TO.N,GPIO7*%
X141419199Y-99849199D03*
%TO.N,GPIO6*%
X143231499Y-99061499D03*
%TD*%
D17*
%TO.N,GPIO2*%
X187270000Y-95750000D02*
X178220000Y-95750000D01*
X202440000Y-104620000D02*
X199620000Y-101800000D01*
X188470000Y-96950000D02*
X187270000Y-95750000D01*
X142444598Y-95750000D02*
X136432299Y-101762299D01*
X178220000Y-95750000D02*
X142444598Y-95750000D01*
X188470000Y-100236396D02*
X188470000Y-96950000D01*
X190033604Y-101800000D02*
X188470000Y-100236396D01*
X202440000Y-107780000D02*
X202440000Y-104620000D01*
X199620000Y-101800000D02*
X190033604Y-101800000D01*
%TO.N,+5V*%
X155494694Y-94150000D02*
X108600000Y-94150000D01*
X160120000Y-92550000D02*
X157094694Y-92550000D01*
X172700000Y-93250000D02*
X160820000Y-93250000D01*
X108600000Y-94150000D02*
X105900000Y-91450000D01*
X157094694Y-92550000D02*
X155494694Y-94150000D01*
X160820000Y-93250000D02*
X160120000Y-92550000D01*
X174500000Y-91450000D02*
X172700000Y-93250000D01*
%TO.N,GPIO23*%
X150880000Y-114650000D02*
X149080000Y-116450000D01*
X152344500Y-114650000D02*
X150880000Y-114650000D01*
%TO.N,GPIO22*%
X176320000Y-110850000D02*
X177020000Y-110150000D01*
X173920000Y-113250000D02*
X176320000Y-110850000D01*
X153069000Y-113250000D02*
X173920000Y-113250000D01*
X153069000Y-113250000D02*
X149740000Y-113250000D01*
X177020000Y-110150000D02*
X177020000Y-99435500D01*
X149740000Y-113250000D02*
X146540000Y-116450000D01*
%TO.N,GPIO1*%
X153793500Y-111350000D02*
X149100000Y-111350000D01*
X149100000Y-111350000D02*
X144000000Y-116450000D01*
%TO.N,GPIO3*%
X154518000Y-109250000D02*
X148660000Y-109250000D01*
X148660000Y-109250000D02*
X141460000Y-116450000D01*
%TO.N,GPIO21*%
X154968000Y-106750000D02*
X154968000Y-107250000D01*
X148120000Y-107250000D02*
X138920000Y-116450000D01*
X154968000Y-107250000D02*
X156968000Y-109250000D01*
X156968000Y-109250000D02*
X166569805Y-109250000D01*
X178820000Y-98350000D02*
X178920000Y-98450000D01*
X154968000Y-106750000D02*
X154468000Y-107250000D01*
X166569805Y-109250000D02*
X176320000Y-98350000D01*
X176320000Y-98350000D02*
X178820000Y-98350000D01*
X154468000Y-107250000D02*
X148120000Y-107250000D01*
%TO.N,GPIO19*%
X155572684Y-105721915D02*
X144568085Y-105721915D01*
X144568085Y-105721915D02*
X133840000Y-116450000D01*
%TO.N,GPIO18*%
X157166914Y-104996915D02*
X142753085Y-104996915D01*
X142753085Y-104996915D02*
X131300000Y-116450000D01*
X157244599Y-105074600D02*
X157166914Y-104996915D01*
%TO.N,GPIO5*%
X159820000Y-105224500D02*
X159820000Y-104950000D01*
X159820000Y-104950000D02*
X158720000Y-103850000D01*
X158720000Y-103850000D02*
X141360000Y-103850000D01*
X141360000Y-103850000D02*
X128760000Y-116450000D01*
%TO.N,GPIO17*%
X139270000Y-103400000D02*
X126220000Y-116450000D01*
X160345500Y-103400000D02*
X139270000Y-103400000D01*
X162620000Y-105674500D02*
X160345500Y-103400000D01*
%TO.N,GPIO16*%
X161745500Y-102950000D02*
X137180000Y-102950000D01*
X164920000Y-106124500D02*
X161745500Y-102950000D01*
X137180000Y-102950000D02*
X123680000Y-116450000D01*
%TO.N,GPIO4*%
X164145500Y-102500000D02*
X135820991Y-102500000D01*
X167991014Y-106345514D02*
X164145500Y-102500000D01*
X135820991Y-102500000D02*
X121870991Y-116450000D01*
X121870991Y-116450000D02*
X121140000Y-116450000D01*
X167991014Y-106574500D02*
X167991014Y-106345514D01*
%TO.N,GPIO0*%
X142020000Y-95150000D02*
X124320000Y-112850000D01*
X122200000Y-112850000D02*
X118600000Y-116450000D01*
X204980000Y-107780000D02*
X204980000Y-104210000D01*
X190220000Y-101350000D02*
X188920000Y-100050000D01*
X202120000Y-101350000D02*
X190220000Y-101350000D01*
X142520000Y-95150000D02*
X142020000Y-95150000D01*
X124320000Y-112850000D02*
X122200000Y-112850000D01*
X187420000Y-95150000D02*
X142620000Y-95150000D01*
X188920000Y-100050000D02*
X188920000Y-96650000D01*
X204980000Y-104210000D02*
X202120000Y-101350000D01*
X188920000Y-96650000D02*
X187420000Y-95150000D01*
%TO.N,GPIO15*%
X188020000Y-97136396D02*
X187126802Y-96243198D01*
X199900000Y-107780000D02*
X199900000Y-102716396D01*
X188020000Y-100422792D02*
X188020000Y-98350000D01*
X199476802Y-102293198D02*
X189890406Y-102293198D01*
X188020000Y-98350000D02*
X188020000Y-97136396D01*
X189890406Y-102293198D02*
X188020000Y-100422792D01*
X187126802Y-96243198D02*
X142976000Y-96243198D01*
X142976000Y-96243198D02*
X138044599Y-101174599D01*
X199900000Y-102716396D02*
X199476802Y-102293198D01*
%TO.N,GPIO8*%
X197360000Y-107780000D02*
X197360000Y-103383198D01*
X197360000Y-103383198D02*
X196720000Y-102743198D01*
X143550600Y-96693198D02*
X139656899Y-100586899D01*
X196720000Y-102743198D02*
X189704010Y-102743198D01*
X187570000Y-97500000D02*
X186763198Y-96693198D01*
X187570000Y-100609188D02*
X187570000Y-97500000D01*
X186763198Y-96693198D02*
X143550600Y-96693198D01*
X189704010Y-102743198D02*
X187570000Y-100609188D01*
%TO.N,GPIO7*%
X194820000Y-107780000D02*
X194820000Y-103593198D01*
X186363198Y-97143198D02*
X144125200Y-97143198D01*
X187120000Y-97900000D02*
X186363198Y-97143198D01*
X144125200Y-97143198D02*
X141419199Y-99849199D01*
X189517614Y-103193198D02*
X187120000Y-100795584D01*
X187120000Y-100795584D02*
X187120000Y-97900000D01*
X194420000Y-103193198D02*
X189517614Y-103193198D01*
X194820000Y-103593198D02*
X194420000Y-103193198D01*
%TO.N,GPIO6*%
X186670000Y-98086396D02*
X186176802Y-97593198D01*
X189331218Y-103643198D02*
X186670000Y-100981980D01*
X192220000Y-103643198D02*
X189331218Y-103643198D01*
X192280000Y-107780000D02*
X192280000Y-103703198D01*
X186670000Y-100981980D02*
X186670000Y-98086396D01*
X186176802Y-97593198D02*
X144699800Y-97593198D01*
X192280000Y-103703198D02*
X192220000Y-103643198D01*
X144699800Y-97593198D02*
X143231499Y-99061499D01*
%TD*%
M02*
