%TF.GenerationSoftware,KiCad,Pcbnew,(6.0.6)*%
%TF.CreationDate,2022-07-11T04:45:58+02:00*%
%TF.ProjectId,ESP32_DevKit_C_v4-AZDelivery_Breadboard_Adapter,45535033-325f-4446-9576-4b69745f435f,rev?*%
%TF.SameCoordinates,Original*%
%TF.FileFunction,Legend,Bot*%
%TF.FilePolarity,Positive*%
%FSLAX46Y46*%
G04 Gerber Fmt 4.6, Leading zero omitted, Abs format (unit mm)*
G04 Created by KiCad (PCBNEW (6.0.6)) date 2022-07-11 04:45:58*
%MOMM*%
%LPD*%
G01*
G04 APERTURE LIST*
%ADD10C,0.150000*%
%ADD11C,0.120000*%
G04 APERTURE END LIST*
D10*
X187823809Y-67228571D02*
X187680952Y-67276190D01*
X187633333Y-67323809D01*
X187585714Y-67419047D01*
X187585714Y-67561904D01*
X187633333Y-67657142D01*
X187680952Y-67704761D01*
X187776190Y-67752380D01*
X188157142Y-67752380D01*
X188157142Y-66752380D01*
X187823809Y-66752380D01*
X187728571Y-66800000D01*
X187680952Y-66847619D01*
X187633333Y-66942857D01*
X187633333Y-67038095D01*
X187680952Y-67133333D01*
X187728571Y-67180952D01*
X187823809Y-67228571D01*
X188157142Y-67228571D01*
X187204761Y-67466666D02*
X186728571Y-67466666D01*
X187300000Y-67752380D02*
X186966666Y-66752380D01*
X186633333Y-67752380D01*
X185728571Y-67657142D02*
X185776190Y-67704761D01*
X185919047Y-67752380D01*
X186014285Y-67752380D01*
X186157142Y-67704761D01*
X186252380Y-67609523D01*
X186300000Y-67514285D01*
X186347619Y-67323809D01*
X186347619Y-67180952D01*
X186300000Y-66990476D01*
X186252380Y-66895238D01*
X186157142Y-66800000D01*
X186014285Y-66752380D01*
X185919047Y-66752380D01*
X185776190Y-66800000D01*
X185728571Y-66847619D01*
X185300000Y-67752380D02*
X185300000Y-66752380D01*
X184728571Y-67752380D02*
X185157142Y-67180952D01*
X184728571Y-66752380D02*
X185300000Y-67323809D01*
X184347619Y-67704761D02*
X184204761Y-67752380D01*
X183966666Y-67752380D01*
X183871428Y-67704761D01*
X183823809Y-67657142D01*
X183776190Y-67561904D01*
X183776190Y-67466666D01*
X183823809Y-67371428D01*
X183871428Y-67323809D01*
X183966666Y-67276190D01*
X184157142Y-67228571D01*
X184252380Y-67180952D01*
X184300000Y-67133333D01*
X184347619Y-67038095D01*
X184347619Y-66942857D01*
X184300000Y-66847619D01*
X184252380Y-66800000D01*
X184157142Y-66752380D01*
X183919047Y-66752380D01*
X183776190Y-66800000D01*
X183347619Y-67752380D02*
X183347619Y-66752380D01*
X182871428Y-67752380D02*
X182871428Y-66752380D01*
X182633333Y-66752380D01*
X182490476Y-66800000D01*
X182395238Y-66895238D01*
X182347619Y-66990476D01*
X182300000Y-67180952D01*
X182300000Y-67323809D01*
X182347619Y-67514285D01*
X182395238Y-67609523D01*
X182490476Y-67704761D01*
X182633333Y-67752380D01*
X182871428Y-67752380D01*
X181871428Y-67228571D02*
X181538095Y-67228571D01*
X181395238Y-67752380D02*
X181871428Y-67752380D01*
X181871428Y-66752380D01*
X181395238Y-66752380D01*
%TO.C,G\u002A\u002A\u002A*%
G36*
X91083510Y-60485914D02*
G01*
X91287240Y-60515554D01*
X91521100Y-60565189D01*
X91778595Y-60632858D01*
X92054280Y-60716706D01*
X92342709Y-60814879D01*
X92638436Y-60925523D01*
X92936016Y-61046785D01*
X93230002Y-61176809D01*
X93514950Y-61313742D01*
X93805075Y-61464585D01*
X94278925Y-61736864D01*
X94716370Y-62023512D01*
X95118965Y-62325821D01*
X95488268Y-62645082D01*
X95825836Y-62982587D01*
X96133226Y-63339629D01*
X96411995Y-63717500D01*
X96461987Y-63793943D01*
X96548523Y-63937590D01*
X96638813Y-64099033D01*
X96727513Y-64267977D01*
X96809280Y-64434124D01*
X96878769Y-64587177D01*
X96930636Y-64716840D01*
X96984677Y-64881598D01*
X97052771Y-65153585D01*
X97097184Y-65427776D01*
X97117083Y-65695988D01*
X97111633Y-65950036D01*
X97079998Y-66181735D01*
X97067539Y-66239696D01*
X97027101Y-66395333D01*
X96979027Y-66528206D01*
X96917825Y-66651893D01*
X96838005Y-66779970D01*
X96795800Y-66839257D01*
X96660833Y-66991238D01*
X96513389Y-67105442D01*
X96354787Y-67181356D01*
X96186345Y-67218466D01*
X96009383Y-67216258D01*
X95825219Y-67174221D01*
X95716425Y-67132419D01*
X95530615Y-67039398D01*
X95324871Y-66912615D01*
X95100090Y-66752640D01*
X94857168Y-66560041D01*
X94819876Y-66529753D01*
X94742060Y-66468232D01*
X94640516Y-66389217D01*
X94520523Y-66296771D01*
X94387364Y-66194958D01*
X94246318Y-66087840D01*
X94102667Y-65979483D01*
X94049462Y-65939414D01*
X93885286Y-65814932D01*
X93712787Y-65683054D01*
X93540175Y-65550117D01*
X93375664Y-65422463D01*
X93227465Y-65306430D01*
X93103791Y-65208359D01*
X93000186Y-65125447D01*
X92895422Y-65041625D01*
X92804398Y-64968813D01*
X92731636Y-64910630D01*
X92681659Y-64870691D01*
X92658988Y-64852614D01*
X92652030Y-64853097D01*
X92660325Y-64882729D01*
X92685644Y-64941249D01*
X92726086Y-65025120D01*
X92779750Y-65130803D01*
X92844734Y-65254762D01*
X92919136Y-65393457D01*
X93001055Y-65543353D01*
X93088589Y-65700910D01*
X93179837Y-65862591D01*
X93272898Y-66024859D01*
X93365869Y-66184175D01*
X93456849Y-66337002D01*
X93545130Y-66482626D01*
X93664133Y-66676138D01*
X93785771Y-66871104D01*
X93907870Y-67064228D01*
X94028259Y-67252217D01*
X94144765Y-67431775D01*
X94255216Y-67599607D01*
X94357441Y-67752419D01*
X94449267Y-67886916D01*
X94528521Y-67999804D01*
X94593033Y-68087787D01*
X94640629Y-68147570D01*
X94669138Y-68175859D01*
X94725529Y-68211500D01*
X94865186Y-68301659D01*
X95008815Y-68396675D01*
X95148687Y-68491286D01*
X95277074Y-68580230D01*
X95386247Y-68658247D01*
X95468478Y-68720073D01*
X95512425Y-68755121D01*
X95698120Y-68915437D01*
X95869674Y-69083146D01*
X96022655Y-69253059D01*
X96152631Y-69419984D01*
X96255170Y-69578731D01*
X96325839Y-69724110D01*
X96331563Y-69739249D01*
X96355945Y-69821929D01*
X96369211Y-69912851D01*
X96373895Y-70028053D01*
X96374089Y-70089619D01*
X96371472Y-70161093D01*
X96363140Y-70211541D01*
X96346663Y-70253035D01*
X96319611Y-70297644D01*
X96303139Y-70320216D01*
X96246184Y-70380351D01*
X96187107Y-70424148D01*
X96186147Y-70424668D01*
X96091159Y-70455253D01*
X95975609Y-70459800D01*
X95849615Y-70438978D01*
X95723293Y-70393458D01*
X95716135Y-70389988D01*
X95632844Y-70337127D01*
X95528866Y-70252269D01*
X95405839Y-70137239D01*
X95265405Y-69993862D01*
X95109201Y-69823964D01*
X94938867Y-69629370D01*
X94756042Y-69411904D01*
X94562366Y-69173393D01*
X94359478Y-68915661D01*
X94149016Y-68640534D01*
X94098191Y-68573984D01*
X94007489Y-68459689D01*
X93929349Y-68367296D01*
X93867185Y-68300768D01*
X93824417Y-68264069D01*
X93777604Y-68233764D01*
X93601622Y-68115630D01*
X93401255Y-67975629D01*
X93181445Y-67817499D01*
X92947139Y-67644979D01*
X92703279Y-67461806D01*
X92454811Y-67271720D01*
X92206679Y-67078458D01*
X91963828Y-66885759D01*
X91731201Y-66697361D01*
X91513743Y-66517003D01*
X91360853Y-66388442D01*
X91344941Y-66515611D01*
X91305612Y-66761346D01*
X91247784Y-67001125D01*
X91174978Y-67213023D01*
X91088384Y-67394146D01*
X90989190Y-67541594D01*
X90878583Y-67652472D01*
X90877853Y-67653048D01*
X90785056Y-67717225D01*
X90694297Y-67757300D01*
X90591829Y-67777580D01*
X90463903Y-67782373D01*
X90371979Y-67777655D01*
X90279519Y-67761838D01*
X90186038Y-67731538D01*
X90081101Y-67683302D01*
X89954272Y-67613675D01*
X89802779Y-67516176D01*
X89619125Y-67375515D01*
X89427095Y-67207037D01*
X89231708Y-67015434D01*
X89037980Y-66805399D01*
X88850929Y-66581625D01*
X88721334Y-66418543D01*
X88721150Y-66229980D01*
X88721489Y-66184487D01*
X88723959Y-66110984D01*
X88728307Y-66060304D01*
X88733925Y-66041417D01*
X88752445Y-66052365D01*
X88796361Y-66084204D01*
X88858693Y-66131897D01*
X88932681Y-66190376D01*
X88959175Y-66211552D01*
X89172132Y-66376203D01*
X89361886Y-66511656D01*
X89531522Y-66619396D01*
X89684123Y-66700911D01*
X89822772Y-66757688D01*
X89950554Y-66791212D01*
X90070553Y-66802969D01*
X90185851Y-66794448D01*
X90192879Y-66793299D01*
X90290649Y-66768505D01*
X90374206Y-66725429D01*
X90460627Y-66655431D01*
X90476709Y-66640005D01*
X90538011Y-66561218D01*
X90571166Y-66470574D01*
X90581118Y-66355774D01*
X90581026Y-66343427D01*
X90575716Y-66269481D01*
X90560392Y-66198101D01*
X90532481Y-66125599D01*
X90489409Y-66048285D01*
X90428604Y-65962470D01*
X90347493Y-65864467D01*
X90243503Y-65750587D01*
X90114060Y-65617140D01*
X89956592Y-65460437D01*
X89935962Y-65440014D01*
X89759226Y-65251592D01*
X89610096Y-65063637D01*
X89479163Y-64863233D01*
X89357015Y-64637463D01*
X89328818Y-64579877D01*
X89294105Y-64501975D01*
X89273730Y-64440440D01*
X89264076Y-64383178D01*
X89261528Y-64318091D01*
X89261815Y-64282591D01*
X89267089Y-64218306D01*
X89281900Y-64174705D01*
X89310039Y-64137684D01*
X89388703Y-64080255D01*
X89493592Y-64050456D01*
X89626308Y-64048574D01*
X89668503Y-64053127D01*
X89840996Y-64095621D01*
X90016362Y-64176905D01*
X90194933Y-64297262D01*
X90377039Y-64456972D01*
X90563009Y-64656319D01*
X90753175Y-64895582D01*
X90947866Y-65175044D01*
X91051666Y-65338458D01*
X91138590Y-65490043D01*
X91205420Y-65627007D01*
X91256005Y-65757282D01*
X91294194Y-65888803D01*
X91337281Y-66063332D01*
X91542727Y-66211213D01*
X91646641Y-66285937D01*
X91795376Y-66392496D01*
X91923402Y-66483563D01*
X92038304Y-66564468D01*
X92147667Y-66640537D01*
X92259076Y-66717101D01*
X92380115Y-66799487D01*
X92479123Y-66866015D01*
X92617162Y-66956995D01*
X92754686Y-67045840D01*
X92885070Y-67128369D01*
X93001691Y-67200400D01*
X93097924Y-67257752D01*
X93167145Y-67296246D01*
X93234232Y-67330937D01*
X93195515Y-67272252D01*
X93186105Y-67257885D01*
X93133935Y-67176115D01*
X93064532Y-67064885D01*
X92980674Y-66928805D01*
X92885134Y-66772486D01*
X92780691Y-66600542D01*
X92670118Y-66417583D01*
X92556192Y-66228220D01*
X92441690Y-66037065D01*
X92329386Y-65848730D01*
X92222056Y-65667826D01*
X92122477Y-65498964D01*
X92033424Y-65346757D01*
X91957673Y-65215815D01*
X91820832Y-64976764D01*
X91679662Y-64728274D01*
X91557494Y-64510721D01*
X91453236Y-64321956D01*
X91365798Y-64159827D01*
X91294089Y-64022185D01*
X91237017Y-63906877D01*
X91193493Y-63811754D01*
X91162424Y-63734666D01*
X91142721Y-63673460D01*
X91133292Y-63625988D01*
X91133047Y-63590098D01*
X91138321Y-63559940D01*
X91181851Y-63447318D01*
X91257040Y-63346459D01*
X91356685Y-63267745D01*
X91400139Y-63243345D01*
X91456151Y-63219863D01*
X91512586Y-63211765D01*
X91589376Y-63214487D01*
X91638508Y-63219773D01*
X91737643Y-63245149D01*
X91830193Y-63293255D01*
X91924083Y-63368838D01*
X92027241Y-63476643D01*
X92080854Y-63537271D01*
X92171042Y-63637474D01*
X92257993Y-63731112D01*
X92345198Y-63821412D01*
X92436146Y-63911597D01*
X92534326Y-64004893D01*
X92643229Y-64104525D01*
X92766344Y-64213719D01*
X92907161Y-64335698D01*
X93069171Y-64473689D01*
X93255862Y-64630915D01*
X93470725Y-64810603D01*
X93531239Y-64861045D01*
X93850964Y-65125670D01*
X94142787Y-65363569D01*
X94408308Y-65575684D01*
X94649125Y-65762955D01*
X94866838Y-65926327D01*
X95063044Y-66066741D01*
X95239343Y-66185139D01*
X95397334Y-66282463D01*
X95538614Y-66359655D01*
X95664784Y-66417658D01*
X95777441Y-66457414D01*
X95878185Y-66479864D01*
X95968614Y-66485952D01*
X96050327Y-66476619D01*
X96124922Y-66452808D01*
X96193999Y-66415460D01*
X96213987Y-66399078D01*
X96258258Y-66349253D01*
X96300011Y-66288244D01*
X96325752Y-66240496D01*
X96344069Y-66188497D01*
X96351848Y-66127382D01*
X96352431Y-66041417D01*
X96351983Y-66026339D01*
X96331561Y-65871855D01*
X96283098Y-65694389D01*
X96208474Y-65497997D01*
X96109569Y-65286732D01*
X95988263Y-65064651D01*
X95846438Y-64835808D01*
X95685973Y-64604258D01*
X95624646Y-64521995D01*
X95345867Y-64182746D01*
X95032266Y-63850520D01*
X94688556Y-63528691D01*
X94319453Y-63220631D01*
X93929671Y-62929711D01*
X93523925Y-62659304D01*
X93106929Y-62412783D01*
X92683398Y-62193518D01*
X92258047Y-62004884D01*
X91835590Y-61850250D01*
X91829426Y-61848250D01*
X91737831Y-61819825D01*
X91661273Y-61798393D01*
X91607604Y-61786006D01*
X91584676Y-61784715D01*
X91581178Y-61802240D01*
X91594483Y-61848596D01*
X91625069Y-61912828D01*
X91668717Y-61986402D01*
X91721207Y-62060785D01*
X91748497Y-62093126D01*
X91815420Y-62161817D01*
X91896716Y-62236501D01*
X91980459Y-62305901D01*
X92073276Y-62379351D01*
X92193705Y-62480167D01*
X92280085Y-62560777D01*
X92332126Y-62620900D01*
X92349537Y-62660258D01*
X92346649Y-62680893D01*
X92333212Y-62693114D01*
X92303975Y-62692075D01*
X92253731Y-62676614D01*
X92177271Y-62645570D01*
X92069391Y-62597783D01*
X91930351Y-62532596D01*
X91727415Y-62429956D01*
X91521391Y-62318005D01*
X91320501Y-62201550D01*
X91132965Y-62085400D01*
X90967004Y-61974365D01*
X90830837Y-61873252D01*
X90825645Y-61869100D01*
X90672168Y-61733391D01*
X90556574Y-61600907D01*
X90476792Y-61467192D01*
X90430751Y-61327789D01*
X90416382Y-61178243D01*
X90431612Y-61014098D01*
X90439210Y-60973433D01*
X90487941Y-60808897D01*
X90559991Y-60677790D01*
X90655465Y-60580025D01*
X90774471Y-60515515D01*
X90917117Y-60484174D01*
X91083510Y-60485914D01*
G37*
G36*
X108007111Y-72279999D02*
G01*
X107951045Y-72394321D01*
X107885528Y-72501003D01*
X107818016Y-72585615D01*
X107745287Y-72654020D01*
X107651006Y-72715676D01*
X107548259Y-72748606D01*
X107424417Y-72758351D01*
X107384219Y-72757384D01*
X107282603Y-72743835D01*
X107186492Y-72711390D01*
X107088786Y-72656340D01*
X106982384Y-72574976D01*
X106860185Y-72463587D01*
X106674431Y-72284602D01*
X106533417Y-72271496D01*
X106461702Y-72263283D01*
X106376624Y-72245670D01*
X106301212Y-72216282D01*
X106222443Y-72169629D01*
X106127298Y-72100220D01*
X105992137Y-71996511D01*
X105970189Y-72089054D01*
X105957394Y-72143001D01*
X105924138Y-72259353D01*
X105873040Y-72391119D01*
X105812566Y-72511747D01*
X105746428Y-72615520D01*
X105678339Y-72696722D01*
X105612012Y-72749635D01*
X105551159Y-72768543D01*
X105549779Y-72768510D01*
X105508505Y-72755536D01*
X105448781Y-72723625D01*
X105383040Y-72679372D01*
X105359779Y-72660930D01*
X105294134Y-72603447D01*
X105209107Y-72524221D01*
X105110254Y-72428784D01*
X105003128Y-72322672D01*
X104893285Y-72211421D01*
X104786280Y-72100563D01*
X104687668Y-71995635D01*
X104603004Y-71902171D01*
X104570680Y-71865802D01*
X104530461Y-71822809D01*
X104509494Y-71806303D01*
X104503168Y-71813350D01*
X104506870Y-71841015D01*
X104531431Y-71988768D01*
X104550843Y-72163470D01*
X104559937Y-72331749D01*
X104558554Y-72485392D01*
X104546536Y-72616187D01*
X104523725Y-72715922D01*
X104500585Y-72771711D01*
X104447852Y-72843659D01*
X104375213Y-72883370D01*
X104276172Y-72895559D01*
X104252507Y-72895059D01*
X104165050Y-72883258D01*
X104077636Y-72853526D01*
X103985441Y-72802866D01*
X103883644Y-72728283D01*
X103767424Y-72626783D01*
X103631959Y-72495368D01*
X103557627Y-72419661D01*
X103470768Y-72328622D01*
X103394159Y-72245598D01*
X103334090Y-72177430D01*
X103296850Y-72130958D01*
X103227554Y-72033581D01*
X103191413Y-72212095D01*
X103167635Y-72311425D01*
X103119588Y-72454563D01*
X103060991Y-72578958D01*
X102995508Y-72677268D01*
X102926804Y-72742152D01*
X102895632Y-72760439D01*
X102782011Y-72798704D01*
X102655226Y-72805658D01*
X102526331Y-72780251D01*
X102467745Y-72756552D01*
X102350221Y-72690435D01*
X102219575Y-72597251D01*
X102081528Y-72481599D01*
X101941802Y-72348077D01*
X101806116Y-72201285D01*
X101712214Y-72093032D01*
X101687283Y-72221839D01*
X101673926Y-72280980D01*
X101639650Y-72391617D01*
X101597259Y-72493088D01*
X101551388Y-72574996D01*
X101506674Y-72626945D01*
X101499615Y-72632379D01*
X101459600Y-72657004D01*
X101420597Y-72666453D01*
X101379113Y-72658127D01*
X101331657Y-72629427D01*
X101274739Y-72577755D01*
X101204868Y-72500511D01*
X101118552Y-72395096D01*
X101012300Y-72258913D01*
X100998113Y-72240597D01*
X100896607Y-72114571D01*
X100784105Y-71982209D01*
X100665776Y-71848995D01*
X100546787Y-71720417D01*
X100432307Y-71601961D01*
X100327503Y-71499112D01*
X100237542Y-71417358D01*
X100167594Y-71362182D01*
X100067126Y-71293058D01*
X100119772Y-71383570D01*
X100195595Y-71514569D01*
X100300102Y-71698232D01*
X100385635Y-71853540D01*
X100453958Y-71984231D01*
X100506832Y-72094040D01*
X100546023Y-72186703D01*
X100573293Y-72265956D01*
X100590405Y-72335534D01*
X100599122Y-72399173D01*
X100599920Y-72409465D01*
X100598162Y-72550416D01*
X100570889Y-72662000D01*
X100518801Y-72743092D01*
X100442600Y-72792571D01*
X100342987Y-72809314D01*
X100298529Y-72806250D01*
X100220348Y-72786964D01*
X100133549Y-72748203D01*
X100035277Y-72687943D01*
X99922674Y-72604163D01*
X99792887Y-72494841D01*
X99643058Y-72357955D01*
X99470333Y-72191483D01*
X99283023Y-72007398D01*
X99270200Y-72066904D01*
X99234091Y-72202424D01*
X99169301Y-72366525D01*
X99088752Y-72505626D01*
X98996192Y-72612263D01*
X98994614Y-72613686D01*
X98937043Y-72659516D01*
X98886951Y-72681242D01*
X98826886Y-72686519D01*
X98782265Y-72683621D01*
X98671903Y-72656886D01*
X98547848Y-72601283D01*
X98408434Y-72515722D01*
X98251995Y-72399115D01*
X98076867Y-72250373D01*
X97881384Y-72068407D01*
X97588823Y-71786167D01*
X97691653Y-72017444D01*
X97727546Y-72097368D01*
X97787985Y-72229710D01*
X97851029Y-72365689D01*
X97907712Y-72485865D01*
X98020940Y-72723009D01*
X98285398Y-72943393D01*
X98328268Y-72979539D01*
X98433973Y-73071664D01*
X98538088Y-73166058D01*
X98630531Y-73253477D01*
X98701219Y-73324675D01*
X98773870Y-73406709D01*
X98866115Y-73521964D01*
X98957108Y-73646026D01*
X99040148Y-73769301D01*
X99108531Y-73882191D01*
X99155554Y-73975102D01*
X99169343Y-74009049D01*
X99204425Y-74119637D01*
X99222825Y-74221606D01*
X99224232Y-74307957D01*
X99208332Y-74371690D01*
X99174811Y-74405807D01*
X99168102Y-74408213D01*
X99097667Y-74410084D01*
X99007966Y-74377767D01*
X98900348Y-74312067D01*
X98776158Y-74213791D01*
X98636745Y-74083746D01*
X98534452Y-73977774D01*
X98385446Y-73806665D01*
X98236237Y-73614246D01*
X98082451Y-73394777D01*
X97919716Y-73142516D01*
X97910958Y-73128430D01*
X97869752Y-73061410D01*
X97835426Y-73005643D01*
X97804800Y-72958010D01*
X97774693Y-72915395D01*
X97741927Y-72874681D01*
X97703320Y-72832751D01*
X97655695Y-72786488D01*
X97595870Y-72732775D01*
X97520666Y-72668495D01*
X97426904Y-72590530D01*
X97311403Y-72495765D01*
X97170984Y-72381081D01*
X97002467Y-72243362D01*
X96671207Y-71972265D01*
X96671207Y-71860056D01*
X96671020Y-71843638D01*
X96670156Y-71808535D01*
X96671810Y-71783645D01*
X96679840Y-71770620D01*
X96698102Y-71771108D01*
X96730454Y-71786761D01*
X96780754Y-71819227D01*
X96852859Y-71870157D01*
X96950627Y-71941200D01*
X97077915Y-72034006D01*
X97102898Y-72052145D01*
X97201998Y-72123484D01*
X97288196Y-72184580D01*
X97356504Y-72231960D01*
X97401930Y-72262151D01*
X97419486Y-72271682D01*
X97415755Y-72258811D01*
X97397216Y-72214444D01*
X97365809Y-72144345D01*
X97324275Y-72054606D01*
X97275354Y-71951317D01*
X97270400Y-71940956D01*
X97159780Y-71703751D01*
X97070302Y-71499166D01*
X97001360Y-71325422D01*
X96952349Y-71180742D01*
X96922665Y-71063346D01*
X96911702Y-70971457D01*
X96918856Y-70903295D01*
X96919133Y-70902315D01*
X96954416Y-70833218D01*
X97008975Y-70797519D01*
X97079560Y-70794664D01*
X97162923Y-70824099D01*
X97255813Y-70885271D01*
X97354981Y-70977625D01*
X97392182Y-71018479D01*
X97455630Y-71090540D01*
X97533110Y-71180245D01*
X97618102Y-71280034D01*
X97704083Y-71382348D01*
X97808529Y-71503242D01*
X97949199Y-71654706D01*
X98092167Y-71797329D01*
X98230992Y-71924988D01*
X98359231Y-72031557D01*
X98470442Y-72110913D01*
X98528985Y-72145049D01*
X98632006Y-72186929D01*
X98716058Y-72193867D01*
X98780435Y-72165881D01*
X98824432Y-72102985D01*
X98837037Y-72064584D01*
X98842304Y-71980540D01*
X98819134Y-71883280D01*
X98766362Y-71766037D01*
X98690764Y-71642847D01*
X98556418Y-71478354D01*
X98387603Y-71317435D01*
X98187909Y-71163082D01*
X97960928Y-71018288D01*
X97710250Y-70886044D01*
X97599486Y-70829931D01*
X97451228Y-70740333D01*
X97343452Y-70653203D01*
X97276035Y-70568410D01*
X97248852Y-70485821D01*
X97261780Y-70405302D01*
X97265791Y-70396441D01*
X97314746Y-70340520D01*
X97391744Y-70309312D01*
X97493003Y-70302680D01*
X97614740Y-70320483D01*
X97753171Y-70362585D01*
X97904513Y-70428846D01*
X98024694Y-70491246D01*
X98284626Y-70643277D01*
X98521455Y-70806101D01*
X98732297Y-70977033D01*
X98914262Y-71153387D01*
X99064466Y-71332478D01*
X99180021Y-71511619D01*
X99258041Y-71688126D01*
X99258573Y-71689686D01*
X99280163Y-71730904D01*
X99320648Y-71778258D01*
X99385197Y-71836996D01*
X99478981Y-71912364D01*
X99596455Y-71999443D01*
X99711457Y-72075856D01*
X99810362Y-72131971D01*
X99888642Y-72165237D01*
X99941770Y-72173102D01*
X99978646Y-72153532D01*
X100013150Y-72112295D01*
X100023844Y-72087065D01*
X100029127Y-72009696D01*
X100004058Y-71910373D01*
X99948305Y-71788438D01*
X99861536Y-71643232D01*
X99743419Y-71474097D01*
X99593620Y-71280373D01*
X99592971Y-71279565D01*
X99510697Y-71176685D01*
X99450691Y-71099540D01*
X99409452Y-71042329D01*
X99383481Y-70999251D01*
X99369278Y-70964505D01*
X99363341Y-70932291D01*
X99362171Y-70896807D01*
X99362397Y-70880899D01*
X99383934Y-70725466D01*
X99437671Y-70572035D01*
X99451610Y-70545442D01*
X99483261Y-70513826D01*
X99531218Y-70505783D01*
X99563275Y-70508384D01*
X99629161Y-70527114D01*
X99710027Y-70566071D01*
X99810803Y-70627797D01*
X99936418Y-70714838D01*
X99951499Y-70725759D01*
X100156737Y-70886031D01*
X100367160Y-71070012D01*
X100570118Y-71266116D01*
X100752964Y-71462757D01*
X100759027Y-71469697D01*
X100873818Y-71599600D01*
X100975738Y-71712119D01*
X101062133Y-71804474D01*
X101130348Y-71873884D01*
X101177730Y-71917569D01*
X101201623Y-71932749D01*
X101217990Y-71920581D01*
X101240032Y-71884367D01*
X101247033Y-71846528D01*
X101230452Y-71771666D01*
X101182344Y-71672509D01*
X101102595Y-71548889D01*
X100991091Y-71400634D01*
X100847720Y-71227575D01*
X100672370Y-71029540D01*
X100664903Y-71021247D01*
X100598488Y-70935623D01*
X100566931Y-70864839D01*
X100569239Y-70804832D01*
X100604419Y-70751542D01*
X100630473Y-70730078D01*
X100711274Y-70697314D01*
X100808286Y-70693393D01*
X100912930Y-70717922D01*
X101016628Y-70770505D01*
X101069807Y-70812575D01*
X101151143Y-70893607D01*
X101241680Y-70997790D01*
X101336101Y-71117724D01*
X101429092Y-71246010D01*
X101515338Y-71375248D01*
X101589522Y-71498038D01*
X101646331Y-71606979D01*
X101680448Y-71694673D01*
X101686106Y-71714409D01*
X101702915Y-71763625D01*
X101724501Y-71802806D01*
X101757918Y-71840446D01*
X101810224Y-71885040D01*
X101888475Y-71945081D01*
X102001898Y-72026738D01*
X102153484Y-72120263D01*
X102287287Y-72181330D01*
X102406134Y-72210853D01*
X102512853Y-72209750D01*
X102610271Y-72178936D01*
X102664109Y-72145914D01*
X102728726Y-72072925D01*
X102759255Y-71982251D01*
X102754562Y-71878422D01*
X102713515Y-71765967D01*
X102701970Y-71748316D01*
X102662645Y-71699463D01*
X102603405Y-71632292D01*
X102530005Y-71553250D01*
X102448201Y-71468784D01*
X102361633Y-71378106D01*
X102198927Y-71185495D01*
X102071532Y-71000018D01*
X101981256Y-70824170D01*
X101968820Y-70788559D01*
X101954106Y-70713101D01*
X101953019Y-70643430D01*
X101966583Y-70595472D01*
X102011062Y-70555542D01*
X102087042Y-70530410D01*
X102181799Y-70527325D01*
X102286957Y-70546434D01*
X102394145Y-70587887D01*
X102427411Y-70606129D01*
X102537907Y-70685814D01*
X102654763Y-70794644D01*
X102772695Y-70925517D01*
X102886418Y-71071333D01*
X102990647Y-71224990D01*
X103080098Y-71379387D01*
X103149485Y-71527424D01*
X103193525Y-71661999D01*
X103202637Y-71696906D01*
X103217935Y-71736566D01*
X103241898Y-71774421D01*
X103280151Y-71817494D01*
X103338316Y-71872809D01*
X103422019Y-71947392D01*
X103488580Y-72005064D01*
X103627057Y-72118167D01*
X103745230Y-72204381D01*
X103841084Y-72262298D01*
X103912607Y-72290510D01*
X103917674Y-72291550D01*
X103998678Y-72288962D01*
X104068422Y-72253492D01*
X104115164Y-72190912D01*
X104119879Y-72178430D01*
X104136333Y-72094293D01*
X104140300Y-71984062D01*
X104132349Y-71858192D01*
X104113053Y-71727135D01*
X104082981Y-71601343D01*
X104070031Y-71561261D01*
X104029008Y-71454070D01*
X103972772Y-71323463D01*
X103905142Y-71177350D01*
X103829943Y-71023638D01*
X103802539Y-70970391D01*
X104255184Y-70970391D01*
X104283546Y-71064632D01*
X104291418Y-71089434D01*
X104318002Y-71157016D01*
X104353496Y-71223561D01*
X104401193Y-71292828D01*
X104464390Y-71368580D01*
X104546383Y-71454577D01*
X104650468Y-71554582D01*
X104779939Y-71672355D01*
X104938093Y-71811657D01*
X104953466Y-71825042D01*
X105046361Y-71905317D01*
X105138277Y-71983860D01*
X105219337Y-72052270D01*
X105279664Y-72102147D01*
X105297743Y-72116528D01*
X105379195Y-72171866D01*
X105442295Y-72194789D01*
X105491360Y-72186058D01*
X105530701Y-72146433D01*
X105543841Y-72123790D01*
X105553753Y-72089054D01*
X105552087Y-72041974D01*
X105539518Y-71968989D01*
X105535329Y-71948326D01*
X105491622Y-71785547D01*
X105436260Y-71658926D01*
X105369945Y-71570115D01*
X105357430Y-71558797D01*
X105294517Y-71511313D01*
X105203954Y-71451427D01*
X105092630Y-71382956D01*
X104967438Y-71309713D01*
X104835266Y-71235516D01*
X104703007Y-71164178D01*
X104577551Y-71099515D01*
X104465789Y-71045343D01*
X104374611Y-71005477D01*
X104310908Y-70983732D01*
X104255184Y-70970391D01*
X103802539Y-70970391D01*
X103750995Y-70870237D01*
X103672121Y-70725055D01*
X103597142Y-70596001D01*
X103512324Y-70456051D01*
X103393765Y-70260147D01*
X103293462Y-70093947D01*
X103209577Y-69954329D01*
X103140272Y-69838169D01*
X103083706Y-69742345D01*
X103038042Y-69663734D01*
X103001441Y-69599213D01*
X102972064Y-69545658D01*
X102948071Y-69499948D01*
X102927625Y-69458959D01*
X102885864Y-69366087D01*
X102844524Y-69241249D01*
X102832205Y-69139337D01*
X102848335Y-69057459D01*
X102854432Y-69044082D01*
X102900355Y-68979789D01*
X102960148Y-68933501D01*
X103020999Y-68915734D01*
X103030017Y-68916947D01*
X103075808Y-68941409D01*
X103136477Y-68993012D01*
X103206448Y-69066061D01*
X103280144Y-69154861D01*
X103351989Y-69253720D01*
X103405739Y-69337579D01*
X103473930Y-69450949D01*
X103552298Y-69586239D01*
X103636789Y-69736166D01*
X103723348Y-69893449D01*
X103807921Y-70050806D01*
X103886455Y-70200956D01*
X103954894Y-70336615D01*
X104097454Y-70626116D01*
X104177082Y-70557957D01*
X104202233Y-70538335D01*
X104272348Y-70495689D01*
X104337890Y-70469193D01*
X104340268Y-70468604D01*
X104439418Y-70462087D01*
X104561984Y-70482558D01*
X104703217Y-70527720D01*
X104858368Y-70595270D01*
X105022692Y-70682910D01*
X105191438Y-70788339D01*
X105359860Y-70909258D01*
X105523208Y-71043366D01*
X105564932Y-71080711D01*
X105712664Y-71227948D01*
X105826402Y-71370394D01*
X105910190Y-71513684D01*
X105968071Y-71663455D01*
X105980693Y-71698494D01*
X106020411Y-71760434D01*
X106087557Y-71818803D01*
X106138158Y-71854471D01*
X106238457Y-71915610D01*
X106316346Y-71946734D01*
X106374490Y-71948685D01*
X106415557Y-71922304D01*
X106422984Y-71910858D01*
X106425973Y-71883362D01*
X106411871Y-71840788D01*
X106378260Y-71773490D01*
X106365217Y-71747783D01*
X106326834Y-71662942D01*
X106285935Y-71562429D01*
X106249418Y-71462868D01*
X106244808Y-71449333D01*
X106213201Y-71348473D01*
X106194363Y-71264091D01*
X106185093Y-71177469D01*
X106182189Y-71069891D01*
X106181227Y-70918239D01*
X106667016Y-70918239D01*
X106785743Y-71155390D01*
X106815370Y-71215595D01*
X106880204Y-71359635D01*
X106924566Y-71483599D01*
X106950898Y-71596988D01*
X106961645Y-71709305D01*
X106959249Y-71830052D01*
X106957488Y-71857010D01*
X106951540Y-71939283D01*
X106945930Y-72005532D01*
X106941674Y-72043419D01*
X106943954Y-72061709D01*
X106966291Y-72091700D01*
X107015240Y-72131416D01*
X107095628Y-72185307D01*
X107128112Y-72205861D01*
X107201690Y-72249064D01*
X107259778Y-72275005D01*
X107315261Y-72288629D01*
X107381021Y-72294885D01*
X107451337Y-72294247D01*
X107547008Y-72273344D01*
X107614988Y-72229573D01*
X107651028Y-72164978D01*
X107653186Y-72132882D01*
X107647312Y-72064287D01*
X107633549Y-71975408D01*
X107614054Y-71876895D01*
X107590984Y-71779398D01*
X107566493Y-71693565D01*
X107542738Y-71630048D01*
X107538323Y-71621013D01*
X107482589Y-71538715D01*
X107394489Y-71443251D01*
X107278157Y-71338132D01*
X107137724Y-71226870D01*
X106977326Y-71112976D01*
X106801094Y-70999963D01*
X106667016Y-70918239D01*
X106181227Y-70918239D01*
X106180918Y-70869553D01*
X106247491Y-70809979D01*
X106264708Y-70795439D01*
X106311906Y-70763248D01*
X106346020Y-70750405D01*
X106361025Y-70748333D01*
X106370526Y-70735116D01*
X106357719Y-70709308D01*
X106335662Y-70665271D01*
X106317931Y-70605892D01*
X106329296Y-70540525D01*
X106372490Y-70485419D01*
X106442799Y-70443233D01*
X106535508Y-70416626D01*
X106645902Y-70408254D01*
X106769269Y-70420777D01*
X106789813Y-70424989D01*
X106913679Y-70462536D01*
X107051959Y-70521088D01*
X107191884Y-70594701D01*
X107320681Y-70677431D01*
X107326358Y-70681522D01*
X107468497Y-70797260D01*
X107607262Y-70933896D01*
X107737428Y-71084388D01*
X107853769Y-71241693D01*
X107951059Y-71398768D01*
X108024072Y-71548569D01*
X108067583Y-71684055D01*
X108068025Y-71686098D01*
X108080980Y-71732089D01*
X108101629Y-71774395D01*
X108135616Y-71820764D01*
X108188585Y-71878946D01*
X108266182Y-71956689D01*
X108374129Y-72060566D01*
X108613186Y-72276647D01*
X108853092Y-72475290D01*
X109088260Y-72652194D01*
X109313105Y-72803057D01*
X109522039Y-72923578D01*
X109564877Y-72945545D01*
X109801256Y-73051874D01*
X110021016Y-73125130D01*
X110222908Y-73165768D01*
X110405682Y-73174240D01*
X110568087Y-73151001D01*
X110708875Y-73096505D01*
X110826794Y-73011204D01*
X110920594Y-72895553D01*
X110989025Y-72750004D01*
X111030838Y-72575013D01*
X111044781Y-72371031D01*
X111043630Y-72311826D01*
X111027662Y-72138148D01*
X110991478Y-71959827D01*
X110933234Y-71770520D01*
X110851086Y-71563883D01*
X110743190Y-71333574D01*
X110658221Y-71172023D01*
X110500079Y-70905892D01*
X110317878Y-70633401D01*
X110116375Y-70360130D01*
X109900327Y-70091661D01*
X109674492Y-69833576D01*
X109443627Y-69591456D01*
X109212489Y-69370884D01*
X108985837Y-69177439D01*
X108768426Y-69016705D01*
X108630740Y-68929402D01*
X108492140Y-68856839D01*
X108377665Y-68816293D01*
X108286846Y-68807660D01*
X108219213Y-68830837D01*
X108174297Y-68885720D01*
X108159568Y-68928202D01*
X108153465Y-69031204D01*
X108177426Y-69157658D01*
X108230708Y-69305688D01*
X108312574Y-69473419D01*
X108422281Y-69658977D01*
X108559091Y-69860485D01*
X108578622Y-69887441D01*
X108667974Y-70005826D01*
X108759066Y-70119399D01*
X108848580Y-70224715D01*
X108933196Y-70318334D01*
X109009595Y-70396814D01*
X109074457Y-70456711D01*
X109124464Y-70494585D01*
X109156295Y-70506993D01*
X109166632Y-70490494D01*
X109158226Y-70466204D01*
X109136776Y-70424242D01*
X109121773Y-70392602D01*
X109108568Y-70339012D01*
X109112158Y-70297939D01*
X109132875Y-70281545D01*
X109145103Y-70286304D01*
X109185217Y-70314026D01*
X109244160Y-70361597D01*
X109315614Y-70423366D01*
X109393261Y-70493685D01*
X109470783Y-70566904D01*
X109541865Y-70637373D01*
X109600186Y-70699442D01*
X109613701Y-70714819D01*
X109674099Y-70786280D01*
X109743074Y-70870998D01*
X109808206Y-70953784D01*
X109839757Y-70995568D01*
X109937043Y-71139501D01*
X110000813Y-71264399D01*
X110031540Y-71372863D01*
X110029695Y-71467493D01*
X109995752Y-71550891D01*
X109930182Y-71625657D01*
X109911554Y-71641317D01*
X109839912Y-71686192D01*
X109766577Y-71703454D01*
X109685067Y-71692507D01*
X109588902Y-71652758D01*
X109471600Y-71583611D01*
X109393377Y-71530848D01*
X109185324Y-71371414D01*
X108971643Y-71182818D01*
X108758204Y-70971685D01*
X108550878Y-70744642D01*
X108355536Y-70508315D01*
X108178049Y-70269331D01*
X108024287Y-70034316D01*
X107900122Y-69809896D01*
X107860217Y-69727665D01*
X107793655Y-69577951D01*
X107746326Y-69447687D01*
X107715542Y-69327394D01*
X107698618Y-69207597D01*
X107692867Y-69078816D01*
X107693127Y-69028842D01*
X107705300Y-68874070D01*
X107737046Y-68746253D01*
X107791047Y-68637225D01*
X107869979Y-68538817D01*
X107955422Y-68469079D01*
X108061301Y-68423233D01*
X108186149Y-68406273D01*
X108333691Y-68417720D01*
X108507650Y-68457097D01*
X108610241Y-68489285D01*
X108856316Y-68590695D01*
X109113192Y-68728718D01*
X109378976Y-68902061D01*
X109651774Y-69109430D01*
X109929695Y-69349531D01*
X110210844Y-69621070D01*
X110487410Y-69914276D01*
X110771618Y-70244974D01*
X111026415Y-70574872D01*
X111250350Y-70901689D01*
X111441972Y-71223147D01*
X111599832Y-71536964D01*
X111722479Y-71840863D01*
X111808463Y-72132563D01*
X111822447Y-72197816D01*
X111850728Y-72413151D01*
X111854507Y-72631376D01*
X111834501Y-72843130D01*
X111791426Y-73039051D01*
X111725999Y-73209777D01*
X111625460Y-73376893D01*
X111497781Y-73518680D01*
X111345892Y-73628237D01*
X111169182Y-73705909D01*
X110967040Y-73752041D01*
X110738853Y-73766979D01*
X110693463Y-73766295D01*
X110472797Y-73746092D01*
X110250957Y-73697021D01*
X110025704Y-73617903D01*
X109794799Y-73507558D01*
X109556000Y-73364806D01*
X109307068Y-73188469D01*
X109045762Y-72977367D01*
X108769842Y-72730321D01*
X108675811Y-72641137D01*
X108562888Y-72531218D01*
X108453443Y-72422020D01*
X108356379Y-72322437D01*
X108280597Y-72241367D01*
X108263542Y-72222534D01*
X108196990Y-72150097D01*
X108141356Y-72091174D01*
X108102041Y-72051407D01*
X108084446Y-72036440D01*
X108080498Y-72039202D01*
X108068966Y-72069009D01*
X108057921Y-72121312D01*
X108055286Y-72132882D01*
X108046270Y-72172466D01*
X108007111Y-72279999D01*
G37*
G36*
X101880947Y-66732964D02*
G01*
X101824539Y-66915662D01*
X101784126Y-67021070D01*
X101708222Y-67183907D01*
X101622302Y-67333649D01*
X101529878Y-67465936D01*
X101434462Y-67576411D01*
X101339568Y-67660717D01*
X101248708Y-67714496D01*
X101165394Y-67733391D01*
X101157228Y-67733163D01*
X101076950Y-67715176D01*
X100976726Y-67671109D01*
X100863085Y-67604725D01*
X100742554Y-67519785D01*
X100621661Y-67420051D01*
X100608476Y-67408062D01*
X100547997Y-67349964D01*
X100465778Y-67267806D01*
X100366242Y-67166248D01*
X100253814Y-67049952D01*
X100132918Y-66923577D01*
X100007979Y-66791784D01*
X99883421Y-66659236D01*
X99763668Y-66530591D01*
X99653144Y-66410512D01*
X99556274Y-66303658D01*
X99477481Y-66214691D01*
X99475841Y-66212810D01*
X99456014Y-66191540D01*
X99445634Y-66186287D01*
X99445556Y-66201525D01*
X99456632Y-66241730D01*
X99479715Y-66311378D01*
X99515659Y-66414944D01*
X99559831Y-66547401D01*
X99629444Y-66792747D01*
X99677167Y-67018977D01*
X99703017Y-67223898D01*
X99707010Y-67405316D01*
X99689164Y-67561038D01*
X99649495Y-67688871D01*
X99588019Y-67786620D01*
X99504754Y-67852093D01*
X99403470Y-67885484D01*
X99274331Y-67887836D01*
X99126952Y-67854291D01*
X98961590Y-67785014D01*
X98778503Y-67680171D01*
X98577948Y-67539928D01*
X98360181Y-67364450D01*
X98125460Y-67153903D01*
X97874041Y-66908453D01*
X97606183Y-66628265D01*
X97384690Y-66389512D01*
X97384690Y-66225657D01*
X97384810Y-66201936D01*
X97386824Y-66130500D01*
X97390810Y-66080581D01*
X97396095Y-66061802D01*
X97408897Y-66069419D01*
X97447679Y-66098559D01*
X97505180Y-66144435D01*
X97574466Y-66201612D01*
X97726237Y-66324437D01*
X97903688Y-66454671D01*
X98072064Y-66561591D01*
X98239532Y-66650712D01*
X98309387Y-66683798D01*
X98384521Y-66715676D01*
X98444879Y-66734129D01*
X98502730Y-66742644D01*
X98570347Y-66744707D01*
X98668630Y-66736514D01*
X98768238Y-66701390D01*
X98840315Y-66637131D01*
X98886488Y-66542147D01*
X98908385Y-66414850D01*
X98909768Y-66394826D01*
X98913330Y-66318265D01*
X98911728Y-66249852D01*
X98902842Y-66185040D01*
X98884550Y-66119283D01*
X98854733Y-66048034D01*
X98811270Y-65966744D01*
X98752040Y-65870867D01*
X98674923Y-65755857D01*
X98577798Y-65617165D01*
X98458545Y-65450245D01*
X98432469Y-65413792D01*
X98342203Y-65283724D01*
X98275709Y-65176867D01*
X98231644Y-65086287D01*
X98208667Y-65005050D01*
X98205438Y-64926221D01*
X98220614Y-64842865D01*
X98252855Y-64748048D01*
X98300818Y-64634836D01*
X98326440Y-64576186D01*
X98338035Y-64548514D01*
X98742964Y-64548514D01*
X98761325Y-64579718D01*
X98802236Y-64637422D01*
X98844550Y-64695768D01*
X99082713Y-65019301D01*
X99302654Y-65309208D01*
X99505795Y-65567171D01*
X99693553Y-65794874D01*
X99867346Y-65993999D01*
X100028595Y-66166230D01*
X100178718Y-66313250D01*
X100319134Y-66436740D01*
X100354052Y-66465276D01*
X100485680Y-66568046D01*
X100614114Y-66661344D01*
X100732655Y-66740635D01*
X100834604Y-66801382D01*
X100913261Y-66839048D01*
X100954175Y-66853882D01*
X101024294Y-66872651D01*
X101075779Y-66872785D01*
X101120284Y-66855193D01*
X101137207Y-66842907D01*
X101182295Y-66783166D01*
X101217484Y-66696573D01*
X101240296Y-66593147D01*
X101248252Y-66482906D01*
X101238872Y-66375869D01*
X101219322Y-66292879D01*
X101163765Y-66148559D01*
X101079952Y-66006608D01*
X100965982Y-65865048D01*
X100819958Y-65721902D01*
X100639980Y-65575192D01*
X100424151Y-65422942D01*
X100170571Y-65263172D01*
X100137285Y-65243560D01*
X100049155Y-65193732D01*
X99938737Y-65133270D01*
X99811321Y-65064897D01*
X99672196Y-64991337D01*
X99526652Y-64915316D01*
X99379977Y-64839556D01*
X99237462Y-64766783D01*
X99104395Y-64699720D01*
X98986066Y-64641092D01*
X98887765Y-64593624D01*
X98814781Y-64560038D01*
X98772404Y-64543061D01*
X98766170Y-64541194D01*
X98745222Y-64537707D01*
X98742964Y-64548514D01*
X98338035Y-64548514D01*
X98358381Y-64499958D01*
X98380907Y-64442261D01*
X98390282Y-64412385D01*
X98384220Y-64398007D01*
X98347058Y-64369513D01*
X98282513Y-64338345D01*
X98256817Y-64327555D01*
X98160329Y-64276516D01*
X98101685Y-64220500D01*
X98078513Y-64153733D01*
X98088444Y-64070444D01*
X98129105Y-63964861D01*
X98158931Y-63904916D01*
X98237157Y-63783875D01*
X98323754Y-63700201D01*
X98421483Y-63651645D01*
X98533107Y-63635959D01*
X98570487Y-63637018D01*
X98712046Y-63654559D01*
X98881014Y-63692536D01*
X99072284Y-63749480D01*
X99280749Y-63823921D01*
X99501301Y-63914392D01*
X99879354Y-64097187D01*
X100274556Y-64328930D01*
X100661073Y-64598750D01*
X101040018Y-64907428D01*
X101412501Y-65255744D01*
X101544822Y-65390902D01*
X101659300Y-65517670D01*
X101748185Y-65631294D01*
X101814804Y-65738042D01*
X101862486Y-65844185D01*
X101894557Y-65955992D01*
X101914345Y-66079733D01*
X101925178Y-66221678D01*
X101927921Y-66389330D01*
X101920734Y-66482906D01*
X101914548Y-66563448D01*
X101880947Y-66732964D01*
G37*
G36*
X106842358Y-61133466D02*
G01*
X106997494Y-61144280D01*
X107130335Y-61161250D01*
X107217507Y-61178238D01*
X107356622Y-61210536D01*
X107515613Y-61251729D01*
X107684103Y-61298890D01*
X107851712Y-61349089D01*
X108008061Y-61399398D01*
X108142772Y-61446890D01*
X108195976Y-61466098D01*
X108270296Y-61490234D01*
X108324914Y-61504555D01*
X108350730Y-61506453D01*
X108351674Y-61505798D01*
X108368471Y-61477703D01*
X108383352Y-61429024D01*
X108383955Y-61426233D01*
X108396450Y-61376565D01*
X108406944Y-61347012D01*
X108408229Y-61345937D01*
X108434881Y-61351221D01*
X108490341Y-61374568D01*
X108569555Y-61413124D01*
X108667467Y-61464034D01*
X108779019Y-61524445D01*
X108899157Y-61591504D01*
X109022825Y-61662356D01*
X109144965Y-61734147D01*
X109260522Y-61804025D01*
X109364440Y-61869134D01*
X109451663Y-61926622D01*
X109517135Y-61973635D01*
X109636632Y-62075202D01*
X109757636Y-62205999D01*
X109842539Y-62336149D01*
X109847692Y-62346962D01*
X109872715Y-62411784D01*
X109903919Y-62506850D01*
X109939503Y-62625233D01*
X109977667Y-62760007D01*
X110016612Y-62904245D01*
X110054538Y-63051022D01*
X110089645Y-63193411D01*
X110120133Y-63324484D01*
X110144203Y-63437317D01*
X110160054Y-63524983D01*
X110165888Y-63580555D01*
X110163044Y-63621686D01*
X110140799Y-63699209D01*
X110101743Y-63759602D01*
X110052198Y-63791150D01*
X110035327Y-63793018D01*
X110001125Y-63788477D01*
X109953464Y-63774036D01*
X109889623Y-63748367D01*
X109806882Y-63710138D01*
X109702521Y-63658022D01*
X109573819Y-63590689D01*
X109418055Y-63506809D01*
X109232511Y-63405054D01*
X109014465Y-63284095D01*
X108883641Y-63211674D01*
X108633478Y-63075644D01*
X108391036Y-62946945D01*
X108160843Y-62827868D01*
X107947428Y-62720707D01*
X107755319Y-62627755D01*
X107589047Y-62551304D01*
X107453140Y-62493647D01*
X107442343Y-62489369D01*
X107238139Y-62417424D01*
X107048491Y-62367255D01*
X106875719Y-62338222D01*
X106722145Y-62329684D01*
X106590089Y-62341000D01*
X106481871Y-62371530D01*
X106399812Y-62420634D01*
X106346233Y-62487670D01*
X106323454Y-62571999D01*
X106333796Y-62672980D01*
X106379579Y-62789972D01*
X106382714Y-62796009D01*
X106457270Y-62922143D01*
X106562252Y-63073964D01*
X106697115Y-63250723D01*
X106861311Y-63451669D01*
X106897672Y-63494829D01*
X106947288Y-63553194D01*
X106999957Y-63614439D01*
X107058109Y-63681299D01*
X107124177Y-63756507D01*
X107200591Y-63842798D01*
X107289782Y-63942906D01*
X107394182Y-64059566D01*
X107516221Y-64195511D01*
X107658331Y-64353477D01*
X107822943Y-64536197D01*
X108012488Y-64746407D01*
X108038650Y-64775616D01*
X108130364Y-64880633D01*
X108222649Y-64989747D01*
X108306048Y-65091652D01*
X108371100Y-65175044D01*
X108379076Y-65185701D01*
X108470477Y-65309402D01*
X108567778Y-65443610D01*
X108667649Y-65583500D01*
X108766759Y-65724248D01*
X108861780Y-65861030D01*
X108949382Y-65989023D01*
X109026236Y-66103402D01*
X109089012Y-66199343D01*
X109134380Y-66272023D01*
X109159012Y-66316617D01*
X109177414Y-66360512D01*
X109226898Y-66528146D01*
X109256677Y-66717014D01*
X109266590Y-66915871D01*
X109256475Y-67113473D01*
X109226168Y-67298573D01*
X109175507Y-67459927D01*
X109111793Y-67588550D01*
X109025564Y-67715307D01*
X108928903Y-67817949D01*
X108827033Y-67891035D01*
X108725172Y-67929127D01*
X108723500Y-67929437D01*
X108616566Y-67933776D01*
X108497057Y-67909317D01*
X108363681Y-67855235D01*
X108215147Y-67770706D01*
X108050162Y-67654906D01*
X107867434Y-67507011D01*
X107665672Y-67326198D01*
X107443584Y-67111641D01*
X107258234Y-66924023D01*
X107049465Y-66705768D01*
X106830274Y-66469517D01*
X106598424Y-66212759D01*
X106351675Y-65932982D01*
X106087790Y-65627675D01*
X105804531Y-65294325D01*
X105499658Y-64930421D01*
X105483105Y-64910547D01*
X105386651Y-64794940D01*
X105298188Y-64689243D01*
X105221329Y-64597746D01*
X105159684Y-64524740D01*
X105116864Y-64474518D01*
X105096482Y-64451368D01*
X105094630Y-64452713D01*
X105105685Y-64481531D01*
X105132007Y-64539096D01*
X105171425Y-64620849D01*
X105221771Y-64722232D01*
X105280874Y-64838688D01*
X105345225Y-64965406D01*
X105507211Y-65296483D01*
X105645539Y-65598633D01*
X105759942Y-65871199D01*
X105850154Y-66113524D01*
X105915908Y-66324951D01*
X105956936Y-66504822D01*
X105961369Y-66532401D01*
X105974971Y-66655596D01*
X105983145Y-66797565D01*
X105985841Y-66946478D01*
X105983006Y-67090507D01*
X105974588Y-67217823D01*
X105960533Y-67316596D01*
X105947098Y-67368861D01*
X105915804Y-67458163D01*
X105880660Y-67532150D01*
X105833434Y-67604892D01*
X105726466Y-67735427D01*
X105601761Y-67854400D01*
X105469375Y-67952721D01*
X105339367Y-68021303D01*
X105251632Y-68046619D01*
X105111615Y-68055697D01*
X104962842Y-68033516D01*
X104814656Y-67980795D01*
X104709326Y-67928344D01*
X104465477Y-67784847D01*
X104214603Y-67608785D01*
X103961267Y-67404213D01*
X103710034Y-67175185D01*
X103465466Y-66925752D01*
X103232127Y-66659971D01*
X103014582Y-66381893D01*
X102866132Y-66173072D01*
X102638067Y-65825298D01*
X102415066Y-65453718D01*
X102200230Y-65064777D01*
X101996661Y-64664919D01*
X101807458Y-64260589D01*
X101635723Y-63858231D01*
X101484555Y-63464290D01*
X101357055Y-63085210D01*
X101256325Y-62727435D01*
X101240434Y-62662645D01*
X101205925Y-62505673D01*
X101185522Y-62377047D01*
X101179083Y-62269535D01*
X101186468Y-62175902D01*
X101207534Y-62088915D01*
X101242142Y-62001343D01*
X101272621Y-61939756D01*
X101328280Y-61856195D01*
X101385211Y-61812059D01*
X101446388Y-61806557D01*
X101514786Y-61838904D01*
X101593383Y-61908311D01*
X101604198Y-61919722D01*
X101674450Y-62000837D01*
X101757847Y-62106145D01*
X101847738Y-62226545D01*
X101937468Y-62352938D01*
X102020384Y-62476225D01*
X102089833Y-62587305D01*
X102109995Y-62622024D01*
X102149183Y-62700406D01*
X102169023Y-62769450D01*
X102170307Y-62840847D01*
X102153830Y-62926288D01*
X102120385Y-63037463D01*
X102065550Y-63205841D01*
X102174637Y-63415804D01*
X102220770Y-63504233D01*
X102462081Y-63954229D01*
X102695261Y-64367146D01*
X102921656Y-64745103D01*
X103142615Y-65090218D01*
X103359483Y-65404607D01*
X103573609Y-65690390D01*
X103786339Y-65949683D01*
X103826192Y-65995089D01*
X103927137Y-66104767D01*
X104041653Y-66223517D01*
X104162965Y-66344746D01*
X104284297Y-66461863D01*
X104398877Y-66568276D01*
X104499928Y-66657392D01*
X104580677Y-66722620D01*
X104619533Y-66750143D01*
X104698611Y-66800644D01*
X104787376Y-66852441D01*
X104877033Y-66900861D01*
X104958790Y-66941233D01*
X105023852Y-66968882D01*
X105063426Y-66979137D01*
X105070311Y-66977893D01*
X105106816Y-66958503D01*
X105152400Y-66923078D01*
X105165537Y-66910428D01*
X105207064Y-66848790D01*
X105226567Y-66770669D01*
X105223690Y-66672743D01*
X105198071Y-66551691D01*
X105149354Y-66404191D01*
X105077179Y-66226921D01*
X105027864Y-66115629D01*
X104918311Y-65881651D01*
X104795731Y-65636779D01*
X104658410Y-65377971D01*
X104504631Y-65102186D01*
X104332681Y-64806384D01*
X104140843Y-64487523D01*
X103927404Y-64142563D01*
X103690648Y-63768463D01*
X103602705Y-63630355D01*
X103425875Y-63349215D01*
X103272220Y-63099695D01*
X103141178Y-62880865D01*
X103032192Y-62691799D01*
X102944702Y-62531569D01*
X102944273Y-62530755D01*
X102901559Y-62447843D01*
X102875725Y-62390237D01*
X102863908Y-62347668D01*
X102863250Y-62309866D01*
X102870890Y-62266561D01*
X102873351Y-62256133D01*
X102900070Y-62173676D01*
X102941234Y-62073257D01*
X102990273Y-61968983D01*
X103040616Y-61874961D01*
X103085695Y-61805300D01*
X103137621Y-61747764D01*
X103194245Y-61716920D01*
X103259165Y-61719354D01*
X103342477Y-61753011D01*
X103353608Y-61758733D01*
X103505279Y-61850617D01*
X103668741Y-61972635D01*
X103837750Y-62119049D01*
X104006059Y-62284120D01*
X104167425Y-62462108D01*
X104315603Y-62647275D01*
X104354565Y-62699347D01*
X104542306Y-62946861D01*
X104729028Y-63186977D01*
X104918109Y-63423658D01*
X105112926Y-63660865D01*
X105316858Y-63902563D01*
X105533282Y-64152713D01*
X105765577Y-64415278D01*
X106017120Y-64694221D01*
X106291289Y-64993504D01*
X106591461Y-65317090D01*
X106614715Y-65342015D01*
X106841140Y-65583185D01*
X107043085Y-65795079D01*
X107222357Y-65979284D01*
X107380763Y-66137384D01*
X107520111Y-66270968D01*
X107642208Y-66381619D01*
X107748863Y-66470924D01*
X107841882Y-66540470D01*
X107923074Y-66591842D01*
X107994246Y-66626626D01*
X108057205Y-66646408D01*
X108113759Y-66652774D01*
X108164654Y-66649070D01*
X108213011Y-66632080D01*
X108241123Y-66600144D01*
X108248231Y-66551978D01*
X108233578Y-66486297D01*
X108196405Y-66401818D01*
X108135955Y-66297256D01*
X108051468Y-66171327D01*
X107942188Y-66022748D01*
X107807355Y-65850234D01*
X107646211Y-65652501D01*
X107457999Y-65428265D01*
X107241961Y-65176242D01*
X107169670Y-65092281D01*
X107094055Y-65003741D01*
X107029727Y-64927657D01*
X106981842Y-64870134D01*
X106955556Y-64837272D01*
X106950436Y-64830409D01*
X106917735Y-64786817D01*
X106867850Y-64720510D01*
X106806604Y-64639220D01*
X106739815Y-64550680D01*
X106680435Y-64471342D01*
X106561865Y-64309831D01*
X106434617Y-64133166D01*
X106304256Y-63949278D01*
X106176341Y-63766100D01*
X106056438Y-63591565D01*
X105950106Y-63433604D01*
X105862909Y-63300149D01*
X105757764Y-63128516D01*
X105668839Y-62962620D01*
X105603368Y-62808909D01*
X105558765Y-62658522D01*
X105532448Y-62502594D01*
X105521832Y-62332262D01*
X105524334Y-62138664D01*
X105540006Y-61918165D01*
X105570265Y-61728989D01*
X105617113Y-61572234D01*
X105682721Y-61444642D01*
X105769260Y-61342958D01*
X105878900Y-61263924D01*
X106013812Y-61204284D01*
X106176167Y-61160782D01*
X106227211Y-61151883D01*
X106357354Y-61138017D01*
X106510871Y-61130329D01*
X106676345Y-61128814D01*
X106842358Y-61133466D01*
G37*
G36*
X88889244Y-62493010D02*
G01*
X88928327Y-62506147D01*
X89041216Y-62567077D01*
X89150003Y-62656513D01*
X89250236Y-62767462D01*
X89337459Y-62892934D01*
X89407219Y-63025937D01*
X89455061Y-63159478D01*
X89476532Y-63286568D01*
X89467178Y-63400214D01*
X89466874Y-63401397D01*
X89437497Y-63461832D01*
X89385323Y-63528772D01*
X89322594Y-63588660D01*
X89261553Y-63627936D01*
X89200465Y-63646268D01*
X89095393Y-63655259D01*
X88986363Y-63644385D01*
X88891646Y-63614318D01*
X88890629Y-63613823D01*
X88810045Y-63560836D01*
X88721156Y-63480202D01*
X88632374Y-63381279D01*
X88552107Y-63273424D01*
X88488765Y-63165997D01*
X88453480Y-63091516D01*
X88429236Y-63023800D01*
X88417957Y-62958016D01*
X88415187Y-62876646D01*
X88417756Y-62800601D01*
X88430690Y-62722907D01*
X88457044Y-62659893D01*
X88473277Y-62633804D01*
X88552666Y-62551446D01*
X88653787Y-62498469D01*
X88768644Y-62477962D01*
X88889244Y-62493010D01*
G37*
G36*
X124950708Y-69406072D02*
G01*
X124909898Y-69581698D01*
X124842396Y-69745996D01*
X124745135Y-69909512D01*
X124739791Y-69917322D01*
X124599778Y-70089615D01*
X124436075Y-70237978D01*
X124254484Y-70359113D01*
X124060807Y-70449722D01*
X123860847Y-70506507D01*
X123660405Y-70526168D01*
X123543765Y-70526168D01*
X123540080Y-70570409D01*
X123529494Y-70697492D01*
X123529245Y-70700446D01*
X123489508Y-70934551D01*
X123412787Y-71154196D01*
X123301312Y-71356040D01*
X123157307Y-71536740D01*
X122983002Y-71692954D01*
X122780622Y-71821339D01*
X122645539Y-71881353D01*
X122495138Y-71929763D01*
X122345977Y-71961882D01*
X122213664Y-71973519D01*
X122097635Y-71973519D01*
X122092133Y-72044868D01*
X122085372Y-72132537D01*
X122082965Y-72160107D01*
X122041839Y-72386445D01*
X121965289Y-72602219D01*
X121856382Y-72801682D01*
X121718187Y-72979084D01*
X121553772Y-73128676D01*
X121483040Y-73178796D01*
X121308177Y-73278544D01*
X121123278Y-73354623D01*
X120938619Y-73403231D01*
X120764477Y-73420570D01*
X120650283Y-73420871D01*
X120644561Y-73492219D01*
X120637612Y-73578856D01*
X120634043Y-73617524D01*
X120589981Y-73855239D01*
X120510143Y-74074162D01*
X120395740Y-74272508D01*
X120247988Y-74448492D01*
X120068100Y-74600331D01*
X119857289Y-74726240D01*
X119838770Y-74735248D01*
X119741982Y-74777484D01*
X119643382Y-74814106D01*
X119561703Y-74838030D01*
X119447744Y-74855858D01*
X119290363Y-74863060D01*
X119125270Y-74855526D01*
X118967997Y-74834078D01*
X118834072Y-74799537D01*
X118762834Y-74773552D01*
X118696949Y-74746022D01*
X118634006Y-74714522D01*
X118570516Y-74676248D01*
X118502988Y-74628400D01*
X118427934Y-74568174D01*
X118341864Y-74492770D01*
X118241288Y-74399383D01*
X118122718Y-74285213D01*
X117982663Y-74147458D01*
X117817634Y-73983314D01*
X117772905Y-73938617D01*
X117599341Y-73763610D01*
X117450366Y-73610702D01*
X117327039Y-73481019D01*
X117230420Y-73375688D01*
X117161567Y-73295836D01*
X117121541Y-73242591D01*
X117107309Y-73219448D01*
X117048388Y-73107125D01*
X116994089Y-72979993D01*
X116950750Y-72854061D01*
X116924708Y-72745340D01*
X116912750Y-72671174D01*
X116826609Y-72691235D01*
X116820184Y-72692674D01*
X116721532Y-72705935D01*
X116599289Y-72710705D01*
X116468456Y-72707333D01*
X116344036Y-72696171D01*
X116241030Y-72677567D01*
X116210740Y-72669491D01*
X115991060Y-72587602D01*
X115849791Y-72505834D01*
X117616076Y-72505834D01*
X117635387Y-72663240D01*
X117693559Y-72819507D01*
X117714562Y-72849409D01*
X117763112Y-72906929D01*
X117835530Y-72987202D01*
X117929015Y-73087235D01*
X118040765Y-73204033D01*
X118167979Y-73334603D01*
X118307853Y-73475949D01*
X118345213Y-73513401D01*
X118491865Y-73659698D01*
X118613732Y-73779803D01*
X118713642Y-73876315D01*
X118794423Y-73951832D01*
X118858905Y-74008951D01*
X118909917Y-74050272D01*
X118950287Y-74078391D01*
X118982844Y-74095909D01*
X118996967Y-74101951D01*
X119150602Y-74144521D01*
X119308823Y-74150006D01*
X119464009Y-74119804D01*
X119608540Y-74055314D01*
X119734798Y-73957935D01*
X119771337Y-73919081D01*
X119855502Y-73794984D01*
X119904575Y-73654286D01*
X119920455Y-73492219D01*
X119920116Y-73444585D01*
X119917420Y-73386165D01*
X119909947Y-73332839D01*
X119895284Y-73281221D01*
X119871015Y-73227930D01*
X119834728Y-73169581D01*
X119784006Y-73102793D01*
X119716437Y-73024181D01*
X119629606Y-72930364D01*
X119521098Y-72817957D01*
X119388499Y-72683578D01*
X119229396Y-72523843D01*
X119139522Y-72433837D01*
X118996962Y-72291808D01*
X118877762Y-72174956D01*
X118778499Y-72080825D01*
X118695750Y-72006962D01*
X118626091Y-71950911D01*
X118566099Y-71910218D01*
X118512350Y-71882429D01*
X118461421Y-71865088D01*
X118409889Y-71855740D01*
X118354331Y-71851932D01*
X118291322Y-71851208D01*
X118220848Y-71853693D01*
X118076712Y-71879663D01*
X117949427Y-71937089D01*
X117828710Y-72029947D01*
X117782800Y-72076508D01*
X117690634Y-72207495D01*
X117634776Y-72352262D01*
X117616076Y-72505834D01*
X115849791Y-72505834D01*
X115788579Y-72470404D01*
X115609200Y-72321226D01*
X115572133Y-72283325D01*
X115423446Y-72098333D01*
X115310975Y-71895576D01*
X115233979Y-71673471D01*
X115191715Y-71430436D01*
X115177306Y-71284866D01*
X115021167Y-71270402D01*
X114987305Y-71266874D01*
X114752992Y-71219980D01*
X114533388Y-71136091D01*
X114331952Y-71016823D01*
X114152139Y-70863793D01*
X114017117Y-70708926D01*
X113896100Y-70519968D01*
X113813581Y-70322315D01*
X113805584Y-70294971D01*
X113785646Y-70213159D01*
X113767472Y-70121591D01*
X113752568Y-70030158D01*
X113742439Y-69948750D01*
X113738591Y-69887259D01*
X113742529Y-69855574D01*
X113742167Y-69852826D01*
X113717393Y-69843167D01*
X113663528Y-69833376D01*
X113589387Y-69825201D01*
X113537174Y-69819885D01*
X113306564Y-69772821D01*
X113088841Y-69689864D01*
X112889441Y-69573493D01*
X112713798Y-69426184D01*
X112684119Y-69395625D01*
X112540863Y-69217756D01*
X112429208Y-69023397D01*
X112352193Y-68818734D01*
X112312857Y-68609956D01*
X112310578Y-68587372D01*
X112297783Y-68511506D01*
X112275403Y-68455723D01*
X112247381Y-68417151D01*
X113022745Y-68417151D01*
X113024130Y-68538526D01*
X113041518Y-68643997D01*
X113073147Y-68726925D01*
X113148783Y-68848179D01*
X113250143Y-68955475D01*
X113368298Y-69038049D01*
X113400707Y-69055237D01*
X113462552Y-69084073D01*
X113517989Y-69100173D01*
X113582730Y-69107192D01*
X113672491Y-69108783D01*
X113738177Y-69107909D01*
X113818999Y-69101465D01*
X113883812Y-69086493D01*
X113947691Y-69060336D01*
X113964619Y-69050518D01*
X113994198Y-69028961D01*
X114034597Y-68995709D01*
X114087306Y-68949325D01*
X114153815Y-68888370D01*
X114235614Y-68811406D01*
X114334194Y-68716993D01*
X114451044Y-68603693D01*
X114587656Y-68470069D01*
X114745518Y-68314681D01*
X114926122Y-68136092D01*
X115130956Y-67932862D01*
X115361513Y-67703553D01*
X115619280Y-67446726D01*
X115646531Y-67419557D01*
X115892472Y-67174451D01*
X116111452Y-66956448D01*
X116305135Y-66763955D01*
X116475181Y-66595381D01*
X116623254Y-66449132D01*
X116751017Y-66323616D01*
X116860131Y-66217241D01*
X116952259Y-66128413D01*
X117029064Y-66055540D01*
X117092208Y-65997029D01*
X117143353Y-65951289D01*
X117184162Y-65916726D01*
X117216297Y-65891748D01*
X117241422Y-65874761D01*
X117261197Y-65864175D01*
X117277286Y-65858395D01*
X117368174Y-65845442D01*
X117480552Y-65861415D01*
X117579099Y-65912465D01*
X117656998Y-65996118D01*
X117703038Y-66091116D01*
X117721961Y-66203895D01*
X117704296Y-66312547D01*
X117703485Y-66314610D01*
X117690746Y-66335583D01*
X117664705Y-66368985D01*
X117624053Y-66416170D01*
X117567483Y-66478488D01*
X117493685Y-66557293D01*
X117401352Y-66653936D01*
X117289175Y-66769769D01*
X117155847Y-66906145D01*
X117000057Y-67064415D01*
X116820499Y-67245931D01*
X116615864Y-67452046D01*
X116384843Y-67684112D01*
X116126128Y-67943480D01*
X116052092Y-68017669D01*
X115769879Y-68300974D01*
X115516776Y-68555929D01*
X115292706Y-68782610D01*
X115097595Y-68981097D01*
X114931365Y-69151468D01*
X114793940Y-69293801D01*
X114685245Y-69408174D01*
X114605204Y-69494667D01*
X114553739Y-69553356D01*
X114530776Y-69584320D01*
X114477275Y-69727678D01*
X114458041Y-69881502D01*
X114474269Y-70033420D01*
X114523859Y-70177433D01*
X114604713Y-70307541D01*
X114714732Y-70417745D01*
X114851818Y-70502045D01*
X114863356Y-70507301D01*
X114941691Y-70536638D01*
X115020618Y-70551467D01*
X115119960Y-70555756D01*
X115129936Y-70555814D01*
X115169695Y-70556291D01*
X115205826Y-70555985D01*
X115240135Y-70553341D01*
X115274431Y-70546805D01*
X115310518Y-70534823D01*
X115350205Y-70515838D01*
X115395296Y-70488298D01*
X115447601Y-70450647D01*
X115508924Y-70401331D01*
X115581073Y-70338795D01*
X115665854Y-70261484D01*
X115765074Y-70167845D01*
X115880540Y-70056322D01*
X116014058Y-69925361D01*
X116167435Y-69773408D01*
X116342478Y-69598907D01*
X116540994Y-69400305D01*
X116764788Y-69176046D01*
X117015669Y-68924576D01*
X117196801Y-68743282D01*
X117399512Y-68540935D01*
X117593714Y-68347653D01*
X117777386Y-68165422D01*
X117948505Y-67996228D01*
X118105049Y-67842058D01*
X118244996Y-67704898D01*
X118366323Y-67586734D01*
X118467009Y-67489553D01*
X118545032Y-67415341D01*
X118598368Y-67366084D01*
X118624997Y-67343768D01*
X118730575Y-67295066D01*
X118837631Y-67281518D01*
X118938631Y-67300260D01*
X119027966Y-67347172D01*
X119100027Y-67418135D01*
X119149205Y-67509028D01*
X119169890Y-67615732D01*
X119156473Y-67734127D01*
X119155370Y-67738032D01*
X119148827Y-67754949D01*
X119137618Y-67775377D01*
X119120132Y-67801004D01*
X119094756Y-67833515D01*
X119059877Y-67874596D01*
X119013883Y-67925934D01*
X118955161Y-67989216D01*
X118882098Y-68066126D01*
X118793083Y-68158352D01*
X118686503Y-68267579D01*
X118560744Y-68395494D01*
X118414195Y-68543783D01*
X118245243Y-68714132D01*
X118052275Y-68908228D01*
X117833679Y-69127756D01*
X117587843Y-69374402D01*
X117380119Y-69582922D01*
X117178256Y-69785908D01*
X116985901Y-69979679D01*
X116804986Y-70162274D01*
X116637442Y-70331730D01*
X116485201Y-70486087D01*
X116350196Y-70623383D01*
X116234358Y-70741656D01*
X116139620Y-70838944D01*
X116067912Y-70913286D01*
X116021168Y-70962721D01*
X116001320Y-70985286D01*
X115981739Y-71019837D01*
X115950933Y-71090139D01*
X115924564Y-71166989D01*
X115920328Y-71182336D01*
X115900866Y-71332936D01*
X115918026Y-71483119D01*
X115968612Y-71626075D01*
X116049430Y-71754996D01*
X116157283Y-71863072D01*
X116288977Y-71943495D01*
X116422308Y-71987831D01*
X116578384Y-72003838D01*
X116730004Y-71982419D01*
X116783622Y-71965291D01*
X116913811Y-71902445D01*
X117042437Y-71808012D01*
X117175300Y-71678027D01*
X117256133Y-71593326D01*
X117430824Y-71434673D01*
X117604288Y-71312661D01*
X117780868Y-71224932D01*
X117964904Y-71169130D01*
X118160736Y-71142897D01*
X118337505Y-71132252D01*
X118342114Y-71076924D01*
X119063496Y-71076924D01*
X119086459Y-71230384D01*
X119147130Y-71380945D01*
X119152730Y-71390139D01*
X119189761Y-71438381D01*
X119251090Y-71509017D01*
X119332696Y-71598045D01*
X119430557Y-71701459D01*
X119540650Y-71815258D01*
X119658953Y-71935439D01*
X119781446Y-72057997D01*
X119904105Y-72178930D01*
X120022909Y-72294235D01*
X120133835Y-72399909D01*
X120232863Y-72491947D01*
X120315970Y-72566348D01*
X120379134Y-72619108D01*
X120418333Y-72646223D01*
X120477588Y-72668190D01*
X120576769Y-72689115D01*
X120687422Y-72700663D01*
X120793428Y-72701317D01*
X120878670Y-72689560D01*
X120986858Y-72649177D01*
X121118837Y-72565400D01*
X121230621Y-72453398D01*
X121314079Y-72320068D01*
X121329077Y-72286459D01*
X121352303Y-72217349D01*
X121363903Y-72142630D01*
X121367248Y-72044868D01*
X121366969Y-71993562D01*
X121364077Y-71935488D01*
X121356114Y-71882115D01*
X121340682Y-71830114D01*
X121315382Y-71776155D01*
X121277814Y-71716909D01*
X121225580Y-71649046D01*
X121156280Y-71569236D01*
X121067516Y-71474150D01*
X120956887Y-71360457D01*
X120821995Y-71224830D01*
X120660441Y-71063937D01*
X120648705Y-71052272D01*
X120501861Y-70906580D01*
X120380443Y-70786869D01*
X120281370Y-70690392D01*
X120201561Y-70614403D01*
X120137934Y-70556157D01*
X120087409Y-70512906D01*
X120046904Y-70481906D01*
X120013338Y-70460409D01*
X119983629Y-70445669D01*
X119954697Y-70434941D01*
X119875899Y-70415627D01*
X119727782Y-70405365D01*
X119577551Y-70423160D01*
X119441511Y-70467962D01*
X119312320Y-70547033D01*
X119202655Y-70655620D01*
X119123415Y-70783895D01*
X119076422Y-70926212D01*
X119063496Y-71076924D01*
X118342114Y-71076924D01*
X118351732Y-70961454D01*
X118362280Y-70875523D01*
X118403863Y-70691381D01*
X118467557Y-70510090D01*
X118547509Y-70349935D01*
X118594780Y-70280443D01*
X118684551Y-70172433D01*
X118789914Y-70064692D01*
X118899076Y-69969013D01*
X119000244Y-69897189D01*
X119054464Y-69865938D01*
X119263964Y-69769066D01*
X119472138Y-69710213D01*
X119675733Y-69690373D01*
X119782078Y-69690373D01*
X119782150Y-69689519D01*
X120514438Y-69689519D01*
X120550507Y-69853455D01*
X120550693Y-69854003D01*
X120562112Y-69883960D01*
X120577370Y-69914433D01*
X120599251Y-69948562D01*
X120630540Y-69989482D01*
X120674023Y-70040332D01*
X120732485Y-70104249D01*
X120808711Y-70184370D01*
X120905486Y-70283833D01*
X121025596Y-70405774D01*
X121171825Y-70553331D01*
X121325461Y-70707352D01*
X121469053Y-70849353D01*
X121588262Y-70964751D01*
X121684883Y-71055222D01*
X121760710Y-71122443D01*
X121817538Y-71168094D01*
X121857162Y-71193849D01*
X121872601Y-71201613D01*
X121942896Y-71229488D01*
X122020564Y-71245307D01*
X122122170Y-71252751D01*
X122157962Y-71253674D01*
X122294194Y-71245855D01*
X122408255Y-71215492D01*
X122512227Y-71158116D01*
X122618194Y-71069256D01*
X122634496Y-71053320D01*
X122714091Y-70958486D01*
X122767794Y-70854560D01*
X122803887Y-70726244D01*
X122814512Y-70661006D01*
X122816885Y-70570409D01*
X122802523Y-70472464D01*
X122770137Y-70352893D01*
X122762242Y-70330505D01*
X122748415Y-70301548D01*
X122727578Y-70268468D01*
X122696990Y-70228190D01*
X122653910Y-70177640D01*
X122595596Y-70113744D01*
X122519307Y-70033427D01*
X122422302Y-69933616D01*
X122301840Y-69811235D01*
X122155179Y-69663210D01*
X122020895Y-69528076D01*
X121883223Y-69390503D01*
X121768006Y-69277508D01*
X121671866Y-69186669D01*
X121591427Y-69115566D01*
X121523316Y-69061777D01*
X121464154Y-69022882D01*
X121410567Y-68996461D01*
X121359179Y-68980091D01*
X121306614Y-68971353D01*
X121249496Y-68967826D01*
X121184449Y-68967089D01*
X121176942Y-68967079D01*
X121081827Y-68969048D01*
X121011830Y-68976778D01*
X120952370Y-68992880D01*
X120888863Y-69019960D01*
X120858490Y-69035286D01*
X120726566Y-69127307D01*
X120624157Y-69243771D01*
X120553304Y-69379647D01*
X120516051Y-69529906D01*
X120514438Y-69689519D01*
X119782150Y-69689519D01*
X119795019Y-69537284D01*
X119810995Y-69396404D01*
X119836117Y-69274289D01*
X119874829Y-69157407D01*
X119931945Y-69027853D01*
X120042772Y-68835577D01*
X120189095Y-68658239D01*
X120365531Y-68508125D01*
X120572892Y-68384419D01*
X120589204Y-68376463D01*
X120768964Y-68305335D01*
X120953508Y-68259750D01*
X121128390Y-68243376D01*
X121235412Y-68243022D01*
X121235412Y-68171673D01*
X121959756Y-68171673D01*
X121960033Y-68222945D01*
X121962923Y-68281034D01*
X121970882Y-68334415D01*
X121986309Y-68386417D01*
X122011604Y-68440372D01*
X122049167Y-68499607D01*
X122101399Y-68567454D01*
X122170697Y-68647243D01*
X122259463Y-68742301D01*
X122370096Y-68855961D01*
X122504996Y-68991551D01*
X122666563Y-69152400D01*
X122761035Y-69246169D01*
X122895224Y-69378746D01*
X123005595Y-69486673D01*
X123095159Y-69572657D01*
X123166927Y-69639403D01*
X123223909Y-69689616D01*
X123269117Y-69726002D01*
X123305562Y-69751265D01*
X123336254Y-69768111D01*
X123364204Y-69779246D01*
X123432824Y-69797867D01*
X123585609Y-69814038D01*
X123737854Y-69799385D01*
X123875755Y-69754573D01*
X123968272Y-69701725D01*
X124086891Y-69599137D01*
X124176689Y-69475089D01*
X124235441Y-69335505D01*
X124260922Y-69186309D01*
X124250907Y-69033426D01*
X124203172Y-68882778D01*
X124200681Y-68877414D01*
X124182462Y-68843045D01*
X124157704Y-68805142D01*
X124123575Y-68760589D01*
X124077243Y-68706272D01*
X124015875Y-68639074D01*
X123936639Y-68555882D01*
X123836702Y-68453580D01*
X123713231Y-68329053D01*
X123563395Y-68179186D01*
X123536078Y-68151939D01*
X123394008Y-68010508D01*
X123276905Y-67894702D01*
X123181577Y-67801686D01*
X123104835Y-67728625D01*
X123043489Y-67672683D01*
X122994348Y-67631025D01*
X122954223Y-67600816D01*
X122919923Y-67579222D01*
X122888258Y-67563406D01*
X122856038Y-67550533D01*
X122794754Y-67531292D01*
X122638599Y-67509730D01*
X122484421Y-67524465D01*
X122338490Y-67572933D01*
X122207076Y-67652573D01*
X122096450Y-67760821D01*
X122012882Y-67895116D01*
X121998709Y-67927180D01*
X121975035Y-67997639D01*
X121963181Y-68073253D01*
X121959756Y-68171673D01*
X121235412Y-68171673D01*
X121235412Y-68150429D01*
X121242527Y-68038343D01*
X121277514Y-67858876D01*
X121337842Y-67675460D01*
X121419191Y-67500417D01*
X121517245Y-67346072D01*
X121611782Y-67235802D01*
X121769829Y-67095529D01*
X121950001Y-66975807D01*
X122142173Y-66883094D01*
X122336215Y-66823847D01*
X122398739Y-66813010D01*
X122556510Y-66800517D01*
X122725157Y-66803765D01*
X122888239Y-66822025D01*
X123029312Y-66854569D01*
X123086176Y-66873429D01*
X123151770Y-66898576D01*
X123214567Y-66928057D01*
X123278047Y-66964631D01*
X123345685Y-67011056D01*
X123420960Y-67070088D01*
X123507349Y-67144485D01*
X123608330Y-67237004D01*
X123727381Y-67350403D01*
X123867979Y-67487439D01*
X124033602Y-67650870D01*
X124640379Y-68251734D01*
X124825294Y-68069007D01*
X124832719Y-68061656D01*
X125140441Y-67728994D01*
X125412112Y-67377403D01*
X125647544Y-67007249D01*
X125846551Y-66618898D01*
X126008943Y-66212715D01*
X126134533Y-65789067D01*
X126223133Y-65348319D01*
X126228973Y-65307220D01*
X126243445Y-65163086D01*
X126253556Y-64993689D01*
X126259308Y-64808429D01*
X126260704Y-64616706D01*
X126257747Y-64427920D01*
X126250438Y-64251473D01*
X126238780Y-64096763D01*
X126222776Y-63973191D01*
X126180922Y-63758675D01*
X126077582Y-63366979D01*
X125943432Y-63001225D01*
X125777646Y-62660002D01*
X125579400Y-62341903D01*
X125347868Y-62045519D01*
X125082224Y-61769439D01*
X124781645Y-61512257D01*
X124554363Y-61346905D01*
X124309679Y-61195241D01*
X124046204Y-61058546D01*
X123752988Y-60930632D01*
X123592614Y-60870590D01*
X123232032Y-60765645D01*
X122856765Y-60694699D01*
X122472379Y-60657901D01*
X122084442Y-60655402D01*
X121698520Y-60687351D01*
X121320182Y-60753900D01*
X120954994Y-60855197D01*
X120833689Y-60898435D01*
X120608928Y-60991884D01*
X120380192Y-61102379D01*
X120154775Y-61225590D01*
X119939970Y-61357189D01*
X119743068Y-61492848D01*
X119571363Y-61628239D01*
X119432147Y-61759034D01*
X119371820Y-61822621D01*
X120718316Y-63172669D01*
X120893772Y-63348648D01*
X121103017Y-63558758D01*
X121286443Y-63743320D01*
X121445803Y-63904174D01*
X121582848Y-64043157D01*
X121699330Y-64162108D01*
X121797001Y-64262866D01*
X121877615Y-64347270D01*
X121942921Y-64417157D01*
X121994674Y-64474368D01*
X122034624Y-64520740D01*
X122064524Y-64558112D01*
X122086126Y-64588322D01*
X122101182Y-64613210D01*
X122111444Y-64634614D01*
X122143864Y-64723693D01*
X122182443Y-64909177D01*
X122183019Y-65036373D01*
X122183266Y-65091058D01*
X122147954Y-65265004D01*
X122078125Y-65426681D01*
X121975399Y-65571756D01*
X121841397Y-65695898D01*
X121677737Y-65794772D01*
X121611154Y-65825141D01*
X121330831Y-65925930D01*
X121038431Y-65990627D01*
X120739223Y-66019282D01*
X120438475Y-66011947D01*
X120141455Y-65968672D01*
X119853431Y-65889508D01*
X119579672Y-65774507D01*
X119509369Y-65738619D01*
X119438390Y-65700286D01*
X119371086Y-65660643D01*
X119304520Y-65617171D01*
X119235753Y-65567354D01*
X119161848Y-65508671D01*
X119079866Y-65438604D01*
X118986869Y-65354636D01*
X118879918Y-65254248D01*
X118756075Y-65134921D01*
X118612402Y-64994138D01*
X118445961Y-64829379D01*
X118253812Y-64638127D01*
X117402470Y-63789440D01*
X115261865Y-65929593D01*
X115170234Y-66021219D01*
X114862909Y-66328773D01*
X114583447Y-66608861D01*
X114330950Y-66862399D01*
X114104521Y-67090306D01*
X113903259Y-67293499D01*
X113726268Y-67472896D01*
X113572648Y-67629413D01*
X113441502Y-67763968D01*
X113331930Y-67877480D01*
X113243035Y-67970864D01*
X113173917Y-68045039D01*
X113123679Y-68100921D01*
X113091422Y-68139430D01*
X113076248Y-68161481D01*
X113063290Y-68191946D01*
X113036190Y-68296187D01*
X113022745Y-68417151D01*
X112247381Y-68417151D01*
X112237334Y-68403321D01*
X112213173Y-68374965D01*
X112160388Y-68313024D01*
X112095975Y-68237445D01*
X112028857Y-68158698D01*
X111935034Y-68043078D01*
X111784563Y-67836654D01*
X111637383Y-67611091D01*
X111500422Y-67377796D01*
X111380606Y-67148173D01*
X111284861Y-66933627D01*
X111235474Y-66806430D01*
X111104908Y-66416369D01*
X111009728Y-66032511D01*
X110948560Y-65646910D01*
X110920030Y-65251618D01*
X110921610Y-65013155D01*
X111624831Y-65013155D01*
X111639534Y-65419322D01*
X111693856Y-65827865D01*
X111723174Y-65975397D01*
X111785206Y-66221977D01*
X111864069Y-66462310D01*
X111963790Y-66708060D01*
X112088396Y-66970892D01*
X112094472Y-66982807D01*
X112146159Y-67076726D01*
X112213339Y-67190021D01*
X112289019Y-67311653D01*
X112366206Y-67430582D01*
X112437908Y-67535770D01*
X112497132Y-67616176D01*
X112516037Y-67637536D01*
X112533165Y-67649404D01*
X112537755Y-67645129D01*
X112567582Y-67615781D01*
X112623791Y-67559912D01*
X112704838Y-67479070D01*
X112809177Y-67374805D01*
X112935263Y-67248664D01*
X113081551Y-67102196D01*
X113246495Y-66936949D01*
X113428550Y-66754471D01*
X113626171Y-66556311D01*
X113837813Y-66344017D01*
X114061930Y-66119136D01*
X114296976Y-65883219D01*
X114541408Y-65637812D01*
X114793678Y-65384464D01*
X114915569Y-65262065D01*
X115166388Y-65010380D01*
X115409620Y-64766549D01*
X115643636Y-64532193D01*
X115866811Y-64308932D01*
X116077517Y-64098386D01*
X116274128Y-63902176D01*
X116455016Y-63721923D01*
X116618554Y-63559247D01*
X116763117Y-63415768D01*
X116887076Y-63293107D01*
X116988806Y-63192885D01*
X117066678Y-63116721D01*
X117119067Y-63066237D01*
X117144345Y-63043052D01*
X117176590Y-63018356D01*
X117283259Y-62957063D01*
X117385710Y-62932773D01*
X117489625Y-62943852D01*
X117498033Y-62946429D01*
X117519378Y-62955935D01*
X117545843Y-62972215D01*
X117579577Y-62997279D01*
X117622730Y-63033138D01*
X117677451Y-63081803D01*
X117745889Y-63145286D01*
X117830193Y-63225598D01*
X117932514Y-63324749D01*
X118055000Y-63444750D01*
X118199802Y-63587614D01*
X118369067Y-63755350D01*
X118564946Y-63949970D01*
X118722427Y-64106182D01*
X118908394Y-64289546D01*
X119078887Y-64456390D01*
X119232034Y-64604920D01*
X119365960Y-64733343D01*
X119478795Y-64839865D01*
X119568664Y-64922693D01*
X119633697Y-64980034D01*
X119672019Y-65010095D01*
X119739372Y-65051509D01*
X119897246Y-65135028D01*
X120062254Y-65206938D01*
X120216150Y-65258896D01*
X120218899Y-65259642D01*
X120310404Y-65276852D01*
X120430022Y-65288999D01*
X120566344Y-65295945D01*
X120707960Y-65297553D01*
X120843462Y-65293685D01*
X120961440Y-65284203D01*
X121050484Y-65268969D01*
X121101922Y-65254619D01*
X121240979Y-65206962D01*
X121379388Y-65148821D01*
X121497280Y-65088235D01*
X121585873Y-65036373D01*
X120223203Y-63672054D01*
X120196023Y-63644847D01*
X119996179Y-63445170D01*
X119801400Y-63251170D01*
X119614051Y-63065172D01*
X119436501Y-62889500D01*
X119271116Y-62726478D01*
X119120265Y-62578430D01*
X118986315Y-62447681D01*
X118871633Y-62336555D01*
X118778587Y-62247375D01*
X118709545Y-62182467D01*
X118666873Y-62144155D01*
X118510196Y-62018652D01*
X118209763Y-61809134D01*
X117886718Y-61619065D01*
X117550167Y-61453173D01*
X117209216Y-61316185D01*
X116872972Y-61212829D01*
X116705904Y-61171342D01*
X116524156Y-61131100D01*
X116357526Y-61101317D01*
X116194868Y-61080632D01*
X116025038Y-61067681D01*
X115836890Y-61061102D01*
X115619280Y-61059531D01*
X115547009Y-61059733D01*
X115400954Y-61060798D01*
X115283915Y-61063166D01*
X115187626Y-61067437D01*
X115103821Y-61074207D01*
X115024233Y-61084073D01*
X114940595Y-61097631D01*
X114844642Y-61115480D01*
X114754334Y-61133679D01*
X114374957Y-61229888D01*
X114023379Y-61353504D01*
X113696150Y-61506308D01*
X113389818Y-61690082D01*
X113100931Y-61906608D01*
X112826038Y-62157668D01*
X112568525Y-62439917D01*
X112326803Y-62761651D01*
X112119473Y-63102711D01*
X111947280Y-63460676D01*
X111810973Y-63833124D01*
X111711298Y-64217634D01*
X111649001Y-64611785D01*
X111624831Y-65013155D01*
X110921610Y-65013155D01*
X110922766Y-64838688D01*
X110941337Y-64568679D01*
X111000916Y-64147611D01*
X111098125Y-63737297D01*
X111234002Y-63333671D01*
X111409587Y-62932669D01*
X111462514Y-62827585D01*
X111673202Y-62462338D01*
X111913658Y-62119075D01*
X112181205Y-61800531D01*
X112473166Y-61509441D01*
X112786863Y-61248542D01*
X113119620Y-61020568D01*
X113468761Y-60828257D01*
X113729560Y-60709942D01*
X114113734Y-60567503D01*
X114509661Y-60458701D01*
X114926182Y-60380822D01*
X115043610Y-60366991D01*
X115216277Y-60354459D01*
X115410824Y-60346813D01*
X115617004Y-60344049D01*
X115824572Y-60346158D01*
X116023283Y-60353137D01*
X116202890Y-60364977D01*
X116353149Y-60381674D01*
X116443699Y-60395486D01*
X116907714Y-60489115D01*
X117357549Y-60618437D01*
X117790204Y-60782344D01*
X118202680Y-60979727D01*
X118591981Y-61209476D01*
X118812674Y-61353338D01*
X118869558Y-61307209D01*
X118892126Y-61288382D01*
X118946028Y-61242045D01*
X119014656Y-61182059D01*
X119088529Y-61116673D01*
X119189354Y-61029822D01*
X119509281Y-60787945D01*
X119856504Y-60571383D01*
X120225742Y-60382654D01*
X120611716Y-60224275D01*
X121009145Y-60098764D01*
X121412748Y-60008638D01*
X121451196Y-60002006D01*
X121882846Y-59949740D01*
X122316970Y-59936940D01*
X122750227Y-59962967D01*
X123179277Y-60027184D01*
X123600777Y-60128951D01*
X124011386Y-60267631D01*
X124407764Y-60442585D01*
X124786570Y-60653175D01*
X124924308Y-60741683D01*
X125258561Y-60985969D01*
X125568884Y-61256056D01*
X125852086Y-61548470D01*
X126104975Y-61859742D01*
X126324359Y-62186397D01*
X126507048Y-62524964D01*
X126547772Y-62612803D01*
X126712739Y-63026701D01*
X126838984Y-63451329D01*
X126926449Y-63884841D01*
X126975078Y-64325394D01*
X126981440Y-64616706D01*
X126984813Y-64771141D01*
X126955594Y-65220238D01*
X126887366Y-65670839D01*
X126780070Y-66121099D01*
X126633648Y-66569173D01*
X126585214Y-66696631D01*
X126513285Y-66872904D01*
X126440169Y-67033564D01*
X126359081Y-67193213D01*
X126263235Y-67366457D01*
X126227917Y-67427757D01*
X126124598Y-67599007D01*
X126021173Y-67756457D01*
X125912433Y-67906748D01*
X125793169Y-68056524D01*
X125658173Y-68212427D01*
X125502237Y-68381100D01*
X125320151Y-68569185D01*
X124968954Y-68925927D01*
X124968901Y-69139972D01*
X124968219Y-69186309D01*
X124967891Y-69208568D01*
X124950708Y-69406072D01*
G37*
G36*
X101805733Y-69617705D02*
G01*
X101886270Y-69674953D01*
X101965571Y-69761667D01*
X102031335Y-69863751D01*
X102076145Y-69969572D01*
X102092582Y-70067500D01*
X102083446Y-70139636D01*
X102047096Y-70205639D01*
X101976782Y-70264486D01*
X101969924Y-70268856D01*
X101888183Y-70298507D01*
X101800289Y-70289454D01*
X101703621Y-70241476D01*
X101653008Y-70203934D01*
X101562936Y-70112293D01*
X101495808Y-70008426D01*
X101454985Y-69899987D01*
X101443830Y-69794627D01*
X101465705Y-69699996D01*
X101487319Y-69666141D01*
X101549703Y-69618199D01*
X101631193Y-69592300D01*
X101720350Y-69591212D01*
X101805733Y-69617705D01*
G37*
D11*
%TO.C,J4*%
X207070000Y-72450000D02*
X161230000Y-72450000D01*
X207070000Y-69790000D02*
X161230000Y-69790000D01*
X161230000Y-72450000D02*
X161230000Y-69790000D01*
X207070000Y-72450000D02*
X207070000Y-69790000D01*
%TO.C,J3*%
X161230000Y-64830000D02*
X161230000Y-62170000D01*
X207070000Y-64830000D02*
X161230000Y-64830000D01*
X207070000Y-64830000D02*
X207070000Y-62170000D01*
X207070000Y-62170000D02*
X161230000Y-62170000D01*
%TD*%
M02*
