M48
; DRILL file {KiCad (6.0.6)} date Mon Jul 11 04:46:00 2022
; FORMAT={-:-/ absolute / inch / decimal}
; #@! TF.CreationDate,2022-07-11T04:46:00+02:00
; #@! TF.GenerationSoftware,Kicad,Pcbnew,(6.0.6)
; #@! TF.FileFunction,Plated,1,4,PTH
FMAT,2
INCH
; #@! TA.AperFunction,Plated,PTH,ViaDrill
T1C0.0157
; #@! TA.AperFunction,Plated,PTH,ComponentDrill
T2C0.0315
; #@! TA.AperFunction,Plated,PTH,ComponentDrill
T3C0.0354
; #@! TA.AperFunction,Plated,PTH,ComponentDrill
T4C0.0394
%
G90
G05
T1
X3.2968Y-2.6084
X3.3031Y-2.665
X3.3268Y-2.7359
X4.2013Y-2.5631
X4.2647Y-2.5399
X4.3282Y-2.5168
X4.3976Y-2.4878
X4.469Y-2.4568
X4.8277Y-3.0705
X4.8563Y-3.0154
X4.8848Y-2.9406
X4.9133Y-2.8579
X4.931Y-2.7594
X4.9548Y-2.719
X5.0182Y-2.2373
X5.0207Y-2.6935
X5.063Y-2.2417
X5.1147Y-2.2511
X5.122Y-2.6994
X5.1683Y-2.2644
X5.2124Y-2.2682
X5.2323Y-2.7171
X5.2565Y-2.2719
X5.2999Y-2.2742
X5.3228Y-2.7348
X5.4437Y-2.7525
X5.4935Y-2.4275
X5.5431Y-2.4368
X5.5948Y-2.4481
X5.6484Y-2.4614
X5.7992Y-2.4715
X5.874Y-2.4327
T2
X3.3996Y-2.8618
X3.6996Y-2.8618
T3
X5.0024Y-3.1571
X5.1024Y-3.1571
T4
X2.9992Y-2.1571
X2.9992Y-3.1413
X3.0992Y-2.1571
X3.0992Y-3.1413
X3.1992Y-2.1571
X3.1992Y-3.1413
X3.2992Y-2.1571
X3.2992Y-3.1413
X3.3992Y-2.1571
X3.3992Y-3.1413
X3.4992Y-2.1571
X3.4992Y-3.1413
X3.5992Y-2.1571
X3.5992Y-3.1413
X3.6992Y-2.1571
X3.6992Y-3.1413
X3.7992Y-2.1571
X3.7992Y-3.1413
X3.8992Y-2.1571
X3.8992Y-3.1413
X3.9992Y-2.1571
X3.9992Y-3.1413
X4.0992Y-2.1571
X4.0992Y-3.1413
X4.1992Y-2.1571
X4.1992Y-3.1413
X4.2992Y-2.1571
X4.2992Y-3.1413
X4.3992Y-2.1571
X4.3992Y-3.1413
X4.4992Y-2.1571
X4.4992Y-3.1413
X4.5992Y-2.1571
X4.5992Y-3.1413
X4.6992Y-2.1571
X4.6992Y-3.1413
X4.7992Y-2.1571
X4.7992Y-3.1413
X5.6Y-2.1571
X5.7Y-2.1571
X5.8Y-2.1571
X5.9Y-2.1571
X6.4Y-2.5
X6.4Y-2.8
X6.5Y-2.5
X6.5Y-2.8
X6.6Y-2.5
X6.6Y-2.8
X6.7Y-2.5
X6.7Y-2.8
X6.8Y-2.5
X6.8Y-2.8
X6.9Y-2.5
X6.9Y-2.8
X7.0Y-2.5
X7.0Y-2.8
X7.1Y-2.5
X7.1Y-2.8
X7.2Y-2.5
X7.2Y-2.8
X7.3Y-2.5
X7.3Y-2.8
X7.4Y-2.5
X7.4Y-2.8
X7.5Y-2.5
X7.5Y-2.8
X7.6Y-2.5
X7.6Y-2.8
X7.7Y-2.5
X7.7Y-2.8
X7.8Y-2.5
X7.8Y-2.8
X7.9Y-2.5
X7.9Y-2.8
X8.0Y-2.5
X8.0Y-2.8
X8.1Y-2.5
X8.1Y-2.8
T0
M30
