%TF.GenerationSoftware,KiCad,Pcbnew,(6.0.6)*%
%TF.CreationDate,2022-07-10T22:52:01+02:00*%
%TF.ProjectId,ESP32_DevKit_C_v4-AZDelivery_Breadboard_Adapter,45535033-325f-4446-9576-4b69745f435f,rev?*%
%TF.SameCoordinates,Original*%
%TF.FileFunction,Soldermask,Bot*%
%TF.FilePolarity,Negative*%
%FSLAX46Y46*%
G04 Gerber Fmt 4.6, Leading zero omitted, Abs format (unit mm)*
G04 Created by KiCad (PCBNEW (6.0.6)) date 2022-07-10 22:52:01*
%MOMM*%
%LPD*%
G01*
G04 APERTURE LIST*
%ADD10C,1.800000*%
%ADD11R,1.800000X1.800000*%
%ADD12O,1.600000X1.600000*%
%ADD13C,1.600000*%
%ADD14O,1.700000X1.700000*%
%ADD15C,1.700000*%
G04 APERTURE END LIST*
D10*
%TO.C,D1*%
X127060000Y-80190000D03*
D11*
X129600000Y-80190000D03*
%TD*%
D12*
%TO.C,R1*%
X93970000Y-72690000D03*
D13*
X86350000Y-72690000D03*
%TD*%
D14*
%TO.C,J5*%
X149860000Y-54790000D03*
X147320000Y-54790000D03*
X144780000Y-54790000D03*
D15*
X142240000Y-54790000D03*
%TD*%
%TO.C,J4*%
X205740000Y-71120000D03*
D14*
X203200000Y-71120000D03*
X200660000Y-71120000D03*
X198120000Y-71120000D03*
X195580000Y-71120000D03*
X193040000Y-71120000D03*
X190500000Y-71120000D03*
X187960000Y-71120000D03*
X185420000Y-71120000D03*
X182880000Y-71120000D03*
X180340000Y-71120000D03*
X177800000Y-71120000D03*
X175260000Y-71120000D03*
X172720000Y-71120000D03*
X170180000Y-71120000D03*
X167640000Y-71120000D03*
X165100000Y-71120000D03*
X162560000Y-71120000D03*
%TD*%
D15*
%TO.C,J3*%
X205740000Y-63500000D03*
D14*
X203200000Y-63500000D03*
X200660000Y-63500000D03*
X198120000Y-63500000D03*
X195580000Y-63500000D03*
X193040000Y-63500000D03*
X190500000Y-63500000D03*
X187960000Y-63500000D03*
X185420000Y-63500000D03*
X182880000Y-63500000D03*
X180340000Y-63500000D03*
X177800000Y-63500000D03*
X175260000Y-63500000D03*
X172720000Y-63500000D03*
X170180000Y-63500000D03*
X167640000Y-63500000D03*
X165100000Y-63500000D03*
X162560000Y-63500000D03*
%TD*%
D15*
%TO.C,J2*%
X121900000Y-79790000D03*
D14*
X119360000Y-79790000D03*
X116820000Y-79790000D03*
X114280000Y-79790000D03*
X111740000Y-79790000D03*
X109200000Y-79790000D03*
X106660000Y-79790000D03*
X104120000Y-79790000D03*
X101580000Y-79790000D03*
X99040000Y-79790000D03*
X96500000Y-79790000D03*
X93960000Y-79790000D03*
X91420000Y-79790000D03*
X88880000Y-79790000D03*
X86340000Y-79790000D03*
X83800000Y-79790000D03*
X81260000Y-79790000D03*
X78720000Y-79790000D03*
X76180000Y-79790000D03*
%TD*%
D15*
%TO.C,J1*%
X121900000Y-54790000D03*
D14*
X119360000Y-54790000D03*
X116820000Y-54790000D03*
X114280000Y-54790000D03*
X111740000Y-54790000D03*
X109200000Y-54790000D03*
X106660000Y-54790000D03*
X104120000Y-54790000D03*
X101580000Y-54790000D03*
X99040000Y-54790000D03*
X96500000Y-54790000D03*
X93960000Y-54790000D03*
X91420000Y-54790000D03*
X88880000Y-54790000D03*
X86340000Y-54790000D03*
X83800000Y-54790000D03*
X81260000Y-54790000D03*
X78720000Y-54790000D03*
X76180000Y-54790000D03*
%TD*%
M02*
