M48
; DRILL file {KiCad (6.0.6)} date Mon Jul 11 13:14:12 2022
; FORMAT={-:-/ absolute / inch / decimal}
; #@! TF.CreationDate,2022-07-11T13:14:12+02:00
; #@! TF.GenerationSoftware,Kicad,Pcbnew,(6.0.6)
; #@! TF.FileFunction,Plated,1,4,PTH
FMAT,2
INCH
; #@! TA.AperFunction,Plated,PTH,ViaDrill
T1C0.0157
; #@! TA.AperFunction,Plated,PTH,ComponentDrill
T2C0.0315
; #@! TA.AperFunction,Plated,PTH,ComponentDrill
T3C0.0354
; #@! TA.AperFunction,Plated,PTH,ComponentDrill
T4C0.0394
%
G90
G05
T1
X4.4668Y-4.0517
X4.4732Y-4.1083
X4.4969Y-4.1792
X5.3714Y-4.0064
X5.4348Y-3.9833
X5.4983Y-3.9601
X5.5677Y-3.9311
X5.639Y-3.9001
X5.9978Y-4.5138
X6.0263Y-4.4587
X6.0549Y-4.3839
X6.0834Y-4.3012
X6.1011Y-4.2028
X6.1249Y-4.1623
X6.1883Y-3.6806
X6.1907Y-4.1368
X6.233Y-3.685
X6.2847Y-3.6944
X6.2921Y-4.1427
X6.3384Y-3.7077
X6.3825Y-3.7115
X6.4024Y-4.1604
X6.4266Y-3.7152
X6.47Y-3.7175
X6.4929Y-4.1781
X6.6138Y-4.1958
X6.6636Y-3.8708
X6.7132Y-3.8801
X6.7649Y-3.8914
X6.8185Y-3.9047
X6.9693Y-3.9148
X7.0441Y-3.876
T2
X4.5697Y-4.3051
X4.8697Y-4.3051
T3
X6.1724Y-4.6004
X6.2724Y-4.6004
T4
X4.1693Y-3.6004
X4.1693Y-4.5846
X4.2693Y-3.6004
X4.2693Y-4.5846
X4.3693Y-3.6004
X4.3693Y-4.5846
X4.4693Y-3.6004
X4.4693Y-4.5846
X4.5693Y-3.6004
X4.5693Y-4.5846
X4.6693Y-3.6004
X4.6693Y-4.5846
X4.7693Y-3.6004
X4.7693Y-4.5846
X4.8693Y-3.6004
X4.8693Y-4.5846
X4.9693Y-3.6004
X4.9693Y-4.5846
X5.0693Y-3.6004
X5.0693Y-4.5846
X5.1693Y-3.6004
X5.1693Y-4.5846
X5.2693Y-3.6004
X5.2693Y-4.5846
X5.3693Y-3.6004
X5.3693Y-4.5846
X5.4693Y-3.6004
X5.4693Y-4.5846
X5.5693Y-3.6004
X5.5693Y-4.5846
X5.6693Y-3.6004
X5.6693Y-4.5846
X5.7693Y-3.6004
X5.7693Y-4.5846
X5.8693Y-3.6004
X5.8693Y-4.5846
X5.9693Y-3.6004
X5.9693Y-4.5846
X6.7701Y-3.6004
X6.8701Y-3.6004
X6.9701Y-3.6004
X7.0701Y-3.6004
X7.5701Y-3.9433
X7.5701Y-4.2433
X7.6701Y-3.9433
X7.6701Y-4.2433
X7.7701Y-3.9433
X7.7701Y-4.2433
X7.8701Y-3.9433
X7.8701Y-4.2433
X7.9701Y-3.9433
X7.9701Y-4.2433
X8.0701Y-3.9433
X8.0701Y-4.2433
X8.1701Y-3.9433
X8.1701Y-4.2433
X8.2701Y-3.9433
X8.2701Y-4.2433
X8.3701Y-3.9433
X8.3701Y-4.2433
X8.4701Y-3.9433
X8.4701Y-4.2433
X8.5701Y-3.9433
X8.5701Y-4.2433
X8.6701Y-3.9433
X8.6701Y-4.2433
X8.7701Y-3.9433
X8.7701Y-4.2433
X8.8701Y-3.9433
X8.8701Y-4.2433
X8.9701Y-3.9433
X8.9701Y-4.2433
X9.0701Y-3.9433
X9.0701Y-4.2433
X9.1701Y-3.9433
X9.1701Y-4.2433
X9.2701Y-3.9433
X9.2701Y-4.2433
T0
M30
