%TF.GenerationSoftware,KiCad,Pcbnew,(6.0.6)*%
%TF.CreationDate,2022-07-11T13:14:15+02:00*%
%TF.ProjectId,ESP32_DevKit_C_v4-AZDelivery_Breadboard_Adapter,45535033-325f-4446-9576-4b69745f435f,2*%
%TF.SameCoordinates,Original*%
%TF.FileFunction,Legend,Bot*%
%TF.FilePolarity,Positive*%
%FSLAX46Y46*%
G04 Gerber Fmt 4.6, Leading zero omitted, Abs format (unit mm)*
G04 Created by KiCad (PCBNEW (6.0.6)) date 2022-07-11 13:14:15*
%MOMM*%
%LPD*%
G01*
G04 APERTURE LIST*
%ADD10C,0.150000*%
%ADD11C,0.120000*%
G04 APERTURE END LIST*
D10*
X217543809Y-103888571D02*
X217400952Y-103936190D01*
X217353333Y-103983809D01*
X217305714Y-104079047D01*
X217305714Y-104221904D01*
X217353333Y-104317142D01*
X217400952Y-104364761D01*
X217496190Y-104412380D01*
X217877142Y-104412380D01*
X217877142Y-103412380D01*
X217543809Y-103412380D01*
X217448571Y-103460000D01*
X217400952Y-103507619D01*
X217353333Y-103602857D01*
X217353333Y-103698095D01*
X217400952Y-103793333D01*
X217448571Y-103840952D01*
X217543809Y-103888571D01*
X217877142Y-103888571D01*
X216924761Y-104126666D02*
X216448571Y-104126666D01*
X217020000Y-104412380D02*
X216686666Y-103412380D01*
X216353333Y-104412380D01*
X215448571Y-104317142D02*
X215496190Y-104364761D01*
X215639047Y-104412380D01*
X215734285Y-104412380D01*
X215877142Y-104364761D01*
X215972380Y-104269523D01*
X216020000Y-104174285D01*
X216067619Y-103983809D01*
X216067619Y-103840952D01*
X216020000Y-103650476D01*
X215972380Y-103555238D01*
X215877142Y-103460000D01*
X215734285Y-103412380D01*
X215639047Y-103412380D01*
X215496190Y-103460000D01*
X215448571Y-103507619D01*
X215020000Y-104412380D02*
X215020000Y-103412380D01*
X214448571Y-104412380D02*
X214877142Y-103840952D01*
X214448571Y-103412380D02*
X215020000Y-103983809D01*
X214067619Y-104364761D02*
X213924761Y-104412380D01*
X213686666Y-104412380D01*
X213591428Y-104364761D01*
X213543809Y-104317142D01*
X213496190Y-104221904D01*
X213496190Y-104126666D01*
X213543809Y-104031428D01*
X213591428Y-103983809D01*
X213686666Y-103936190D01*
X213877142Y-103888571D01*
X213972380Y-103840952D01*
X214020000Y-103793333D01*
X214067619Y-103698095D01*
X214067619Y-103602857D01*
X214020000Y-103507619D01*
X213972380Y-103460000D01*
X213877142Y-103412380D01*
X213639047Y-103412380D01*
X213496190Y-103460000D01*
X213067619Y-104412380D02*
X213067619Y-103412380D01*
X212591428Y-104412380D02*
X212591428Y-103412380D01*
X212353333Y-103412380D01*
X212210476Y-103460000D01*
X212115238Y-103555238D01*
X212067619Y-103650476D01*
X212020000Y-103840952D01*
X212020000Y-103983809D01*
X212067619Y-104174285D01*
X212115238Y-104269523D01*
X212210476Y-104364761D01*
X212353333Y-104412380D01*
X212591428Y-104412380D01*
X211591428Y-103888571D02*
X211258095Y-103888571D01*
X211115238Y-104412380D02*
X211591428Y-104412380D01*
X211591428Y-103412380D01*
X211115238Y-103412380D01*
%TO.C,G\u002A\u002A\u002A*%
G36*
X120803510Y-97145914D02*
G01*
X121007240Y-97175554D01*
X121241100Y-97225189D01*
X121498595Y-97292858D01*
X121774280Y-97376706D01*
X122062709Y-97474879D01*
X122358436Y-97585523D01*
X122656016Y-97706785D01*
X122950002Y-97836809D01*
X123234950Y-97973742D01*
X123525075Y-98124585D01*
X123998925Y-98396864D01*
X124436370Y-98683512D01*
X124838965Y-98985821D01*
X125208268Y-99305082D01*
X125545836Y-99642587D01*
X125853226Y-99999629D01*
X126131995Y-100377500D01*
X126181987Y-100453943D01*
X126268523Y-100597590D01*
X126358813Y-100759033D01*
X126447513Y-100927977D01*
X126529280Y-101094124D01*
X126598769Y-101247177D01*
X126650636Y-101376840D01*
X126704677Y-101541598D01*
X126772771Y-101813585D01*
X126817184Y-102087776D01*
X126837083Y-102355988D01*
X126831633Y-102610036D01*
X126799998Y-102841735D01*
X126787539Y-102899696D01*
X126747101Y-103055333D01*
X126699027Y-103188206D01*
X126637825Y-103311893D01*
X126558005Y-103439970D01*
X126515800Y-103499257D01*
X126380833Y-103651238D01*
X126233389Y-103765442D01*
X126074787Y-103841356D01*
X125906345Y-103878466D01*
X125729383Y-103876258D01*
X125545219Y-103834221D01*
X125436425Y-103792419D01*
X125250615Y-103699398D01*
X125044871Y-103572615D01*
X124820090Y-103412640D01*
X124577168Y-103220041D01*
X124539876Y-103189753D01*
X124462060Y-103128232D01*
X124360516Y-103049217D01*
X124240523Y-102956771D01*
X124107364Y-102854958D01*
X123966318Y-102747840D01*
X123822667Y-102639483D01*
X123769462Y-102599414D01*
X123605286Y-102474932D01*
X123432787Y-102343054D01*
X123260175Y-102210117D01*
X123095664Y-102082463D01*
X122947465Y-101966430D01*
X122823791Y-101868359D01*
X122720186Y-101785447D01*
X122615422Y-101701625D01*
X122524398Y-101628813D01*
X122451636Y-101570630D01*
X122401659Y-101530691D01*
X122378988Y-101512614D01*
X122372030Y-101513097D01*
X122380325Y-101542729D01*
X122405644Y-101601249D01*
X122446086Y-101685120D01*
X122499750Y-101790803D01*
X122564734Y-101914762D01*
X122639136Y-102053457D01*
X122721055Y-102203353D01*
X122808589Y-102360910D01*
X122899837Y-102522591D01*
X122992898Y-102684859D01*
X123085869Y-102844175D01*
X123176849Y-102997002D01*
X123265130Y-103142626D01*
X123384133Y-103336138D01*
X123505771Y-103531104D01*
X123627870Y-103724228D01*
X123748259Y-103912217D01*
X123864765Y-104091775D01*
X123975216Y-104259607D01*
X124077441Y-104412419D01*
X124169267Y-104546916D01*
X124248521Y-104659804D01*
X124313033Y-104747787D01*
X124360629Y-104807570D01*
X124389138Y-104835859D01*
X124445529Y-104871500D01*
X124585186Y-104961659D01*
X124728815Y-105056675D01*
X124868687Y-105151286D01*
X124997074Y-105240230D01*
X125106247Y-105318247D01*
X125188478Y-105380073D01*
X125232425Y-105415121D01*
X125418120Y-105575437D01*
X125589674Y-105743146D01*
X125742655Y-105913059D01*
X125872631Y-106079984D01*
X125975170Y-106238731D01*
X126045839Y-106384110D01*
X126051563Y-106399249D01*
X126075945Y-106481929D01*
X126089211Y-106572851D01*
X126093895Y-106688053D01*
X126094089Y-106749619D01*
X126091472Y-106821093D01*
X126083140Y-106871541D01*
X126066663Y-106913035D01*
X126039611Y-106957644D01*
X126023139Y-106980216D01*
X125966184Y-107040351D01*
X125907107Y-107084148D01*
X125906147Y-107084668D01*
X125811159Y-107115253D01*
X125695609Y-107119800D01*
X125569615Y-107098978D01*
X125443293Y-107053458D01*
X125436135Y-107049988D01*
X125352844Y-106997127D01*
X125248866Y-106912269D01*
X125125839Y-106797239D01*
X124985405Y-106653862D01*
X124829201Y-106483964D01*
X124658867Y-106289370D01*
X124476042Y-106071904D01*
X124282366Y-105833393D01*
X124079478Y-105575661D01*
X123869016Y-105300534D01*
X123818191Y-105233984D01*
X123727489Y-105119689D01*
X123649349Y-105027296D01*
X123587185Y-104960768D01*
X123544417Y-104924069D01*
X123497604Y-104893764D01*
X123321622Y-104775630D01*
X123121255Y-104635629D01*
X122901445Y-104477499D01*
X122667139Y-104304979D01*
X122423279Y-104121806D01*
X122174811Y-103931720D01*
X121926679Y-103738458D01*
X121683828Y-103545759D01*
X121451201Y-103357361D01*
X121233743Y-103177003D01*
X121080853Y-103048442D01*
X121064941Y-103175611D01*
X121025612Y-103421346D01*
X120967784Y-103661125D01*
X120894978Y-103873023D01*
X120808384Y-104054146D01*
X120709190Y-104201594D01*
X120598583Y-104312472D01*
X120597853Y-104313048D01*
X120505056Y-104377225D01*
X120414297Y-104417300D01*
X120311829Y-104437580D01*
X120183903Y-104442373D01*
X120091979Y-104437655D01*
X119999519Y-104421838D01*
X119906038Y-104391538D01*
X119801101Y-104343302D01*
X119674272Y-104273675D01*
X119522779Y-104176176D01*
X119339125Y-104035515D01*
X119147095Y-103867037D01*
X118951708Y-103675434D01*
X118757980Y-103465399D01*
X118570929Y-103241625D01*
X118441334Y-103078543D01*
X118441150Y-102889980D01*
X118441489Y-102844487D01*
X118443959Y-102770984D01*
X118448307Y-102720304D01*
X118453925Y-102701417D01*
X118472445Y-102712365D01*
X118516361Y-102744204D01*
X118578693Y-102791897D01*
X118652681Y-102850376D01*
X118679175Y-102871552D01*
X118892132Y-103036203D01*
X119081886Y-103171656D01*
X119251522Y-103279396D01*
X119404123Y-103360911D01*
X119542772Y-103417688D01*
X119670554Y-103451212D01*
X119790553Y-103462969D01*
X119905851Y-103454448D01*
X119912879Y-103453299D01*
X120010649Y-103428505D01*
X120094206Y-103385429D01*
X120180627Y-103315431D01*
X120196709Y-103300005D01*
X120258011Y-103221218D01*
X120291166Y-103130574D01*
X120301118Y-103015774D01*
X120301026Y-103003427D01*
X120295716Y-102929481D01*
X120280392Y-102858101D01*
X120252481Y-102785599D01*
X120209409Y-102708285D01*
X120148604Y-102622470D01*
X120067493Y-102524467D01*
X119963503Y-102410587D01*
X119834060Y-102277140D01*
X119676592Y-102120437D01*
X119655962Y-102100014D01*
X119479226Y-101911592D01*
X119330096Y-101723637D01*
X119199163Y-101523233D01*
X119077015Y-101297463D01*
X119048818Y-101239877D01*
X119014105Y-101161975D01*
X118993730Y-101100440D01*
X118984076Y-101043178D01*
X118981528Y-100978091D01*
X118981815Y-100942591D01*
X118987089Y-100878306D01*
X119001900Y-100834705D01*
X119030039Y-100797684D01*
X119108703Y-100740255D01*
X119213592Y-100710456D01*
X119346308Y-100708574D01*
X119388503Y-100713127D01*
X119560996Y-100755621D01*
X119736362Y-100836905D01*
X119914933Y-100957262D01*
X120097039Y-101116972D01*
X120283009Y-101316319D01*
X120473175Y-101555582D01*
X120667866Y-101835044D01*
X120771666Y-101998458D01*
X120858590Y-102150043D01*
X120925420Y-102287007D01*
X120976005Y-102417282D01*
X121014194Y-102548803D01*
X121057281Y-102723332D01*
X121262727Y-102871213D01*
X121366641Y-102945937D01*
X121515376Y-103052496D01*
X121643402Y-103143563D01*
X121758304Y-103224468D01*
X121867667Y-103300537D01*
X121979076Y-103377101D01*
X122100115Y-103459487D01*
X122199123Y-103526015D01*
X122337162Y-103616995D01*
X122474686Y-103705840D01*
X122605070Y-103788369D01*
X122721691Y-103860400D01*
X122817924Y-103917752D01*
X122887145Y-103956246D01*
X122954232Y-103990937D01*
X122915515Y-103932252D01*
X122906105Y-103917885D01*
X122853935Y-103836115D01*
X122784532Y-103724885D01*
X122700674Y-103588805D01*
X122605134Y-103432486D01*
X122500691Y-103260542D01*
X122390118Y-103077583D01*
X122276192Y-102888220D01*
X122161690Y-102697065D01*
X122049386Y-102508730D01*
X121942056Y-102327826D01*
X121842477Y-102158964D01*
X121753424Y-102006757D01*
X121677673Y-101875815D01*
X121540832Y-101636764D01*
X121399662Y-101388274D01*
X121277494Y-101170721D01*
X121173236Y-100981956D01*
X121085798Y-100819827D01*
X121014089Y-100682185D01*
X120957017Y-100566877D01*
X120913493Y-100471754D01*
X120882424Y-100394666D01*
X120862721Y-100333460D01*
X120853292Y-100285988D01*
X120853047Y-100250098D01*
X120858321Y-100219940D01*
X120901851Y-100107318D01*
X120977040Y-100006459D01*
X121076685Y-99927745D01*
X121120139Y-99903345D01*
X121176151Y-99879863D01*
X121232586Y-99871765D01*
X121309376Y-99874487D01*
X121358508Y-99879773D01*
X121457643Y-99905149D01*
X121550193Y-99953255D01*
X121644083Y-100028838D01*
X121747241Y-100136643D01*
X121800854Y-100197271D01*
X121891042Y-100297474D01*
X121977993Y-100391112D01*
X122065198Y-100481412D01*
X122156146Y-100571597D01*
X122254326Y-100664893D01*
X122363229Y-100764525D01*
X122486344Y-100873719D01*
X122627161Y-100995698D01*
X122789171Y-101133689D01*
X122975862Y-101290915D01*
X123190725Y-101470603D01*
X123251239Y-101521045D01*
X123570964Y-101785670D01*
X123862787Y-102023569D01*
X124128308Y-102235684D01*
X124369125Y-102422955D01*
X124586838Y-102586327D01*
X124783044Y-102726741D01*
X124959343Y-102845139D01*
X125117334Y-102942463D01*
X125258614Y-103019655D01*
X125384784Y-103077658D01*
X125497441Y-103117414D01*
X125598185Y-103139864D01*
X125688614Y-103145952D01*
X125770327Y-103136619D01*
X125844922Y-103112808D01*
X125913999Y-103075460D01*
X125933987Y-103059078D01*
X125978258Y-103009253D01*
X126020011Y-102948244D01*
X126045752Y-102900496D01*
X126064069Y-102848497D01*
X126071848Y-102787382D01*
X126072431Y-102701417D01*
X126071983Y-102686339D01*
X126051561Y-102531855D01*
X126003098Y-102354389D01*
X125928474Y-102157997D01*
X125829569Y-101946732D01*
X125708263Y-101724651D01*
X125566438Y-101495808D01*
X125405973Y-101264258D01*
X125344646Y-101181995D01*
X125065867Y-100842746D01*
X124752266Y-100510520D01*
X124408556Y-100188691D01*
X124039453Y-99880631D01*
X123649671Y-99589711D01*
X123243925Y-99319304D01*
X122826929Y-99072783D01*
X122403398Y-98853518D01*
X121978047Y-98664884D01*
X121555590Y-98510250D01*
X121549426Y-98508250D01*
X121457831Y-98479825D01*
X121381273Y-98458393D01*
X121327604Y-98446006D01*
X121304676Y-98444715D01*
X121301178Y-98462240D01*
X121314483Y-98508596D01*
X121345069Y-98572828D01*
X121388717Y-98646402D01*
X121441207Y-98720785D01*
X121468497Y-98753126D01*
X121535420Y-98821817D01*
X121616716Y-98896501D01*
X121700459Y-98965901D01*
X121793276Y-99039351D01*
X121913705Y-99140167D01*
X122000085Y-99220777D01*
X122052126Y-99280900D01*
X122069537Y-99320258D01*
X122066649Y-99340893D01*
X122053212Y-99353114D01*
X122023975Y-99352075D01*
X121973731Y-99336614D01*
X121897271Y-99305570D01*
X121789391Y-99257783D01*
X121650351Y-99192596D01*
X121447415Y-99089956D01*
X121241391Y-98978005D01*
X121040501Y-98861550D01*
X120852965Y-98745400D01*
X120687004Y-98634365D01*
X120550837Y-98533252D01*
X120545645Y-98529100D01*
X120392168Y-98393391D01*
X120276574Y-98260907D01*
X120196792Y-98127192D01*
X120150751Y-97987789D01*
X120136382Y-97838243D01*
X120151612Y-97674098D01*
X120159210Y-97633433D01*
X120207941Y-97468897D01*
X120279991Y-97337790D01*
X120375465Y-97240025D01*
X120494471Y-97175515D01*
X120637117Y-97144174D01*
X120803510Y-97145914D01*
G37*
G36*
X137727111Y-108939999D02*
G01*
X137671045Y-109054321D01*
X137605528Y-109161003D01*
X137538016Y-109245615D01*
X137465287Y-109314020D01*
X137371006Y-109375676D01*
X137268259Y-109408606D01*
X137144417Y-109418351D01*
X137104219Y-109417384D01*
X137002603Y-109403835D01*
X136906492Y-109371390D01*
X136808786Y-109316340D01*
X136702384Y-109234976D01*
X136580185Y-109123587D01*
X136394431Y-108944602D01*
X136253417Y-108931496D01*
X136181702Y-108923283D01*
X136096624Y-108905670D01*
X136021212Y-108876282D01*
X135942443Y-108829629D01*
X135847298Y-108760220D01*
X135712137Y-108656511D01*
X135690189Y-108749054D01*
X135677394Y-108803001D01*
X135644138Y-108919353D01*
X135593040Y-109051119D01*
X135532566Y-109171747D01*
X135466428Y-109275520D01*
X135398339Y-109356722D01*
X135332012Y-109409635D01*
X135271159Y-109428543D01*
X135269779Y-109428510D01*
X135228505Y-109415536D01*
X135168781Y-109383625D01*
X135103040Y-109339372D01*
X135079779Y-109320930D01*
X135014134Y-109263447D01*
X134929107Y-109184221D01*
X134830254Y-109088784D01*
X134723128Y-108982672D01*
X134613285Y-108871421D01*
X134506280Y-108760563D01*
X134407668Y-108655635D01*
X134323004Y-108562171D01*
X134290680Y-108525802D01*
X134250461Y-108482809D01*
X134229494Y-108466303D01*
X134223168Y-108473350D01*
X134226870Y-108501015D01*
X134251431Y-108648768D01*
X134270843Y-108823470D01*
X134279937Y-108991749D01*
X134278554Y-109145392D01*
X134266536Y-109276187D01*
X134243725Y-109375922D01*
X134220585Y-109431711D01*
X134167852Y-109503659D01*
X134095213Y-109543370D01*
X133996172Y-109555559D01*
X133972507Y-109555059D01*
X133885050Y-109543258D01*
X133797636Y-109513526D01*
X133705441Y-109462866D01*
X133603644Y-109388283D01*
X133487424Y-109286783D01*
X133351959Y-109155368D01*
X133277627Y-109079661D01*
X133190768Y-108988622D01*
X133114159Y-108905598D01*
X133054090Y-108837430D01*
X133016850Y-108790958D01*
X132947554Y-108693581D01*
X132911413Y-108872095D01*
X132887635Y-108971425D01*
X132839588Y-109114563D01*
X132780991Y-109238958D01*
X132715508Y-109337268D01*
X132646804Y-109402152D01*
X132615632Y-109420439D01*
X132502011Y-109458704D01*
X132375226Y-109465658D01*
X132246331Y-109440251D01*
X132187745Y-109416552D01*
X132070221Y-109350435D01*
X131939575Y-109257251D01*
X131801528Y-109141599D01*
X131661802Y-109008077D01*
X131526116Y-108861285D01*
X131432214Y-108753032D01*
X131407283Y-108881839D01*
X131393926Y-108940980D01*
X131359650Y-109051617D01*
X131317259Y-109153088D01*
X131271388Y-109234996D01*
X131226674Y-109286945D01*
X131219615Y-109292379D01*
X131179600Y-109317004D01*
X131140597Y-109326453D01*
X131099113Y-109318127D01*
X131051657Y-109289427D01*
X130994739Y-109237755D01*
X130924868Y-109160511D01*
X130838552Y-109055096D01*
X130732300Y-108918913D01*
X130718113Y-108900597D01*
X130616607Y-108774571D01*
X130504105Y-108642209D01*
X130385776Y-108508995D01*
X130266787Y-108380417D01*
X130152307Y-108261961D01*
X130047503Y-108159112D01*
X129957542Y-108077358D01*
X129887594Y-108022182D01*
X129787126Y-107953058D01*
X129839772Y-108043570D01*
X129915595Y-108174569D01*
X130020102Y-108358232D01*
X130105635Y-108513540D01*
X130173958Y-108644231D01*
X130226832Y-108754040D01*
X130266023Y-108846703D01*
X130293293Y-108925956D01*
X130310405Y-108995534D01*
X130319122Y-109059173D01*
X130319920Y-109069465D01*
X130318162Y-109210416D01*
X130290889Y-109322000D01*
X130238801Y-109403092D01*
X130162600Y-109452571D01*
X130062987Y-109469314D01*
X130018529Y-109466250D01*
X129940348Y-109446964D01*
X129853549Y-109408203D01*
X129755277Y-109347943D01*
X129642674Y-109264163D01*
X129512887Y-109154841D01*
X129363058Y-109017955D01*
X129190333Y-108851483D01*
X129003023Y-108667398D01*
X128990200Y-108726904D01*
X128954091Y-108862424D01*
X128889301Y-109026525D01*
X128808752Y-109165626D01*
X128716192Y-109272263D01*
X128714614Y-109273686D01*
X128657043Y-109319516D01*
X128606951Y-109341242D01*
X128546886Y-109346519D01*
X128502265Y-109343621D01*
X128391903Y-109316886D01*
X128267848Y-109261283D01*
X128128434Y-109175722D01*
X127971995Y-109059115D01*
X127796867Y-108910373D01*
X127601384Y-108728407D01*
X127308823Y-108446167D01*
X127411653Y-108677444D01*
X127447546Y-108757368D01*
X127507985Y-108889710D01*
X127571029Y-109025689D01*
X127627712Y-109145865D01*
X127740940Y-109383009D01*
X128005398Y-109603393D01*
X128048268Y-109639539D01*
X128153973Y-109731664D01*
X128258088Y-109826058D01*
X128350531Y-109913477D01*
X128421219Y-109984675D01*
X128493870Y-110066709D01*
X128586115Y-110181964D01*
X128677108Y-110306026D01*
X128760148Y-110429301D01*
X128828531Y-110542191D01*
X128875554Y-110635102D01*
X128889343Y-110669049D01*
X128924425Y-110779637D01*
X128942825Y-110881606D01*
X128944232Y-110967957D01*
X128928332Y-111031690D01*
X128894811Y-111065807D01*
X128888102Y-111068213D01*
X128817667Y-111070084D01*
X128727966Y-111037767D01*
X128620348Y-110972067D01*
X128496158Y-110873791D01*
X128356745Y-110743746D01*
X128254452Y-110637774D01*
X128105446Y-110466665D01*
X127956237Y-110274246D01*
X127802451Y-110054777D01*
X127639716Y-109802516D01*
X127630958Y-109788430D01*
X127589752Y-109721410D01*
X127555426Y-109665643D01*
X127524800Y-109618010D01*
X127494693Y-109575395D01*
X127461927Y-109534681D01*
X127423320Y-109492751D01*
X127375695Y-109446488D01*
X127315870Y-109392775D01*
X127240666Y-109328495D01*
X127146904Y-109250530D01*
X127031403Y-109155765D01*
X126890984Y-109041081D01*
X126722467Y-108903362D01*
X126391207Y-108632265D01*
X126391207Y-108520056D01*
X126391020Y-108503638D01*
X126390156Y-108468535D01*
X126391810Y-108443645D01*
X126399840Y-108430620D01*
X126418102Y-108431108D01*
X126450454Y-108446761D01*
X126500754Y-108479227D01*
X126572859Y-108530157D01*
X126670627Y-108601200D01*
X126797915Y-108694006D01*
X126822898Y-108712145D01*
X126921998Y-108783484D01*
X127008196Y-108844580D01*
X127076504Y-108891960D01*
X127121930Y-108922151D01*
X127139486Y-108931682D01*
X127135755Y-108918811D01*
X127117216Y-108874444D01*
X127085809Y-108804345D01*
X127044275Y-108714606D01*
X126995354Y-108611317D01*
X126990400Y-108600956D01*
X126879780Y-108363751D01*
X126790302Y-108159166D01*
X126721360Y-107985422D01*
X126672349Y-107840742D01*
X126642665Y-107723346D01*
X126631702Y-107631457D01*
X126638856Y-107563295D01*
X126639133Y-107562315D01*
X126674416Y-107493218D01*
X126728975Y-107457519D01*
X126799560Y-107454664D01*
X126882923Y-107484099D01*
X126975813Y-107545271D01*
X127074981Y-107637625D01*
X127112182Y-107678479D01*
X127175630Y-107750540D01*
X127253110Y-107840245D01*
X127338102Y-107940034D01*
X127424083Y-108042348D01*
X127528529Y-108163242D01*
X127669199Y-108314706D01*
X127812167Y-108457329D01*
X127950992Y-108584988D01*
X128079231Y-108691557D01*
X128190442Y-108770913D01*
X128248985Y-108805049D01*
X128352006Y-108846929D01*
X128436058Y-108853867D01*
X128500435Y-108825881D01*
X128544432Y-108762985D01*
X128557037Y-108724584D01*
X128562304Y-108640540D01*
X128539134Y-108543280D01*
X128486362Y-108426037D01*
X128410764Y-108302847D01*
X128276418Y-108138354D01*
X128107603Y-107977435D01*
X127907909Y-107823082D01*
X127680928Y-107678288D01*
X127430250Y-107546044D01*
X127319486Y-107489931D01*
X127171228Y-107400333D01*
X127063452Y-107313203D01*
X126996035Y-107228410D01*
X126968852Y-107145821D01*
X126981780Y-107065302D01*
X126985791Y-107056441D01*
X127034746Y-107000520D01*
X127111744Y-106969312D01*
X127213003Y-106962680D01*
X127334740Y-106980483D01*
X127473171Y-107022585D01*
X127624513Y-107088846D01*
X127744694Y-107151246D01*
X128004626Y-107303277D01*
X128241455Y-107466101D01*
X128452297Y-107637033D01*
X128634262Y-107813387D01*
X128784466Y-107992478D01*
X128900021Y-108171619D01*
X128978041Y-108348126D01*
X128978573Y-108349686D01*
X129000163Y-108390904D01*
X129040648Y-108438258D01*
X129105197Y-108496996D01*
X129198981Y-108572364D01*
X129316455Y-108659443D01*
X129431457Y-108735856D01*
X129530362Y-108791971D01*
X129608642Y-108825237D01*
X129661770Y-108833102D01*
X129698646Y-108813532D01*
X129733150Y-108772295D01*
X129743844Y-108747065D01*
X129749127Y-108669696D01*
X129724058Y-108570373D01*
X129668305Y-108448438D01*
X129581536Y-108303232D01*
X129463419Y-108134097D01*
X129313620Y-107940373D01*
X129312971Y-107939565D01*
X129230697Y-107836685D01*
X129170691Y-107759540D01*
X129129452Y-107702329D01*
X129103481Y-107659251D01*
X129089278Y-107624505D01*
X129083341Y-107592291D01*
X129082171Y-107556807D01*
X129082397Y-107540899D01*
X129103934Y-107385466D01*
X129157671Y-107232035D01*
X129171610Y-107205442D01*
X129203261Y-107173826D01*
X129251218Y-107165783D01*
X129283275Y-107168384D01*
X129349161Y-107187114D01*
X129430027Y-107226071D01*
X129530803Y-107287797D01*
X129656418Y-107374838D01*
X129671499Y-107385759D01*
X129876737Y-107546031D01*
X130087160Y-107730012D01*
X130290118Y-107926116D01*
X130472964Y-108122757D01*
X130479027Y-108129697D01*
X130593818Y-108259600D01*
X130695738Y-108372119D01*
X130782133Y-108464474D01*
X130850348Y-108533884D01*
X130897730Y-108577569D01*
X130921623Y-108592749D01*
X130937990Y-108580581D01*
X130960032Y-108544367D01*
X130967033Y-108506528D01*
X130950452Y-108431666D01*
X130902344Y-108332509D01*
X130822595Y-108208889D01*
X130711091Y-108060634D01*
X130567720Y-107887575D01*
X130392370Y-107689540D01*
X130384903Y-107681247D01*
X130318488Y-107595623D01*
X130286931Y-107524839D01*
X130289239Y-107464832D01*
X130324419Y-107411542D01*
X130350473Y-107390078D01*
X130431274Y-107357314D01*
X130528286Y-107353393D01*
X130632930Y-107377922D01*
X130736628Y-107430505D01*
X130789807Y-107472575D01*
X130871143Y-107553607D01*
X130961680Y-107657790D01*
X131056101Y-107777724D01*
X131149092Y-107906010D01*
X131235338Y-108035248D01*
X131309522Y-108158038D01*
X131366331Y-108266979D01*
X131400448Y-108354673D01*
X131406106Y-108374409D01*
X131422915Y-108423625D01*
X131444501Y-108462806D01*
X131477918Y-108500446D01*
X131530224Y-108545040D01*
X131608475Y-108605081D01*
X131721898Y-108686738D01*
X131873484Y-108780263D01*
X132007287Y-108841330D01*
X132126134Y-108870853D01*
X132232853Y-108869750D01*
X132330271Y-108838936D01*
X132384109Y-108805914D01*
X132448726Y-108732925D01*
X132479255Y-108642251D01*
X132474562Y-108538422D01*
X132433515Y-108425967D01*
X132421970Y-108408316D01*
X132382645Y-108359463D01*
X132323405Y-108292292D01*
X132250005Y-108213250D01*
X132168201Y-108128784D01*
X132081633Y-108038106D01*
X131918927Y-107845495D01*
X131791532Y-107660018D01*
X131701256Y-107484170D01*
X131688820Y-107448559D01*
X131674106Y-107373101D01*
X131673019Y-107303430D01*
X131686583Y-107255472D01*
X131731062Y-107215542D01*
X131807042Y-107190410D01*
X131901799Y-107187325D01*
X132006957Y-107206434D01*
X132114145Y-107247887D01*
X132147411Y-107266129D01*
X132257907Y-107345814D01*
X132374763Y-107454644D01*
X132492695Y-107585517D01*
X132606418Y-107731333D01*
X132710647Y-107884990D01*
X132800098Y-108039387D01*
X132869485Y-108187424D01*
X132913525Y-108321999D01*
X132922637Y-108356906D01*
X132937935Y-108396566D01*
X132961898Y-108434421D01*
X133000151Y-108477494D01*
X133058316Y-108532809D01*
X133142019Y-108607392D01*
X133208580Y-108665064D01*
X133347057Y-108778167D01*
X133465230Y-108864381D01*
X133561084Y-108922298D01*
X133632607Y-108950510D01*
X133637674Y-108951550D01*
X133718678Y-108948962D01*
X133788422Y-108913492D01*
X133835164Y-108850912D01*
X133839879Y-108838430D01*
X133856333Y-108754293D01*
X133860300Y-108644062D01*
X133852349Y-108518192D01*
X133833053Y-108387135D01*
X133802981Y-108261343D01*
X133790031Y-108221261D01*
X133749008Y-108114070D01*
X133692772Y-107983463D01*
X133625142Y-107837350D01*
X133549943Y-107683638D01*
X133522539Y-107630391D01*
X133975184Y-107630391D01*
X134003546Y-107724632D01*
X134011418Y-107749434D01*
X134038002Y-107817016D01*
X134073496Y-107883561D01*
X134121193Y-107952828D01*
X134184390Y-108028580D01*
X134266383Y-108114577D01*
X134370468Y-108214582D01*
X134499939Y-108332355D01*
X134658093Y-108471657D01*
X134673466Y-108485042D01*
X134766361Y-108565317D01*
X134858277Y-108643860D01*
X134939337Y-108712270D01*
X134999664Y-108762147D01*
X135017743Y-108776528D01*
X135099195Y-108831866D01*
X135162295Y-108854789D01*
X135211360Y-108846058D01*
X135250701Y-108806433D01*
X135263841Y-108783790D01*
X135273753Y-108749054D01*
X135272087Y-108701974D01*
X135259518Y-108628989D01*
X135255329Y-108608326D01*
X135211622Y-108445547D01*
X135156260Y-108318926D01*
X135089945Y-108230115D01*
X135077430Y-108218797D01*
X135014517Y-108171313D01*
X134923954Y-108111427D01*
X134812630Y-108042956D01*
X134687438Y-107969713D01*
X134555266Y-107895516D01*
X134423007Y-107824178D01*
X134297551Y-107759515D01*
X134185789Y-107705343D01*
X134094611Y-107665477D01*
X134030908Y-107643732D01*
X133975184Y-107630391D01*
X133522539Y-107630391D01*
X133470995Y-107530237D01*
X133392121Y-107385055D01*
X133317142Y-107256001D01*
X133232324Y-107116051D01*
X133113765Y-106920147D01*
X133013462Y-106753947D01*
X132929577Y-106614329D01*
X132860272Y-106498169D01*
X132803706Y-106402345D01*
X132758042Y-106323734D01*
X132721441Y-106259213D01*
X132692064Y-106205658D01*
X132668071Y-106159948D01*
X132647625Y-106118959D01*
X132605864Y-106026087D01*
X132564524Y-105901249D01*
X132552205Y-105799337D01*
X132568335Y-105717459D01*
X132574432Y-105704082D01*
X132620355Y-105639789D01*
X132680148Y-105593501D01*
X132740999Y-105575734D01*
X132750017Y-105576947D01*
X132795808Y-105601409D01*
X132856477Y-105653012D01*
X132926448Y-105726061D01*
X133000144Y-105814861D01*
X133071989Y-105913720D01*
X133125739Y-105997579D01*
X133193930Y-106110949D01*
X133272298Y-106246239D01*
X133356789Y-106396166D01*
X133443348Y-106553449D01*
X133527921Y-106710806D01*
X133606455Y-106860956D01*
X133674894Y-106996615D01*
X133817454Y-107286116D01*
X133897082Y-107217957D01*
X133922233Y-107198335D01*
X133992348Y-107155689D01*
X134057890Y-107129193D01*
X134060268Y-107128604D01*
X134159418Y-107122087D01*
X134281984Y-107142558D01*
X134423217Y-107187720D01*
X134578368Y-107255270D01*
X134742692Y-107342910D01*
X134911438Y-107448339D01*
X135079860Y-107569258D01*
X135243208Y-107703366D01*
X135284932Y-107740711D01*
X135432664Y-107887948D01*
X135546402Y-108030394D01*
X135630190Y-108173684D01*
X135688071Y-108323455D01*
X135700693Y-108358494D01*
X135740411Y-108420434D01*
X135807557Y-108478803D01*
X135858158Y-108514471D01*
X135958457Y-108575610D01*
X136036346Y-108606734D01*
X136094490Y-108608685D01*
X136135557Y-108582304D01*
X136142984Y-108570858D01*
X136145973Y-108543362D01*
X136131871Y-108500788D01*
X136098260Y-108433490D01*
X136085217Y-108407783D01*
X136046834Y-108322942D01*
X136005935Y-108222429D01*
X135969418Y-108122868D01*
X135964808Y-108109333D01*
X135933201Y-108008473D01*
X135914363Y-107924091D01*
X135905093Y-107837469D01*
X135902189Y-107729891D01*
X135901227Y-107578239D01*
X136387016Y-107578239D01*
X136505743Y-107815390D01*
X136535370Y-107875595D01*
X136600204Y-108019635D01*
X136644566Y-108143599D01*
X136670898Y-108256988D01*
X136681645Y-108369305D01*
X136679249Y-108490052D01*
X136677488Y-108517010D01*
X136671540Y-108599283D01*
X136665930Y-108665532D01*
X136661674Y-108703419D01*
X136663954Y-108721709D01*
X136686291Y-108751700D01*
X136735240Y-108791416D01*
X136815628Y-108845307D01*
X136848112Y-108865861D01*
X136921690Y-108909064D01*
X136979778Y-108935005D01*
X137035261Y-108948629D01*
X137101021Y-108954885D01*
X137171337Y-108954247D01*
X137267008Y-108933344D01*
X137334988Y-108889573D01*
X137371028Y-108824978D01*
X137373186Y-108792882D01*
X137367312Y-108724287D01*
X137353549Y-108635408D01*
X137334054Y-108536895D01*
X137310984Y-108439398D01*
X137286493Y-108353565D01*
X137262738Y-108290048D01*
X137258323Y-108281013D01*
X137202589Y-108198715D01*
X137114489Y-108103251D01*
X136998157Y-107998132D01*
X136857724Y-107886870D01*
X136697326Y-107772976D01*
X136521094Y-107659963D01*
X136387016Y-107578239D01*
X135901227Y-107578239D01*
X135900918Y-107529553D01*
X135967491Y-107469979D01*
X135984708Y-107455439D01*
X136031906Y-107423248D01*
X136066020Y-107410405D01*
X136081025Y-107408333D01*
X136090526Y-107395116D01*
X136077719Y-107369308D01*
X136055662Y-107325271D01*
X136037931Y-107265892D01*
X136049296Y-107200525D01*
X136092490Y-107145419D01*
X136162799Y-107103233D01*
X136255508Y-107076626D01*
X136365902Y-107068254D01*
X136489269Y-107080777D01*
X136509813Y-107084989D01*
X136633679Y-107122536D01*
X136771959Y-107181088D01*
X136911884Y-107254701D01*
X137040681Y-107337431D01*
X137046358Y-107341522D01*
X137188497Y-107457260D01*
X137327262Y-107593896D01*
X137457428Y-107744388D01*
X137573769Y-107901693D01*
X137671059Y-108058768D01*
X137744072Y-108208569D01*
X137787583Y-108344055D01*
X137788025Y-108346098D01*
X137800980Y-108392089D01*
X137821629Y-108434395D01*
X137855616Y-108480764D01*
X137908585Y-108538946D01*
X137986182Y-108616689D01*
X138094129Y-108720566D01*
X138333186Y-108936647D01*
X138573092Y-109135290D01*
X138808260Y-109312194D01*
X139033105Y-109463057D01*
X139242039Y-109583578D01*
X139284877Y-109605545D01*
X139521256Y-109711874D01*
X139741016Y-109785130D01*
X139942908Y-109825768D01*
X140125682Y-109834240D01*
X140288087Y-109811001D01*
X140428875Y-109756505D01*
X140546794Y-109671204D01*
X140640594Y-109555553D01*
X140709025Y-109410004D01*
X140750838Y-109235013D01*
X140764781Y-109031031D01*
X140763630Y-108971826D01*
X140747662Y-108798148D01*
X140711478Y-108619827D01*
X140653234Y-108430520D01*
X140571086Y-108223883D01*
X140463190Y-107993574D01*
X140378221Y-107832023D01*
X140220079Y-107565892D01*
X140037878Y-107293401D01*
X139836375Y-107020130D01*
X139620327Y-106751661D01*
X139394492Y-106493576D01*
X139163627Y-106251456D01*
X138932489Y-106030884D01*
X138705837Y-105837439D01*
X138488426Y-105676705D01*
X138350740Y-105589402D01*
X138212140Y-105516839D01*
X138097665Y-105476293D01*
X138006846Y-105467660D01*
X137939213Y-105490837D01*
X137894297Y-105545720D01*
X137879568Y-105588202D01*
X137873465Y-105691204D01*
X137897426Y-105817658D01*
X137950708Y-105965688D01*
X138032574Y-106133419D01*
X138142281Y-106318977D01*
X138279091Y-106520485D01*
X138298622Y-106547441D01*
X138387974Y-106665826D01*
X138479066Y-106779399D01*
X138568580Y-106884715D01*
X138653196Y-106978334D01*
X138729595Y-107056814D01*
X138794457Y-107116711D01*
X138844464Y-107154585D01*
X138876295Y-107166993D01*
X138886632Y-107150494D01*
X138878226Y-107126204D01*
X138856776Y-107084242D01*
X138841773Y-107052602D01*
X138828568Y-106999012D01*
X138832158Y-106957939D01*
X138852875Y-106941545D01*
X138865103Y-106946304D01*
X138905217Y-106974026D01*
X138964160Y-107021597D01*
X139035614Y-107083366D01*
X139113261Y-107153685D01*
X139190783Y-107226904D01*
X139261865Y-107297373D01*
X139320186Y-107359442D01*
X139333701Y-107374819D01*
X139394099Y-107446280D01*
X139463074Y-107530998D01*
X139528206Y-107613784D01*
X139559757Y-107655568D01*
X139657043Y-107799501D01*
X139720813Y-107924399D01*
X139751540Y-108032863D01*
X139749695Y-108127493D01*
X139715752Y-108210891D01*
X139650182Y-108285657D01*
X139631554Y-108301317D01*
X139559912Y-108346192D01*
X139486577Y-108363454D01*
X139405067Y-108352507D01*
X139308902Y-108312758D01*
X139191600Y-108243611D01*
X139113377Y-108190848D01*
X138905324Y-108031414D01*
X138691643Y-107842818D01*
X138478204Y-107631685D01*
X138270878Y-107404642D01*
X138075536Y-107168315D01*
X137898049Y-106929331D01*
X137744287Y-106694316D01*
X137620122Y-106469896D01*
X137580217Y-106387665D01*
X137513655Y-106237951D01*
X137466326Y-106107687D01*
X137435542Y-105987394D01*
X137418618Y-105867597D01*
X137412867Y-105738816D01*
X137413127Y-105688842D01*
X137425300Y-105534070D01*
X137457046Y-105406253D01*
X137511047Y-105297225D01*
X137589979Y-105198817D01*
X137675422Y-105129079D01*
X137781301Y-105083233D01*
X137906149Y-105066273D01*
X138053691Y-105077720D01*
X138227650Y-105117097D01*
X138330241Y-105149285D01*
X138576316Y-105250695D01*
X138833192Y-105388718D01*
X139098976Y-105562061D01*
X139371774Y-105769430D01*
X139649695Y-106009531D01*
X139930844Y-106281070D01*
X140207410Y-106574276D01*
X140491618Y-106904974D01*
X140746415Y-107234872D01*
X140970350Y-107561689D01*
X141161972Y-107883147D01*
X141319832Y-108196964D01*
X141442479Y-108500863D01*
X141528463Y-108792563D01*
X141542447Y-108857816D01*
X141570728Y-109073151D01*
X141574507Y-109291376D01*
X141554501Y-109503130D01*
X141511426Y-109699051D01*
X141445999Y-109869777D01*
X141345460Y-110036893D01*
X141217781Y-110178680D01*
X141065892Y-110288237D01*
X140889182Y-110365909D01*
X140687040Y-110412041D01*
X140458853Y-110426979D01*
X140413463Y-110426295D01*
X140192797Y-110406092D01*
X139970957Y-110357021D01*
X139745704Y-110277903D01*
X139514799Y-110167558D01*
X139276000Y-110024806D01*
X139027068Y-109848469D01*
X138765762Y-109637367D01*
X138489842Y-109390321D01*
X138395811Y-109301137D01*
X138282888Y-109191218D01*
X138173443Y-109082020D01*
X138076379Y-108982437D01*
X138000597Y-108901367D01*
X137983542Y-108882534D01*
X137916990Y-108810097D01*
X137861356Y-108751174D01*
X137822041Y-108711407D01*
X137804446Y-108696440D01*
X137800498Y-108699202D01*
X137788966Y-108729009D01*
X137777921Y-108781312D01*
X137775286Y-108792882D01*
X137766270Y-108832466D01*
X137727111Y-108939999D01*
G37*
G36*
X131600947Y-103392964D02*
G01*
X131544539Y-103575662D01*
X131504126Y-103681070D01*
X131428222Y-103843907D01*
X131342302Y-103993649D01*
X131249878Y-104125936D01*
X131154462Y-104236411D01*
X131059568Y-104320717D01*
X130968708Y-104374496D01*
X130885394Y-104393391D01*
X130877228Y-104393163D01*
X130796950Y-104375176D01*
X130696726Y-104331109D01*
X130583085Y-104264725D01*
X130462554Y-104179785D01*
X130341661Y-104080051D01*
X130328476Y-104068062D01*
X130267997Y-104009964D01*
X130185778Y-103927806D01*
X130086242Y-103826248D01*
X129973814Y-103709952D01*
X129852918Y-103583577D01*
X129727979Y-103451784D01*
X129603421Y-103319236D01*
X129483668Y-103190591D01*
X129373144Y-103070512D01*
X129276274Y-102963658D01*
X129197481Y-102874691D01*
X129195841Y-102872810D01*
X129176014Y-102851540D01*
X129165634Y-102846287D01*
X129165556Y-102861525D01*
X129176632Y-102901730D01*
X129199715Y-102971378D01*
X129235659Y-103074944D01*
X129279831Y-103207401D01*
X129349444Y-103452747D01*
X129397167Y-103678977D01*
X129423017Y-103883898D01*
X129427010Y-104065316D01*
X129409164Y-104221038D01*
X129369495Y-104348871D01*
X129308019Y-104446620D01*
X129224754Y-104512093D01*
X129123470Y-104545484D01*
X128994331Y-104547836D01*
X128846952Y-104514291D01*
X128681590Y-104445014D01*
X128498503Y-104340171D01*
X128297948Y-104199928D01*
X128080181Y-104024450D01*
X127845460Y-103813903D01*
X127594041Y-103568453D01*
X127326183Y-103288265D01*
X127104690Y-103049512D01*
X127104690Y-102885657D01*
X127104810Y-102861936D01*
X127106824Y-102790500D01*
X127110810Y-102740581D01*
X127116095Y-102721802D01*
X127128897Y-102729419D01*
X127167679Y-102758559D01*
X127225180Y-102804435D01*
X127294466Y-102861612D01*
X127446237Y-102984437D01*
X127623688Y-103114671D01*
X127792064Y-103221591D01*
X127959532Y-103310712D01*
X128029387Y-103343798D01*
X128104521Y-103375676D01*
X128164879Y-103394129D01*
X128222730Y-103402644D01*
X128290347Y-103404707D01*
X128388630Y-103396514D01*
X128488238Y-103361390D01*
X128560315Y-103297131D01*
X128606488Y-103202147D01*
X128628385Y-103074850D01*
X128629768Y-103054826D01*
X128633330Y-102978265D01*
X128631728Y-102909852D01*
X128622842Y-102845040D01*
X128604550Y-102779283D01*
X128574733Y-102708034D01*
X128531270Y-102626744D01*
X128472040Y-102530867D01*
X128394923Y-102415857D01*
X128297798Y-102277165D01*
X128178545Y-102110245D01*
X128152469Y-102073792D01*
X128062203Y-101943724D01*
X127995709Y-101836867D01*
X127951644Y-101746287D01*
X127928667Y-101665050D01*
X127925438Y-101586221D01*
X127940614Y-101502865D01*
X127972855Y-101408048D01*
X128020818Y-101294836D01*
X128046440Y-101236186D01*
X128058035Y-101208514D01*
X128462964Y-101208514D01*
X128481325Y-101239718D01*
X128522236Y-101297422D01*
X128564550Y-101355768D01*
X128802713Y-101679301D01*
X129022654Y-101969208D01*
X129225795Y-102227171D01*
X129413553Y-102454874D01*
X129587346Y-102653999D01*
X129748595Y-102826230D01*
X129898718Y-102973250D01*
X130039134Y-103096740D01*
X130074052Y-103125276D01*
X130205680Y-103228046D01*
X130334114Y-103321344D01*
X130452655Y-103400635D01*
X130554604Y-103461382D01*
X130633261Y-103499048D01*
X130674175Y-103513882D01*
X130744294Y-103532651D01*
X130795779Y-103532785D01*
X130840284Y-103515193D01*
X130857207Y-103502907D01*
X130902295Y-103443166D01*
X130937484Y-103356573D01*
X130960296Y-103253147D01*
X130968252Y-103142906D01*
X130958872Y-103035869D01*
X130939322Y-102952879D01*
X130883765Y-102808559D01*
X130799952Y-102666608D01*
X130685982Y-102525048D01*
X130539958Y-102381902D01*
X130359980Y-102235192D01*
X130144151Y-102082942D01*
X129890571Y-101923172D01*
X129857285Y-101903560D01*
X129769155Y-101853732D01*
X129658737Y-101793270D01*
X129531321Y-101724897D01*
X129392196Y-101651337D01*
X129246652Y-101575316D01*
X129099977Y-101499556D01*
X128957462Y-101426783D01*
X128824395Y-101359720D01*
X128706066Y-101301092D01*
X128607765Y-101253624D01*
X128534781Y-101220038D01*
X128492404Y-101203061D01*
X128486170Y-101201194D01*
X128465222Y-101197707D01*
X128462964Y-101208514D01*
X128058035Y-101208514D01*
X128078381Y-101159958D01*
X128100907Y-101102261D01*
X128110282Y-101072385D01*
X128104220Y-101058007D01*
X128067058Y-101029513D01*
X128002513Y-100998345D01*
X127976817Y-100987555D01*
X127880329Y-100936516D01*
X127821685Y-100880500D01*
X127798513Y-100813733D01*
X127808444Y-100730444D01*
X127849105Y-100624861D01*
X127878931Y-100564916D01*
X127957157Y-100443875D01*
X128043754Y-100360201D01*
X128141483Y-100311645D01*
X128253107Y-100295959D01*
X128290487Y-100297018D01*
X128432046Y-100314559D01*
X128601014Y-100352536D01*
X128792284Y-100409480D01*
X129000749Y-100483921D01*
X129221301Y-100574392D01*
X129599354Y-100757187D01*
X129994556Y-100988930D01*
X130381073Y-101258750D01*
X130760018Y-101567428D01*
X131132501Y-101915744D01*
X131264822Y-102050902D01*
X131379300Y-102177670D01*
X131468185Y-102291294D01*
X131534804Y-102398042D01*
X131582486Y-102504185D01*
X131614557Y-102615992D01*
X131634345Y-102739733D01*
X131645178Y-102881678D01*
X131647921Y-103049330D01*
X131640734Y-103142906D01*
X131634548Y-103223448D01*
X131600947Y-103392964D01*
G37*
G36*
X136562358Y-97793466D02*
G01*
X136717494Y-97804280D01*
X136850335Y-97821250D01*
X136937507Y-97838238D01*
X137076622Y-97870536D01*
X137235613Y-97911729D01*
X137404103Y-97958890D01*
X137571712Y-98009089D01*
X137728061Y-98059398D01*
X137862772Y-98106890D01*
X137915976Y-98126098D01*
X137990296Y-98150234D01*
X138044914Y-98164555D01*
X138070730Y-98166453D01*
X138071674Y-98165798D01*
X138088471Y-98137703D01*
X138103352Y-98089024D01*
X138103955Y-98086233D01*
X138116450Y-98036565D01*
X138126944Y-98007012D01*
X138128229Y-98005937D01*
X138154881Y-98011221D01*
X138210341Y-98034568D01*
X138289555Y-98073124D01*
X138387467Y-98124034D01*
X138499019Y-98184445D01*
X138619157Y-98251504D01*
X138742825Y-98322356D01*
X138864965Y-98394147D01*
X138980522Y-98464025D01*
X139084440Y-98529134D01*
X139171663Y-98586622D01*
X139237135Y-98633635D01*
X139356632Y-98735202D01*
X139477636Y-98865999D01*
X139562539Y-98996149D01*
X139567692Y-99006962D01*
X139592715Y-99071784D01*
X139623919Y-99166850D01*
X139659503Y-99285233D01*
X139697667Y-99420007D01*
X139736612Y-99564245D01*
X139774538Y-99711022D01*
X139809645Y-99853411D01*
X139840133Y-99984484D01*
X139864203Y-100097317D01*
X139880054Y-100184983D01*
X139885888Y-100240555D01*
X139883044Y-100281686D01*
X139860799Y-100359209D01*
X139821743Y-100419602D01*
X139772198Y-100451150D01*
X139755327Y-100453018D01*
X139721125Y-100448477D01*
X139673464Y-100434036D01*
X139609623Y-100408367D01*
X139526882Y-100370138D01*
X139422521Y-100318022D01*
X139293819Y-100250689D01*
X139138055Y-100166809D01*
X138952511Y-100065054D01*
X138734465Y-99944095D01*
X138603641Y-99871674D01*
X138353478Y-99735644D01*
X138111036Y-99606945D01*
X137880843Y-99487868D01*
X137667428Y-99380707D01*
X137475319Y-99287755D01*
X137309047Y-99211304D01*
X137173140Y-99153647D01*
X137162343Y-99149369D01*
X136958139Y-99077424D01*
X136768491Y-99027255D01*
X136595719Y-98998222D01*
X136442145Y-98989684D01*
X136310089Y-99001000D01*
X136201871Y-99031530D01*
X136119812Y-99080634D01*
X136066233Y-99147670D01*
X136043454Y-99231999D01*
X136053796Y-99332980D01*
X136099579Y-99449972D01*
X136102714Y-99456009D01*
X136177270Y-99582143D01*
X136282252Y-99733964D01*
X136417115Y-99910723D01*
X136581311Y-100111669D01*
X136617672Y-100154829D01*
X136667288Y-100213194D01*
X136719957Y-100274439D01*
X136778109Y-100341299D01*
X136844177Y-100416507D01*
X136920591Y-100502798D01*
X137009782Y-100602906D01*
X137114182Y-100719566D01*
X137236221Y-100855511D01*
X137378331Y-101013477D01*
X137542943Y-101196197D01*
X137732488Y-101406407D01*
X137758650Y-101435616D01*
X137850364Y-101540633D01*
X137942649Y-101649747D01*
X138026048Y-101751652D01*
X138091100Y-101835044D01*
X138099076Y-101845701D01*
X138190477Y-101969402D01*
X138287778Y-102103610D01*
X138387649Y-102243500D01*
X138486759Y-102384248D01*
X138581780Y-102521030D01*
X138669382Y-102649023D01*
X138746236Y-102763402D01*
X138809012Y-102859343D01*
X138854380Y-102932023D01*
X138879012Y-102976617D01*
X138897414Y-103020512D01*
X138946898Y-103188146D01*
X138976677Y-103377014D01*
X138986590Y-103575871D01*
X138976475Y-103773473D01*
X138946168Y-103958573D01*
X138895507Y-104119927D01*
X138831793Y-104248550D01*
X138745564Y-104375307D01*
X138648903Y-104477949D01*
X138547033Y-104551035D01*
X138445172Y-104589127D01*
X138443500Y-104589437D01*
X138336566Y-104593776D01*
X138217057Y-104569317D01*
X138083681Y-104515235D01*
X137935147Y-104430706D01*
X137770162Y-104314906D01*
X137587434Y-104167011D01*
X137385672Y-103986198D01*
X137163584Y-103771641D01*
X136978234Y-103584023D01*
X136769465Y-103365768D01*
X136550274Y-103129517D01*
X136318424Y-102872759D01*
X136071675Y-102592982D01*
X135807790Y-102287675D01*
X135524531Y-101954325D01*
X135219658Y-101590421D01*
X135203105Y-101570547D01*
X135106651Y-101454940D01*
X135018188Y-101349243D01*
X134941329Y-101257746D01*
X134879684Y-101184740D01*
X134836864Y-101134518D01*
X134816482Y-101111368D01*
X134814630Y-101112713D01*
X134825685Y-101141531D01*
X134852007Y-101199096D01*
X134891425Y-101280849D01*
X134941771Y-101382232D01*
X135000874Y-101498688D01*
X135065225Y-101625406D01*
X135227211Y-101956483D01*
X135365539Y-102258633D01*
X135479942Y-102531199D01*
X135570154Y-102773524D01*
X135635908Y-102984951D01*
X135676936Y-103164822D01*
X135681369Y-103192401D01*
X135694971Y-103315596D01*
X135703145Y-103457565D01*
X135705841Y-103606478D01*
X135703006Y-103750507D01*
X135694588Y-103877823D01*
X135680533Y-103976596D01*
X135667098Y-104028861D01*
X135635804Y-104118163D01*
X135600660Y-104192150D01*
X135553434Y-104264892D01*
X135446466Y-104395427D01*
X135321761Y-104514400D01*
X135189375Y-104612721D01*
X135059367Y-104681303D01*
X134971632Y-104706619D01*
X134831615Y-104715697D01*
X134682842Y-104693516D01*
X134534656Y-104640795D01*
X134429326Y-104588344D01*
X134185477Y-104444847D01*
X133934603Y-104268785D01*
X133681267Y-104064213D01*
X133430034Y-103835185D01*
X133185466Y-103585752D01*
X132952127Y-103319971D01*
X132734582Y-103041893D01*
X132586132Y-102833072D01*
X132358067Y-102485298D01*
X132135066Y-102113718D01*
X131920230Y-101724777D01*
X131716661Y-101324919D01*
X131527458Y-100920589D01*
X131355723Y-100518231D01*
X131204555Y-100124290D01*
X131077055Y-99745210D01*
X130976325Y-99387435D01*
X130960434Y-99322645D01*
X130925925Y-99165673D01*
X130905522Y-99037047D01*
X130899083Y-98929535D01*
X130906468Y-98835902D01*
X130927534Y-98748915D01*
X130962142Y-98661343D01*
X130992621Y-98599756D01*
X131048280Y-98516195D01*
X131105211Y-98472059D01*
X131166388Y-98466557D01*
X131234786Y-98498904D01*
X131313383Y-98568311D01*
X131324198Y-98579722D01*
X131394450Y-98660837D01*
X131477847Y-98766145D01*
X131567738Y-98886545D01*
X131657468Y-99012938D01*
X131740384Y-99136225D01*
X131809833Y-99247305D01*
X131829995Y-99282024D01*
X131869183Y-99360406D01*
X131889023Y-99429450D01*
X131890307Y-99500847D01*
X131873830Y-99586288D01*
X131840385Y-99697463D01*
X131785550Y-99865841D01*
X131894637Y-100075804D01*
X131940770Y-100164233D01*
X132182081Y-100614229D01*
X132415261Y-101027146D01*
X132641656Y-101405103D01*
X132862615Y-101750218D01*
X133079483Y-102064607D01*
X133293609Y-102350390D01*
X133506339Y-102609683D01*
X133546192Y-102655089D01*
X133647137Y-102764767D01*
X133761653Y-102883517D01*
X133882965Y-103004746D01*
X134004297Y-103121863D01*
X134118877Y-103228276D01*
X134219928Y-103317392D01*
X134300677Y-103382620D01*
X134339533Y-103410143D01*
X134418611Y-103460644D01*
X134507376Y-103512441D01*
X134597033Y-103560861D01*
X134678790Y-103601233D01*
X134743852Y-103628882D01*
X134783426Y-103639137D01*
X134790311Y-103637893D01*
X134826816Y-103618503D01*
X134872400Y-103583078D01*
X134885537Y-103570428D01*
X134927064Y-103508790D01*
X134946567Y-103430669D01*
X134943690Y-103332743D01*
X134918071Y-103211691D01*
X134869354Y-103064191D01*
X134797179Y-102886921D01*
X134747864Y-102775629D01*
X134638311Y-102541651D01*
X134515731Y-102296779D01*
X134378410Y-102037971D01*
X134224631Y-101762186D01*
X134052681Y-101466384D01*
X133860843Y-101147523D01*
X133647404Y-100802563D01*
X133410648Y-100428463D01*
X133322705Y-100290355D01*
X133145875Y-100009215D01*
X132992220Y-99759695D01*
X132861178Y-99540865D01*
X132752192Y-99351799D01*
X132664702Y-99191569D01*
X132664273Y-99190755D01*
X132621559Y-99107843D01*
X132595725Y-99050237D01*
X132583908Y-99007668D01*
X132583250Y-98969866D01*
X132590890Y-98926561D01*
X132593351Y-98916133D01*
X132620070Y-98833676D01*
X132661234Y-98733257D01*
X132710273Y-98628983D01*
X132760616Y-98534961D01*
X132805695Y-98465300D01*
X132857621Y-98407764D01*
X132914245Y-98376920D01*
X132979165Y-98379354D01*
X133062477Y-98413011D01*
X133073608Y-98418733D01*
X133225279Y-98510617D01*
X133388741Y-98632635D01*
X133557750Y-98779049D01*
X133726059Y-98944120D01*
X133887425Y-99122108D01*
X134035603Y-99307275D01*
X134074565Y-99359347D01*
X134262306Y-99606861D01*
X134449028Y-99846977D01*
X134638109Y-100083658D01*
X134832926Y-100320865D01*
X135036858Y-100562563D01*
X135253282Y-100812713D01*
X135485577Y-101075278D01*
X135737120Y-101354221D01*
X136011289Y-101653504D01*
X136311461Y-101977090D01*
X136334715Y-102002015D01*
X136561140Y-102243185D01*
X136763085Y-102455079D01*
X136942357Y-102639284D01*
X137100763Y-102797384D01*
X137240111Y-102930968D01*
X137362208Y-103041619D01*
X137468863Y-103130924D01*
X137561882Y-103200470D01*
X137643074Y-103251842D01*
X137714246Y-103286626D01*
X137777205Y-103306408D01*
X137833759Y-103312774D01*
X137884654Y-103309070D01*
X137933011Y-103292080D01*
X137961123Y-103260144D01*
X137968231Y-103211978D01*
X137953578Y-103146297D01*
X137916405Y-103061818D01*
X137855955Y-102957256D01*
X137771468Y-102831327D01*
X137662188Y-102682748D01*
X137527355Y-102510234D01*
X137366211Y-102312501D01*
X137177999Y-102088265D01*
X136961961Y-101836242D01*
X136889670Y-101752281D01*
X136814055Y-101663741D01*
X136749727Y-101587657D01*
X136701842Y-101530134D01*
X136675556Y-101497272D01*
X136670436Y-101490409D01*
X136637735Y-101446817D01*
X136587850Y-101380510D01*
X136526604Y-101299220D01*
X136459815Y-101210680D01*
X136400435Y-101131342D01*
X136281865Y-100969831D01*
X136154617Y-100793166D01*
X136024256Y-100609278D01*
X135896341Y-100426100D01*
X135776438Y-100251565D01*
X135670106Y-100093604D01*
X135582909Y-99960149D01*
X135477764Y-99788516D01*
X135388839Y-99622620D01*
X135323368Y-99468909D01*
X135278765Y-99318522D01*
X135252448Y-99162594D01*
X135241832Y-98992262D01*
X135244334Y-98798664D01*
X135260006Y-98578165D01*
X135290265Y-98388989D01*
X135337113Y-98232234D01*
X135402721Y-98104642D01*
X135489260Y-98002958D01*
X135598900Y-97923924D01*
X135733812Y-97864284D01*
X135896167Y-97820782D01*
X135947211Y-97811883D01*
X136077354Y-97798017D01*
X136230871Y-97790329D01*
X136396345Y-97788814D01*
X136562358Y-97793466D01*
G37*
G36*
X118609244Y-99153010D02*
G01*
X118648327Y-99166147D01*
X118761216Y-99227077D01*
X118870003Y-99316513D01*
X118970236Y-99427462D01*
X119057459Y-99552934D01*
X119127219Y-99685937D01*
X119175061Y-99819478D01*
X119196532Y-99946568D01*
X119187178Y-100060214D01*
X119186874Y-100061397D01*
X119157497Y-100121832D01*
X119105323Y-100188772D01*
X119042594Y-100248660D01*
X118981553Y-100287936D01*
X118920465Y-100306268D01*
X118815393Y-100315259D01*
X118706363Y-100304385D01*
X118611646Y-100274318D01*
X118610629Y-100273823D01*
X118530045Y-100220836D01*
X118441156Y-100140202D01*
X118352374Y-100041279D01*
X118272107Y-99933424D01*
X118208765Y-99825997D01*
X118173480Y-99751516D01*
X118149236Y-99683800D01*
X118137957Y-99618016D01*
X118135187Y-99536646D01*
X118137756Y-99460601D01*
X118150690Y-99382907D01*
X118177044Y-99319893D01*
X118193277Y-99293804D01*
X118272666Y-99211446D01*
X118373787Y-99158469D01*
X118488644Y-99137962D01*
X118609244Y-99153010D01*
G37*
G36*
X154670708Y-106066072D02*
G01*
X154629898Y-106241698D01*
X154562396Y-106405996D01*
X154465135Y-106569512D01*
X154459791Y-106577322D01*
X154319778Y-106749615D01*
X154156075Y-106897978D01*
X153974484Y-107019113D01*
X153780807Y-107109722D01*
X153580847Y-107166507D01*
X153380405Y-107186168D01*
X153263765Y-107186168D01*
X153260080Y-107230409D01*
X153249494Y-107357492D01*
X153249245Y-107360446D01*
X153209508Y-107594551D01*
X153132787Y-107814196D01*
X153021312Y-108016040D01*
X152877307Y-108196740D01*
X152703002Y-108352954D01*
X152500622Y-108481339D01*
X152365539Y-108541353D01*
X152215138Y-108589763D01*
X152065977Y-108621882D01*
X151933664Y-108633519D01*
X151817635Y-108633519D01*
X151812133Y-108704868D01*
X151805372Y-108792537D01*
X151802965Y-108820107D01*
X151761839Y-109046445D01*
X151685289Y-109262219D01*
X151576382Y-109461682D01*
X151438187Y-109639084D01*
X151273772Y-109788676D01*
X151203040Y-109838796D01*
X151028177Y-109938544D01*
X150843278Y-110014623D01*
X150658619Y-110063231D01*
X150484477Y-110080570D01*
X150370283Y-110080871D01*
X150364561Y-110152219D01*
X150357612Y-110238856D01*
X150354043Y-110277524D01*
X150309981Y-110515239D01*
X150230143Y-110734162D01*
X150115740Y-110932508D01*
X149967988Y-111108492D01*
X149788100Y-111260331D01*
X149577289Y-111386240D01*
X149558770Y-111395248D01*
X149461982Y-111437484D01*
X149363382Y-111474106D01*
X149281703Y-111498030D01*
X149167744Y-111515858D01*
X149010363Y-111523060D01*
X148845270Y-111515526D01*
X148687997Y-111494078D01*
X148554072Y-111459537D01*
X148482834Y-111433552D01*
X148416949Y-111406022D01*
X148354006Y-111374522D01*
X148290516Y-111336248D01*
X148222988Y-111288400D01*
X148147934Y-111228174D01*
X148061864Y-111152770D01*
X147961288Y-111059383D01*
X147842718Y-110945213D01*
X147702663Y-110807458D01*
X147537634Y-110643314D01*
X147492905Y-110598617D01*
X147319341Y-110423610D01*
X147170366Y-110270702D01*
X147047039Y-110141019D01*
X146950420Y-110035688D01*
X146881567Y-109955836D01*
X146841541Y-109902591D01*
X146827309Y-109879448D01*
X146768388Y-109767125D01*
X146714089Y-109639993D01*
X146670750Y-109514061D01*
X146644708Y-109405340D01*
X146632750Y-109331174D01*
X146546609Y-109351235D01*
X146540184Y-109352674D01*
X146441532Y-109365935D01*
X146319289Y-109370705D01*
X146188456Y-109367333D01*
X146064036Y-109356171D01*
X145961030Y-109337567D01*
X145930740Y-109329491D01*
X145711060Y-109247602D01*
X145569791Y-109165834D01*
X147336076Y-109165834D01*
X147355387Y-109323240D01*
X147413559Y-109479507D01*
X147434562Y-109509409D01*
X147483112Y-109566929D01*
X147555530Y-109647202D01*
X147649015Y-109747235D01*
X147760765Y-109864033D01*
X147887979Y-109994603D01*
X148027853Y-110135949D01*
X148065213Y-110173401D01*
X148211865Y-110319698D01*
X148333732Y-110439803D01*
X148433642Y-110536315D01*
X148514423Y-110611832D01*
X148578905Y-110668951D01*
X148629917Y-110710272D01*
X148670287Y-110738391D01*
X148702844Y-110755909D01*
X148716967Y-110761951D01*
X148870602Y-110804521D01*
X149028823Y-110810006D01*
X149184009Y-110779804D01*
X149328540Y-110715314D01*
X149454798Y-110617935D01*
X149491337Y-110579081D01*
X149575502Y-110454984D01*
X149624575Y-110314286D01*
X149640455Y-110152219D01*
X149640116Y-110104585D01*
X149637420Y-110046165D01*
X149629947Y-109992839D01*
X149615284Y-109941221D01*
X149591015Y-109887930D01*
X149554728Y-109829581D01*
X149504006Y-109762793D01*
X149436437Y-109684181D01*
X149349606Y-109590364D01*
X149241098Y-109477957D01*
X149108499Y-109343578D01*
X148949396Y-109183843D01*
X148859522Y-109093837D01*
X148716962Y-108951808D01*
X148597762Y-108834956D01*
X148498499Y-108740825D01*
X148415750Y-108666962D01*
X148346091Y-108610911D01*
X148286099Y-108570218D01*
X148232350Y-108542429D01*
X148181421Y-108525088D01*
X148129889Y-108515740D01*
X148074331Y-108511932D01*
X148011322Y-108511208D01*
X147940848Y-108513693D01*
X147796712Y-108539663D01*
X147669427Y-108597089D01*
X147548710Y-108689947D01*
X147502800Y-108736508D01*
X147410634Y-108867495D01*
X147354776Y-109012262D01*
X147336076Y-109165834D01*
X145569791Y-109165834D01*
X145508579Y-109130404D01*
X145329200Y-108981226D01*
X145292133Y-108943325D01*
X145143446Y-108758333D01*
X145030975Y-108555576D01*
X144953979Y-108333471D01*
X144911715Y-108090436D01*
X144897306Y-107944866D01*
X144741167Y-107930402D01*
X144707305Y-107926874D01*
X144472992Y-107879980D01*
X144253388Y-107796091D01*
X144051952Y-107676823D01*
X143872139Y-107523793D01*
X143737117Y-107368926D01*
X143616100Y-107179968D01*
X143533581Y-106982315D01*
X143525584Y-106954971D01*
X143505646Y-106873159D01*
X143487472Y-106781591D01*
X143472568Y-106690158D01*
X143462439Y-106608750D01*
X143458591Y-106547259D01*
X143462529Y-106515574D01*
X143462167Y-106512826D01*
X143437393Y-106503167D01*
X143383528Y-106493376D01*
X143309387Y-106485201D01*
X143257174Y-106479885D01*
X143026564Y-106432821D01*
X142808841Y-106349864D01*
X142609441Y-106233493D01*
X142433798Y-106086184D01*
X142404119Y-106055625D01*
X142260863Y-105877756D01*
X142149208Y-105683397D01*
X142072193Y-105478734D01*
X142032857Y-105269956D01*
X142030578Y-105247372D01*
X142017783Y-105171506D01*
X141995403Y-105115723D01*
X141967381Y-105077151D01*
X142742745Y-105077151D01*
X142744130Y-105198526D01*
X142761518Y-105303997D01*
X142793147Y-105386925D01*
X142868783Y-105508179D01*
X142970143Y-105615475D01*
X143088298Y-105698049D01*
X143120707Y-105715237D01*
X143182552Y-105744073D01*
X143237989Y-105760173D01*
X143302730Y-105767192D01*
X143392491Y-105768783D01*
X143458177Y-105767909D01*
X143538999Y-105761465D01*
X143603812Y-105746493D01*
X143667691Y-105720336D01*
X143684619Y-105710518D01*
X143714198Y-105688961D01*
X143754597Y-105655709D01*
X143807306Y-105609325D01*
X143873815Y-105548370D01*
X143955614Y-105471406D01*
X144054194Y-105376993D01*
X144171044Y-105263693D01*
X144307656Y-105130069D01*
X144465518Y-104974681D01*
X144646122Y-104796092D01*
X144850956Y-104592862D01*
X145081513Y-104363553D01*
X145339280Y-104106726D01*
X145366531Y-104079557D01*
X145612472Y-103834451D01*
X145831452Y-103616448D01*
X146025135Y-103423955D01*
X146195181Y-103255381D01*
X146343254Y-103109132D01*
X146471017Y-102983616D01*
X146580131Y-102877241D01*
X146672259Y-102788413D01*
X146749064Y-102715540D01*
X146812208Y-102657029D01*
X146863353Y-102611289D01*
X146904162Y-102576726D01*
X146936297Y-102551748D01*
X146961422Y-102534761D01*
X146981197Y-102524175D01*
X146997286Y-102518395D01*
X147088174Y-102505442D01*
X147200552Y-102521415D01*
X147299099Y-102572465D01*
X147376998Y-102656118D01*
X147423038Y-102751116D01*
X147441961Y-102863895D01*
X147424296Y-102972547D01*
X147423485Y-102974610D01*
X147410746Y-102995583D01*
X147384705Y-103028985D01*
X147344053Y-103076170D01*
X147287483Y-103138488D01*
X147213685Y-103217293D01*
X147121352Y-103313936D01*
X147009175Y-103429769D01*
X146875847Y-103566145D01*
X146720057Y-103724415D01*
X146540499Y-103905931D01*
X146335864Y-104112046D01*
X146104843Y-104344112D01*
X145846128Y-104603480D01*
X145772092Y-104677669D01*
X145489879Y-104960974D01*
X145236776Y-105215929D01*
X145012706Y-105442610D01*
X144817595Y-105641097D01*
X144651365Y-105811468D01*
X144513940Y-105953801D01*
X144405245Y-106068174D01*
X144325204Y-106154667D01*
X144273739Y-106213356D01*
X144250776Y-106244320D01*
X144197275Y-106387678D01*
X144178041Y-106541502D01*
X144194269Y-106693420D01*
X144243859Y-106837433D01*
X144324713Y-106967541D01*
X144434732Y-107077745D01*
X144571818Y-107162045D01*
X144583356Y-107167301D01*
X144661691Y-107196638D01*
X144740618Y-107211467D01*
X144839960Y-107215756D01*
X144849936Y-107215814D01*
X144889695Y-107216291D01*
X144925826Y-107215985D01*
X144960135Y-107213341D01*
X144994431Y-107206805D01*
X145030518Y-107194823D01*
X145070205Y-107175838D01*
X145115296Y-107148298D01*
X145167601Y-107110647D01*
X145228924Y-107061331D01*
X145301073Y-106998795D01*
X145385854Y-106921484D01*
X145485074Y-106827845D01*
X145600540Y-106716322D01*
X145734058Y-106585361D01*
X145887435Y-106433408D01*
X146062478Y-106258907D01*
X146260994Y-106060305D01*
X146484788Y-105836046D01*
X146735669Y-105584576D01*
X146916801Y-105403282D01*
X147119512Y-105200935D01*
X147313714Y-105007653D01*
X147497386Y-104825422D01*
X147668505Y-104656228D01*
X147825049Y-104502058D01*
X147964996Y-104364898D01*
X148086323Y-104246734D01*
X148187009Y-104149553D01*
X148265032Y-104075341D01*
X148318368Y-104026084D01*
X148344997Y-104003768D01*
X148450575Y-103955066D01*
X148557631Y-103941518D01*
X148658631Y-103960260D01*
X148747966Y-104007172D01*
X148820027Y-104078135D01*
X148869205Y-104169028D01*
X148889890Y-104275732D01*
X148876473Y-104394127D01*
X148875370Y-104398032D01*
X148868827Y-104414949D01*
X148857618Y-104435377D01*
X148840132Y-104461004D01*
X148814756Y-104493515D01*
X148779877Y-104534596D01*
X148733883Y-104585934D01*
X148675161Y-104649216D01*
X148602098Y-104726126D01*
X148513083Y-104818352D01*
X148406503Y-104927579D01*
X148280744Y-105055494D01*
X148134195Y-105203783D01*
X147965243Y-105374132D01*
X147772275Y-105568228D01*
X147553679Y-105787756D01*
X147307843Y-106034402D01*
X147100119Y-106242922D01*
X146898256Y-106445908D01*
X146705901Y-106639679D01*
X146524986Y-106822274D01*
X146357442Y-106991730D01*
X146205201Y-107146087D01*
X146070196Y-107283383D01*
X145954358Y-107401656D01*
X145859620Y-107498944D01*
X145787912Y-107573286D01*
X145741168Y-107622721D01*
X145721320Y-107645286D01*
X145701739Y-107679837D01*
X145670933Y-107750139D01*
X145644564Y-107826989D01*
X145640328Y-107842336D01*
X145620866Y-107992936D01*
X145638026Y-108143119D01*
X145688612Y-108286075D01*
X145769430Y-108414996D01*
X145877283Y-108523072D01*
X146008977Y-108603495D01*
X146142308Y-108647831D01*
X146298384Y-108663838D01*
X146450004Y-108642419D01*
X146503622Y-108625291D01*
X146633811Y-108562445D01*
X146762437Y-108468012D01*
X146895300Y-108338027D01*
X146976133Y-108253326D01*
X147150824Y-108094673D01*
X147324288Y-107972661D01*
X147500868Y-107884932D01*
X147684904Y-107829130D01*
X147880736Y-107802897D01*
X148057505Y-107792252D01*
X148062114Y-107736924D01*
X148783496Y-107736924D01*
X148806459Y-107890384D01*
X148867130Y-108040945D01*
X148872730Y-108050139D01*
X148909761Y-108098381D01*
X148971090Y-108169017D01*
X149052696Y-108258045D01*
X149150557Y-108361459D01*
X149260650Y-108475258D01*
X149378953Y-108595439D01*
X149501446Y-108717997D01*
X149624105Y-108838930D01*
X149742909Y-108954235D01*
X149853835Y-109059909D01*
X149952863Y-109151947D01*
X150035970Y-109226348D01*
X150099134Y-109279108D01*
X150138333Y-109306223D01*
X150197588Y-109328190D01*
X150296769Y-109349115D01*
X150407422Y-109360663D01*
X150513428Y-109361317D01*
X150598670Y-109349560D01*
X150706858Y-109309177D01*
X150838837Y-109225400D01*
X150950621Y-109113398D01*
X151034079Y-108980068D01*
X151049077Y-108946459D01*
X151072303Y-108877349D01*
X151083903Y-108802630D01*
X151087248Y-108704868D01*
X151086969Y-108653562D01*
X151084077Y-108595488D01*
X151076114Y-108542115D01*
X151060682Y-108490114D01*
X151035382Y-108436155D01*
X150997814Y-108376909D01*
X150945580Y-108309046D01*
X150876280Y-108229236D01*
X150787516Y-108134150D01*
X150676887Y-108020457D01*
X150541995Y-107884830D01*
X150380441Y-107723937D01*
X150368705Y-107712272D01*
X150221861Y-107566580D01*
X150100443Y-107446869D01*
X150001370Y-107350392D01*
X149921561Y-107274403D01*
X149857934Y-107216157D01*
X149807409Y-107172906D01*
X149766904Y-107141906D01*
X149733338Y-107120409D01*
X149703629Y-107105669D01*
X149674697Y-107094941D01*
X149595899Y-107075627D01*
X149447782Y-107065365D01*
X149297551Y-107083160D01*
X149161511Y-107127962D01*
X149032320Y-107207033D01*
X148922655Y-107315620D01*
X148843415Y-107443895D01*
X148796422Y-107586212D01*
X148783496Y-107736924D01*
X148062114Y-107736924D01*
X148071732Y-107621454D01*
X148082280Y-107535523D01*
X148123863Y-107351381D01*
X148187557Y-107170090D01*
X148267509Y-107009935D01*
X148314780Y-106940443D01*
X148404551Y-106832433D01*
X148509914Y-106724692D01*
X148619076Y-106629013D01*
X148720244Y-106557189D01*
X148774464Y-106525938D01*
X148983964Y-106429066D01*
X149192138Y-106370213D01*
X149395733Y-106350373D01*
X149502078Y-106350373D01*
X149502150Y-106349519D01*
X150234438Y-106349519D01*
X150270507Y-106513455D01*
X150270693Y-106514003D01*
X150282112Y-106543960D01*
X150297370Y-106574433D01*
X150319251Y-106608562D01*
X150350540Y-106649482D01*
X150394023Y-106700332D01*
X150452485Y-106764249D01*
X150528711Y-106844370D01*
X150625486Y-106943833D01*
X150745596Y-107065774D01*
X150891825Y-107213331D01*
X151045461Y-107367352D01*
X151189053Y-107509353D01*
X151308262Y-107624751D01*
X151404883Y-107715222D01*
X151480710Y-107782443D01*
X151537538Y-107828094D01*
X151577162Y-107853849D01*
X151592601Y-107861613D01*
X151662896Y-107889488D01*
X151740564Y-107905307D01*
X151842170Y-107912751D01*
X151877962Y-107913674D01*
X152014194Y-107905855D01*
X152128255Y-107875492D01*
X152232227Y-107818116D01*
X152338194Y-107729256D01*
X152354496Y-107713320D01*
X152434091Y-107618486D01*
X152487794Y-107514560D01*
X152523887Y-107386244D01*
X152534512Y-107321006D01*
X152536885Y-107230409D01*
X152522523Y-107132464D01*
X152490137Y-107012893D01*
X152482242Y-106990505D01*
X152468415Y-106961548D01*
X152447578Y-106928468D01*
X152416990Y-106888190D01*
X152373910Y-106837640D01*
X152315596Y-106773744D01*
X152239307Y-106693427D01*
X152142302Y-106593616D01*
X152021840Y-106471235D01*
X151875179Y-106323210D01*
X151740895Y-106188076D01*
X151603223Y-106050503D01*
X151488006Y-105937508D01*
X151391866Y-105846669D01*
X151311427Y-105775566D01*
X151243316Y-105721777D01*
X151184154Y-105682882D01*
X151130567Y-105656461D01*
X151079179Y-105640091D01*
X151026614Y-105631353D01*
X150969496Y-105627826D01*
X150904449Y-105627089D01*
X150896942Y-105627079D01*
X150801827Y-105629048D01*
X150731830Y-105636778D01*
X150672370Y-105652880D01*
X150608863Y-105679960D01*
X150578490Y-105695286D01*
X150446566Y-105787307D01*
X150344157Y-105903771D01*
X150273304Y-106039647D01*
X150236051Y-106189906D01*
X150234438Y-106349519D01*
X149502150Y-106349519D01*
X149515019Y-106197284D01*
X149530995Y-106056404D01*
X149556117Y-105934289D01*
X149594829Y-105817407D01*
X149651945Y-105687853D01*
X149762772Y-105495577D01*
X149909095Y-105318239D01*
X150085531Y-105168125D01*
X150292892Y-105044419D01*
X150309204Y-105036463D01*
X150488964Y-104965335D01*
X150673508Y-104919750D01*
X150848390Y-104903376D01*
X150955412Y-104903022D01*
X150955412Y-104831673D01*
X151679756Y-104831673D01*
X151680033Y-104882945D01*
X151682923Y-104941034D01*
X151690882Y-104994415D01*
X151706309Y-105046417D01*
X151731604Y-105100372D01*
X151769167Y-105159607D01*
X151821399Y-105227454D01*
X151890697Y-105307243D01*
X151979463Y-105402301D01*
X152090096Y-105515961D01*
X152224996Y-105651551D01*
X152386563Y-105812400D01*
X152481035Y-105906169D01*
X152615224Y-106038746D01*
X152725595Y-106146673D01*
X152815159Y-106232657D01*
X152886927Y-106299403D01*
X152943909Y-106349616D01*
X152989117Y-106386002D01*
X153025562Y-106411265D01*
X153056254Y-106428111D01*
X153084204Y-106439246D01*
X153152824Y-106457867D01*
X153305609Y-106474038D01*
X153457854Y-106459385D01*
X153595755Y-106414573D01*
X153688272Y-106361725D01*
X153806891Y-106259137D01*
X153896689Y-106135089D01*
X153955441Y-105995505D01*
X153980922Y-105846309D01*
X153970907Y-105693426D01*
X153923172Y-105542778D01*
X153920681Y-105537414D01*
X153902462Y-105503045D01*
X153877704Y-105465142D01*
X153843575Y-105420589D01*
X153797243Y-105366272D01*
X153735875Y-105299074D01*
X153656639Y-105215882D01*
X153556702Y-105113580D01*
X153433231Y-104989053D01*
X153283395Y-104839186D01*
X153256078Y-104811939D01*
X153114008Y-104670508D01*
X152996905Y-104554702D01*
X152901577Y-104461686D01*
X152824835Y-104388625D01*
X152763489Y-104332683D01*
X152714348Y-104291025D01*
X152674223Y-104260816D01*
X152639923Y-104239222D01*
X152608258Y-104223406D01*
X152576038Y-104210533D01*
X152514754Y-104191292D01*
X152358599Y-104169730D01*
X152204421Y-104184465D01*
X152058490Y-104232933D01*
X151927076Y-104312573D01*
X151816450Y-104420821D01*
X151732882Y-104555116D01*
X151718709Y-104587180D01*
X151695035Y-104657639D01*
X151683181Y-104733253D01*
X151679756Y-104831673D01*
X150955412Y-104831673D01*
X150955412Y-104810429D01*
X150962527Y-104698343D01*
X150997514Y-104518876D01*
X151057842Y-104335460D01*
X151139191Y-104160417D01*
X151237245Y-104006072D01*
X151331782Y-103895802D01*
X151489829Y-103755529D01*
X151670001Y-103635807D01*
X151862173Y-103543094D01*
X152056215Y-103483847D01*
X152118739Y-103473010D01*
X152276510Y-103460517D01*
X152445157Y-103463765D01*
X152608239Y-103482025D01*
X152749312Y-103514569D01*
X152806176Y-103533429D01*
X152871770Y-103558576D01*
X152934567Y-103588057D01*
X152998047Y-103624631D01*
X153065685Y-103671056D01*
X153140960Y-103730088D01*
X153227349Y-103804485D01*
X153328330Y-103897004D01*
X153447381Y-104010403D01*
X153587979Y-104147439D01*
X153753602Y-104310870D01*
X154360379Y-104911734D01*
X154545294Y-104729007D01*
X154552719Y-104721656D01*
X154860441Y-104388994D01*
X155132112Y-104037403D01*
X155367544Y-103667249D01*
X155566551Y-103278898D01*
X155728943Y-102872715D01*
X155854533Y-102449067D01*
X155943133Y-102008319D01*
X155948973Y-101967220D01*
X155963445Y-101823086D01*
X155973556Y-101653689D01*
X155979308Y-101468429D01*
X155980704Y-101276706D01*
X155977747Y-101087920D01*
X155970438Y-100911473D01*
X155958780Y-100756763D01*
X155942776Y-100633191D01*
X155900922Y-100418675D01*
X155797582Y-100026979D01*
X155663432Y-99661225D01*
X155497646Y-99320002D01*
X155299400Y-99001903D01*
X155067868Y-98705519D01*
X154802224Y-98429439D01*
X154501645Y-98172257D01*
X154274363Y-98006905D01*
X154029679Y-97855241D01*
X153766204Y-97718546D01*
X153472988Y-97590632D01*
X153312614Y-97530590D01*
X152952032Y-97425645D01*
X152576765Y-97354699D01*
X152192379Y-97317901D01*
X151804442Y-97315402D01*
X151418520Y-97347351D01*
X151040182Y-97413900D01*
X150674994Y-97515197D01*
X150553689Y-97558435D01*
X150328928Y-97651884D01*
X150100192Y-97762379D01*
X149874775Y-97885590D01*
X149659970Y-98017189D01*
X149463068Y-98152848D01*
X149291363Y-98288239D01*
X149152147Y-98419034D01*
X149091820Y-98482621D01*
X150438316Y-99832669D01*
X150613772Y-100008648D01*
X150823017Y-100218758D01*
X151006443Y-100403320D01*
X151165803Y-100564174D01*
X151302848Y-100703157D01*
X151419330Y-100822108D01*
X151517001Y-100922866D01*
X151597615Y-101007270D01*
X151662921Y-101077157D01*
X151714674Y-101134368D01*
X151754624Y-101180740D01*
X151784524Y-101218112D01*
X151806126Y-101248322D01*
X151821182Y-101273210D01*
X151831444Y-101294614D01*
X151863864Y-101383693D01*
X151902443Y-101569177D01*
X151903019Y-101696373D01*
X151903266Y-101751058D01*
X151867954Y-101925004D01*
X151798125Y-102086681D01*
X151695399Y-102231756D01*
X151561397Y-102355898D01*
X151397737Y-102454772D01*
X151331154Y-102485141D01*
X151050831Y-102585930D01*
X150758431Y-102650627D01*
X150459223Y-102679282D01*
X150158475Y-102671947D01*
X149861455Y-102628672D01*
X149573431Y-102549508D01*
X149299672Y-102434507D01*
X149229369Y-102398619D01*
X149158390Y-102360286D01*
X149091086Y-102320643D01*
X149024520Y-102277171D01*
X148955753Y-102227354D01*
X148881848Y-102168671D01*
X148799866Y-102098604D01*
X148706869Y-102014636D01*
X148599918Y-101914248D01*
X148476075Y-101794921D01*
X148332402Y-101654138D01*
X148165961Y-101489379D01*
X147973812Y-101298127D01*
X147122470Y-100449440D01*
X144981865Y-102589593D01*
X144890234Y-102681219D01*
X144582909Y-102988773D01*
X144303447Y-103268861D01*
X144050950Y-103522399D01*
X143824521Y-103750306D01*
X143623259Y-103953499D01*
X143446268Y-104132896D01*
X143292648Y-104289413D01*
X143161502Y-104423968D01*
X143051930Y-104537480D01*
X142963035Y-104630864D01*
X142893917Y-104705039D01*
X142843679Y-104760921D01*
X142811422Y-104799430D01*
X142796248Y-104821481D01*
X142783290Y-104851946D01*
X142756190Y-104956187D01*
X142742745Y-105077151D01*
X141967381Y-105077151D01*
X141957334Y-105063321D01*
X141933173Y-105034965D01*
X141880388Y-104973024D01*
X141815975Y-104897445D01*
X141748857Y-104818698D01*
X141655034Y-104703078D01*
X141504563Y-104496654D01*
X141357383Y-104271091D01*
X141220422Y-104037796D01*
X141100606Y-103808173D01*
X141004861Y-103593627D01*
X140955474Y-103466430D01*
X140824908Y-103076369D01*
X140729728Y-102692511D01*
X140668560Y-102306910D01*
X140640030Y-101911618D01*
X140641610Y-101673155D01*
X141344831Y-101673155D01*
X141359534Y-102079322D01*
X141413856Y-102487865D01*
X141443174Y-102635397D01*
X141505206Y-102881977D01*
X141584069Y-103122310D01*
X141683790Y-103368060D01*
X141808396Y-103630892D01*
X141814472Y-103642807D01*
X141866159Y-103736726D01*
X141933339Y-103850021D01*
X142009019Y-103971653D01*
X142086206Y-104090582D01*
X142157908Y-104195770D01*
X142217132Y-104276176D01*
X142236037Y-104297536D01*
X142253165Y-104309404D01*
X142257755Y-104305129D01*
X142287582Y-104275781D01*
X142343791Y-104219912D01*
X142424838Y-104139070D01*
X142529177Y-104034805D01*
X142655263Y-103908664D01*
X142801551Y-103762196D01*
X142966495Y-103596949D01*
X143148550Y-103414471D01*
X143346171Y-103216311D01*
X143557813Y-103004017D01*
X143781930Y-102779136D01*
X144016976Y-102543219D01*
X144261408Y-102297812D01*
X144513678Y-102044464D01*
X144635569Y-101922065D01*
X144886388Y-101670380D01*
X145129620Y-101426549D01*
X145363636Y-101192193D01*
X145586811Y-100968932D01*
X145797517Y-100758386D01*
X145994128Y-100562176D01*
X146175016Y-100381923D01*
X146338554Y-100219247D01*
X146483117Y-100075768D01*
X146607076Y-99953107D01*
X146708806Y-99852885D01*
X146786678Y-99776721D01*
X146839067Y-99726237D01*
X146864345Y-99703052D01*
X146896590Y-99678356D01*
X147003259Y-99617063D01*
X147105710Y-99592773D01*
X147209625Y-99603852D01*
X147218033Y-99606429D01*
X147239378Y-99615935D01*
X147265843Y-99632215D01*
X147299577Y-99657279D01*
X147342730Y-99693138D01*
X147397451Y-99741803D01*
X147465889Y-99805286D01*
X147550193Y-99885598D01*
X147652514Y-99984749D01*
X147775000Y-100104750D01*
X147919802Y-100247614D01*
X148089067Y-100415350D01*
X148284946Y-100609970D01*
X148442427Y-100766182D01*
X148628394Y-100949546D01*
X148798887Y-101116390D01*
X148952034Y-101264920D01*
X149085960Y-101393343D01*
X149198795Y-101499865D01*
X149288664Y-101582693D01*
X149353697Y-101640034D01*
X149392019Y-101670095D01*
X149459372Y-101711509D01*
X149617246Y-101795028D01*
X149782254Y-101866938D01*
X149936150Y-101918896D01*
X149938899Y-101919642D01*
X150030404Y-101936852D01*
X150150022Y-101948999D01*
X150286344Y-101955945D01*
X150427960Y-101957553D01*
X150563462Y-101953685D01*
X150681440Y-101944203D01*
X150770484Y-101928969D01*
X150821922Y-101914619D01*
X150960979Y-101866962D01*
X151099388Y-101808821D01*
X151217280Y-101748235D01*
X151305873Y-101696373D01*
X149943203Y-100332054D01*
X149916023Y-100304847D01*
X149716179Y-100105170D01*
X149521400Y-99911170D01*
X149334051Y-99725172D01*
X149156501Y-99549500D01*
X148991116Y-99386478D01*
X148840265Y-99238430D01*
X148706315Y-99107681D01*
X148591633Y-98996555D01*
X148498587Y-98907375D01*
X148429545Y-98842467D01*
X148386873Y-98804155D01*
X148230196Y-98678652D01*
X147929763Y-98469134D01*
X147606718Y-98279065D01*
X147270167Y-98113173D01*
X146929216Y-97976185D01*
X146592972Y-97872829D01*
X146425904Y-97831342D01*
X146244156Y-97791100D01*
X146077526Y-97761317D01*
X145914868Y-97740632D01*
X145745038Y-97727681D01*
X145556890Y-97721102D01*
X145339280Y-97719531D01*
X145267009Y-97719733D01*
X145120954Y-97720798D01*
X145003915Y-97723166D01*
X144907626Y-97727437D01*
X144823821Y-97734207D01*
X144744233Y-97744073D01*
X144660595Y-97757631D01*
X144564642Y-97775480D01*
X144474334Y-97793679D01*
X144094957Y-97889888D01*
X143743379Y-98013504D01*
X143416150Y-98166308D01*
X143109818Y-98350082D01*
X142820931Y-98566608D01*
X142546038Y-98817668D01*
X142288525Y-99099917D01*
X142046803Y-99421651D01*
X141839473Y-99762711D01*
X141667280Y-100120676D01*
X141530973Y-100493124D01*
X141431298Y-100877634D01*
X141369001Y-101271785D01*
X141344831Y-101673155D01*
X140641610Y-101673155D01*
X140642766Y-101498688D01*
X140661337Y-101228679D01*
X140720916Y-100807611D01*
X140818125Y-100397297D01*
X140954002Y-99993671D01*
X141129587Y-99592669D01*
X141182514Y-99487585D01*
X141393202Y-99122338D01*
X141633658Y-98779075D01*
X141901205Y-98460531D01*
X142193166Y-98169441D01*
X142506863Y-97908542D01*
X142839620Y-97680568D01*
X143188761Y-97488257D01*
X143449560Y-97369942D01*
X143833734Y-97227503D01*
X144229661Y-97118701D01*
X144646182Y-97040822D01*
X144763610Y-97026991D01*
X144936277Y-97014459D01*
X145130824Y-97006813D01*
X145337004Y-97004049D01*
X145544572Y-97006158D01*
X145743283Y-97013137D01*
X145922890Y-97024977D01*
X146073149Y-97041674D01*
X146163699Y-97055486D01*
X146627714Y-97149115D01*
X147077549Y-97278437D01*
X147510204Y-97442344D01*
X147922680Y-97639727D01*
X148311981Y-97869476D01*
X148532674Y-98013338D01*
X148589558Y-97967209D01*
X148612126Y-97948382D01*
X148666028Y-97902045D01*
X148734656Y-97842059D01*
X148808529Y-97776673D01*
X148909354Y-97689822D01*
X149229281Y-97447945D01*
X149576504Y-97231383D01*
X149945742Y-97042654D01*
X150331716Y-96884275D01*
X150729145Y-96758764D01*
X151132748Y-96668638D01*
X151171196Y-96662006D01*
X151602846Y-96609740D01*
X152036970Y-96596940D01*
X152470227Y-96622967D01*
X152899277Y-96687184D01*
X153320777Y-96788951D01*
X153731386Y-96927631D01*
X154127764Y-97102585D01*
X154506570Y-97313175D01*
X154644308Y-97401683D01*
X154978561Y-97645969D01*
X155288884Y-97916056D01*
X155572086Y-98208470D01*
X155824975Y-98519742D01*
X156044359Y-98846397D01*
X156227048Y-99184964D01*
X156267772Y-99272803D01*
X156432739Y-99686701D01*
X156558984Y-100111329D01*
X156646449Y-100544841D01*
X156695078Y-100985394D01*
X156701440Y-101276706D01*
X156704813Y-101431141D01*
X156675594Y-101880238D01*
X156607366Y-102330839D01*
X156500070Y-102781099D01*
X156353648Y-103229173D01*
X156305214Y-103356631D01*
X156233285Y-103532904D01*
X156160169Y-103693564D01*
X156079081Y-103853213D01*
X155983235Y-104026457D01*
X155947917Y-104087757D01*
X155844598Y-104259007D01*
X155741173Y-104416457D01*
X155632433Y-104566748D01*
X155513169Y-104716524D01*
X155378173Y-104872427D01*
X155222237Y-105041100D01*
X155040151Y-105229185D01*
X154688954Y-105585927D01*
X154688901Y-105799972D01*
X154688219Y-105846309D01*
X154687891Y-105868568D01*
X154670708Y-106066072D01*
G37*
G36*
X131525733Y-106277705D02*
G01*
X131606270Y-106334953D01*
X131685571Y-106421667D01*
X131751335Y-106523751D01*
X131796145Y-106629572D01*
X131812582Y-106727500D01*
X131803446Y-106799636D01*
X131767096Y-106865639D01*
X131696782Y-106924486D01*
X131689924Y-106928856D01*
X131608183Y-106958507D01*
X131520289Y-106949454D01*
X131423621Y-106901476D01*
X131373008Y-106863934D01*
X131282936Y-106772293D01*
X131215808Y-106668426D01*
X131174985Y-106559987D01*
X131163830Y-106454627D01*
X131185705Y-106359996D01*
X131207319Y-106326141D01*
X131269703Y-106278199D01*
X131351193Y-106252300D01*
X131440350Y-106251212D01*
X131525733Y-106277705D01*
G37*
D11*
%TO.C,J4*%
X236790000Y-109110000D02*
X190950000Y-109110000D01*
X236790000Y-106450000D02*
X190950000Y-106450000D01*
X190950000Y-109110000D02*
X190950000Y-106450000D01*
X236790000Y-109110000D02*
X236790000Y-106450000D01*
%TO.C,J3*%
X190950000Y-101490000D02*
X190950000Y-98830000D01*
X236790000Y-101490000D02*
X190950000Y-101490000D01*
X236790000Y-101490000D02*
X236790000Y-98830000D01*
X236790000Y-98830000D02*
X190950000Y-98830000D01*
%TD*%
M02*
