%TF.GenerationSoftware,KiCad,Pcbnew,(6.0.6)*%
%TF.CreationDate,2022-07-11T13:14:15+02:00*%
%TF.ProjectId,ESP32_DevKit_C_v4-AZDelivery_Breadboard_Adapter,45535033-325f-4446-9576-4b69745f435f,2*%
%TF.SameCoordinates,Original*%
%TF.FileFunction,Legend,Top*%
%TF.FilePolarity,Positive*%
%FSLAX46Y46*%
G04 Gerber Fmt 4.6, Leading zero omitted, Abs format (unit mm)*
G04 Created by KiCad (PCBNEW (6.0.6)) date 2022-07-11 13:14:15*
%MOMM*%
%LPD*%
G01*
G04 APERTURE LIST*
%ADD10C,0.150000*%
%ADD11C,0.120000*%
G04 APERTURE END LIST*
D10*
X170620000Y-97620000D02*
X180900000Y-97620000D01*
X180900000Y-97620000D02*
X180900000Y-92920000D01*
X236520000Y-103960000D02*
X190920000Y-103960000D01*
X173320000Y-92980000D02*
X173320000Y-97620000D01*
X128760000Y-114950000D02*
X129760000Y-113950000D01*
X128755400Y-92950000D02*
X129755400Y-93950000D01*
X178290000Y-92990000D02*
X178290000Y-97590000D01*
X128755400Y-93950000D02*
X128760000Y-113950000D01*
X127755400Y-93950000D02*
X129755400Y-93950000D01*
X170650000Y-92940000D02*
X170650000Y-97610000D01*
X129760000Y-113950000D02*
X127760000Y-113950000D01*
X180900000Y-92920000D02*
X170650000Y-92920000D01*
X109400000Y-99950000D02*
X104400000Y-99950000D01*
X104400000Y-99950000D02*
X104400000Y-107950000D01*
X104400000Y-107950000D02*
X109400000Y-107950000D01*
X109400000Y-107950000D02*
X109400000Y-99950000D01*
X128755400Y-92950000D02*
X127755400Y-93950000D01*
X175890000Y-92990000D02*
X175890000Y-97615000D01*
X162760000Y-89800000D02*
X188530000Y-89800000D01*
X188530000Y-89800000D02*
X188530000Y-116850000D01*
X188530000Y-116850000D02*
X162760000Y-116850000D01*
X162760000Y-116850000D02*
X162760000Y-89800000D01*
X128760000Y-114950000D02*
X127760000Y-113950000D01*
X235760000Y-105036857D02*
X235788571Y-104979714D01*
X235788571Y-104894000D01*
X235760000Y-104808285D01*
X235702857Y-104751142D01*
X235645714Y-104722571D01*
X235531428Y-104694000D01*
X235445714Y-104694000D01*
X235331428Y-104722571D01*
X235274285Y-104751142D01*
X235217142Y-104808285D01*
X235188571Y-104894000D01*
X235188571Y-104951142D01*
X235217142Y-105036857D01*
X235245714Y-105065428D01*
X235445714Y-105065428D01*
X235445714Y-104951142D01*
X235188571Y-105322571D02*
X235788571Y-105322571D01*
X235188571Y-105665428D01*
X235788571Y-105665428D01*
X235188571Y-105951142D02*
X235788571Y-105951142D01*
X235788571Y-106094000D01*
X235760000Y-106179714D01*
X235702857Y-106236857D01*
X235645714Y-106265428D01*
X235531428Y-106294000D01*
X235445714Y-106294000D01*
X235331428Y-106265428D01*
X235274285Y-106236857D01*
X235217142Y-106179714D01*
X235188571Y-106094000D01*
X235188571Y-105951142D01*
X199628571Y-105379714D02*
X199628571Y-105036857D01*
X199628571Y-105208285D02*
X200228571Y-105208285D01*
X200142857Y-105151142D01*
X200085714Y-105094000D01*
X200057142Y-105036857D01*
X200228571Y-105922571D02*
X200228571Y-105636857D01*
X199942857Y-105608285D01*
X199971428Y-105636857D01*
X200000000Y-105694000D01*
X200000000Y-105836857D01*
X199971428Y-105894000D01*
X199942857Y-105922571D01*
X199885714Y-105951142D01*
X199742857Y-105951142D01*
X199685714Y-105922571D01*
X199657142Y-105894000D01*
X199628571Y-105836857D01*
X199628571Y-105694000D01*
X199657142Y-105636857D01*
X199685714Y-105608285D01*
X174438571Y-93754285D02*
X174438571Y-94516190D01*
X174057619Y-94135238D02*
X174819523Y-94135238D01*
X175057619Y-95468571D02*
X175057619Y-94992380D01*
X174581428Y-94944761D01*
X174629047Y-94992380D01*
X174676666Y-95087619D01*
X174676666Y-95325714D01*
X174629047Y-95420952D01*
X174581428Y-95468571D01*
X174486190Y-95516190D01*
X174248095Y-95516190D01*
X174152857Y-95468571D01*
X174105238Y-95420952D01*
X174057619Y-95325714D01*
X174057619Y-95087619D01*
X174105238Y-94992380D01*
X174152857Y-94944761D01*
X175057619Y-95801904D02*
X174057619Y-96135238D01*
X175057619Y-96468571D01*
X207248571Y-102331714D02*
X207248571Y-101988857D01*
X207248571Y-102160285D02*
X207848571Y-102160285D01*
X207762857Y-102103142D01*
X207705714Y-102046000D01*
X207677142Y-101988857D01*
X207648571Y-102846000D02*
X207248571Y-102846000D01*
X207877142Y-102703142D02*
X207448571Y-102560285D01*
X207448571Y-102931714D01*
X136880000Y-112024095D02*
X136927619Y-111928857D01*
X136927619Y-111786000D01*
X136880000Y-111643142D01*
X136784761Y-111547904D01*
X136689523Y-111500285D01*
X136499047Y-111452666D01*
X136356190Y-111452666D01*
X136165714Y-111500285D01*
X136070476Y-111547904D01*
X135975238Y-111643142D01*
X135927619Y-111786000D01*
X135927619Y-111881238D01*
X135975238Y-112024095D01*
X136022857Y-112071714D01*
X136356190Y-112071714D01*
X136356190Y-111881238D01*
X135927619Y-112500285D02*
X136927619Y-112500285D01*
X135927619Y-113071714D01*
X136927619Y-113071714D01*
X135927619Y-113547904D02*
X136927619Y-113547904D01*
X136927619Y-113786000D01*
X136880000Y-113928857D01*
X136784761Y-114024095D01*
X136689523Y-114071714D01*
X136499047Y-114119333D01*
X136356190Y-114119333D01*
X136165714Y-114071714D01*
X136070476Y-114024095D01*
X135975238Y-113928857D01*
X135927619Y-113786000D01*
X135927619Y-113547904D01*
X223031428Y-105036857D02*
X223060000Y-105065428D01*
X223088571Y-105122571D01*
X223088571Y-105265428D01*
X223060000Y-105322571D01*
X223031428Y-105351142D01*
X222974285Y-105379714D01*
X222917142Y-105379714D01*
X222831428Y-105351142D01*
X222488571Y-105008285D01*
X222488571Y-105379714D01*
X222488571Y-105951142D02*
X222488571Y-105608285D01*
X222488571Y-105779714D02*
X223088571Y-105779714D01*
X223002857Y-105722571D01*
X222945714Y-105665428D01*
X222917142Y-105608285D01*
X215468571Y-105890857D02*
X215468571Y-105605142D01*
X215182857Y-105576571D01*
X215211428Y-105605142D01*
X215240000Y-105662285D01*
X215240000Y-105805142D01*
X215211428Y-105862285D01*
X215182857Y-105890857D01*
X215125714Y-105919428D01*
X214982857Y-105919428D01*
X214925714Y-105890857D01*
X214897142Y-105862285D01*
X214868571Y-105805142D01*
X214868571Y-105662285D01*
X214897142Y-105605142D01*
X214925714Y-105576571D01*
X192237142Y-101928571D02*
X192237142Y-102385714D01*
X192008571Y-102157142D02*
X192465714Y-102157142D01*
X192608571Y-102957142D02*
X192608571Y-102671428D01*
X192322857Y-102642857D01*
X192351428Y-102671428D01*
X192380000Y-102728571D01*
X192380000Y-102871428D01*
X192351428Y-102928571D01*
X192322857Y-102957142D01*
X192265714Y-102985714D01*
X192122857Y-102985714D01*
X192065714Y-102957142D01*
X192037142Y-102928571D01*
X192008571Y-102871428D01*
X192008571Y-102728571D01*
X192037142Y-102671428D01*
X192065714Y-102642857D01*
X192608571Y-103157142D02*
X192008571Y-103357142D01*
X192608571Y-103557142D01*
X215411428Y-101988857D02*
X215440000Y-102017428D01*
X215468571Y-102074571D01*
X215468571Y-102217428D01*
X215440000Y-102274571D01*
X215411428Y-102303142D01*
X215354285Y-102331714D01*
X215297142Y-102331714D01*
X215211428Y-102303142D01*
X214868571Y-101960285D01*
X214868571Y-102331714D01*
X215468571Y-102874571D02*
X215468571Y-102588857D01*
X215182857Y-102560285D01*
X215211428Y-102588857D01*
X215240000Y-102646000D01*
X215240000Y-102788857D01*
X215211428Y-102846000D01*
X215182857Y-102874571D01*
X215125714Y-102903142D01*
X214982857Y-102903142D01*
X214925714Y-102874571D01*
X214897142Y-102846000D01*
X214868571Y-102788857D01*
X214868571Y-102646000D01*
X214897142Y-102588857D01*
X214925714Y-102560285D01*
X233191428Y-105036857D02*
X233220000Y-105065428D01*
X233248571Y-105122571D01*
X233248571Y-105265428D01*
X233220000Y-105322571D01*
X233191428Y-105351142D01*
X233134285Y-105379714D01*
X233077142Y-105379714D01*
X232991428Y-105351142D01*
X232648571Y-105008285D01*
X232648571Y-105379714D01*
X233248571Y-105579714D02*
X233248571Y-105951142D01*
X233020000Y-105751142D01*
X233020000Y-105836857D01*
X232991428Y-105894000D01*
X232962857Y-105922571D01*
X232905714Y-105951142D01*
X232762857Y-105951142D01*
X232705714Y-105922571D01*
X232677142Y-105894000D01*
X232648571Y-105836857D01*
X232648571Y-105665428D01*
X232677142Y-105608285D01*
X232705714Y-105579714D01*
X151548571Y-93514000D02*
X151548571Y-94275904D01*
X151167619Y-93894952D02*
X151929523Y-93894952D01*
X152167619Y-94656857D02*
X152167619Y-95275904D01*
X151786666Y-94942571D01*
X151786666Y-95085428D01*
X151739047Y-95180666D01*
X151691428Y-95228285D01*
X151596190Y-95275904D01*
X151358095Y-95275904D01*
X151262857Y-95228285D01*
X151215238Y-95180666D01*
X151167619Y-95085428D01*
X151167619Y-94799714D01*
X151215238Y-94704476D01*
X151262857Y-94656857D01*
X151262857Y-95704476D02*
X151215238Y-95752095D01*
X151167619Y-95704476D01*
X151215238Y-95656857D01*
X151262857Y-95704476D01*
X151167619Y-95704476D01*
X152167619Y-96085428D02*
X152167619Y-96704476D01*
X151786666Y-96371142D01*
X151786666Y-96514000D01*
X151739047Y-96609238D01*
X151691428Y-96656857D01*
X151596190Y-96704476D01*
X151358095Y-96704476D01*
X151262857Y-96656857D01*
X151215238Y-96609238D01*
X151167619Y-96514000D01*
X151167619Y-96228285D01*
X151215238Y-96133047D01*
X151262857Y-96085428D01*
X152167619Y-96990190D02*
X151167619Y-97323523D01*
X152167619Y-97656857D01*
X105828571Y-93466285D02*
X105828571Y-94228190D01*
X105447619Y-93847238D02*
X106209523Y-93847238D01*
X106447619Y-95180571D02*
X106447619Y-94704380D01*
X105971428Y-94656761D01*
X106019047Y-94704380D01*
X106066666Y-94799619D01*
X106066666Y-95037714D01*
X106019047Y-95132952D01*
X105971428Y-95180571D01*
X105876190Y-95228190D01*
X105638095Y-95228190D01*
X105542857Y-95180571D01*
X105495238Y-95132952D01*
X105447619Y-95037714D01*
X105447619Y-94799619D01*
X105495238Y-94704380D01*
X105542857Y-94656761D01*
X106447619Y-95513904D02*
X105447619Y-95847238D01*
X106447619Y-96180571D01*
X225628571Y-101960285D02*
X225628571Y-102331714D01*
X225400000Y-102131714D01*
X225400000Y-102217428D01*
X225371428Y-102274571D01*
X225342857Y-102303142D01*
X225285714Y-102331714D01*
X225142857Y-102331714D01*
X225085714Y-102303142D01*
X225057142Y-102274571D01*
X225028571Y-102217428D01*
X225028571Y-102046000D01*
X225057142Y-101988857D01*
X225085714Y-101960285D01*
X225428571Y-102846000D02*
X225028571Y-102846000D01*
X225657142Y-102703142D02*
X225228571Y-102560285D01*
X225228571Y-102931714D01*
X199628571Y-102077714D02*
X199628571Y-102192000D01*
X199657142Y-102249142D01*
X199685714Y-102277714D01*
X199771428Y-102334857D01*
X199885714Y-102363428D01*
X200114285Y-102363428D01*
X200171428Y-102334857D01*
X200200000Y-102306285D01*
X200228571Y-102249142D01*
X200228571Y-102134857D01*
X200200000Y-102077714D01*
X200171428Y-102049142D01*
X200114285Y-102020571D01*
X199971428Y-102020571D01*
X199914285Y-102049142D01*
X199885714Y-102077714D01*
X199857142Y-102134857D01*
X199857142Y-102249142D01*
X199885714Y-102306285D01*
X199914285Y-102334857D01*
X199971428Y-102363428D01*
X197431428Y-105690857D02*
X197460000Y-105633714D01*
X197488571Y-105605142D01*
X197545714Y-105576571D01*
X197574285Y-105576571D01*
X197631428Y-105605142D01*
X197660000Y-105633714D01*
X197688571Y-105690857D01*
X197688571Y-105805142D01*
X197660000Y-105862285D01*
X197631428Y-105890857D01*
X197574285Y-105919428D01*
X197545714Y-105919428D01*
X197488571Y-105890857D01*
X197460000Y-105862285D01*
X197431428Y-105805142D01*
X197431428Y-105690857D01*
X197402857Y-105633714D01*
X197374285Y-105605142D01*
X197317142Y-105576571D01*
X197202857Y-105576571D01*
X197145714Y-105605142D01*
X197117142Y-105633714D01*
X197088571Y-105690857D01*
X197088571Y-105805142D01*
X197117142Y-105862285D01*
X197145714Y-105890857D01*
X197202857Y-105919428D01*
X197317142Y-105919428D01*
X197374285Y-105890857D01*
X197402857Y-105862285D01*
X197431428Y-105805142D01*
X217408571Y-105379714D02*
X217408571Y-105036857D01*
X217408571Y-105208285D02*
X218008571Y-105208285D01*
X217922857Y-105151142D01*
X217865714Y-105094000D01*
X217837142Y-105036857D01*
X217751428Y-105722571D02*
X217780000Y-105665428D01*
X217808571Y-105636857D01*
X217865714Y-105608285D01*
X217894285Y-105608285D01*
X217951428Y-105636857D01*
X217980000Y-105665428D01*
X218008571Y-105722571D01*
X218008571Y-105836857D01*
X217980000Y-105894000D01*
X217951428Y-105922571D01*
X217894285Y-105951142D01*
X217865714Y-105951142D01*
X217808571Y-105922571D01*
X217780000Y-105894000D01*
X217751428Y-105836857D01*
X217751428Y-105722571D01*
X217722857Y-105665428D01*
X217694285Y-105636857D01*
X217637142Y-105608285D01*
X217522857Y-105608285D01*
X217465714Y-105636857D01*
X217437142Y-105665428D01*
X217408571Y-105722571D01*
X217408571Y-105836857D01*
X217437142Y-105894000D01*
X217465714Y-105922571D01*
X217522857Y-105951142D01*
X217637142Y-105951142D01*
X217694285Y-105922571D01*
X217722857Y-105894000D01*
X217751428Y-105836857D01*
X172520000Y-94568095D02*
X172567619Y-94472857D01*
X172567619Y-94330000D01*
X172520000Y-94187142D01*
X172424761Y-94091904D01*
X172329523Y-94044285D01*
X172139047Y-93996666D01*
X171996190Y-93996666D01*
X171805714Y-94044285D01*
X171710476Y-94091904D01*
X171615238Y-94187142D01*
X171567619Y-94330000D01*
X171567619Y-94425238D01*
X171615238Y-94568095D01*
X171662857Y-94615714D01*
X171996190Y-94615714D01*
X171996190Y-94425238D01*
X171567619Y-95044285D02*
X172567619Y-95044285D01*
X171567619Y-95615714D01*
X172567619Y-95615714D01*
X171567619Y-96091904D02*
X172567619Y-96091904D01*
X172567619Y-96330000D01*
X172520000Y-96472857D01*
X172424761Y-96568095D01*
X172329523Y-96615714D01*
X172139047Y-96663333D01*
X171996190Y-96663333D01*
X171805714Y-96615714D01*
X171710476Y-96568095D01*
X171615238Y-96472857D01*
X171567619Y-96330000D01*
X171567619Y-96091904D01*
X154529047Y-116951428D02*
X155290952Y-116951428D01*
X154910000Y-117332380D02*
X154910000Y-116570476D01*
X157377142Y-112507380D02*
X156900952Y-112507380D01*
X156900952Y-111507380D01*
X157710476Y-111983571D02*
X158043809Y-111983571D01*
X158186666Y-112507380D02*
X157710476Y-112507380D01*
X157710476Y-111507380D01*
X158186666Y-111507380D01*
X158615238Y-112507380D02*
X158615238Y-111507380D01*
X158853333Y-111507380D01*
X158996190Y-111555000D01*
X159091428Y-111650238D01*
X159139047Y-111745476D01*
X159186666Y-111935952D01*
X159186666Y-112078809D01*
X159139047Y-112269285D01*
X159091428Y-112364523D01*
X158996190Y-112459761D01*
X158853333Y-112507380D01*
X158615238Y-112507380D01*
X156162857Y-113165000D02*
X156067619Y-113117380D01*
X155924761Y-113117380D01*
X155781904Y-113165000D01*
X155686666Y-113260238D01*
X155639047Y-113355476D01*
X155591428Y-113545952D01*
X155591428Y-113688809D01*
X155639047Y-113879285D01*
X155686666Y-113974523D01*
X155781904Y-114069761D01*
X155924761Y-114117380D01*
X156020000Y-114117380D01*
X156162857Y-114069761D01*
X156210476Y-114022142D01*
X156210476Y-113688809D01*
X156020000Y-113688809D01*
X156639047Y-114117380D02*
X156639047Y-113117380D01*
X157020000Y-113117380D01*
X157115238Y-113165000D01*
X157162857Y-113212619D01*
X157210476Y-113307857D01*
X157210476Y-113450714D01*
X157162857Y-113545952D01*
X157115238Y-113593571D01*
X157020000Y-113641190D01*
X156639047Y-113641190D01*
X157639047Y-114117380D02*
X157639047Y-113117380D01*
X158305714Y-113117380D02*
X158496190Y-113117380D01*
X158591428Y-113165000D01*
X158686666Y-113260238D01*
X158734285Y-113450714D01*
X158734285Y-113784047D01*
X158686666Y-113974523D01*
X158591428Y-114069761D01*
X158496190Y-114117380D01*
X158305714Y-114117380D01*
X158210476Y-114069761D01*
X158115238Y-113974523D01*
X158067619Y-113784047D01*
X158067619Y-113450714D01*
X158115238Y-113260238D01*
X158210476Y-113165000D01*
X158305714Y-113117380D01*
X159877142Y-113212619D02*
X159924761Y-113165000D01*
X160020000Y-113117380D01*
X160258095Y-113117380D01*
X160353333Y-113165000D01*
X160400952Y-113212619D01*
X160448571Y-113307857D01*
X160448571Y-113403095D01*
X160400952Y-113545952D01*
X159829523Y-114117380D01*
X160448571Y-114117380D01*
X119753333Y-109043166D02*
X119520000Y-108709833D01*
X119353333Y-109043166D02*
X119353333Y-108343166D01*
X119620000Y-108343166D01*
X119686666Y-108376500D01*
X119720000Y-108409833D01*
X119753333Y-108476500D01*
X119753333Y-108576500D01*
X119720000Y-108643166D01*
X119686666Y-108676500D01*
X119620000Y-108709833D01*
X119353333Y-108709833D01*
X120420000Y-109043166D02*
X120020000Y-109043166D01*
X120220000Y-109043166D02*
X120220000Y-108343166D01*
X120153333Y-108443166D01*
X120086666Y-108509833D01*
X120020000Y-108543166D01*
X119420000Y-110170166D02*
X119086666Y-110170166D01*
X119086666Y-109470166D01*
X119653333Y-109803500D02*
X119886666Y-109803500D01*
X119986666Y-110170166D02*
X119653333Y-110170166D01*
X119653333Y-109470166D01*
X119986666Y-109470166D01*
X120286666Y-110170166D02*
X120286666Y-109470166D01*
X120453333Y-109470166D01*
X120553333Y-109503500D01*
X120620000Y-109570166D01*
X120653333Y-109636833D01*
X120686666Y-109770166D01*
X120686666Y-109870166D01*
X120653333Y-110003500D01*
X120620000Y-110070166D01*
X120553333Y-110136833D01*
X120453333Y-110170166D01*
X120286666Y-110170166D01*
X230708571Y-101960285D02*
X230708571Y-102331714D01*
X230480000Y-102131714D01*
X230480000Y-102217428D01*
X230451428Y-102274571D01*
X230422857Y-102303142D01*
X230365714Y-102331714D01*
X230222857Y-102331714D01*
X230165714Y-102303142D01*
X230137142Y-102274571D01*
X230108571Y-102217428D01*
X230108571Y-102046000D01*
X230137142Y-101988857D01*
X230165714Y-101960285D01*
X230708571Y-102846000D02*
X230708571Y-102731714D01*
X230680000Y-102674571D01*
X230651428Y-102646000D01*
X230565714Y-102588857D01*
X230451428Y-102560285D01*
X230222857Y-102560285D01*
X230165714Y-102588857D01*
X230137142Y-102617428D01*
X230108571Y-102674571D01*
X230108571Y-102788857D01*
X230137142Y-102846000D01*
X230165714Y-102874571D01*
X230222857Y-102903142D01*
X230365714Y-102903142D01*
X230422857Y-102874571D01*
X230451428Y-102846000D01*
X230480000Y-102788857D01*
X230480000Y-102674571D01*
X230451428Y-102617428D01*
X230422857Y-102588857D01*
X230365714Y-102560285D01*
X129981904Y-96160476D02*
X130020000Y-96198571D01*
X130058095Y-96274761D01*
X130058095Y-96465238D01*
X130020000Y-96541428D01*
X129981904Y-96579523D01*
X129905714Y-96617619D01*
X129829523Y-96617619D01*
X129715238Y-96579523D01*
X129258095Y-96122380D01*
X129258095Y-96617619D01*
X130058095Y-97341428D02*
X130058095Y-96960476D01*
X129677142Y-96922380D01*
X129715238Y-96960476D01*
X129753333Y-97036666D01*
X129753333Y-97227142D01*
X129715238Y-97303333D01*
X129677142Y-97341428D01*
X129600952Y-97379523D01*
X129410476Y-97379523D01*
X129334285Y-97341428D01*
X129296190Y-97303333D01*
X129258095Y-97227142D01*
X129258095Y-97036666D01*
X129296190Y-96960476D01*
X129334285Y-96922380D01*
X129258095Y-97722380D02*
X129791428Y-97722380D01*
X129715238Y-97722380D02*
X129753333Y-97760476D01*
X129791428Y-97836666D01*
X129791428Y-97950952D01*
X129753333Y-98027142D01*
X129677142Y-98065238D01*
X129258095Y-98065238D01*
X129677142Y-98065238D02*
X129753333Y-98103333D01*
X129791428Y-98179523D01*
X129791428Y-98293809D01*
X129753333Y-98370000D01*
X129677142Y-98408095D01*
X129258095Y-98408095D01*
X129258095Y-98789047D02*
X129791428Y-98789047D01*
X129715238Y-98789047D02*
X129753333Y-98827142D01*
X129791428Y-98903333D01*
X129791428Y-99017619D01*
X129753333Y-99093809D01*
X129677142Y-99131904D01*
X129258095Y-99131904D01*
X129677142Y-99131904D02*
X129753333Y-99170000D01*
X129791428Y-99246190D01*
X129791428Y-99360476D01*
X129753333Y-99436666D01*
X129677142Y-99474761D01*
X129258095Y-99474761D01*
X129258095Y-100465238D02*
X130058095Y-100465238D01*
X129753333Y-100465238D02*
X129791428Y-100541428D01*
X129791428Y-100693809D01*
X129753333Y-100770000D01*
X129715238Y-100808095D01*
X129639047Y-100846190D01*
X129410476Y-100846190D01*
X129334285Y-100808095D01*
X129296190Y-100770000D01*
X129258095Y-100693809D01*
X129258095Y-100541428D01*
X129296190Y-100465238D01*
X129296190Y-101493809D02*
X129258095Y-101417619D01*
X129258095Y-101265238D01*
X129296190Y-101189047D01*
X129372380Y-101150952D01*
X129677142Y-101150952D01*
X129753333Y-101189047D01*
X129791428Y-101265238D01*
X129791428Y-101417619D01*
X129753333Y-101493809D01*
X129677142Y-101531904D01*
X129600952Y-101531904D01*
X129524761Y-101150952D01*
X129791428Y-101760476D02*
X129791428Y-102065238D01*
X130058095Y-101874761D02*
X129372380Y-101874761D01*
X129296190Y-101912857D01*
X129258095Y-101989047D01*
X129258095Y-102065238D01*
X129791428Y-102255714D02*
X129258095Y-102408095D01*
X129639047Y-102560476D01*
X129258095Y-102712857D01*
X129791428Y-102865238D01*
X129296190Y-103474761D02*
X129258095Y-103398571D01*
X129258095Y-103246190D01*
X129296190Y-103170000D01*
X129372380Y-103131904D01*
X129677142Y-103131904D01*
X129753333Y-103170000D01*
X129791428Y-103246190D01*
X129791428Y-103398571D01*
X129753333Y-103474761D01*
X129677142Y-103512857D01*
X129600952Y-103512857D01*
X129524761Y-103131904D01*
X129296190Y-104160476D02*
X129258095Y-104084285D01*
X129258095Y-103931904D01*
X129296190Y-103855714D01*
X129372380Y-103817619D01*
X129677142Y-103817619D01*
X129753333Y-103855714D01*
X129791428Y-103931904D01*
X129791428Y-104084285D01*
X129753333Y-104160476D01*
X129677142Y-104198571D01*
X129600952Y-104198571D01*
X129524761Y-103817619D01*
X129791428Y-104541428D02*
X129258095Y-104541428D01*
X129715238Y-104541428D02*
X129753333Y-104579523D01*
X129791428Y-104655714D01*
X129791428Y-104770000D01*
X129753333Y-104846190D01*
X129677142Y-104884285D01*
X129258095Y-104884285D01*
X129258095Y-105874761D02*
X130058095Y-105874761D01*
X129258095Y-106217619D02*
X129677142Y-106217619D01*
X129753333Y-106179523D01*
X129791428Y-106103333D01*
X129791428Y-105989047D01*
X129753333Y-105912857D01*
X129715238Y-105874761D01*
X129258095Y-106712857D02*
X129296190Y-106636666D01*
X129334285Y-106598571D01*
X129410476Y-106560476D01*
X129639047Y-106560476D01*
X129715238Y-106598571D01*
X129753333Y-106636666D01*
X129791428Y-106712857D01*
X129791428Y-106827142D01*
X129753333Y-106903333D01*
X129715238Y-106941428D01*
X129639047Y-106979523D01*
X129410476Y-106979523D01*
X129334285Y-106941428D01*
X129296190Y-106903333D01*
X129258095Y-106827142D01*
X129258095Y-106712857D01*
X129258095Y-107436666D02*
X129296190Y-107360476D01*
X129372380Y-107322380D01*
X130058095Y-107322380D01*
X129296190Y-108046190D02*
X129258095Y-107970000D01*
X129258095Y-107817619D01*
X129296190Y-107741428D01*
X129372380Y-107703333D01*
X129677142Y-107703333D01*
X129753333Y-107741428D01*
X129791428Y-107817619D01*
X129791428Y-107970000D01*
X129753333Y-108046190D01*
X129677142Y-108084285D01*
X129600952Y-108084285D01*
X129524761Y-107703333D01*
X129296190Y-108389047D02*
X129258095Y-108465238D01*
X129258095Y-108617619D01*
X129296190Y-108693809D01*
X129372380Y-108731904D01*
X129410476Y-108731904D01*
X129486666Y-108693809D01*
X129524761Y-108617619D01*
X129524761Y-108503333D01*
X129562857Y-108427142D01*
X129639047Y-108389047D01*
X129677142Y-108389047D01*
X129753333Y-108427142D01*
X129791428Y-108503333D01*
X129791428Y-108617619D01*
X129753333Y-108693809D01*
X128953333Y-109912857D02*
X128991428Y-109874761D01*
X129105714Y-109798571D01*
X129181904Y-109760476D01*
X129296190Y-109722380D01*
X129486666Y-109684285D01*
X129639047Y-109684285D01*
X129829523Y-109722380D01*
X129943809Y-109760476D01*
X130020000Y-109798571D01*
X130134285Y-109874761D01*
X130172380Y-109912857D01*
X129258095Y-110217619D02*
X129791428Y-110217619D01*
X129715238Y-110217619D02*
X129753333Y-110255714D01*
X129791428Y-110331904D01*
X129791428Y-110446190D01*
X129753333Y-110522380D01*
X129677142Y-110560476D01*
X129258095Y-110560476D01*
X129677142Y-110560476D02*
X129753333Y-110598571D01*
X129791428Y-110674761D01*
X129791428Y-110789047D01*
X129753333Y-110865238D01*
X129677142Y-110903333D01*
X129258095Y-110903333D01*
X129258095Y-111284285D02*
X129791428Y-111284285D01*
X130058095Y-111284285D02*
X130020000Y-111246190D01*
X129981904Y-111284285D01*
X130020000Y-111322380D01*
X130058095Y-111284285D01*
X129981904Y-111284285D01*
X129258095Y-112008095D02*
X130058095Y-112008095D01*
X129296190Y-112008095D02*
X129258095Y-111931904D01*
X129258095Y-111779523D01*
X129296190Y-111703333D01*
X129334285Y-111665238D01*
X129410476Y-111627142D01*
X129639047Y-111627142D01*
X129715238Y-111665238D01*
X129753333Y-111703333D01*
X129791428Y-111779523D01*
X129791428Y-111931904D01*
X129753333Y-112008095D01*
X128953333Y-112312857D02*
X128991428Y-112350952D01*
X129105714Y-112427142D01*
X129181904Y-112465238D01*
X129296190Y-112503333D01*
X129486666Y-112541428D01*
X129639047Y-112541428D01*
X129829523Y-112503333D01*
X129943809Y-112465238D01*
X130020000Y-112427142D01*
X130134285Y-112350952D01*
X130172380Y-112312857D01*
X210331428Y-101988857D02*
X210360000Y-102017428D01*
X210388571Y-102074571D01*
X210388571Y-102217428D01*
X210360000Y-102274571D01*
X210331428Y-102303142D01*
X210274285Y-102331714D01*
X210217142Y-102331714D01*
X210131428Y-102303142D01*
X209788571Y-101960285D01*
X209788571Y-102331714D01*
X210388571Y-102531714D02*
X210388571Y-102931714D01*
X209788571Y-102674571D01*
X179195238Y-93203809D02*
X179147619Y-93346666D01*
X179147619Y-93584761D01*
X179195238Y-93680000D01*
X179242857Y-93727619D01*
X179338095Y-93775238D01*
X179433333Y-93775238D01*
X179528571Y-93727619D01*
X179576190Y-93680000D01*
X179623809Y-93584761D01*
X179671428Y-93394285D01*
X179719047Y-93299047D01*
X179766666Y-93251428D01*
X179861904Y-93203809D01*
X179957142Y-93203809D01*
X180052380Y-93251428D01*
X180100000Y-93299047D01*
X180147619Y-93394285D01*
X180147619Y-93632380D01*
X180100000Y-93775238D01*
X179147619Y-94203809D02*
X180147619Y-94203809D01*
X180147619Y-94441904D01*
X180100000Y-94584761D01*
X180004761Y-94680000D01*
X179909523Y-94727619D01*
X179719047Y-94775238D01*
X179576190Y-94775238D01*
X179385714Y-94727619D01*
X179290476Y-94680000D01*
X179195238Y-94584761D01*
X179147619Y-94441904D01*
X179147619Y-94203809D01*
X179433333Y-95156190D02*
X179433333Y-95632380D01*
X179147619Y-95060952D02*
X180147619Y-95394285D01*
X179147619Y-95727619D01*
X179761904Y-95975238D02*
X179800000Y-96013333D01*
X179838095Y-96089523D01*
X179838095Y-96280000D01*
X179800000Y-96356190D01*
X179761904Y-96394285D01*
X179685714Y-96432380D01*
X179609523Y-96432380D01*
X179495238Y-96394285D01*
X179038095Y-95937142D01*
X179038095Y-96432380D01*
X179038095Y-97194285D02*
X179038095Y-96737142D01*
X179038095Y-96965714D02*
X179838095Y-96965714D01*
X179723809Y-96889523D01*
X179647619Y-96813333D01*
X179609523Y-96737142D01*
X223088571Y-101960285D02*
X223088571Y-102331714D01*
X222860000Y-102131714D01*
X222860000Y-102217428D01*
X222831428Y-102274571D01*
X222802857Y-102303142D01*
X222745714Y-102331714D01*
X222602857Y-102331714D01*
X222545714Y-102303142D01*
X222517142Y-102274571D01*
X222488571Y-102217428D01*
X222488571Y-102046000D01*
X222517142Y-101988857D01*
X222545714Y-101960285D01*
X223088571Y-102874571D02*
X223088571Y-102588857D01*
X222802857Y-102560285D01*
X222831428Y-102588857D01*
X222860000Y-102646000D01*
X222860000Y-102788857D01*
X222831428Y-102846000D01*
X222802857Y-102874571D01*
X222745714Y-102903142D01*
X222602857Y-102903142D01*
X222545714Y-102874571D01*
X222517142Y-102846000D01*
X222488571Y-102788857D01*
X222488571Y-102646000D01*
X222517142Y-102588857D01*
X222545714Y-102560285D01*
X225628571Y-105548000D02*
X225628571Y-105919428D01*
X225400000Y-105719428D01*
X225400000Y-105805142D01*
X225371428Y-105862285D01*
X225342857Y-105890857D01*
X225285714Y-105919428D01*
X225142857Y-105919428D01*
X225085714Y-105890857D01*
X225057142Y-105862285D01*
X225028571Y-105805142D01*
X225028571Y-105633714D01*
X225057142Y-105576571D01*
X225085714Y-105548000D01*
X195148571Y-105548000D02*
X195148571Y-105948000D01*
X194548571Y-105690857D01*
X212328571Y-105379714D02*
X212328571Y-105036857D01*
X212328571Y-105208285D02*
X212928571Y-105208285D01*
X212842857Y-105151142D01*
X212785714Y-105094000D01*
X212757142Y-105036857D01*
X212928571Y-105579714D02*
X212928571Y-105979714D01*
X212328571Y-105722571D01*
X209788571Y-105379714D02*
X209788571Y-105036857D01*
X209788571Y-105208285D02*
X210388571Y-105208285D01*
X210302857Y-105151142D01*
X210245714Y-105094000D01*
X210217142Y-105036857D01*
X210388571Y-105894000D02*
X210388571Y-105779714D01*
X210360000Y-105722571D01*
X210331428Y-105694000D01*
X210245714Y-105636857D01*
X210131428Y-105608285D01*
X209902857Y-105608285D01*
X209845714Y-105636857D01*
X209817142Y-105665428D01*
X209788571Y-105722571D01*
X209788571Y-105836857D01*
X209817142Y-105894000D01*
X209845714Y-105922571D01*
X209902857Y-105951142D01*
X210045714Y-105951142D01*
X210102857Y-105922571D01*
X210131428Y-105894000D01*
X210160000Y-105836857D01*
X210160000Y-105722571D01*
X210131428Y-105665428D01*
X210102857Y-105636857D01*
X210045714Y-105608285D01*
X176605238Y-93207619D02*
X176557619Y-93350476D01*
X176557619Y-93588571D01*
X176605238Y-93683809D01*
X176652857Y-93731428D01*
X176748095Y-93779047D01*
X176843333Y-93779047D01*
X176938571Y-93731428D01*
X176986190Y-93683809D01*
X177033809Y-93588571D01*
X177081428Y-93398095D01*
X177129047Y-93302857D01*
X177176666Y-93255238D01*
X177271904Y-93207619D01*
X177367142Y-93207619D01*
X177462380Y-93255238D01*
X177510000Y-93302857D01*
X177557619Y-93398095D01*
X177557619Y-93636190D01*
X177510000Y-93779047D01*
X176652857Y-94779047D02*
X176605238Y-94731428D01*
X176557619Y-94588571D01*
X176557619Y-94493333D01*
X176605238Y-94350476D01*
X176700476Y-94255238D01*
X176795714Y-94207619D01*
X176986190Y-94160000D01*
X177129047Y-94160000D01*
X177319523Y-94207619D01*
X177414761Y-94255238D01*
X177510000Y-94350476D01*
X177557619Y-94493333D01*
X177557619Y-94588571D01*
X177510000Y-94731428D01*
X177462380Y-94779047D01*
X176557619Y-95683809D02*
X176557619Y-95207619D01*
X177557619Y-95207619D01*
X177171904Y-95931428D02*
X177210000Y-95969523D01*
X177248095Y-96045714D01*
X177248095Y-96236190D01*
X177210000Y-96312380D01*
X177171904Y-96350476D01*
X177095714Y-96388571D01*
X177019523Y-96388571D01*
X176905238Y-96350476D01*
X176448095Y-95893333D01*
X176448095Y-96388571D01*
X177171904Y-96693333D02*
X177210000Y-96731428D01*
X177248095Y-96807619D01*
X177248095Y-96998095D01*
X177210000Y-97074285D01*
X177171904Y-97112380D01*
X177095714Y-97150476D01*
X177019523Y-97150476D01*
X176905238Y-97112380D01*
X176448095Y-96655238D01*
X176448095Y-97150476D01*
X205308571Y-105719428D02*
X205308571Y-105776571D01*
X205280000Y-105833714D01*
X205251428Y-105862285D01*
X205194285Y-105890857D01*
X205080000Y-105919428D01*
X204937142Y-105919428D01*
X204822857Y-105890857D01*
X204765714Y-105862285D01*
X204737142Y-105833714D01*
X204708571Y-105776571D01*
X204708571Y-105719428D01*
X204737142Y-105662285D01*
X204765714Y-105633714D01*
X204822857Y-105605142D01*
X204937142Y-105576571D01*
X205080000Y-105576571D01*
X205194285Y-105605142D01*
X205251428Y-105633714D01*
X205280000Y-105662285D01*
X205308571Y-105719428D01*
X207648571Y-105862285D02*
X207248571Y-105862285D01*
X207877142Y-105719428D02*
X207448571Y-105576571D01*
X207448571Y-105948000D01*
X235788571Y-101774285D02*
X235788571Y-102145714D01*
X235560000Y-101945714D01*
X235560000Y-102031428D01*
X235531428Y-102088571D01*
X235502857Y-102117142D01*
X235445714Y-102145714D01*
X235302857Y-102145714D01*
X235245714Y-102117142D01*
X235217142Y-102088571D01*
X235188571Y-102031428D01*
X235188571Y-101860000D01*
X235217142Y-101802857D01*
X235245714Y-101774285D01*
X235245714Y-102402857D02*
X235217142Y-102431428D01*
X235188571Y-102402857D01*
X235217142Y-102374285D01*
X235245714Y-102402857D01*
X235188571Y-102402857D01*
X235788571Y-102631428D02*
X235788571Y-103002857D01*
X235560000Y-102802857D01*
X235560000Y-102888571D01*
X235531428Y-102945714D01*
X235502857Y-102974285D01*
X235445714Y-103002857D01*
X235302857Y-103002857D01*
X235245714Y-102974285D01*
X235217142Y-102945714D01*
X235188571Y-102888571D01*
X235188571Y-102717142D01*
X235217142Y-102660000D01*
X235245714Y-102631428D01*
X235788571Y-103174285D02*
X235188571Y-103374285D01*
X235788571Y-103574285D01*
X227568571Y-105919428D02*
X227568571Y-105576571D01*
X227568571Y-105748000D02*
X228168571Y-105748000D01*
X228082857Y-105690857D01*
X228025714Y-105633714D01*
X227997142Y-105576571D01*
X119100000Y-93990095D02*
X119147619Y-93894857D01*
X119147619Y-93752000D01*
X119100000Y-93609142D01*
X119004761Y-93513904D01*
X118909523Y-93466285D01*
X118719047Y-93418666D01*
X118576190Y-93418666D01*
X118385714Y-93466285D01*
X118290476Y-93513904D01*
X118195238Y-93609142D01*
X118147619Y-93752000D01*
X118147619Y-93847238D01*
X118195238Y-93990095D01*
X118242857Y-94037714D01*
X118576190Y-94037714D01*
X118576190Y-93847238D01*
X118147619Y-94466285D02*
X119147619Y-94466285D01*
X118147619Y-95037714D01*
X119147619Y-95037714D01*
X118147619Y-95513904D02*
X119147619Y-95513904D01*
X119147619Y-95752000D01*
X119100000Y-95894857D01*
X119004761Y-95990095D01*
X118909523Y-96037714D01*
X118719047Y-96085333D01*
X118576190Y-96085333D01*
X118385714Y-96037714D01*
X118290476Y-95990095D01*
X118195238Y-95894857D01*
X118147619Y-95752000D01*
X118147619Y-95513904D01*
X212871428Y-101988857D02*
X212900000Y-102017428D01*
X212928571Y-102074571D01*
X212928571Y-102217428D01*
X212900000Y-102274571D01*
X212871428Y-102303142D01*
X212814285Y-102331714D01*
X212757142Y-102331714D01*
X212671428Y-102303142D01*
X212328571Y-101960285D01*
X212328571Y-102331714D01*
X212928571Y-102846000D02*
X212928571Y-102731714D01*
X212900000Y-102674571D01*
X212871428Y-102646000D01*
X212785714Y-102588857D01*
X212671428Y-102560285D01*
X212442857Y-102560285D01*
X212385714Y-102588857D01*
X212357142Y-102617428D01*
X212328571Y-102674571D01*
X212328571Y-102788857D01*
X212357142Y-102846000D01*
X212385714Y-102874571D01*
X212442857Y-102903142D01*
X212585714Y-102903142D01*
X212642857Y-102874571D01*
X212671428Y-102846000D01*
X212700000Y-102788857D01*
X212700000Y-102674571D01*
X212671428Y-102617428D01*
X212642857Y-102588857D01*
X212585714Y-102560285D01*
X204708571Y-102331714D02*
X204708571Y-101988857D01*
X204708571Y-102160285D02*
X205308571Y-102160285D01*
X205222857Y-102103142D01*
X205165714Y-102046000D01*
X205137142Y-101988857D01*
X205251428Y-102560285D02*
X205280000Y-102588857D01*
X205308571Y-102646000D01*
X205308571Y-102788857D01*
X205280000Y-102846000D01*
X205251428Y-102874571D01*
X205194285Y-102903142D01*
X205137142Y-102903142D01*
X205051428Y-102874571D01*
X204708571Y-102531714D01*
X204708571Y-102903142D01*
X107447619Y-102688095D02*
X106638095Y-102688095D01*
X106542857Y-102735714D01*
X106495238Y-102783333D01*
X106447619Y-102878571D01*
X106447619Y-103069047D01*
X106495238Y-103164285D01*
X106542857Y-103211904D01*
X106638095Y-103259523D01*
X107447619Y-103259523D01*
X106495238Y-103688095D02*
X106447619Y-103830952D01*
X106447619Y-104069047D01*
X106495238Y-104164285D01*
X106542857Y-104211904D01*
X106638095Y-104259523D01*
X106733333Y-104259523D01*
X106828571Y-104211904D01*
X106876190Y-104164285D01*
X106923809Y-104069047D01*
X106971428Y-103878571D01*
X107019047Y-103783333D01*
X107066666Y-103735714D01*
X107161904Y-103688095D01*
X107257142Y-103688095D01*
X107352380Y-103735714D01*
X107400000Y-103783333D01*
X107447619Y-103878571D01*
X107447619Y-104116666D01*
X107400000Y-104259523D01*
X106971428Y-105021428D02*
X106923809Y-105164285D01*
X106876190Y-105211904D01*
X106780952Y-105259523D01*
X106638095Y-105259523D01*
X106542857Y-105211904D01*
X106495238Y-105164285D01*
X106447619Y-105069047D01*
X106447619Y-104688095D01*
X107447619Y-104688095D01*
X107447619Y-105021428D01*
X107400000Y-105116666D01*
X107352380Y-105164285D01*
X107257142Y-105211904D01*
X107161904Y-105211904D01*
X107066666Y-105164285D01*
X107019047Y-105116666D01*
X106971428Y-105021428D01*
X106971428Y-104688095D01*
X230651428Y-105036857D02*
X230680000Y-105065428D01*
X230708571Y-105122571D01*
X230708571Y-105265428D01*
X230680000Y-105322571D01*
X230651428Y-105351142D01*
X230594285Y-105379714D01*
X230537142Y-105379714D01*
X230451428Y-105351142D01*
X230108571Y-105008285D01*
X230108571Y-105379714D01*
X230651428Y-105608285D02*
X230680000Y-105636857D01*
X230708571Y-105694000D01*
X230708571Y-105836857D01*
X230680000Y-105894000D01*
X230651428Y-105922571D01*
X230594285Y-105951142D01*
X230537142Y-105951142D01*
X230451428Y-105922571D01*
X230108571Y-105579714D01*
X230108571Y-105951142D01*
X232648571Y-102328571D02*
X232934285Y-102128571D01*
X232648571Y-101985714D02*
X233248571Y-101985714D01*
X233248571Y-102214285D01*
X233220000Y-102271428D01*
X233191428Y-102300000D01*
X233134285Y-102328571D01*
X233048571Y-102328571D01*
X232991428Y-102300000D01*
X232962857Y-102271428D01*
X232934285Y-102214285D01*
X232934285Y-101985714D01*
X232962857Y-102585714D02*
X232962857Y-102785714D01*
X232648571Y-102871428D02*
X232648571Y-102585714D01*
X233248571Y-102585714D01*
X233248571Y-102871428D01*
X232677142Y-103100000D02*
X232648571Y-103185714D01*
X232648571Y-103328571D01*
X232677142Y-103385714D01*
X232705714Y-103414285D01*
X232762857Y-103442857D01*
X232820000Y-103442857D01*
X232877142Y-103414285D01*
X232905714Y-103385714D01*
X232934285Y-103328571D01*
X232962857Y-103214285D01*
X232991428Y-103157142D01*
X233020000Y-103128571D01*
X233077142Y-103100000D01*
X233134285Y-103100000D01*
X233191428Y-103128571D01*
X233220000Y-103157142D01*
X233248571Y-103214285D01*
X233248571Y-103357142D01*
X233220000Y-103442857D01*
X160849047Y-116931428D02*
X161610952Y-116931428D01*
X202168571Y-102331714D02*
X202168571Y-101988857D01*
X202168571Y-102160285D02*
X202768571Y-102160285D01*
X202682857Y-102103142D01*
X202625714Y-102046000D01*
X202597142Y-101988857D01*
X202768571Y-102531714D02*
X202768571Y-102903142D01*
X202540000Y-102703142D01*
X202540000Y-102788857D01*
X202511428Y-102846000D01*
X202482857Y-102874571D01*
X202425714Y-102903142D01*
X202282857Y-102903142D01*
X202225714Y-102874571D01*
X202197142Y-102846000D01*
X202168571Y-102788857D01*
X202168571Y-102617428D01*
X202197142Y-102560285D01*
X202225714Y-102531714D01*
X197088571Y-102331714D02*
X197088571Y-101988857D01*
X197088571Y-102160285D02*
X197688571Y-102160285D01*
X197602857Y-102103142D01*
X197545714Y-102046000D01*
X197517142Y-101988857D01*
X197688571Y-102703142D02*
X197688571Y-102760285D01*
X197660000Y-102817428D01*
X197631428Y-102846000D01*
X197574285Y-102874571D01*
X197460000Y-102903142D01*
X197317142Y-102903142D01*
X197202857Y-102874571D01*
X197145714Y-102846000D01*
X197117142Y-102817428D01*
X197088571Y-102760285D01*
X197088571Y-102703142D01*
X197117142Y-102646000D01*
X197145714Y-102617428D01*
X197202857Y-102588857D01*
X197317142Y-102560285D01*
X197460000Y-102560285D01*
X197574285Y-102588857D01*
X197631428Y-102617428D01*
X197660000Y-102646000D01*
X197688571Y-102703142D01*
X192608571Y-105862285D02*
X192608571Y-105748000D01*
X192580000Y-105690857D01*
X192551428Y-105662285D01*
X192465714Y-105605142D01*
X192351428Y-105576571D01*
X192122857Y-105576571D01*
X192065714Y-105605142D01*
X192037142Y-105633714D01*
X192008571Y-105690857D01*
X192008571Y-105805142D01*
X192037142Y-105862285D01*
X192065714Y-105890857D01*
X192122857Y-105919428D01*
X192265714Y-105919428D01*
X192322857Y-105890857D01*
X192351428Y-105862285D01*
X192380000Y-105805142D01*
X192380000Y-105690857D01*
X192351428Y-105633714D01*
X192322857Y-105605142D01*
X192265714Y-105576571D01*
X152120000Y-112024095D02*
X152167619Y-111928857D01*
X152167619Y-111786000D01*
X152120000Y-111643142D01*
X152024761Y-111547904D01*
X151929523Y-111500285D01*
X151739047Y-111452666D01*
X151596190Y-111452666D01*
X151405714Y-111500285D01*
X151310476Y-111547904D01*
X151215238Y-111643142D01*
X151167619Y-111786000D01*
X151167619Y-111881238D01*
X151215238Y-112024095D01*
X151262857Y-112071714D01*
X151596190Y-112071714D01*
X151596190Y-111881238D01*
X151167619Y-112500285D02*
X152167619Y-112500285D01*
X151167619Y-113071714D01*
X152167619Y-113071714D01*
X151167619Y-113547904D02*
X152167619Y-113547904D01*
X152167619Y-113786000D01*
X152120000Y-113928857D01*
X152024761Y-114024095D01*
X151929523Y-114071714D01*
X151739047Y-114119333D01*
X151596190Y-114119333D01*
X151405714Y-114071714D01*
X151310476Y-114024095D01*
X151215238Y-113928857D01*
X151167619Y-113786000D01*
X151167619Y-113547904D01*
X194548571Y-102331714D02*
X194548571Y-101988857D01*
X194548571Y-102160285D02*
X195148571Y-102160285D01*
X195062857Y-102103142D01*
X195005714Y-102046000D01*
X194977142Y-101988857D01*
X194548571Y-102903142D02*
X194548571Y-102560285D01*
X194548571Y-102731714D02*
X195148571Y-102731714D01*
X195062857Y-102674571D01*
X195005714Y-102617428D01*
X194977142Y-102560285D01*
X219948571Y-105379714D02*
X219948571Y-105036857D01*
X219948571Y-105208285D02*
X220548571Y-105208285D01*
X220462857Y-105151142D01*
X220405714Y-105094000D01*
X220377142Y-105036857D01*
X219948571Y-105665428D02*
X219948571Y-105779714D01*
X219977142Y-105836857D01*
X220005714Y-105865428D01*
X220091428Y-105922571D01*
X220205714Y-105951142D01*
X220434285Y-105951142D01*
X220491428Y-105922571D01*
X220520000Y-105894000D01*
X220548571Y-105836857D01*
X220548571Y-105722571D01*
X220520000Y-105665428D01*
X220491428Y-105636857D01*
X220434285Y-105608285D01*
X220291428Y-105608285D01*
X220234285Y-105636857D01*
X220205714Y-105665428D01*
X220177142Y-105722571D01*
X220177142Y-105836857D01*
X220205714Y-105894000D01*
X220234285Y-105922571D01*
X220291428Y-105951142D01*
X218008571Y-101960285D02*
X218008571Y-102331714D01*
X217780000Y-102131714D01*
X217780000Y-102217428D01*
X217751428Y-102274571D01*
X217722857Y-102303142D01*
X217665714Y-102331714D01*
X217522857Y-102331714D01*
X217465714Y-102303142D01*
X217437142Y-102274571D01*
X217408571Y-102217428D01*
X217408571Y-102046000D01*
X217437142Y-101988857D01*
X217465714Y-101960285D01*
X218008571Y-102531714D02*
X218008571Y-102903142D01*
X217780000Y-102703142D01*
X217780000Y-102788857D01*
X217751428Y-102846000D01*
X217722857Y-102874571D01*
X217665714Y-102903142D01*
X217522857Y-102903142D01*
X217465714Y-102874571D01*
X217437142Y-102846000D01*
X217408571Y-102788857D01*
X217408571Y-102617428D01*
X217437142Y-102560285D01*
X217465714Y-102531714D01*
X127831571Y-100874285D02*
X128431571Y-100874285D01*
X128003000Y-101074285D01*
X128431571Y-101274285D01*
X127831571Y-101274285D01*
X127831571Y-101817142D02*
X128145857Y-101817142D01*
X128203000Y-101788571D01*
X128231571Y-101731428D01*
X128231571Y-101617142D01*
X128203000Y-101560000D01*
X127860142Y-101817142D02*
X127831571Y-101760000D01*
X127831571Y-101617142D01*
X127860142Y-101560000D01*
X127917285Y-101531428D01*
X127974428Y-101531428D01*
X128031571Y-101560000D01*
X128060142Y-101617142D01*
X128060142Y-101760000D01*
X128088714Y-101817142D01*
X127831571Y-102360000D02*
X128431571Y-102360000D01*
X127860142Y-102360000D02*
X127831571Y-102302857D01*
X127831571Y-102188571D01*
X127860142Y-102131428D01*
X127888714Y-102102857D01*
X127945857Y-102074285D01*
X128117285Y-102074285D01*
X128174428Y-102102857D01*
X128203000Y-102131428D01*
X128231571Y-102188571D01*
X128231571Y-102302857D01*
X128203000Y-102360000D01*
X127860142Y-102874285D02*
X127831571Y-102817142D01*
X127831571Y-102702857D01*
X127860142Y-102645714D01*
X127917285Y-102617142D01*
X128145857Y-102617142D01*
X128203000Y-102645714D01*
X128231571Y-102702857D01*
X128231571Y-102817142D01*
X128203000Y-102874285D01*
X128145857Y-102902857D01*
X128088714Y-102902857D01*
X128031571Y-102617142D01*
X128231571Y-103531428D02*
X128231571Y-103760000D01*
X127831571Y-103617142D02*
X128345857Y-103617142D01*
X128403000Y-103645714D01*
X128431571Y-103702857D01*
X128431571Y-103760000D01*
X127831571Y-104045714D02*
X127860142Y-103988571D01*
X127888714Y-103960000D01*
X127945857Y-103931428D01*
X128117285Y-103931428D01*
X128174428Y-103960000D01*
X128203000Y-103988571D01*
X128231571Y-104045714D01*
X128231571Y-104131428D01*
X128203000Y-104188571D01*
X128174428Y-104217142D01*
X128117285Y-104245714D01*
X127945857Y-104245714D01*
X127888714Y-104217142D01*
X127860142Y-104188571D01*
X127831571Y-104131428D01*
X127831571Y-104045714D01*
X127831571Y-104502857D02*
X128231571Y-104502857D01*
X128117285Y-104502857D02*
X128174428Y-104531428D01*
X128203000Y-104560000D01*
X128231571Y-104617142D01*
X128231571Y-104674285D01*
X128231571Y-105245714D02*
X128231571Y-105474285D01*
X128431571Y-105331428D02*
X127917285Y-105331428D01*
X127860142Y-105360000D01*
X127831571Y-105417142D01*
X127831571Y-105474285D01*
X127831571Y-105674285D02*
X128431571Y-105674285D01*
X127831571Y-105931428D02*
X128145857Y-105931428D01*
X128203000Y-105902857D01*
X128231571Y-105845714D01*
X128231571Y-105760000D01*
X128203000Y-105702857D01*
X128174428Y-105674285D01*
X127860142Y-106445714D02*
X127831571Y-106388571D01*
X127831571Y-106274285D01*
X127860142Y-106217142D01*
X127917285Y-106188571D01*
X128145857Y-106188571D01*
X128203000Y-106217142D01*
X128231571Y-106274285D01*
X128231571Y-106388571D01*
X128203000Y-106445714D01*
X128145857Y-106474285D01*
X128088714Y-106474285D01*
X128031571Y-106188571D01*
X127037000Y-96688571D02*
X127037000Y-96974285D01*
X126865571Y-96631428D02*
X127465571Y-96831428D01*
X126865571Y-97031428D01*
X127465571Y-97174285D02*
X127465571Y-97574285D01*
X126865571Y-97174285D01*
X126865571Y-97574285D01*
X126865571Y-98260000D02*
X127465571Y-98260000D01*
X127465571Y-98402857D01*
X127437000Y-98488571D01*
X127379857Y-98545714D01*
X127322714Y-98574285D01*
X127208428Y-98602857D01*
X127122714Y-98602857D01*
X127008428Y-98574285D01*
X126951285Y-98545714D01*
X126894142Y-98488571D01*
X126865571Y-98402857D01*
X126865571Y-98260000D01*
X126894142Y-99088571D02*
X126865571Y-99031428D01*
X126865571Y-98917142D01*
X126894142Y-98860000D01*
X126951285Y-98831428D01*
X127179857Y-98831428D01*
X127237000Y-98860000D01*
X127265571Y-98917142D01*
X127265571Y-99031428D01*
X127237000Y-99088571D01*
X127179857Y-99117142D01*
X127122714Y-99117142D01*
X127065571Y-98831428D01*
X126865571Y-99460000D02*
X126894142Y-99402857D01*
X126951285Y-99374285D01*
X127465571Y-99374285D01*
X126865571Y-99688571D02*
X127265571Y-99688571D01*
X127465571Y-99688571D02*
X127437000Y-99660000D01*
X127408428Y-99688571D01*
X127437000Y-99717142D01*
X127465571Y-99688571D01*
X127408428Y-99688571D01*
X127265571Y-99917142D02*
X126865571Y-100060000D01*
X127265571Y-100202857D01*
X126894142Y-100660000D02*
X126865571Y-100602857D01*
X126865571Y-100488571D01*
X126894142Y-100431428D01*
X126951285Y-100402857D01*
X127179857Y-100402857D01*
X127237000Y-100431428D01*
X127265571Y-100488571D01*
X127265571Y-100602857D01*
X127237000Y-100660000D01*
X127179857Y-100688571D01*
X127122714Y-100688571D01*
X127065571Y-100402857D01*
X126865571Y-100945714D02*
X127265571Y-100945714D01*
X127151285Y-100945714D02*
X127208428Y-100974285D01*
X127237000Y-101002857D01*
X127265571Y-101060000D01*
X127265571Y-101117142D01*
X127265571Y-101260000D02*
X126865571Y-101402857D01*
X127265571Y-101545714D02*
X126865571Y-101402857D01*
X126722714Y-101345714D01*
X126694142Y-101317142D01*
X126665571Y-101260000D01*
X127179857Y-102231428D02*
X127179857Y-102431428D01*
X126865571Y-102517142D02*
X126865571Y-102231428D01*
X127465571Y-102231428D01*
X127465571Y-102517142D01*
X126894142Y-102745714D02*
X126865571Y-102831428D01*
X126865571Y-102974285D01*
X126894142Y-103031428D01*
X126922714Y-103060000D01*
X126979857Y-103088571D01*
X127037000Y-103088571D01*
X127094142Y-103060000D01*
X127122714Y-103031428D01*
X127151285Y-102974285D01*
X127179857Y-102860000D01*
X127208428Y-102802857D01*
X127237000Y-102774285D01*
X127294142Y-102745714D01*
X127351285Y-102745714D01*
X127408428Y-102774285D01*
X127437000Y-102802857D01*
X127465571Y-102860000D01*
X127465571Y-103002857D01*
X127437000Y-103088571D01*
X126865571Y-103345714D02*
X127465571Y-103345714D01*
X127465571Y-103574285D01*
X127437000Y-103631428D01*
X127408428Y-103660000D01*
X127351285Y-103688571D01*
X127265571Y-103688571D01*
X127208428Y-103660000D01*
X127179857Y-103631428D01*
X127151285Y-103574285D01*
X127151285Y-103345714D01*
X127465571Y-103888571D02*
X127465571Y-104260000D01*
X127237000Y-104060000D01*
X127237000Y-104145714D01*
X127208428Y-104202857D01*
X127179857Y-104231428D01*
X127122714Y-104260000D01*
X126979857Y-104260000D01*
X126922714Y-104231428D01*
X126894142Y-104202857D01*
X126865571Y-104145714D01*
X126865571Y-103974285D01*
X126894142Y-103917142D01*
X126922714Y-103888571D01*
X127408428Y-104488571D02*
X127437000Y-104517142D01*
X127465571Y-104574285D01*
X127465571Y-104717142D01*
X127437000Y-104774285D01*
X127408428Y-104802857D01*
X127351285Y-104831428D01*
X127294142Y-104831428D01*
X127208428Y-104802857D01*
X126865571Y-104460000D01*
X126865571Y-104831428D01*
X126865571Y-105545714D02*
X127465571Y-105545714D01*
X127465571Y-105688571D01*
X127437000Y-105774285D01*
X127379857Y-105831428D01*
X127322714Y-105860000D01*
X127208428Y-105888571D01*
X127122714Y-105888571D01*
X127008428Y-105860000D01*
X126951285Y-105831428D01*
X126894142Y-105774285D01*
X126865571Y-105688571D01*
X126865571Y-105545714D01*
X126894142Y-106374285D02*
X126865571Y-106317142D01*
X126865571Y-106202857D01*
X126894142Y-106145714D01*
X126951285Y-106117142D01*
X127179857Y-106117142D01*
X127237000Y-106145714D01*
X127265571Y-106202857D01*
X127265571Y-106317142D01*
X127237000Y-106374285D01*
X127179857Y-106402857D01*
X127122714Y-106402857D01*
X127065571Y-106117142D01*
X127265571Y-106602857D02*
X126865571Y-106745714D01*
X127265571Y-106888571D01*
X126865571Y-107117142D02*
X127465571Y-107117142D01*
X126865571Y-107460000D02*
X127208428Y-107202857D01*
X127465571Y-107460000D02*
X127122714Y-107117142D01*
X126865571Y-107717142D02*
X127265571Y-107717142D01*
X127465571Y-107717142D02*
X127437000Y-107688571D01*
X127408428Y-107717142D01*
X127437000Y-107745714D01*
X127465571Y-107717142D01*
X127408428Y-107717142D01*
X127265571Y-107917142D02*
X127265571Y-108145714D01*
X127465571Y-108002857D02*
X126951285Y-108002857D01*
X126894142Y-108031428D01*
X126865571Y-108088571D01*
X126865571Y-108145714D01*
X126922714Y-109145714D02*
X126894142Y-109117142D01*
X126865571Y-109031428D01*
X126865571Y-108974285D01*
X126894142Y-108888571D01*
X126951285Y-108831428D01*
X127008428Y-108802857D01*
X127122714Y-108774285D01*
X127208428Y-108774285D01*
X127322714Y-108802857D01*
X127379857Y-108831428D01*
X127437000Y-108888571D01*
X127465571Y-108974285D01*
X127465571Y-109031428D01*
X127437000Y-109117142D01*
X127408428Y-109145714D01*
X127265571Y-109802857D02*
X126865571Y-109945714D01*
X127265571Y-110088571D01*
X127265571Y-110574285D02*
X126865571Y-110574285D01*
X127494142Y-110431428D02*
X127065571Y-110288571D01*
X127065571Y-110660000D01*
X172581904Y-100837380D02*
X172581904Y-99837380D01*
X173010476Y-99932619D02*
X173058095Y-99885000D01*
X173153333Y-99837380D01*
X173391428Y-99837380D01*
X173486666Y-99885000D01*
X173534285Y-99932619D01*
X173581904Y-100027857D01*
X173581904Y-100123095D01*
X173534285Y-100265952D01*
X172962857Y-100837380D01*
X173581904Y-100837380D01*
X174581904Y-100742142D02*
X174534285Y-100789761D01*
X174391428Y-100837380D01*
X174296190Y-100837380D01*
X174153333Y-100789761D01*
X174058095Y-100694523D01*
X174010476Y-100599285D01*
X173962857Y-100408809D01*
X173962857Y-100265952D01*
X174010476Y-100075476D01*
X174058095Y-99980238D01*
X174153333Y-99885000D01*
X174296190Y-99837380D01*
X174391428Y-99837380D01*
X174534285Y-99885000D01*
X174581904Y-99932619D01*
X175962857Y-99837380D02*
X176153333Y-99837380D01*
X176248571Y-99885000D01*
X176343809Y-99980238D01*
X176391428Y-100170714D01*
X176391428Y-100504047D01*
X176343809Y-100694523D01*
X176248571Y-100789761D01*
X176153333Y-100837380D01*
X175962857Y-100837380D01*
X175867619Y-100789761D01*
X175772380Y-100694523D01*
X175724761Y-100504047D01*
X175724761Y-100170714D01*
X175772380Y-99980238D01*
X175867619Y-99885000D01*
X175962857Y-99837380D01*
X177296190Y-100837380D02*
X176820000Y-100837380D01*
X176820000Y-99837380D01*
X177629523Y-100313571D02*
X177962857Y-100313571D01*
X178105714Y-100837380D02*
X177629523Y-100837380D01*
X177629523Y-99837380D01*
X178105714Y-99837380D01*
X178534285Y-100837380D02*
X178534285Y-99837380D01*
X178772380Y-99837380D01*
X178915238Y-99885000D01*
X179010476Y-99980238D01*
X179058095Y-100075476D01*
X179105714Y-100265952D01*
X179105714Y-100408809D01*
X179058095Y-100599285D01*
X179010476Y-100694523D01*
X178915238Y-100789761D01*
X178772380Y-100837380D01*
X178534285Y-100837380D01*
X166748571Y-102828333D02*
X166700952Y-102780714D01*
X166605714Y-102637857D01*
X166558095Y-102542619D01*
X166510476Y-102399761D01*
X166462857Y-102161666D01*
X166462857Y-101971190D01*
X166510476Y-101733095D01*
X166558095Y-101590238D01*
X166605714Y-101495000D01*
X166700952Y-101352142D01*
X166748571Y-101304523D01*
X167129523Y-102447380D02*
X167129523Y-101447380D01*
X167129523Y-101828333D02*
X167224761Y-101780714D01*
X167415238Y-101780714D01*
X167510476Y-101828333D01*
X167558095Y-101875952D01*
X167605714Y-101971190D01*
X167605714Y-102256904D01*
X167558095Y-102352142D01*
X167510476Y-102399761D01*
X167415238Y-102447380D01*
X167224761Y-102447380D01*
X167129523Y-102399761D01*
X168415238Y-102399761D02*
X168320000Y-102447380D01*
X168129523Y-102447380D01*
X168034285Y-102399761D01*
X167986666Y-102304523D01*
X167986666Y-101923571D01*
X168034285Y-101828333D01*
X168129523Y-101780714D01*
X168320000Y-101780714D01*
X168415238Y-101828333D01*
X168462857Y-101923571D01*
X168462857Y-102018809D01*
X167986666Y-102114047D01*
X168843809Y-102399761D02*
X168939047Y-102447380D01*
X169129523Y-102447380D01*
X169224761Y-102399761D01*
X169272380Y-102304523D01*
X169272380Y-102256904D01*
X169224761Y-102161666D01*
X169129523Y-102114047D01*
X168986666Y-102114047D01*
X168891428Y-102066428D01*
X168843809Y-101971190D01*
X168843809Y-101923571D01*
X168891428Y-101828333D01*
X168986666Y-101780714D01*
X169129523Y-101780714D01*
X169224761Y-101828333D01*
X169558095Y-101780714D02*
X169939047Y-101780714D01*
X169700952Y-101447380D02*
X169700952Y-102304523D01*
X169748571Y-102399761D01*
X169843809Y-102447380D01*
X169939047Y-102447380D01*
X170891428Y-101780714D02*
X171272380Y-101780714D01*
X171034285Y-102447380D02*
X171034285Y-101590238D01*
X171081904Y-101495000D01*
X171177142Y-101447380D01*
X171272380Y-101447380D01*
X171605714Y-102447380D02*
X171605714Y-101780714D01*
X171605714Y-101447380D02*
X171558095Y-101495000D01*
X171605714Y-101542619D01*
X171653333Y-101495000D01*
X171605714Y-101447380D01*
X171605714Y-101542619D01*
X171939047Y-101780714D02*
X172320000Y-101780714D01*
X172081904Y-101447380D02*
X172081904Y-102304523D01*
X172129523Y-102399761D01*
X172224761Y-102447380D01*
X172320000Y-102447380D01*
X173939047Y-102447380D02*
X173367619Y-102447380D01*
X173653333Y-102447380D02*
X173653333Y-101447380D01*
X173558095Y-101590238D01*
X173462857Y-101685476D01*
X173367619Y-101733095D01*
X174320000Y-101542619D02*
X174367619Y-101495000D01*
X174462857Y-101447380D01*
X174700952Y-101447380D01*
X174796190Y-101495000D01*
X174843809Y-101542619D01*
X174891428Y-101637857D01*
X174891428Y-101733095D01*
X174843809Y-101875952D01*
X174272380Y-102447380D01*
X174891428Y-102447380D01*
X175462857Y-101875952D02*
X175367619Y-101828333D01*
X175320000Y-101780714D01*
X175272380Y-101685476D01*
X175272380Y-101637857D01*
X175320000Y-101542619D01*
X175367619Y-101495000D01*
X175462857Y-101447380D01*
X175653333Y-101447380D01*
X175748571Y-101495000D01*
X175796190Y-101542619D01*
X175843809Y-101637857D01*
X175843809Y-101685476D01*
X175796190Y-101780714D01*
X175748571Y-101828333D01*
X175653333Y-101875952D01*
X175462857Y-101875952D01*
X175367619Y-101923571D01*
X175320000Y-101971190D01*
X175272380Y-102066428D01*
X175272380Y-102256904D01*
X175320000Y-102352142D01*
X175367619Y-102399761D01*
X175462857Y-102447380D01*
X175653333Y-102447380D01*
X175748571Y-102399761D01*
X175796190Y-102352142D01*
X175843809Y-102256904D01*
X175843809Y-102066428D01*
X175796190Y-101971190D01*
X175748571Y-101923571D01*
X175653333Y-101875952D01*
X176177142Y-102447380D02*
X176700952Y-101780714D01*
X176177142Y-101780714D02*
X176700952Y-102447380D01*
X177510476Y-101447380D02*
X177320000Y-101447380D01*
X177224761Y-101495000D01*
X177177142Y-101542619D01*
X177081904Y-101685476D01*
X177034285Y-101875952D01*
X177034285Y-102256904D01*
X177081904Y-102352142D01*
X177129523Y-102399761D01*
X177224761Y-102447380D01*
X177415238Y-102447380D01*
X177510476Y-102399761D01*
X177558095Y-102352142D01*
X177605714Y-102256904D01*
X177605714Y-102018809D01*
X177558095Y-101923571D01*
X177510476Y-101875952D01*
X177415238Y-101828333D01*
X177224761Y-101828333D01*
X177129523Y-101875952D01*
X177081904Y-101923571D01*
X177034285Y-102018809D01*
X178462857Y-101780714D02*
X178462857Y-102447380D01*
X178224761Y-101399761D02*
X177986666Y-102114047D01*
X178605714Y-102114047D01*
X179748571Y-102447380D02*
X179748571Y-101447380D01*
X180081904Y-102161666D01*
X180415238Y-101447380D01*
X180415238Y-102447380D01*
X181034285Y-102447380D02*
X180939047Y-102399761D01*
X180891428Y-102352142D01*
X180843809Y-102256904D01*
X180843809Y-101971190D01*
X180891428Y-101875952D01*
X180939047Y-101828333D01*
X181034285Y-101780714D01*
X181177142Y-101780714D01*
X181272380Y-101828333D01*
X181320000Y-101875952D01*
X181367619Y-101971190D01*
X181367619Y-102256904D01*
X181320000Y-102352142D01*
X181272380Y-102399761D01*
X181177142Y-102447380D01*
X181034285Y-102447380D01*
X182224761Y-102447380D02*
X182224761Y-101447380D01*
X182224761Y-102399761D02*
X182129523Y-102447380D01*
X181939047Y-102447380D01*
X181843809Y-102399761D01*
X181796190Y-102352142D01*
X181748571Y-102256904D01*
X181748571Y-101971190D01*
X181796190Y-101875952D01*
X181843809Y-101828333D01*
X181939047Y-101780714D01*
X182129523Y-101780714D01*
X182224761Y-101828333D01*
X183129523Y-101780714D02*
X183129523Y-102447380D01*
X182700952Y-101780714D02*
X182700952Y-102304523D01*
X182748571Y-102399761D01*
X182843809Y-102447380D01*
X182986666Y-102447380D01*
X183081904Y-102399761D01*
X183129523Y-102352142D01*
X183748571Y-102447380D02*
X183653333Y-102399761D01*
X183605714Y-102304523D01*
X183605714Y-101447380D01*
X184510476Y-102399761D02*
X184415238Y-102447380D01*
X184224761Y-102447380D01*
X184129523Y-102399761D01*
X184081904Y-102304523D01*
X184081904Y-101923571D01*
X184129523Y-101828333D01*
X184224761Y-101780714D01*
X184415238Y-101780714D01*
X184510476Y-101828333D01*
X184558095Y-101923571D01*
X184558095Y-102018809D01*
X184081904Y-102114047D01*
X184891428Y-102828333D02*
X184939047Y-102780714D01*
X185034285Y-102637857D01*
X185081904Y-102542619D01*
X185129523Y-102399761D01*
X185177142Y-102161666D01*
X185177142Y-101971190D01*
X185129523Y-101733095D01*
X185081904Y-101590238D01*
X185034285Y-101495000D01*
X184939047Y-101352142D01*
X184891428Y-101304523D01*
X228168571Y-101960285D02*
X228168571Y-102331714D01*
X227940000Y-102131714D01*
X227940000Y-102217428D01*
X227911428Y-102274571D01*
X227882857Y-102303142D01*
X227825714Y-102331714D01*
X227682857Y-102331714D01*
X227625714Y-102303142D01*
X227597142Y-102274571D01*
X227568571Y-102217428D01*
X227568571Y-102046000D01*
X227597142Y-101988857D01*
X227625714Y-101960285D01*
X227568571Y-102617428D02*
X227568571Y-102731714D01*
X227597142Y-102788857D01*
X227625714Y-102817428D01*
X227711428Y-102874571D01*
X227825714Y-102903142D01*
X228054285Y-102903142D01*
X228111428Y-102874571D01*
X228140000Y-102846000D01*
X228168571Y-102788857D01*
X228168571Y-102674571D01*
X228140000Y-102617428D01*
X228111428Y-102588857D01*
X228054285Y-102560285D01*
X227911428Y-102560285D01*
X227854285Y-102588857D01*
X227825714Y-102617428D01*
X227797142Y-102674571D01*
X227797142Y-102788857D01*
X227825714Y-102846000D01*
X227854285Y-102874571D01*
X227911428Y-102903142D01*
X202711428Y-105576571D02*
X202740000Y-105605142D01*
X202768571Y-105662285D01*
X202768571Y-105805142D01*
X202740000Y-105862285D01*
X202711428Y-105890857D01*
X202654285Y-105919428D01*
X202597142Y-105919428D01*
X202511428Y-105890857D01*
X202168571Y-105548000D01*
X202168571Y-105919428D01*
X220548571Y-101960285D02*
X220548571Y-102331714D01*
X220320000Y-102131714D01*
X220320000Y-102217428D01*
X220291428Y-102274571D01*
X220262857Y-102303142D01*
X220205714Y-102331714D01*
X220062857Y-102331714D01*
X220005714Y-102303142D01*
X219977142Y-102274571D01*
X219948571Y-102217428D01*
X219948571Y-102046000D01*
X219977142Y-101988857D01*
X220005714Y-101960285D01*
X220491428Y-102560285D02*
X220520000Y-102588857D01*
X220548571Y-102646000D01*
X220548571Y-102788857D01*
X220520000Y-102846000D01*
X220491428Y-102874571D01*
X220434285Y-102903142D01*
X220377142Y-102903142D01*
X220291428Y-102874571D01*
X219948571Y-102531714D01*
X219948571Y-102903142D01*
%TO.C,G\u002A\u002A\u002A*%
G36*
X141802294Y-101619867D02*
G01*
X142127801Y-101405514D01*
X142181580Y-101384922D01*
X142494789Y-101194841D01*
X143291116Y-101194841D01*
X143341222Y-101472302D01*
X143571110Y-101797899D01*
X143866857Y-102093036D01*
X144306753Y-102427145D01*
X144675576Y-102559881D01*
X144959199Y-102488550D01*
X145093673Y-102326855D01*
X145172032Y-102059223D01*
X145098534Y-101782678D01*
X144854548Y-101456685D01*
X144560274Y-101166216D01*
X144142856Y-100834344D01*
X143816595Y-100703284D01*
X143558410Y-100768269D01*
X143405870Y-100927793D01*
X143291116Y-101194841D01*
X142494789Y-101194841D01*
X142520914Y-101178986D01*
X142551357Y-101160511D01*
X142783940Y-100802995D01*
X143057181Y-100409754D01*
X143434848Y-100159507D01*
X143744514Y-100097037D01*
X143816595Y-100043476D01*
X143880923Y-99995676D01*
X143899515Y-99900367D01*
X144513676Y-99900367D01*
X144578193Y-100210091D01*
X144844230Y-100597130D01*
X145057477Y-100827952D01*
X145490423Y-101206465D01*
X145842518Y-101374685D01*
X146127691Y-101337558D01*
X146243703Y-101249445D01*
X146374472Y-100999264D01*
X146309954Y-100689540D01*
X146043917Y-100302500D01*
X145830670Y-100071679D01*
X145397725Y-99693165D01*
X145045629Y-99524946D01*
X144760456Y-99562072D01*
X144644444Y-99650186D01*
X144513676Y-99900367D01*
X143899515Y-99900367D01*
X143915370Y-99819091D01*
X144014809Y-99509008D01*
X144261386Y-99205880D01*
X144577485Y-98985940D01*
X144829597Y-98921112D01*
X145045629Y-98853357D01*
X145113237Y-98832153D01*
X145475119Y-98588831D01*
X145626102Y-98458098D01*
X146448434Y-97843994D01*
X147346789Y-97431348D01*
X148288994Y-97225435D01*
X148772670Y-97228526D01*
X149242874Y-97231530D01*
X150176252Y-97454909D01*
X150608336Y-97641253D01*
X151366258Y-98142599D01*
X151963573Y-98788920D01*
X152392286Y-99546248D01*
X152644403Y-100380612D01*
X152711930Y-101258044D01*
X152586874Y-102144575D01*
X152261240Y-103006235D01*
X151981300Y-103475437D01*
X151578655Y-104060780D01*
X151796596Y-104393012D01*
X152115084Y-105063556D01*
X152303265Y-105862343D01*
X152357972Y-106719758D01*
X152276038Y-107566185D01*
X152054296Y-108332010D01*
X151982987Y-108489836D01*
X151490412Y-109245214D01*
X150847824Y-109845970D01*
X150090565Y-110282244D01*
X149253977Y-110544177D01*
X148373401Y-110621907D01*
X147484177Y-110505576D01*
X146621648Y-110185325D01*
X146381177Y-110052675D01*
X145929042Y-109787877D01*
X145455720Y-109518185D01*
X145218851Y-109386852D01*
X145094771Y-109302645D01*
X146384814Y-109302645D01*
X146482714Y-109399415D01*
X146736108Y-109551887D01*
X147002175Y-109685095D01*
X147779846Y-109930875D01*
X148593735Y-109983701D01*
X149396227Y-109855517D01*
X150139709Y-109558264D01*
X150776564Y-109103884D01*
X151175114Y-108638505D01*
X151568843Y-107906711D01*
X151756444Y-107159730D01*
X151764290Y-106388199D01*
X151698857Y-105863202D01*
X151577234Y-105398656D01*
X151376107Y-104955559D01*
X151072162Y-104494913D01*
X150642087Y-103977716D01*
X150062569Y-103364969D01*
X149797726Y-103098368D01*
X149285857Y-102589540D01*
X148915213Y-102229446D01*
X148661097Y-102000143D01*
X148498809Y-101883689D01*
X148403651Y-101862141D01*
X148350924Y-101917556D01*
X148318066Y-102023444D01*
X148257645Y-102421075D01*
X148304341Y-102786995D01*
X148478170Y-103163384D01*
X148799148Y-103592424D01*
X149287291Y-104116296D01*
X149333085Y-104162481D01*
X149748867Y-104588378D01*
X150016082Y-104887266D01*
X150158243Y-105092454D01*
X150198861Y-105237250D01*
X150167461Y-105344492D01*
X150050588Y-105489912D01*
X149792199Y-105772766D01*
X149418512Y-106165636D01*
X148955745Y-106641100D01*
X148430117Y-107171739D01*
X148215118Y-107386355D01*
X147681464Y-107921518D01*
X147209094Y-108403158D01*
X146822032Y-108806123D01*
X146544298Y-109105263D01*
X146399917Y-109275426D01*
X146384814Y-109302645D01*
X145094771Y-109302645D01*
X144822899Y-109118139D01*
X144608338Y-108826050D01*
X144569830Y-108720010D01*
X144413174Y-108419601D01*
X144113473Y-108214325D01*
X144005627Y-108168690D01*
X143648696Y-107967028D01*
X143415086Y-107653167D01*
X143351166Y-107513812D01*
X143180967Y-107206554D01*
X143006600Y-107046367D01*
X142961089Y-107036196D01*
X142635626Y-106928926D01*
X142337441Y-106655336D01*
X142128352Y-106281744D01*
X142078215Y-106089070D01*
X142030781Y-105934156D01*
X142636724Y-105934156D01*
X142702765Y-106140919D01*
X142806640Y-106262249D01*
X143038744Y-106413123D01*
X143182849Y-106447037D01*
X143327540Y-106367761D01*
X143604618Y-106148597D01*
X143981770Y-105817546D01*
X144426684Y-105402609D01*
X144743448Y-105094723D01*
X145323399Y-104533199D01*
X145766519Y-104134096D01*
X146092891Y-103884646D01*
X146322593Y-103772082D01*
X146475708Y-103783634D01*
X146572316Y-103906535D01*
X146580493Y-103926661D01*
X146540353Y-104072966D01*
X146348266Y-104343870D01*
X145996840Y-104748241D01*
X145478683Y-105294946D01*
X145222154Y-105556406D01*
X144701244Y-106087178D01*
X144327427Y-106480983D01*
X144079629Y-106765265D01*
X143936776Y-106967471D01*
X143877792Y-107115044D01*
X143881604Y-107235432D01*
X143896323Y-107283032D01*
X144099565Y-107532142D01*
X144328285Y-107603118D01*
X144472102Y-107597734D01*
X144636617Y-107532756D01*
X144850451Y-107385775D01*
X145142221Y-107134383D01*
X145540548Y-106756171D01*
X146039245Y-106263459D01*
X146622028Y-105694290D01*
X147062155Y-105292880D01*
X147371294Y-105049514D01*
X147561111Y-104954478D01*
X147608691Y-104956697D01*
X147771512Y-105096664D01*
X147795925Y-105181145D01*
X147716305Y-105312007D01*
X147496234Y-105575511D01*
X147163902Y-105940368D01*
X146747496Y-106375288D01*
X146443611Y-106682223D01*
X145833940Y-107307310D01*
X145406164Y-107785423D01*
X145159406Y-108117602D01*
X145091296Y-108288803D01*
X145181437Y-108594451D01*
X145400312Y-108832594D01*
X145642851Y-108916482D01*
X145774774Y-108837026D01*
X146039862Y-108618244D01*
X146407946Y-108289515D01*
X146848856Y-107880217D01*
X147332422Y-107419729D01*
X147828476Y-106937430D01*
X148306848Y-106462699D01*
X148737368Y-106024914D01*
X149089867Y-105653455D01*
X149334176Y-105377699D01*
X149440124Y-105227027D01*
X149442222Y-105216687D01*
X149363242Y-105080174D01*
X149152743Y-104828526D01*
X148850385Y-104507883D01*
X148727745Y-104385486D01*
X148373955Y-104020046D01*
X148071401Y-103675341D01*
X147873528Y-103413146D01*
X147845801Y-103366072D01*
X147710299Y-102945767D01*
X147681439Y-102460342D01*
X147747521Y-101976754D01*
X147896848Y-101561964D01*
X148117723Y-101282930D01*
X148219717Y-101225751D01*
X148403651Y-101189739D01*
X148418298Y-101186871D01*
X148637761Y-101235062D01*
X148907709Y-101389624D01*
X149257749Y-101669853D01*
X149717486Y-102095048D01*
X150047713Y-102417321D01*
X151182372Y-103537957D01*
X151535811Y-103050048D01*
X151913218Y-102340494D01*
X152094125Y-101563190D01*
X152088706Y-100761251D01*
X151907134Y-99977793D01*
X151559582Y-99255935D01*
X151056224Y-98638793D01*
X150407232Y-98169483D01*
X150381025Y-98155758D01*
X149613566Y-97885614D01*
X148772670Y-97809488D01*
X147906646Y-97920173D01*
X147063802Y-98210466D01*
X146292447Y-98673161D01*
X146149713Y-98786832D01*
X145738224Y-99130378D01*
X146355500Y-99783058D01*
X146686420Y-100152911D01*
X146875819Y-100429319D01*
X146958944Y-100673966D01*
X146972777Y-100863396D01*
X146885729Y-101243543D01*
X146663453Y-101602631D01*
X146364258Y-101870873D01*
X146046448Y-101978484D01*
X146041082Y-101978519D01*
X145839829Y-102055712D01*
X145796851Y-102222750D01*
X145704855Y-102485090D01*
X145478515Y-102777278D01*
X145192301Y-103024088D01*
X144920685Y-103150296D01*
X144874500Y-103154445D01*
X144668435Y-103246582D01*
X144565373Y-103492455D01*
X144362189Y-103915475D01*
X143995730Y-104246238D01*
X143650787Y-104393198D01*
X143395435Y-104525427D01*
X143327407Y-104679727D01*
X143257597Y-104890381D01*
X143080899Y-105186564D01*
X142974629Y-105329908D01*
X142723925Y-105682801D01*
X142636724Y-105934156D01*
X142030781Y-105934156D01*
X141968949Y-105732221D01*
X141799037Y-105565199D01*
X141624234Y-105452641D01*
X141344793Y-105212546D01*
X141014068Y-104891594D01*
X140931590Y-104806254D01*
X140592491Y-104435459D01*
X140392457Y-104164213D01*
X140297238Y-103933092D01*
X140272583Y-103682670D01*
X140272614Y-103662943D01*
X140291782Y-103533596D01*
X140870481Y-103533596D01*
X140927138Y-103827342D01*
X141176900Y-104202020D01*
X141339178Y-104387312D01*
X141726408Y-104766629D01*
X142034786Y-104961945D01*
X142304846Y-104991890D01*
X142499817Y-104920711D01*
X142714024Y-104700606D01*
X142720176Y-104391859D01*
X142521486Y-104009159D01*
X142225750Y-103668139D01*
X141781240Y-103302871D01*
X141398522Y-103154675D01*
X141084495Y-103225648D01*
X140999074Y-103295556D01*
X140870481Y-103533596D01*
X140291782Y-103533596D01*
X140327633Y-103291679D01*
X140458673Y-102979277D01*
X140478401Y-102951788D01*
X140741527Y-102720039D01*
X141034351Y-102567222D01*
X141155010Y-102486716D01*
X142064188Y-102486716D01*
X142207578Y-102759196D01*
X142528800Y-103115153D01*
X142673609Y-103254980D01*
X143033178Y-103587151D01*
X143272912Y-103774543D01*
X143439823Y-103838133D01*
X143580920Y-103798899D01*
X143700074Y-103713010D01*
X143910695Y-103484211D01*
X143950676Y-103243463D01*
X143812555Y-102949908D01*
X143490206Y-102564118D01*
X143084940Y-102165556D01*
X142773055Y-101950728D01*
X142520914Y-101905432D01*
X142294881Y-102015464D01*
X142260647Y-102044942D01*
X142086065Y-102260902D01*
X142064188Y-102486716D01*
X141155010Y-102486716D01*
X141363310Y-102347735D01*
X141398522Y-102289079D01*
X141578744Y-101988865D01*
X141802294Y-101619867D01*
G37*
D11*
%TO.C,D1*%
X160314955Y-117934158D02*
X155808439Y-117931790D01*
X160314955Y-117934158D02*
G75*
G03*
X155808439Y-117931790I-2252689J1084157D01*
G01*
%TO.C,J5*%
X170630000Y-92780000D02*
X170630000Y-90120000D01*
X170630000Y-92780000D02*
X180910000Y-92780000D01*
X180910000Y-92780000D02*
X180910000Y-90120000D01*
X170630000Y-90120000D02*
X180910000Y-90120000D01*
%TO.C,R1*%
X116610000Y-110390000D02*
X116610000Y-110720000D01*
X123150000Y-110720000D02*
X123150000Y-110390000D01*
X116610000Y-110720000D02*
X123150000Y-110720000D01*
X123150000Y-107980000D02*
X123150000Y-108310000D01*
X116610000Y-108310000D02*
X116610000Y-107980000D01*
X116610000Y-107980000D02*
X123150000Y-107980000D01*
%TO.C,J1*%
X104570000Y-90120000D02*
X104570000Y-92780000D01*
X152940800Y-92780000D02*
X104570000Y-92780000D01*
X152940800Y-90120000D02*
X152940800Y-92780000D01*
X152940800Y-90120000D02*
X104570000Y-90120000D01*
%TO.C,J2*%
X104570000Y-115120000D02*
X104570000Y-117780000D01*
X152940800Y-115120000D02*
X104570000Y-115120000D01*
X152940800Y-117780000D02*
X104570000Y-117780000D01*
X152940800Y-115120000D02*
X152940800Y-117780000D01*
%TD*%
M02*
